<svg width="1920" height="1080" viewBox="0 0 1920 1080" fill="none" xmlns="http://www.w3.org/2000/svg">
<rect width="1920" height="1080" fill="#9FE8FF"/>
<path d="M1092.94 309.468C1102.77 309.468 1111.39 311.389 1118.8 315.23C1126.31 319.071 1132.07 324.565 1136.09 331.712C1140.2 338.769 1142.25 346.988 1142.25 356.368C1142.25 365.748 1140.2 373.967 1136.09 381.024C1132.07 387.992 1126.31 393.397 1118.8 397.238C1111.39 401.079 1102.77 403 1092.94 403H1060.25V309.468H1092.94ZM1092.27 387.054C1102.1 387.054 1109.69 384.374 1115.05 379.014C1120.41 373.654 1123.09 366.105 1123.09 356.368C1123.09 346.631 1120.41 339.037 1115.05 333.588C1109.69 328.049 1102.1 325.28 1092.27 325.28H1079.01V387.054H1092.27Z" fill="#04599C"/>
<path d="M1151.47 365.614C1151.47 358.11 1152.95 351.455 1155.89 345.648C1158.93 339.841 1163 335.375 1168.09 332.248C1173.27 329.121 1179.03 327.558 1185.37 327.558C1190.91 327.558 1195.74 328.675 1199.85 330.908C1204.05 333.141 1207.4 335.955 1209.9 339.35V328.764H1228.79V403H1209.9V392.146C1207.48 395.63 1204.13 398.533 1199.85 400.856C1195.65 403.089 1190.78 404.206 1185.24 404.206C1178.99 404.206 1173.27 402.598 1168.09 399.382C1163 396.166 1158.93 391.655 1155.89 385.848C1152.95 379.952 1151.47 373.207 1151.47 365.614ZM1209.9 365.882C1209.9 361.326 1209 357.44 1207.22 354.224C1205.43 350.919 1203.02 348.417 1199.98 346.72C1196.94 344.933 1193.68 344.04 1190.2 344.04C1186.71 344.04 1183.5 344.889 1180.55 346.586C1177.6 348.283 1175.19 350.785 1173.31 354.09C1171.53 357.306 1170.63 361.147 1170.63 365.614C1170.63 370.081 1171.53 374.011 1173.31 377.406C1175.19 380.711 1177.6 383.257 1180.55 385.044C1183.59 386.831 1186.8 387.724 1190.2 387.724C1193.68 387.724 1196.94 386.875 1199.98 385.178C1203.02 383.391 1205.43 380.89 1207.22 377.674C1209 374.369 1209.9 370.438 1209.9 365.882Z" fill="#04599C"/>
<path d="M1265.87 340.288C1268.29 336.357 1271.41 333.275 1275.25 331.042C1279.18 328.809 1283.65 327.692 1288.65 327.692V347.39H1283.7C1277.8 347.39 1273.33 348.775 1270.3 351.544C1267.35 354.313 1265.87 359.137 1265.87 366.016V403H1247.11V328.764H1265.87V340.288Z" fill="#04599C"/>
<path d="M1323.13 344.174V380.086C1323.13 382.587 1323.71 384.419 1324.87 385.58C1326.12 386.652 1328.18 387.188 1331.04 387.188H1339.75V403H1327.96C1312.14 403 1304.24 395.317 1304.24 379.952V344.174H1295.39V328.764H1304.24V310.406H1323.13V328.764H1339.75V344.174H1323.13Z" fill="#04599C"/>
<path d="M1079.01 525.61V549.06H1110.5V563.934H1079.01V588.724H1114.52V604H1060.25V510.334H1114.52V525.61H1079.01Z" fill="#04599C"/>
<path d="M1172.57 604L1157.29 580.952L1143.76 604H1123.66L1147.91 566.748L1123.39 529.764H1144.56L1159.7 552.678L1173.37 529.764H1193.47L1169.08 566.748L1193.74 604H1172.57Z" fill="#04599C"/>
<path d="M1225.77 545.174V581.086C1225.77 583.587 1226.35 585.419 1227.51 586.58C1228.76 587.652 1230.82 588.188 1233.68 588.188H1242.39V604H1230.6C1214.78 604 1206.88 596.317 1206.88 580.952V545.174H1198.03V529.764H1206.88V511.406H1225.77V529.764H1242.39V545.174H1225.77Z" fill="#04599C"/>
<path d="M1324.89 565.274C1324.89 567.954 1324.71 570.366 1324.35 572.51H1270.08C1270.53 577.87 1272.41 582.069 1275.71 585.106C1279.02 588.143 1283.08 589.662 1287.91 589.662C1294.87 589.662 1299.83 586.669 1302.78 580.684H1323.01C1320.87 587.831 1316.76 593.727 1310.69 598.372C1304.61 602.928 1297.15 605.206 1288.31 605.206C1281.16 605.206 1274.73 603.643 1269.01 600.516C1263.38 597.3 1258.96 592.789 1255.75 586.982C1252.62 581.175 1251.06 574.475 1251.06 566.882C1251.06 559.199 1252.62 552.455 1255.75 546.648C1258.87 540.841 1263.25 536.375 1268.88 533.248C1274.51 530.121 1280.98 528.558 1288.31 528.558C1295.37 528.558 1301.66 530.077 1307.2 533.114C1312.83 536.151 1317.16 540.484 1320.2 546.112C1323.33 551.651 1324.89 558.038 1324.89 565.274ZM1305.46 559.914C1305.37 555.09 1303.63 551.249 1300.23 548.39C1296.84 545.442 1292.69 543.968 1287.77 543.968C1283.13 543.968 1279.2 545.397 1275.98 548.256C1272.85 551.025 1270.93 554.911 1270.22 559.914H1305.46Z" fill="#04599C"/>
<path d="M1379.72 528.692C1388.57 528.692 1395.71 531.506 1401.16 537.134C1406.61 542.673 1409.34 550.445 1409.34 560.45V604H1390.58V562.996C1390.58 557.1 1389.1 552.589 1386.15 549.462C1383.21 546.246 1379.19 544.638 1374.09 544.638C1368.91 544.638 1364.8 546.246 1361.77 549.462C1358.82 552.589 1357.34 557.1 1357.34 562.996V604H1338.58V529.764H1357.34V539.01C1359.85 535.794 1363.02 533.293 1366.86 531.506C1370.79 529.63 1375.08 528.692 1379.72 528.692Z" fill="#04599C"/>
<path d="M1455.58 605.206C1449.51 605.206 1444.06 604.134 1439.24 601.99C1434.41 599.757 1430.57 596.764 1427.71 593.012C1424.94 589.26 1423.42 585.106 1423.16 580.55H1442.05C1442.41 583.409 1443.79 585.776 1446.2 587.652C1448.71 589.528 1451.79 590.466 1455.45 590.466C1459.02 590.466 1461.79 589.751 1463.76 588.322C1465.81 586.893 1466.84 585.061 1466.84 582.828C1466.84 580.416 1465.59 578.629 1463.09 577.468C1460.68 576.217 1456.79 574.877 1451.43 573.448C1445.89 572.108 1441.34 570.723 1437.76 569.294C1434.28 567.865 1431.24 565.676 1428.65 562.728C1426.15 559.78 1424.9 555.805 1424.9 550.802C1424.9 546.693 1426.06 542.941 1428.38 539.546C1430.79 536.151 1434.19 533.471 1438.57 531.506C1443.03 529.541 1448.26 528.558 1454.24 528.558C1463.09 528.558 1470.15 530.791 1475.42 535.258C1480.69 539.635 1483.59 545.576 1484.13 553.08H1466.17C1465.9 550.132 1464.65 547.809 1462.42 546.112C1460.27 544.325 1457.37 543.432 1453.71 543.432C1450.31 543.432 1447.68 544.057 1445.8 545.308C1444.02 546.559 1443.12 548.301 1443.12 550.534C1443.12 553.035 1444.37 554.956 1446.87 556.296C1449.38 557.547 1453.26 558.842 1458.53 560.182C1463.89 561.522 1468.31 562.907 1471.8 564.336C1475.28 565.765 1478.27 567.999 1480.78 571.036C1483.37 573.984 1484.71 577.915 1484.8 582.828C1484.8 587.116 1483.59 590.957 1481.18 594.352C1478.86 597.747 1475.46 600.427 1470.99 602.392C1466.62 604.268 1461.48 605.206 1455.58 605.206Z" fill="#04599C"/>
<path d="M1509.71 520.92C1506.4 520.92 1503.63 519.893 1501.4 517.838C1499.26 515.694 1498.19 513.059 1498.19 509.932C1498.19 506.805 1499.26 504.215 1501.4 502.16C1503.63 500.016 1506.4 498.944 1509.71 498.944C1513.01 498.944 1515.74 500.016 1517.88 502.16C1520.12 504.215 1521.23 506.805 1521.23 509.932C1521.23 513.059 1520.12 515.694 1517.88 517.838C1515.74 519.893 1513.01 520.92 1509.71 520.92ZM1518.96 529.764V604H1500.2V529.764H1518.96Z" fill="#04599C"/>
<path d="M1570.45 605.206C1563.31 605.206 1556.88 603.643 1551.16 600.516C1545.44 597.3 1540.93 592.789 1537.62 586.982C1534.41 581.175 1532.8 574.475 1532.8 566.882C1532.8 559.289 1534.45 552.589 1537.76 546.782C1541.15 540.975 1545.75 536.509 1551.56 533.382C1557.37 530.166 1563.84 528.558 1570.99 528.558C1578.14 528.558 1584.61 530.166 1590.42 533.382C1596.23 536.509 1600.78 540.975 1604.09 546.782C1607.48 552.589 1609.18 559.289 1609.18 566.882C1609.18 574.475 1607.44 581.175 1603.95 586.982C1600.56 592.789 1595.91 597.3 1590.02 600.516C1584.21 603.643 1577.69 605.206 1570.45 605.206ZM1570.45 588.858C1573.85 588.858 1577.02 588.054 1579.97 586.446C1583.01 584.749 1585.42 582.247 1587.2 578.942C1588.99 575.637 1589.88 571.617 1589.88 566.882C1589.88 559.825 1588.01 554.42 1584.26 550.668C1580.59 546.827 1576.08 544.906 1570.72 544.906C1565.36 544.906 1560.85 546.827 1557.19 550.668C1553.61 554.42 1551.83 559.825 1551.83 566.882C1551.83 573.939 1553.57 579.389 1557.05 583.23C1560.63 586.982 1565.09 588.858 1570.45 588.858Z" fill="#04599C"/>
<path d="M1664.08 528.692C1672.92 528.692 1680.07 531.506 1685.52 537.134C1690.97 542.673 1693.69 550.445 1693.69 560.45V604H1674.93V562.996C1674.93 557.1 1673.46 552.589 1670.51 549.462C1667.56 546.246 1663.54 544.638 1658.45 544.638C1653.27 544.638 1649.16 546.246 1646.12 549.462C1643.18 552.589 1641.7 557.1 1641.7 562.996V604H1622.94V529.764H1641.7V539.01C1644.2 535.794 1647.37 533.293 1651.22 531.506C1655.15 529.63 1659.43 528.692 1664.08 528.692Z" fill="#04599C"/>
<path d="M1162.22 711.468V805H1143.46V744.164L1118.4 805H1104.2L1079.01 744.164V805H1060.25V711.468H1081.55L1111.3 781.014L1141.05 711.468H1162.22Z" fill="#04599C"/>
<path d="M1249.78 766.274C1249.78 768.954 1249.6 771.366 1249.24 773.51H1194.97C1195.42 778.87 1197.29 783.069 1200.6 786.106C1203.9 789.143 1207.97 790.662 1212.79 790.662C1219.76 790.662 1224.72 787.669 1227.67 781.684H1247.9C1245.76 788.831 1241.65 794.727 1235.57 799.372C1229.5 803.928 1222.04 806.206 1213.2 806.206C1206.05 806.206 1199.62 804.643 1193.9 801.516C1188.27 798.3 1183.85 793.789 1180.63 787.982C1177.51 782.175 1175.94 775.475 1175.94 767.882C1175.94 760.199 1177.51 753.455 1180.63 747.648C1183.76 741.841 1188.14 737.375 1193.77 734.248C1199.39 731.121 1205.87 729.558 1213.2 729.558C1220.25 729.558 1226.55 731.077 1232.09 734.114C1237.72 737.151 1242.05 741.484 1245.09 747.112C1248.21 752.651 1249.78 759.038 1249.78 766.274ZM1230.35 760.914C1230.26 756.09 1228.52 752.249 1225.12 749.39C1221.73 746.442 1217.57 744.968 1212.66 744.968C1208.01 744.968 1204.08 746.397 1200.87 749.256C1197.74 752.025 1195.82 755.911 1195.11 760.914H1230.35Z" fill="#04599C"/>
<path d="M1285.31 746.174V782.086C1285.31 784.587 1285.89 786.419 1287.05 787.58C1288.31 788.652 1290.36 789.188 1293.22 789.188H1301.93V805H1290.14C1274.32 805 1266.42 797.317 1266.42 781.952V746.174H1257.57V730.764H1266.42V712.406H1285.31V730.764H1301.93V746.174H1285.31Z" fill="#04599C"/>
<path d="M1357.23 729.692C1362.86 729.692 1367.86 730.943 1372.24 733.444C1376.62 735.856 1380.01 739.474 1382.42 744.298C1384.92 749.033 1386.17 754.75 1386.17 761.45V805H1367.41V763.996C1367.41 758.1 1365.94 753.589 1362.99 750.462C1360.04 747.246 1356.02 745.638 1350.93 745.638C1345.75 745.638 1341.64 747.246 1338.6 750.462C1335.66 753.589 1334.18 758.1 1334.18 763.996V805H1315.42V705.84H1334.18V740.01C1336.59 736.794 1339.81 734.293 1343.83 732.506C1347.85 730.63 1352.32 729.692 1357.23 729.692Z" fill="#04599C"/>
<path d="M1436.98 806.206C1429.83 806.206 1423.4 804.643 1417.68 801.516C1411.96 798.3 1407.45 793.789 1404.15 787.982C1400.93 782.175 1399.32 775.475 1399.32 767.882C1399.32 760.289 1400.98 753.589 1404.28 747.782C1407.68 741.975 1412.28 737.509 1418.08 734.382C1423.89 731.166 1430.37 729.558 1437.51 729.558C1444.66 729.558 1451.14 731.166 1456.94 734.382C1462.75 737.509 1467.31 741.975 1470.61 747.782C1474.01 753.589 1475.7 760.289 1475.7 767.882C1475.7 775.475 1473.96 782.175 1470.48 787.982C1467.08 793.789 1462.44 798.3 1456.54 801.516C1450.74 804.643 1444.21 806.206 1436.98 806.206ZM1436.98 789.858C1440.37 789.858 1443.54 789.054 1446.49 787.446C1449.53 785.749 1451.94 783.247 1453.73 779.942C1455.51 776.637 1456.41 772.617 1456.41 767.882C1456.41 760.825 1454.53 755.42 1450.78 751.668C1447.12 747.827 1442.61 745.906 1437.25 745.906C1431.89 745.906 1427.37 747.827 1423.71 751.668C1420.14 755.42 1418.35 760.825 1418.35 767.882C1418.35 774.939 1420.09 780.389 1423.58 784.23C1427.15 787.982 1431.62 789.858 1436.98 789.858Z" fill="#04599C"/>
<path d="M1484.64 767.614C1484.64 760.11 1486.11 753.455 1489.06 747.648C1492.1 741.841 1496.21 737.375 1501.39 734.248C1506.57 731.121 1512.33 729.558 1518.68 729.558C1523.5 729.558 1528.1 730.63 1532.48 732.774C1536.86 734.829 1540.34 737.598 1542.93 741.082V705.84H1561.96V805H1542.93V794.012C1540.61 797.675 1537.35 800.623 1533.15 802.856C1528.95 805.089 1524.08 806.206 1518.54 806.206C1512.29 806.206 1506.57 804.598 1501.39 801.382C1496.21 798.166 1492.1 793.655 1489.06 787.848C1486.11 781.952 1484.64 775.207 1484.64 767.614ZM1543.06 767.882C1543.06 763.326 1542.17 759.44 1540.38 756.224C1538.6 752.919 1536.19 750.417 1533.15 748.72C1530.11 746.933 1526.85 746.04 1523.37 746.04C1519.88 746.04 1516.67 746.889 1513.72 748.586C1510.77 750.283 1508.36 752.785 1506.48 756.09C1504.7 759.306 1503.8 763.147 1503.8 767.614C1503.8 772.081 1504.7 776.011 1506.48 779.406C1508.36 782.711 1510.77 785.257 1513.72 787.044C1516.76 788.831 1519.97 789.724 1523.37 789.724C1526.85 789.724 1530.11 788.875 1533.15 787.178C1536.19 785.391 1538.6 782.89 1540.38 779.674C1542.17 776.369 1543.06 772.438 1543.06 767.882Z" fill="#04599C"/>
<path d="M1608.69 806.206C1602.61 806.206 1597.17 805.134 1592.34 802.99C1587.52 800.757 1583.68 797.764 1580.82 794.012C1578.05 790.26 1576.53 786.106 1576.26 781.55H1595.16C1595.51 784.409 1596.9 786.776 1599.31 788.652C1601.81 790.528 1604.89 791.466 1608.56 791.466C1612.13 791.466 1614.9 790.751 1616.86 789.322C1618.92 787.893 1619.95 786.061 1619.95 783.828C1619.95 781.416 1618.69 779.629 1616.19 778.468C1613.78 777.217 1609.9 775.877 1604.54 774.448C1599 773.108 1594.44 771.723 1590.87 770.294C1587.38 768.865 1584.35 766.676 1581.76 763.728C1579.25 760.78 1578 756.805 1578 751.802C1578 747.693 1579.16 743.941 1581.49 740.546C1583.9 737.151 1587.29 734.471 1591.67 732.506C1596.14 730.541 1601.36 729.558 1607.35 729.558C1616.19 729.558 1623.25 731.791 1628.52 736.258C1633.79 740.635 1636.7 746.576 1637.23 754.08H1619.28C1619.01 751.132 1617.76 748.809 1615.52 747.112C1613.38 745.325 1610.48 744.432 1606.81 744.432C1603.42 744.432 1600.78 745.057 1598.91 746.308C1597.12 747.559 1596.23 749.301 1596.23 751.534C1596.23 754.035 1597.48 755.956 1599.98 757.296C1602.48 758.547 1606.37 759.842 1611.64 761.182C1617 762.522 1621.42 763.907 1624.9 765.336C1628.39 766.765 1631.38 768.999 1633.88 772.036C1636.47 774.984 1637.81 778.915 1637.9 783.828C1637.9 788.116 1636.7 791.957 1634.28 795.352C1631.96 798.747 1628.57 801.427 1624.1 803.392C1619.72 805.268 1614.59 806.206 1608.69 806.206Z" fill="#04599C"/>
<path d="M483.16 706.84L380.685 604.364C368.53 591.901 361 574.286 361 557.068C361 549.097 365.492 536.634 368.883 529.5L463.476 332.476L483.16 706.84Z" fill="#01579B"/>
<path d="M833.921 352.16L731.446 249.685C722.506 240.701 703.878 230 688.113 230C674.549 230 661.25 232.73 652.662 237.883L463.521 332.476L833.921 352.16Z" fill="#40C4FF"/>
<path d="M605.323 829H853.607V722.605L668.385 663.463L498.928 722.605L605.323 829Z" fill="#40C4FF"/>
<path d="M463.474 651.66C463.474 683.279 467.437 691.03 483.158 706.84L498.924 722.605H853.603L680.227 525.581L463.474 332.476V651.66Z" fill="#29B6F6"/>
<path d="M778.739 332.432H463.474L853.603 722.561H959.998V478.24L833.874 352.116C816.171 334.369 800.45 332.432 778.739 332.432Z" fill="#01579B"/>
<path opacity="0.2" d="M487.124 710.759C471.359 694.949 467.44 679.36 467.44 651.66V336.395L463.52 332.476V651.66C463.476 679.36 463.476 687.023 487.124 710.759Z" fill="white"/>
<path opacity="0.2" d="M956.079 474.321V718.642H849.685L853.604 722.605H959.999V478.24L956.079 474.321Z" fill="#263238"/>
<path opacity="0.2" d="M833.921 352.16C814.368 332.608 798.383 332.476 774.823 332.476H463.521L467.44 336.395H774.823C786.581 336.395 816.262 334.413 833.921 352.16Z" fill="white"/>
<path opacity="0.2" d="M956.08 474.321L833.919 352.16L731.444 249.685C722.504 240.701 703.876 230 688.111 230C674.547 230 661.248 232.73 652.66 237.883L463.519 332.476L368.926 529.5C365.535 536.678 361.043 549.141 361.043 557.068C361.043 574.286 368.617 591.857 380.728 604.364L475.145 698.12C477.39 700.895 480.033 703.713 483.159 706.84L487.079 710.759L498.881 722.561L601.356 825.037L605.276 828.956H849.597H853.516V722.561H959.911V722.297V478.24L956.08 474.321Z" fill="url(#paint0_radial_101_2)"/>
<rect x="191" y="139" width="183" height="183" stroke="#03599C" stroke-width="4"/>
<rect x="1569" y="831" width="123" height="123" stroke="#2DB7F6" stroke-width="4"/>
<path d="M847.455 988.25L921.5 860L995.545 988.25H847.455Z" stroke="#065A9D" stroke-width="4"/>
<path d="M925.613 258L1033 72L1140.39 258H925.613Z" stroke="#2CB7F6" stroke-width="4"/>
<circle cx="381" cy="856" r="98" stroke="#02589C" stroke-width="4"/>
<circle cx="1754" cy="304" r="70" stroke="#2CB7F6" stroke-width="4"/>
<defs>
<radialGradient id="paint0_radial_101_2" cx="0" cy="0" r="1" gradientUnits="userSpaceOnUse" gradientTransform="translate(660.477 529.488) scale(299.456 299.456)">
<stop stop-color="white" stop-opacity="0.1"/>
<stop offset="1" stop-color="white" stop-opacity="0"/>
</radialGradient>
</defs>
</svg>
