<svg width="1920" height="1080" viewBox="0 0 1920 1080" fill="none" xmlns="http://www.w3.org/2000/svg">
<rect width="1920" height="1080" fill="#EC5F2A"/>
<path d="M556.178 585.572C551.926 585.572 548.068 584.772 544.603 583.17C541.137 581.539 538.386 579.195 536.347 576.138C534.309 573.051 533.29 569.324 533.29 564.956C533.29 561.112 534.047 557.996 535.561 555.609C537.075 553.192 539.099 551.299 541.632 549.93C544.166 548.562 546.961 547.543 550.019 546.873C553.105 546.174 556.207 545.621 559.322 545.213C563.399 544.689 566.704 544.296 569.238 544.034C571.8 543.743 573.664 543.262 574.828 542.592C576.022 541.923 576.619 540.758 576.619 539.098V538.749C576.619 534.439 575.44 531.09 573.081 528.702C570.752 526.315 567.214 525.121 562.467 525.121C557.546 525.121 553.688 526.198 550.892 528.353C548.097 530.508 546.131 532.808 544.996 535.254L535.212 531.76C536.959 527.683 539.288 524.509 542.2 522.238C545.141 519.937 548.344 518.336 551.81 517.433C555.304 516.501 558.74 516.036 562.118 516.036C564.273 516.036 566.748 516.298 569.543 516.822C572.368 517.317 575.091 518.35 577.711 519.923C580.361 521.495 582.56 523.869 584.307 527.043C586.054 530.217 586.928 534.468 586.928 539.797V584H576.619V574.915H576.095C575.396 576.371 574.232 577.929 572.601 579.588C570.97 581.248 568.801 582.661 566.093 583.825C563.385 584.99 560.08 585.572 556.178 585.572ZM557.75 576.312C561.827 576.312 565.263 575.512 568.058 573.91C570.883 572.309 573.009 570.241 574.435 567.708C575.891 565.174 576.619 562.51 576.619 559.714V550.28C576.183 550.804 575.222 551.284 573.737 551.721C572.281 552.129 570.592 552.493 568.67 552.813C566.777 553.104 564.928 553.366 563.123 553.599C561.346 553.803 559.905 553.978 558.798 554.124C556.119 554.473 553.615 555.041 551.286 555.827C548.985 556.584 547.121 557.734 545.695 559.278C544.297 560.792 543.598 562.859 543.598 565.48C543.598 569.062 544.923 571.77 547.573 573.604C550.252 575.41 553.644 576.312 557.75 576.312ZM605.742 609.159V516.909H615.701V527.567H616.924C617.681 526.402 618.729 524.917 620.069 523.112C621.438 521.277 623.389 519.646 625.922 518.219C628.484 516.763 631.95 516.036 636.318 516.036C641.967 516.036 646.946 517.448 651.256 520.272C655.565 523.097 658.929 527.101 661.346 532.284C663.763 537.467 664.971 543.582 664.971 550.629C664.971 557.734 663.763 563.893 661.346 569.105C658.929 574.289 655.58 578.307 651.299 581.161C647.019 583.985 642.083 585.398 636.492 585.398C632.183 585.398 628.732 584.684 626.14 583.257C623.549 581.801 621.554 580.156 620.156 578.322C618.759 576.458 617.681 574.915 616.924 573.692H616.051V609.159H605.742ZM615.876 550.455C615.876 555.521 616.618 559.991 618.103 563.864C619.589 567.708 621.758 570.722 624.612 572.906C627.465 575.06 630.96 576.138 635.095 576.138C639.404 576.138 643 575.002 645.883 572.731C648.795 570.43 650.979 567.344 652.435 563.471C653.92 559.569 654.663 555.23 654.663 550.455C654.663 545.737 653.935 541.486 652.479 537.7C651.052 533.886 648.883 530.872 645.971 528.659C643.088 526.417 639.462 525.295 635.095 525.295C630.901 525.295 627.378 526.358 624.524 528.484C621.671 530.581 619.516 533.522 618.06 537.307C616.604 541.064 615.876 545.446 615.876 550.455ZM680.695 609.159V516.909H690.654V527.567H691.877C692.634 526.402 693.683 524.917 695.022 523.112C696.391 521.277 698.342 519.646 700.875 518.219C703.438 516.763 706.903 516.036 711.271 516.036C716.92 516.036 721.899 517.448 726.209 520.272C730.519 523.097 733.882 527.101 736.299 532.284C738.716 537.467 739.924 543.582 739.924 550.629C739.924 557.734 738.716 563.893 736.299 569.105C733.882 574.289 730.533 578.307 726.253 581.161C721.972 583.985 717.036 585.398 711.445 585.398C707.136 585.398 703.685 584.684 701.093 583.257C698.502 581.801 696.507 580.156 695.109 578.322C693.712 576.458 692.634 574.915 691.877 573.692H691.004V609.159H680.695ZM690.829 550.455C690.829 555.521 691.571 559.991 693.057 563.864C694.542 567.708 696.711 570.722 699.565 572.906C702.418 575.06 705.913 576.138 710.048 576.138C714.357 576.138 717.954 575.002 720.836 572.731C723.748 570.43 725.932 567.344 727.388 563.471C728.873 559.569 729.616 555.23 729.616 550.455C729.616 545.737 728.888 541.486 727.432 537.7C726.005 533.886 723.836 530.872 720.924 528.659C718.041 526.417 714.416 525.295 710.048 525.295C705.854 525.295 702.331 526.358 699.477 528.484C696.624 530.581 694.469 533.522 693.013 537.307C691.557 541.064 690.829 545.446 690.829 550.455ZM768.567 584L748.125 516.909H758.957L773.459 568.276H774.157L788.484 516.909H799.491L813.643 568.101H814.342L828.844 516.909H839.676L819.234 584H809.101L794.425 532.459H793.376L778.7 584H768.567ZM853.304 584V516.909H863.263V527.043H863.961C865.184 523.723 867.398 521.029 870.601 518.962C873.804 516.895 877.415 515.861 881.433 515.861C882.19 515.861 883.137 515.875 884.272 515.904C885.408 515.934 886.267 515.977 886.849 516.036V526.518C886.5 526.431 885.699 526.3 884.447 526.125C883.224 525.922 881.928 525.82 880.559 525.82C877.298 525.82 874.386 526.504 871.824 527.873C869.29 529.212 867.281 531.076 865.796 533.463C864.34 535.822 863.612 538.516 863.612 541.544V584H853.304ZM899.068 584V516.909H909.377V584H899.068ZM904.31 505.727C902.301 505.727 900.568 505.043 899.112 503.674C897.685 502.306 896.972 500.661 896.972 498.739C896.972 496.817 897.685 495.172 899.112 493.803C900.568 492.434 902.301 491.75 904.31 491.75C906.319 491.75 908.037 492.434 909.464 493.803C910.92 495.172 911.648 496.817 911.648 498.739C911.648 500.661 910.92 502.306 909.464 503.674C908.037 505.043 906.319 505.727 904.31 505.727ZM957.434 516.909V525.645H922.666V516.909H957.434ZM932.8 500.835H943.108V564.781C943.108 567.693 943.53 569.877 944.374 571.333C945.248 572.76 946.355 573.721 947.694 574.216C949.063 574.682 950.504 574.915 952.018 574.915C953.154 574.915 954.086 574.857 954.814 574.74C955.542 574.594 956.124 574.478 956.561 574.391L958.657 583.651C957.959 583.913 956.983 584.175 955.731 584.437C954.479 584.728 952.892 584.874 950.97 584.874C948.058 584.874 945.204 584.248 942.409 582.995C939.643 581.743 937.342 579.836 935.508 577.273C933.702 574.711 932.8 571.479 932.8 567.577V500.835ZM1000.35 585.398C993.885 585.398 988.308 583.971 983.62 581.117C978.961 578.234 975.365 574.216 972.831 569.062C970.327 563.879 969.075 557.851 969.075 550.979C969.075 544.107 970.327 538.05 972.831 532.808C975.365 527.538 978.888 523.432 983.402 520.491C987.944 517.521 993.244 516.036 999.301 516.036C1002.8 516.036 1006.25 516.618 1009.65 517.783C1013.06 518.947 1016.16 520.84 1018.96 523.461C1021.75 526.053 1023.98 529.489 1025.64 533.769C1027.3 538.05 1028.13 543.32 1028.13 549.581V553.949H976.413V545.038H1017.65C1017.65 541.253 1016.89 537.875 1015.37 534.905C1013.89 531.935 1011.76 529.591 1009 527.873C1006.26 526.154 1003.03 525.295 999.301 525.295C995.195 525.295 991.642 526.315 988.643 528.353C985.673 530.362 983.387 532.983 981.786 536.215C980.184 539.447 979.383 542.913 979.383 546.611V552.551C979.383 557.618 980.257 561.913 982.004 565.436C983.78 568.931 986.241 571.595 989.386 573.43C992.531 575.235 996.185 576.138 1000.35 576.138C1003.06 576.138 1005.5 575.759 1007.69 575.002C1009.9 574.216 1011.81 573.051 1013.41 571.508C1015.01 569.935 1016.25 567.984 1017.12 565.655L1027.08 568.45C1026.03 571.828 1024.27 574.798 1021.8 577.361C1019.32 579.894 1016.26 581.874 1012.62 583.301C1008.98 584.699 1004.89 585.398 1000.35 585.398ZM1043.81 584V516.909H1053.77V527.043H1054.47C1055.69 523.723 1057.9 521.029 1061.11 518.962C1064.31 516.895 1067.92 515.861 1071.94 515.861C1072.7 515.861 1073.64 515.875 1074.78 515.904C1075.91 515.934 1076.77 515.977 1077.36 516.036V526.518C1077.01 526.431 1076.2 526.3 1074.95 526.125C1073.73 525.922 1072.43 525.82 1071.07 525.82C1067.8 525.82 1064.89 526.504 1062.33 527.873C1059.8 529.212 1057.79 531.076 1056.3 533.463C1054.85 535.822 1054.12 538.516 1054.12 541.544V584H1043.81ZM1137.1 531.935L1127.84 534.555C1127.25 533.012 1126.4 531.512 1125.26 530.056C1124.15 528.571 1122.64 527.348 1120.72 526.387C1118.8 525.426 1116.33 524.946 1113.34 524.946C1109.23 524.946 1105.81 525.892 1103.07 527.785C1100.36 529.649 1099.01 532.022 1099.01 534.905C1099.01 537.467 1099.94 539.491 1101.8 540.976C1103.67 542.461 1106.58 543.699 1110.54 544.689L1120.5 547.135C1126.5 548.591 1130.97 550.819 1133.91 553.818C1136.85 556.788 1138.32 560.617 1138.32 565.305C1138.32 569.149 1137.21 572.585 1135 575.614C1132.82 578.642 1129.76 581.03 1125.83 582.777C1121.9 584.524 1117.33 585.398 1112.11 585.398C1105.27 585.398 1099.61 583.913 1095.12 580.942C1090.64 577.972 1087.8 573.634 1086.6 567.926L1096.39 565.48C1097.32 569.091 1099.08 571.799 1101.67 573.604C1104.29 575.41 1107.72 576.312 1111.94 576.312C1116.74 576.312 1120.56 575.293 1123.38 573.255C1126.24 571.187 1127.66 568.712 1127.66 565.83C1127.66 563.5 1126.85 561.549 1125.22 559.977C1123.59 558.375 1121.08 557.181 1117.7 556.395L1106.52 553.774C1100.38 552.318 1095.86 550.061 1092.98 547.004C1090.13 543.917 1088.7 540.059 1088.7 535.429C1088.7 531.643 1089.76 528.295 1091.89 525.383C1094.04 522.471 1096.97 520.185 1100.67 518.525C1104.4 516.865 1108.62 516.036 1113.34 516.036C1119.97 516.036 1125.19 517.491 1128.97 520.403C1132.79 523.315 1135.5 527.159 1137.1 531.935ZM1161.35 584.699C1159.19 584.699 1157.35 583.927 1155.8 582.384C1154.26 580.841 1153.49 578.991 1153.49 576.837C1153.49 574.682 1154.26 572.833 1155.8 571.289C1157.35 569.746 1159.19 568.974 1161.35 568.974C1163.5 568.974 1165.35 569.746 1166.9 571.289C1168.44 572.833 1169.21 574.682 1169.21 576.837C1169.21 578.263 1168.85 579.574 1168.12 580.768C1167.42 581.962 1166.47 582.923 1165.28 583.651C1164.12 584.349 1162.81 584.699 1161.35 584.699ZM1213.04 585.398C1207.45 585.398 1202.52 583.985 1198.24 581.161C1193.96 578.307 1190.61 574.289 1188.19 569.105C1185.77 563.893 1184.57 557.734 1184.57 550.629C1184.57 543.582 1185.77 537.467 1188.19 532.284C1190.61 527.101 1193.97 523.097 1198.28 520.272C1202.59 517.448 1207.57 516.036 1213.22 516.036C1217.59 516.036 1221.04 516.763 1223.57 518.219C1226.13 519.646 1228.08 521.277 1229.42 523.112C1230.79 524.917 1231.85 526.402 1232.61 527.567H1233.49V494.545H1243.79V584H1233.84V573.692H1232.61C1231.85 574.915 1230.78 576.458 1229.38 578.322C1227.98 580.156 1225.99 581.801 1223.4 583.257C1220.8 584.684 1217.35 585.398 1213.04 585.398ZM1214.44 576.138C1218.58 576.138 1222.07 575.06 1224.92 572.906C1227.78 570.722 1229.95 567.708 1231.43 563.864C1232.92 559.991 1233.66 555.521 1233.66 550.455C1233.66 545.446 1232.93 541.064 1231.48 537.307C1230.02 533.522 1227.87 530.581 1225.01 528.484C1222.16 526.358 1218.63 525.295 1214.44 525.295C1210.07 525.295 1206.43 526.417 1203.52 528.659C1200.64 530.872 1198.47 533.886 1197.01 537.7C1195.59 541.486 1194.87 545.737 1194.87 550.455C1194.87 555.23 1195.6 559.569 1197.06 563.471C1198.54 567.344 1200.73 570.43 1203.61 572.731C1206.52 575.002 1210.13 576.138 1214.44 576.138ZM1292.23 585.398C1285.77 585.398 1280.19 583.971 1275.5 581.117C1270.85 578.234 1267.25 574.216 1264.72 569.062C1262.21 563.879 1260.96 557.851 1260.96 550.979C1260.96 544.107 1262.21 538.05 1264.72 532.808C1267.25 527.538 1270.77 523.432 1275.29 520.491C1279.83 517.521 1285.13 516.036 1291.19 516.036C1294.68 516.036 1298.13 516.618 1301.54 517.783C1304.94 518.947 1308.05 520.84 1310.84 523.461C1313.64 526.053 1315.86 529.489 1317.52 533.769C1319.18 538.05 1320.01 543.32 1320.01 549.581V553.949H1268.3V545.038H1309.53C1309.53 541.253 1308.77 537.875 1307.26 534.905C1305.77 531.935 1303.65 529.591 1300.88 527.873C1298.15 526.154 1294.91 525.295 1291.19 525.295C1287.08 525.295 1283.53 526.315 1280.53 528.353C1277.56 530.362 1275.27 532.983 1273.67 536.215C1272.07 539.447 1271.27 542.913 1271.27 546.611V552.551C1271.27 557.618 1272.14 561.913 1273.89 565.436C1275.66 568.931 1278.13 571.595 1281.27 573.43C1284.42 575.235 1288.07 576.138 1292.23 576.138C1294.94 576.138 1297.39 575.759 1299.57 575.002C1301.78 574.216 1303.69 573.051 1305.29 571.508C1306.9 569.935 1308.13 567.984 1309.01 565.655L1318.97 568.45C1317.92 571.828 1316.16 574.798 1313.68 577.361C1311.21 579.894 1308.15 581.874 1304.51 583.301C1300.87 584.699 1296.78 585.398 1292.23 585.398ZM1388.51 516.909L1363.7 584H1353.22L1328.41 516.909H1339.59L1358.11 570.372H1358.81L1377.33 516.909H1388.51Z" fill="white"/>
</svg>
