<svg width="1920" height="1080" viewBox="0 0 1920 1080" fill="none" xmlns="http://www.w3.org/2000/svg">
<rect width="1920" height="1080" fill="#EC5F2A"/>
<path d="M492.059 764.683C492.059 757.795 493.412 751.686 496.118 746.356C498.906 741.026 502.637 736.926 507.311 734.056C512.067 731.186 517.356 729.751 523.178 729.751C528.262 729.751 532.69 730.776 536.462 732.826C540.316 734.876 543.391 737.459 545.687 740.575V730.858H563.03V799H545.687V789.037C543.473 792.235 540.398 794.9 536.462 797.032C532.608 799.082 528.139 800.107 523.055 800.107C517.315 800.107 512.067 798.631 507.311 795.679C502.637 792.727 498.906 788.586 496.118 783.256C493.412 777.844 492.059 771.653 492.059 764.683ZM545.687 764.929C545.687 760.747 544.867 757.18 543.227 754.228C541.587 751.194 539.373 748.898 536.585 747.34C533.797 745.7 530.804 744.88 527.606 744.88C524.408 744.88 521.456 745.659 518.75 747.217C516.044 748.775 513.83 751.071 512.108 754.105C510.468 757.057 509.648 760.583 509.648 764.683C509.648 768.783 510.468 772.391 512.108 775.507C513.83 778.541 516.044 780.878 518.75 782.518C521.538 784.158 524.49 784.978 527.606 784.978C530.804 784.978 533.797 784.199 536.585 782.641C539.373 781.001 541.587 778.705 543.227 775.753C544.867 772.719 545.687 769.111 545.687 764.929Z" fill="white"/>
<path d="M597.068 740.698C599.282 737.582 602.316 734.999 606.17 732.949C610.106 730.817 614.575 729.751 619.577 729.751C625.399 729.751 630.647 731.186 635.321 734.056C640.077 736.926 643.808 741.026 646.514 746.356C649.302 751.604 650.696 757.713 650.696 764.683C650.696 771.653 649.302 777.844 646.514 783.256C643.808 788.586 640.077 792.727 635.321 795.679C630.647 798.631 625.399 800.107 619.577 800.107C614.575 800.107 610.147 799.082 606.293 797.032C602.521 794.982 599.446 792.399 597.068 789.283V831.472H579.848V730.858H597.068V740.698ZM633.107 764.683C633.107 760.583 632.246 757.057 630.524 754.105C628.884 751.071 626.67 748.775 623.882 747.217C621.176 745.659 618.224 744.88 615.026 744.88C611.91 744.88 608.958 745.7 606.17 747.34C603.464 748.898 601.25 751.194 599.528 754.228C597.888 757.262 597.068 760.829 597.068 764.929C597.068 769.029 597.888 772.596 599.528 775.63C601.25 778.664 603.464 781.001 606.17 782.641C608.958 784.199 611.91 784.978 615.026 784.978C618.224 784.978 621.176 784.158 623.882 782.518C626.67 780.878 628.884 778.541 630.524 775.507C632.246 772.473 633.107 768.865 633.107 764.683Z" fill="white"/>
<path d="M680.43 740.698C682.644 737.582 685.678 734.999 689.532 732.949C693.468 730.817 697.937 729.751 702.939 729.751C708.761 729.751 714.009 731.186 718.683 734.056C723.439 736.926 727.17 741.026 729.876 746.356C732.664 751.604 734.058 757.713 734.058 764.683C734.058 771.653 732.664 777.844 729.876 783.256C727.17 788.586 723.439 792.727 718.683 795.679C714.009 798.631 708.761 800.107 702.939 800.107C697.937 800.107 693.509 799.082 689.655 797.032C685.883 794.982 682.808 792.399 680.43 789.283V831.472H663.21V730.858H680.43V740.698ZM716.469 764.683C716.469 760.583 715.608 757.057 713.886 754.105C712.246 751.071 710.032 748.775 707.244 747.217C704.538 745.659 701.586 744.88 698.388 744.88C695.272 744.88 692.32 745.7 689.532 747.34C686.826 748.898 684.612 751.194 682.89 754.228C681.25 757.262 680.43 760.829 680.43 764.929C680.43 769.029 681.25 772.596 682.89 775.63C684.612 778.664 686.826 781.001 689.532 782.641C692.32 784.199 695.272 784.978 698.388 784.978C701.586 784.978 704.538 784.158 707.244 782.518C710.032 780.878 712.246 778.541 713.886 775.507C715.608 772.473 716.469 768.865 716.469 764.683Z" fill="white"/>
<path d="M841.035 730.858L821.109 799H802.536L790.113 751.399L777.69 799H758.994L738.945 730.858H756.411L768.465 782.764L781.503 730.858H799.707L812.499 782.641L824.553 730.858H841.035Z" fill="white"/>
<path d="M867.572 741.436C869.786 737.828 872.656 734.999 876.182 732.949C879.79 730.899 883.89 729.874 888.482 729.874V747.955H883.931C878.519 747.955 874.419 749.226 871.631 751.768C868.925 754.31 867.572 758.738 867.572 765.052V799H850.352V730.858H867.572V741.436Z" fill="white"/>
<path d="M908.814 722.74C905.78 722.74 903.238 721.797 901.188 719.911C899.22 717.943 898.236 715.524 898.236 712.654C898.236 709.784 899.22 707.406 901.188 705.52C903.238 703.552 905.78 702.568 908.814 702.568C911.848 702.568 914.349 703.552 916.317 705.52C918.367 707.406 919.392 709.784 919.392 712.654C919.392 715.524 918.367 717.943 916.317 719.911C914.349 721.797 911.848 722.74 908.814 722.74ZM917.301 730.858V799H900.081V730.858H917.301Z" fill="white"/>
<path d="M954.363 745.003V777.967C954.363 780.263 954.896 781.944 955.962 783.01C957.11 783.994 958.996 784.486 961.62 784.486H969.615V799H958.791C944.277 799 937.02 791.948 937.02 777.844V745.003H928.902V730.858H937.02V714.007H954.363V730.858H969.615V745.003H954.363Z" fill="white"/>
<path d="M1045.35 763.453C1045.35 765.913 1045.18 768.127 1044.85 770.095H995.039C995.449 775.015 997.171 778.869 1000.2 781.657C1003.24 784.445 1006.97 785.839 1011.4 785.839C1017.79 785.839 1022.34 783.092 1025.05 777.598H1043.62C1041.66 784.158 1037.88 789.57 1032.31 793.834C1026.73 798.016 1019.88 800.107 1011.77 800.107C1005.21 800.107 999.303 798.672 994.055 795.802C988.889 792.85 984.83 788.709 981.878 783.379C979.008 778.049 977.573 771.899 977.573 764.929C977.573 757.877 979.008 751.686 981.878 746.356C984.748 741.026 988.766 736.926 993.932 734.056C999.098 731.186 1005.04 729.751 1011.77 729.751C1018.24 729.751 1024.03 731.145 1029.11 733.933C1034.28 736.721 1038.25 740.698 1041.04 745.864C1043.91 750.948 1045.35 756.811 1045.35 763.453ZM1027.51 758.533C1027.43 754.105 1025.83 750.579 1022.71 747.955C1019.6 745.249 1015.78 743.896 1011.27 743.896C1007.01 743.896 1003.4 745.208 1000.45 747.832C997.581 750.374 995.818 753.941 995.162 758.533H1027.51Z" fill="white"/>
<path d="M1075.13 741.436C1077.35 737.828 1080.22 734.999 1083.74 732.949C1087.35 730.899 1091.45 729.874 1096.04 729.874V747.955H1091.49C1086.08 747.955 1081.98 749.226 1079.19 751.768C1076.49 754.31 1075.13 758.738 1075.13 765.052V799H1057.91V730.858H1075.13V741.436Z" fill="white"/>
<path d="M1133.72 800.107C1128.14 800.107 1123.14 799.123 1118.71 797.155C1114.29 795.105 1110.76 792.358 1108.14 788.914C1105.59 785.47 1104.2 781.657 1103.95 777.475H1121.3C1121.62 780.099 1122.9 782.272 1125.11 783.994C1127.41 785.716 1130.23 786.577 1133.6 786.577C1136.88 786.577 1139.42 785.921 1141.22 784.609C1143.11 783.297 1144.05 781.616 1144.05 779.566C1144.05 777.352 1142.9 775.712 1140.61 774.646C1138.39 773.498 1134.83 772.268 1129.91 770.956C1124.82 769.726 1120.64 768.455 1117.36 767.143C1114.16 765.831 1111.37 763.822 1109 761.116C1106.7 758.41 1105.55 754.761 1105.55 750.169C1105.55 746.397 1106.62 742.953 1108.75 739.837C1110.96 736.721 1114.08 734.261 1118.1 732.457C1122.2 730.653 1127 729.751 1132.49 729.751C1140.61 729.751 1147.09 731.801 1151.92 735.901C1156.76 739.919 1159.43 745.372 1159.92 752.26H1143.44C1143.19 749.554 1142.04 747.422 1139.99 745.864C1138.02 744.224 1135.36 743.404 1132 743.404C1128.88 743.404 1126.46 743.978 1124.74 745.126C1123.1 746.274 1122.28 747.873 1122.28 749.923C1122.28 752.219 1123.43 753.982 1125.72 755.212C1128.02 756.36 1131.59 757.549 1136.43 758.779C1141.35 760.009 1145.4 761.28 1148.6 762.592C1151.8 763.904 1154.55 765.954 1156.84 768.742C1159.22 771.448 1160.45 775.056 1160.53 779.566C1160.53 783.502 1159.43 787.028 1157.21 790.144C1155.08 793.26 1151.96 795.72 1147.86 797.524C1143.85 799.246 1139.13 800.107 1133.72 800.107Z" fill="white"/>
<path d="M1182.29 799.861C1179.18 799.861 1176.6 798.918 1174.55 797.032C1172.58 795.064 1171.59 792.645 1171.59 789.775C1171.59 786.905 1172.58 784.527 1174.55 782.641C1176.6 780.673 1179.18 779.689 1182.29 779.689C1185.33 779.689 1187.83 780.673 1189.8 782.641C1191.77 784.527 1192.75 786.905 1192.75 789.775C1192.75 792.645 1191.77 795.064 1189.8 797.032C1187.83 798.918 1185.33 799.861 1182.29 799.861Z" fill="white"/>
<path d="M1202.19 764.683C1202.19 757.795 1203.54 751.686 1206.25 746.356C1209.04 741.026 1212.81 736.926 1217.57 734.056C1222.32 731.186 1227.61 729.751 1233.43 729.751C1237.86 729.751 1242.08 730.735 1246.1 732.703C1250.12 734.589 1253.32 737.131 1255.7 740.329V707.98H1273.16V799H1255.7V788.914C1253.56 792.276 1250.57 794.982 1246.72 797.032C1242.86 799.082 1238.39 800.107 1233.31 800.107C1227.57 800.107 1222.32 798.631 1217.57 795.679C1212.81 792.727 1209.04 788.586 1206.25 783.256C1203.54 777.844 1202.19 771.653 1202.19 764.683ZM1255.82 764.929C1255.82 760.747 1255 757.18 1253.36 754.228C1251.72 751.194 1249.51 748.898 1246.72 747.34C1243.93 745.7 1240.94 744.88 1237.74 744.88C1234.54 744.88 1231.59 745.659 1228.88 747.217C1226.18 748.775 1223.96 751.071 1222.24 754.105C1220.6 757.057 1219.78 760.583 1219.78 764.683C1219.78 768.783 1220.6 772.391 1222.24 775.507C1223.96 778.541 1226.18 780.878 1228.88 782.518C1231.67 784.158 1234.62 784.978 1237.74 784.978C1240.94 784.978 1243.93 784.199 1246.72 782.641C1249.51 781.001 1251.72 778.705 1253.36 775.753C1255 772.719 1255.82 769.111 1255.82 764.929Z" fill="white"/>
<path d="M1353.33 763.453C1353.33 765.913 1353.16 768.127 1352.83 770.095H1303.02C1303.43 775.015 1305.15 778.869 1308.19 781.657C1311.22 784.445 1314.95 785.839 1319.38 785.839C1325.77 785.839 1330.33 783.092 1333.03 777.598H1351.6C1349.64 784.158 1345.86 789.57 1340.29 793.834C1334.71 798.016 1327.87 800.107 1319.75 800.107C1313.19 800.107 1307.28 798.672 1302.04 795.802C1296.87 792.85 1292.81 788.709 1289.86 783.379C1286.99 778.049 1285.55 771.899 1285.55 764.929C1285.55 757.877 1286.99 751.686 1289.86 746.356C1292.73 741.026 1296.75 736.926 1301.91 734.056C1307.08 731.186 1313.02 729.751 1319.75 729.751C1326.23 729.751 1332.01 731.145 1337.09 733.933C1342.26 736.721 1346.23 740.698 1349.02 745.864C1351.89 750.948 1353.33 756.811 1353.33 763.453ZM1335.49 758.533C1335.41 754.105 1333.81 750.579 1330.69 747.955C1327.58 745.249 1323.77 743.896 1319.26 743.896C1314.99 743.896 1311.38 745.208 1308.43 747.832C1305.56 750.374 1303.8 753.941 1303.14 758.533H1335.49Z" fill="white"/>
<path d="M1394.31 783.133L1411.53 730.858H1429.86L1404.64 799H1383.73L1358.64 730.858H1377.09L1394.31 783.133Z" fill="white"/>
<path fill-rule="evenodd" clip-rule="evenodd" d="M1034.68 275.636C1017.67 248.901 985.601 234.795 970.411 232.625C923.19 226.028 882.817 273.428 872.419 291.476C872.419 291.476 872.179 291.928 871.719 292.799C924.547 325.361 957.347 393.317 966.973 423.202C980.345 412.916 1058.02 394.025 1093.67 386.588C1066.2 332.82 1042.45 287.844 1034.68 275.636ZM710.965 627.64C719.102 587.161 818.89 393.773 857.397 320.082C881.524 342.327 931.014 396.766 937.894 438.393C911.13 457.056 857.601 508.009 857.601 562.522C881.182 514.78 977.39 426.674 1110.2 419.296L1109.26 417.26C1126.61 451.557 1144.48 487.47 1160.11 519.554C1117.75 512.958 1030.48 541.111 995.185 555.144L995.325 555.305C948.853 576.105 865.37 629.123 810.514 676.504C772.541 709.304 700.863 677.892 710.965 627.64ZM1015.32 578.065C1037.95 624.574 1098.65 675.262 1130.6 684.915C1215.1 708.99 1215.15 653.344 1206.09 620.707C1203.58 611.664 1190.94 583.705 1173.51 547.295C1146.27 545.348 1076.71 548.804 1015.32 578.065Z" fill="white"/>
</svg>
