<svg width="1920" height="1080" viewBox="0 0 1920 1080" fill="none" xmlns="http://www.w3.org/2000/svg">
<rect width="1920" height="1080" fill="white"/>
<path d="M642 385.536L698.863 375.542L661.777 331.294L642 385.536ZM1220.73 336.703C1139.76 246.175 912.551 165.043 673.399 352.698L679.572 360.566C914.632 176.121 1135.87 256.826 1213.27 343.369L1220.73 336.703Z" fill="#666666"/>
<path d="M1645.53 815.986C1644.55 817.356 1643.56 818.716 1642.58 820.066C1639.76 822.007 1636.42 823.043 1633 823.036H1106C1102.73 823.039 1099.53 822.094 1096.79 820.316C1095.88 819.116 1094.98 817.906 1094.07 816.696L1094.98 816.196L1361.77 668.316C1364.14 667.007 1366.8 666.318 1369.5 666.315C1372.21 666.311 1374.87 666.993 1377.24 668.296L1644.63 815.486L1645.53 815.986Z" fill="#FF5200"/>
<path d="M1633 505.036L1401.78 371.506C1392.06 365.889 1381.03 362.93 1369.8 362.924C1358.56 362.919 1347.53 365.867 1337.8 371.474L1106 505.036C1101.49 505.042 1097.17 506.835 1093.99 510.022C1090.8 513.209 1089.01 517.529 1089 522.036V806.036C1089.01 810.543 1090.8 814.864 1093.98 818.051C1097.17 821.238 1101.49 823.031 1106 823.036H1633C1637.51 823.028 1641.83 821.235 1645.01 818.048C1648.2 814.862 1649.99 810.542 1650 806.036V522.036C1649.99 517.529 1648.2 513.209 1645.01 510.022C1641.83 506.835 1637.51 505.042 1633 505.036ZM1648 806.036C1647.99 810.011 1646.41 813.821 1643.6 816.632C1640.78 819.443 1636.98 821.026 1633 821.036H1106C1102.02 821.029 1098.21 819.446 1095.4 816.635C1092.59 813.823 1091.01 810.012 1091 806.036V522.036C1091 518.059 1092.59 514.247 1095.4 511.435C1098.21 508.623 1102.02 507.041 1106 507.036L1337.8 373.474C1347.53 367.867 1358.56 364.919 1369.8 364.924C1381.03 364.93 1392.06 367.889 1401.78 373.506L1633 507.036C1636.98 507.041 1640.79 508.623 1643.6 511.435C1646.41 514.247 1648 518.059 1648 522.036V806.036Z" fill="#666666"/>
<path d="M1369.8 665.716C1368.06 665.722 1366.33 665.432 1364.68 664.858L1364.38 664.751L1364.32 664.078C1364.13 664.171 1363.94 664.26 1363.75 664.344L1363.55 664.432L1363.35 664.344C1362.93 664.158 1362.51 663.949 1362.1 663.721L1178 560.268V349.036C1178.01 344.131 1179.96 339.429 1183.42 335.96C1186.89 332.492 1191.6 330.541 1196.5 330.536H1542.5C1547.4 330.541 1552.11 332.492 1555.58 335.96C1559.04 339.429 1560.99 344.131 1561 349.036V560.538L1560.75 560.682L1377.5 663.722C1375.14 665.033 1372.49 665.72 1369.8 665.716Z" fill="white"/>
<path d="M1369.8 666.216C1368 666.222 1366.22 665.922 1364.52 665.329L1363.91 665.116L1363.89 664.83L1363.55 664.978L1363.15 664.802C1362.71 664.61 1362.28 664.393 1361.86 664.157L1177.5 560.561V349.036C1177.51 343.999 1179.51 339.169 1183.07 335.607C1186.63 332.045 1191.46 330.042 1196.5 330.036H1542.5C1547.54 330.042 1552.37 332.045 1555.93 335.607C1559.49 339.169 1561.49 343.999 1561.5 349.036V560.831L1377.74 664.157C1375.31 665.511 1372.58 666.22 1369.8 666.216ZM1365.79 663.639C1369.46 664.695 1373.41 664.255 1376.76 662.414L1559.5 559.661V349.036C1559.49 344.529 1557.7 340.208 1554.52 337.021C1551.33 333.834 1547.01 332.041 1542.5 332.036H1196.5C1191.99 332.041 1187.67 333.834 1184.48 337.021C1181.3 340.208 1179.51 344.529 1179.5 349.036V559.39L1191.49 566.124L1362.84 662.414C1363.07 662.546 1363.31 662.669 1363.55 662.785C1363.79 662.669 1364.03 662.546 1364.26 662.415L1365.61 661.656L1365.79 663.639Z" fill="#666666"/>
<path d="M1645.57 512.416L1573 553.216L1560.5 560.246L1377.25 663.286C1374.97 664.556 1372.41 665.22 1369.8 665.216C1368.11 665.221 1366.44 664.94 1364.85 664.386C1364.41 664.244 1363.97 664.077 1363.55 663.886C1363.14 663.706 1362.74 663.506 1362.35 663.286L1191 566.996L1178.5 559.976L1093.58 512.256C1093.35 512.123 1093.18 511.905 1093.11 511.649C1093.04 511.392 1093.07 511.118 1093.2 510.886C1093.33 510.655 1093.55 510.486 1093.8 510.415C1094.06 510.343 1094.33 510.376 1094.56 510.506L1178.5 557.676L1191 564.696L1363.33 661.536C1363.9 661.857 1364.5 662.134 1365.11 662.366C1365.37 662.466 1365.64 662.556 1365.91 662.636C1367.62 663.161 1369.42 663.335 1371.2 663.146C1372.98 662.956 1374.71 662.409 1376.27 661.536L1560.5 557.956L1573 550.926L1644.59 510.676C1644.7 510.611 1644.83 510.57 1644.96 510.555C1645.09 510.539 1645.22 510.549 1645.35 510.584C1645.47 510.619 1645.59 510.679 1645.7 510.76C1645.8 510.841 1645.89 510.942 1645.95 511.056C1646.01 511.17 1646.06 511.296 1646.07 511.426C1646.09 511.556 1646.08 511.688 1646.04 511.815C1646.01 511.941 1645.95 512.059 1645.87 512.162C1645.78 512.265 1645.68 512.351 1645.57 512.416Z" fill="#666666"/>
<path d="M1253.08 396.036H1225.08C1222.95 396.036 1220.92 395.193 1219.42 393.693C1217.92 392.192 1217.08 390.158 1217.08 388.036C1217.08 385.914 1217.92 383.879 1219.42 382.379C1220.92 380.879 1222.95 380.036 1225.08 380.036H1253.08C1255.2 380.036 1257.23 380.879 1258.73 382.379C1260.23 383.879 1261.08 385.914 1261.08 388.036C1261.08 390.158 1260.23 392.192 1258.73 393.693C1257.23 395.193 1255.2 396.036 1253.08 396.036Z" fill="#FF5200"/>
<path d="M1286.08 423.036H1225.08C1222.95 423.036 1220.92 422.193 1219.42 420.693C1217.92 419.192 1217.08 417.158 1217.08 415.036C1217.08 412.914 1217.92 410.879 1219.42 409.379C1220.92 407.879 1222.95 407.036 1225.08 407.036H1286.08C1288.2 407.036 1290.23 407.879 1291.73 409.379C1293.23 410.879 1294.08 412.914 1294.08 415.036C1294.08 417.158 1293.23 419.192 1291.73 420.693C1290.23 422.193 1288.2 423.036 1286.08 423.036Z" fill="#E6E6E6"/>
<path d="M1472.5 526.036H1266.5C1264.38 526.036 1262.34 525.193 1260.84 523.693C1259.34 522.192 1258.5 520.158 1258.5 518.036C1258.5 515.914 1259.34 513.879 1260.84 512.379C1262.34 510.879 1264.38 510.036 1266.5 510.036H1472.5C1474.62 510.036 1476.66 510.879 1478.16 512.379C1479.66 513.879 1480.5 515.914 1480.5 518.036C1480.5 520.158 1479.66 522.192 1478.16 523.693C1476.66 525.193 1474.62 526.036 1472.5 526.036Z" fill="#FF5200"/>
<path d="M1472.5 556.036H1266.5C1264.38 556.036 1262.34 555.193 1260.84 553.693C1259.34 552.192 1258.5 550.158 1258.5 548.036C1258.5 545.914 1259.34 543.879 1260.84 542.379C1262.34 540.879 1264.38 540.036 1266.5 540.036H1472.5C1474.62 540.036 1476.66 540.879 1478.16 542.379C1479.66 543.879 1480.5 545.914 1480.5 548.036C1480.5 550.158 1479.66 552.192 1478.16 553.693C1476.66 555.193 1474.62 556.036 1472.5 556.036Z" fill="#E6E6E6"/>
<path opacity="0.2" d="M1366.74 482.344C1363.53 485.549 1359.19 487.349 1354.65 487.349C1350.12 487.349 1345.78 485.549 1342.57 482.344C1339.82 479.589 1338.09 475.977 1337.67 472.104C1337.25 468.232 1338.16 464.332 1340.26 461.051L1336.5 464.886C1333.3 468.091 1331.5 472.437 1331.5 476.969C1331.5 481.501 1333.3 485.847 1336.5 489.051C1339.71 492.256 1344.05 494.056 1348.59 494.056C1353.12 494.056 1357.46 492.256 1360.67 489.051L1369 480.401L1369.13 479.863L1366.74 482.344Z" fill="#FF5200"/>
<path opacity="0.2" d="M1374.67 428.904C1378.42 426.353 1383.02 425.394 1387.48 426.239C1391.93 427.084 1395.86 429.662 1398.41 433.408C1400.61 436.628 1401.63 440.5 1401.32 444.383C1401.01 448.265 1399.39 451.926 1396.71 454.758L1401.12 451.691C1404.87 449.14 1407.45 445.205 1408.29 440.753C1409.14 436.301 1408.18 431.695 1405.63 427.949C1403.08 424.204 1399.14 421.625 1394.69 420.78C1390.24 419.936 1385.63 420.894 1381.88 423.445L1372.09 430.391L1371.86 430.896L1374.67 428.904Z" fill="#FF5200"/>
<path d="M1348.59 496.194C1344.91 496.194 1341.32 495.104 1338.26 493.061C1335.2 491.019 1332.82 488.116 1331.41 484.72C1330.01 481.324 1329.64 477.587 1330.36 473.982C1331.07 470.376 1332.84 467.065 1335.44 464.465L1351.22 448.373C1352.94 446.645 1354.99 445.274 1357.25 444.338C1359.5 443.402 1361.92 442.92 1364.36 442.919C1366.8 442.918 1369.22 443.398 1371.48 444.332C1373.73 445.266 1375.79 446.636 1377.51 448.363C1377.79 448.644 1377.95 449.025 1377.95 449.422C1377.95 449.82 1377.79 450.201 1377.51 450.482C1377.23 450.763 1376.85 450.921 1376.45 450.921C1376.05 450.921 1375.67 450.763 1375.39 450.482C1372.47 447.559 1368.5 445.917 1364.37 445.917C1360.24 445.917 1356.27 447.559 1353.35 450.482C1351.03 458.649 1346.02 464.253 1337.57 466.574C1336.12 468.021 1334.97 469.739 1334.19 471.63C1333.4 473.521 1333 475.549 1333 477.597C1332.99 479.645 1333.4 481.674 1334.18 483.566C1334.96 485.459 1336.11 487.179 1337.56 488.628C1339 490.077 1340.72 491.226 1342.61 492.01C1344.51 492.795 1346.53 493.199 1348.58 493.199C1350.63 493.199 1352.66 492.796 1354.55 492.012C1356.44 491.228 1358.16 490.079 1359.61 488.63C1359.27 485.28 1360.25 482.13 1367.92 480C1368.06 479.858 1368.22 479.744 1368.4 479.665C1368.58 479.585 1368.77 479.542 1368.97 479.538C1369.17 479.535 1369.37 479.569 1369.55 479.641C1369.73 479.713 1369.9 479.821 1370.04 479.958C1370.18 480.094 1370.3 480.258 1370.38 480.439C1370.46 480.619 1370.5 480.814 1370.5 481.011C1370.5 481.208 1370.47 481.404 1370.4 481.587C1370.32 481.771 1370.22 481.938 1370.08 482.08L1361.75 490.73C1360.03 492.466 1357.97 493.844 1355.72 494.782C1353.46 495.72 1351.03 496.199 1348.59 496.194Z" fill="#FF5200"/>
<path d="M1374.19 473.429C1371.75 473.435 1369.33 472.958 1367.08 472.023C1364.82 471.089 1362.77 469.716 1361.05 467.985C1360.77 467.703 1360.61 467.322 1360.61 466.925C1360.61 466.527 1360.77 466.146 1361.05 465.865C1361.33 465.584 1361.71 465.426 1362.11 465.426C1362.51 465.426 1362.89 465.584 1363.17 465.865C1364.62 467.313 1366.34 468.461 1368.23 469.244C1370.12 470.028 1372.15 470.431 1374.19 470.431C1376.24 470.431 1378.27 470.028 1380.16 469.244C1382.05 468.461 1383.77 467.313 1385.22 465.865C1387.21 453.831 1395.36 452.133 1402.44 448.644C1403.88 447.197 1405.03 445.478 1405.82 443.587C1406.6 441.696 1407 439.669 1407 437.622C1407 435.575 1406.6 433.548 1405.82 431.656C1405.03 429.765 1403.88 428.047 1402.44 426.599C1400.99 425.152 1399.27 424.003 1397.38 423.22C1395.49 422.437 1393.46 422.033 1391.41 422.033C1389.37 422.033 1387.34 422.437 1385.45 423.22C1383.56 424.003 1381.84 425.152 1380.39 426.599C1378.42 432.281 1376.49 438.029 1370.62 436.367C1370.48 436.506 1370.32 436.617 1370.14 436.692C1369.95 436.767 1369.76 436.806 1369.56 436.806C1369.17 436.806 1368.78 436.648 1368.5 436.367C1368.22 436.086 1368.06 435.705 1368.06 435.307C1368.06 434.91 1368.22 434.529 1368.5 434.248L1378.27 424.48C1380 422.754 1382.05 421.385 1384.3 420.451C1386.56 419.517 1388.97 419.036 1391.41 419.036C1393.85 419.036 1396.27 419.517 1398.53 420.451C1400.78 421.385 1402.83 422.754 1404.56 424.48C1406.28 426.205 1407.65 428.254 1408.58 430.509C1409.52 432.764 1410 435.181 1410 437.622C1410 440.062 1409.52 442.479 1408.58 444.734C1407.65 446.989 1406.28 449.038 1404.56 450.764L1387.33 467.985C1385.61 469.716 1383.56 471.089 1381.31 472.023C1379.05 472.958 1376.63 473.435 1374.19 473.429Z" fill="#FF5200"/>
<path d="M478.001 593.925C405.619 593.925 346.731 531.371 346.731 454.48C346.731 377.59 405.619 315.036 478.001 315.036C550.383 315.036 609.27 377.59 609.27 454.48C609.27 531.371 550.383 593.925 478.001 593.925ZM478.001 350.27C425.046 350.27 381.965 397.018 381.965 454.48C381.965 511.941 425.046 558.691 478.001 558.691C530.955 558.691 574.036 511.941 574.036 454.48C574.036 397.018 530.955 350.27 478.001 350.27Z" fill="#FF5200"/>
<path d="M602.307 836.939H353.693C331.769 836.915 310.75 828.195 295.247 812.693C279.745 797.19 271.025 776.172 271 754.248V510.383C271.017 495.374 276.987 480.984 287.6 470.37C298.214 459.756 312.604 453.786 327.613 453.769H628.387C643.396 453.786 657.786 459.756 668.4 470.37C679.013 480.984 684.983 495.374 685 510.383V754.248C684.975 776.172 676.255 797.19 660.753 812.693C645.25 828.195 624.231 836.915 602.307 836.939Z" fill="#666666"/>
<path d="M526.447 592.503C526.453 583.891 524.164 575.433 519.815 568C515.466 560.567 509.214 554.427 501.703 550.214C494.192 546 485.694 543.865 477.083 544.028C468.473 544.191 460.061 546.646 452.715 551.141C445.369 555.635 439.354 562.007 435.289 569.6C431.224 577.192 429.257 585.731 429.589 594.336C429.922 602.942 432.542 611.303 437.181 618.559C441.819 625.816 448.308 631.704 455.979 635.619V711.418H500.021V635.619C507.972 631.566 514.649 625.395 519.312 617.786C523.975 610.177 526.445 601.427 526.447 592.503Z" fill="white"/>
</svg>
