<svg width="1920" height="1080" viewBox="0 0 1920 1080" fill="none" xmlns="http://www.w3.org/2000/svg">
<rect width="1920" height="1080" fill="white"/>
<path d="M644.227 872.104L452.65 783.883C445.757 780.699 440.408 774.91 437.776 767.787C435.145 760.664 435.447 752.788 438.615 745.888L463.296 692.292C466.48 685.399 472.269 680.05 479.392 677.418C486.514 674.787 494.39 675.089 501.291 678.257L692.868 766.479C699.762 769.663 705.111 775.452 707.742 782.575C710.373 789.697 710.071 797.573 706.903 804.474L682.222 858.069C679.038 864.963 673.25 870.312 666.127 872.943C659.004 875.574 651.128 875.273 644.227 872.104Z" fill="#F2F2F2"/>
<path d="M614.399 838.03L497.933 784.398C494.011 782.587 490.968 779.294 489.471 775.242C487.975 771.189 488.146 766.709 489.949 762.783L509.505 720.315C511.317 716.393 514.61 713.35 518.662 711.854C522.714 710.357 527.194 710.528 531.12 712.331L647.586 765.963C651.507 767.775 654.55 771.068 656.047 775.12C657.544 779.172 657.372 783.652 655.57 787.578L636.013 830.046C634.202 833.968 630.909 837.011 626.857 838.508C622.805 840.005 618.324 839.833 614.399 838.03Z" fill="white"/>
<path d="M613.73 839.484L497.264 785.852C492.957 783.862 489.615 780.246 487.971 775.796C486.327 771.345 486.516 766.425 488.495 762.114L508.052 719.646C510.041 715.339 513.657 711.997 518.108 710.353C522.558 708.709 527.478 708.898 531.79 710.878L648.255 764.51C652.562 766.499 655.904 770.116 657.548 774.566C659.192 779.016 659.003 783.937 657.023 788.248L637.467 830.715C635.478 835.022 631.862 838.364 627.412 840.008C622.961 841.652 618.041 841.464 613.73 839.484ZM530.451 713.785C526.911 712.159 522.87 712.004 519.216 713.354C515.562 714.704 512.592 717.448 510.959 720.985L491.403 763.452C489.777 766.993 489.622 771.033 490.972 774.687C492.322 778.341 495.066 781.311 498.603 782.944L615.068 836.577C618.609 838.202 622.649 838.357 626.303 837.007C629.957 835.657 632.926 832.913 634.56 829.377L654.116 786.909C655.742 783.369 655.896 779.329 654.547 775.675C653.197 772.02 650.453 769.051 646.917 767.417L530.451 713.785Z" fill="#3F3D56"/>
<path d="M580.728 773.391L580.085 773.095C579.746 772.939 579.441 772.719 579.187 772.446C578.934 772.173 578.737 771.852 578.607 771.503C578.478 771.154 578.418 770.782 578.433 770.41C578.447 770.037 578.535 769.671 578.69 769.333C578.846 768.995 579.067 768.69 579.341 768.437C579.615 768.184 579.936 767.988 580.285 767.859C580.635 767.73 581.007 767.672 581.379 767.687C581.751 767.702 582.117 767.79 582.455 767.947L583.098 768.243C583.779 768.559 584.308 769.131 584.567 769.836C584.826 770.54 584.795 771.318 584.482 772C584.168 772.681 583.596 773.211 582.892 773.472C582.189 773.732 581.41 773.703 580.728 773.391Z" fill="#CCCCCC"/>
<path d="M608.313 803.251L572.922 786.954C572.584 786.799 572.279 786.579 572.025 786.305C571.772 786.032 571.575 785.712 571.445 785.363C571.316 785.013 571.256 784.642 571.271 784.269C571.285 783.897 571.372 783.531 571.528 783.193C571.684 782.854 571.905 782.55 572.179 782.297C572.453 782.044 572.773 781.847 573.123 781.719C573.473 781.59 573.845 781.531 574.217 781.547C574.589 781.562 574.955 781.65 575.293 781.807L610.683 798.104C611.022 798.259 611.327 798.479 611.58 798.752C611.834 799.026 612.031 799.346 612.16 799.695C612.29 800.045 612.349 800.416 612.335 800.789C612.321 801.161 612.233 801.527 612.077 801.865C611.921 802.204 611.7 802.508 611.427 802.761C611.153 803.014 610.832 803.21 610.482 803.339C610.133 803.468 609.761 803.526 609.389 803.511C609.016 803.496 608.651 803.408 608.313 803.251Z" fill="#CCCCCC"/>
<path d="M547.444 782.521C557.937 782.521 566.443 774.015 566.443 763.523C566.443 753.03 557.937 744.524 547.444 744.524C536.951 744.524 528.445 753.03 528.445 763.523C528.445 774.015 536.951 782.521 547.444 782.521Z" fill="#FF5200"/>
<path d="M1418.3 786.571H706.599C689.445 786.551 672.999 779.729 660.87 767.599C648.74 755.47 641.918 739.024 641.898 721.871V167.7C641.918 150.547 648.741 134.101 660.87 121.972C673 109.842 689.445 103.02 706.599 103H1418.3C1435.45 103.02 1451.9 109.842 1464.03 121.972C1476.16 134.101 1482.98 150.547 1483 167.7V721.871C1482.98 739.024 1476.16 755.47 1464.03 767.599C1451.9 779.729 1435.45 786.551 1418.3 786.571Z" fill="#F2F2F2"/>
<path d="M1264.89 676.028H860.012C850.253 676.017 840.898 672.136 833.998 665.235C827.097 658.335 823.216 648.98 823.205 639.221V250.35C823.216 240.591 827.098 231.236 833.998 224.336C840.898 217.435 850.253 213.554 860.012 213.543H1264.89C1274.64 213.554 1284 217.435 1290.9 224.336C1297.8 231.236 1301.68 240.591 1301.69 250.35V639.221C1301.68 648.98 1297.8 658.335 1290.9 665.235C1284 672.136 1274.64 676.017 1264.89 676.028Z" fill="white"/>
<path d="M1264.89 676.028H860.012C850.253 676.017 840.898 672.136 833.998 665.235C827.097 658.335 823.216 648.98 823.205 639.221V250.35C823.216 240.591 827.098 231.236 833.998 224.336C840.898 217.435 850.253 213.554 860.012 213.543H1264.89C1274.64 213.554 1284 217.435 1290.9 224.336C1297.8 231.236 1301.68 240.591 1301.69 250.35V639.221C1301.68 648.98 1297.8 658.335 1290.9 665.235C1284 672.136 1274.64 676.017 1264.89 676.028ZM860.012 216.744C851.102 216.754 842.56 220.297 836.26 226.598C829.96 232.898 826.416 241.44 826.406 250.35V639.221C826.416 648.131 829.96 656.673 836.26 662.973C842.56 669.273 851.102 672.817 860.012 672.827H1264.89C1273.8 672.817 1282.34 669.273 1288.64 662.973C1294.94 656.673 1298.48 648.131 1298.49 639.221V250.35C1298.48 241.44 1294.94 232.898 1288.64 226.598C1282.34 220.297 1273.8 216.754 1264.89 216.744H860.012Z" fill="#3F3D56"/>
<path d="M1057.19 355.228H989.18C988.327 355.229 987.481 355.062 986.692 354.736C985.903 354.411 985.186 353.932 984.582 353.329C983.977 352.726 983.498 352.01 983.171 351.221C982.844 350.432 982.676 349.587 982.676 348.733C982.676 347.88 982.844 347.034 983.171 346.246C983.498 345.457 983.977 344.741 984.582 344.138C985.186 343.534 985.903 343.056 986.692 342.73C987.481 342.405 988.327 342.238 989.18 342.239H1057.19C1058.91 342.242 1060.56 342.927 1061.77 344.145C1062.99 345.362 1063.67 347.013 1063.67 348.733C1063.67 350.454 1062.99 352.104 1061.77 353.322C1060.56 354.54 1058.91 355.225 1057.19 355.228Z" fill="#FF5200"/>
<path d="M1209.21 612.875H1141.21C1140.35 612.876 1139.51 612.709 1138.72 612.384C1137.93 612.058 1137.21 611.58 1136.61 610.977C1136 610.373 1135.53 609.657 1135.2 608.868C1134.87 608.08 1134.7 607.234 1134.7 606.381C1134.7 605.527 1134.87 604.682 1135.2 603.893C1135.53 603.104 1136 602.388 1136.61 601.785C1137.21 601.182 1137.93 600.703 1138.72 600.378C1139.51 600.052 1140.35 599.885 1141.21 599.886H1209.21C1210.94 599.889 1212.58 600.574 1213.8 601.792C1215.02 603.01 1215.7 604.66 1215.7 606.381C1215.7 608.101 1215.02 609.752 1213.8 610.969C1212.58 612.187 1210.94 612.872 1209.21 612.875Z" fill="#FF5200"/>
<path d="M1209.64 381.79H989.181C987.458 381.79 985.807 381.106 984.589 379.888C983.371 378.67 982.687 377.018 982.687 375.296C982.687 373.573 983.371 371.921 984.589 370.703C985.807 369.485 987.458 368.801 989.181 368.801H1209.64C1211.36 368.801 1213.01 369.485 1214.23 370.703C1215.45 371.921 1216.13 373.573 1216.13 375.296C1216.13 377.018 1215.45 378.67 1214.23 379.888C1213.01 381.106 1211.36 381.79 1209.64 381.79Z" fill="#E6E6E6"/>
<path d="M933.173 379.919C944.002 379.919 952.78 371.142 952.78 360.313C952.78 349.485 944.002 340.707 933.173 340.707C922.345 340.707 913.567 349.485 913.567 360.313C913.567 371.142 922.345 379.919 933.173 379.919Z" fill="#FF5200"/>
<path d="M867.561 280.701C878.389 280.701 887.167 271.923 887.167 261.095C887.167 250.267 878.389 241.489 867.561 241.489C856.733 241.489 847.955 250.267 847.955 261.095C847.955 271.923 856.733 280.701 867.561 280.701Z" fill="#F2F2F2"/>
<path d="M930.498 370.518C930.16 370.518 929.826 370.439 929.523 370.287C929.22 370.136 928.957 369.916 928.754 369.645L923.405 362.513C923.233 362.284 923.107 362.023 923.035 361.746C922.963 361.468 922.947 361.179 922.987 360.895C923.028 360.611 923.123 360.337 923.269 360.091C923.415 359.844 923.609 359.628 923.838 359.456C924.068 359.284 924.329 359.159 924.607 359.088C924.885 359.017 925.174 359.001 925.458 359.042C925.742 359.083 926.015 359.18 926.261 359.326C926.508 359.473 926.723 359.667 926.895 359.896L930.394 364.562L939.382 351.08C939.701 350.6 940.199 350.265 940.765 350.151C941.331 350.036 941.919 350.151 942.401 350.469C942.883 350.788 943.218 351.284 943.334 351.85C943.45 352.416 943.337 353.004 943.02 353.487L943.011 353.5L932.313 369.547C932.12 369.837 931.86 370.076 931.554 370.245C931.249 370.414 930.908 370.507 930.559 370.517L930.498 370.518Z" fill="white"/>
<path d="M1209.64 452.203H989.181C987.458 452.203 985.807 451.519 984.589 450.301C983.371 449.083 982.687 447.431 982.687 445.709C982.687 443.986 983.371 442.334 984.589 441.116C985.807 439.898 987.458 439.214 989.181 439.214H1209.64C1211.36 439.214 1213.01 439.898 1214.23 441.116C1215.45 442.334 1216.13 443.986 1216.13 445.709C1216.13 447.431 1215.45 449.083 1214.23 450.301C1213.01 451.519 1211.36 452.203 1209.64 452.203Z" fill="#E6E6E6"/>
<path d="M933.173 466.335C928.979 466.335 924.879 465.091 921.392 462.761C917.904 460.431 915.186 457.119 913.581 453.244C911.976 449.369 911.556 445.105 912.374 440.992C913.193 436.878 915.212 433.1 918.178 430.134C921.144 427.168 924.922 425.148 929.036 424.33C933.15 423.512 937.413 423.932 941.288 425.537C945.163 427.142 948.475 429.86 950.805 433.347C953.136 436.835 954.379 440.935 954.379 445.129C954.373 450.751 952.137 456.141 948.161 460.117C944.185 464.092 938.795 466.329 933.173 466.335ZM933.173 427.123C929.612 427.123 926.131 428.179 923.17 430.158C920.209 432.136 917.901 434.948 916.538 438.238C915.175 441.529 914.819 445.149 915.513 448.642C916.208 452.134 917.923 455.343 920.441 457.861C922.959 460.379 926.168 462.094 929.66 462.789C933.153 463.483 936.773 463.127 940.064 461.764C943.354 460.401 946.166 458.093 948.144 455.132C950.123 452.171 951.179 448.69 951.179 445.129C951.173 440.355 949.275 435.778 945.899 432.403C942.524 429.027 937.947 427.129 933.173 427.123Z" fill="#E6E6E6"/>
<path d="M1057.19 524.859H989.18C988.327 524.86 987.481 524.693 986.692 524.368C985.903 524.042 985.186 523.564 984.582 522.96C983.977 522.357 983.498 521.641 983.171 520.852C982.844 520.064 982.676 519.218 982.676 518.365C982.676 517.511 982.844 516.666 983.171 515.877C983.498 515.088 983.977 514.372 984.582 513.769C985.186 513.166 985.903 512.687 986.692 512.362C987.481 512.036 988.327 511.869 989.18 511.87H1057.19C1058.91 511.873 1060.56 512.558 1061.77 513.776C1062.99 514.994 1063.67 516.644 1063.67 518.365C1063.67 520.085 1062.99 521.736 1061.77 522.953C1060.56 524.171 1058.91 524.856 1057.19 524.859Z" fill="#E6E6E6"/>
<path d="M1209.64 551.421H989.181C988.328 551.421 987.483 551.253 986.696 550.927C985.908 550.6 985.192 550.122 984.589 549.519C983.986 548.916 983.507 548.2 983.181 547.412C982.854 546.624 982.687 545.78 982.687 544.927C982.687 544.074 982.854 543.229 983.181 542.441C983.507 541.654 983.986 540.938 984.589 540.335C985.192 539.731 985.908 539.253 986.696 538.927C987.483 538.6 988.328 538.432 989.181 538.432H1209.64C1211.36 538.432 1213.01 539.117 1214.23 540.335C1215.45 541.552 1216.13 543.204 1216.13 544.927C1216.13 546.649 1215.45 548.301 1214.23 549.519C1213.01 550.737 1211.36 551.421 1209.64 551.421Z" fill="#E6E6E6"/>
<path d="M933.174 551.152C928.979 551.152 924.879 549.908 921.391 547.578C917.904 545.248 915.186 541.936 913.58 538.061C911.975 534.186 911.555 529.922 912.373 525.808C913.191 521.694 915.211 517.915 918.177 514.949C921.143 511.983 924.922 509.963 929.035 509.145C933.149 508.327 937.413 508.747 941.288 510.352C945.163 511.957 948.476 514.675 950.806 518.163C953.136 521.65 954.38 525.75 954.38 529.945C954.374 535.567 952.138 540.957 948.162 544.933C944.187 548.909 938.796 551.145 933.174 551.152ZM933.174 511.938C929.612 511.938 926.131 512.994 923.17 514.973C920.208 516.951 917.9 519.763 916.537 523.053C915.174 526.344 914.818 529.964 915.512 533.457C916.207 536.95 917.922 540.159 920.44 542.677C922.958 545.195 926.167 546.91 929.66 547.605C933.153 548.3 936.773 547.944 940.064 546.581C943.354 545.218 946.166 542.91 948.145 539.949C950.123 536.988 951.179 533.506 951.179 529.945C951.174 525.171 949.275 520.594 945.9 517.218C942.524 513.843 937.948 511.944 933.174 511.938Z" fill="#E6E6E6"/>
<path d="M876.474 259.515H862.055L867.525 253.924C867.776 253.667 867.915 253.322 867.911 252.963C867.907 252.604 867.761 252.262 867.504 252.011C867.377 251.887 867.227 251.789 867.062 251.723C866.897 251.657 866.721 251.624 866.544 251.626C866.185 251.63 865.843 251.776 865.592 252.032L857.874 259.921C857.627 260.174 857.488 260.513 857.488 260.867C857.488 261.22 857.627 261.56 857.874 261.812L865.592 269.702C865.843 269.958 866.185 270.104 866.544 270.108C866.902 270.112 867.248 269.974 867.504 269.723C867.761 269.472 867.907 269.129 867.911 268.771C867.915 268.412 867.776 268.067 867.525 267.81L862.057 262.22H876.474C876.832 262.219 877.175 262.076 877.427 261.822C877.68 261.569 877.822 261.225 877.822 260.868C877.822 260.51 877.68 260.166 877.427 259.913C877.175 259.659 876.832 259.516 876.474 259.515Z" fill="#3F3D56"/>
<path d="M491.608 966.16C486.595 966.16 482.861 965.413 480.408 963.92C478.008 962.427 476.808 959.627 476.808 955.52C476.808 953.547 476.861 951.733 476.968 950.08C477.075 948.427 477.181 946.8 477.288 945.2C477.448 943.547 477.528 941.84 477.528 940.08C477.528 939.013 477.208 938.027 476.568 937.12C475.981 936.16 474.835 935.387 473.128 934.8C471.475 934.16 469.075 933.84 465.928 933.84V929.68C469.075 929.68 471.475 929.387 473.128 928.8C474.835 928.16 475.981 927.36 476.568 926.4C477.208 925.44 477.528 924.453 477.528 923.44C477.528 921.787 477.448 920.133 477.288 918.48C477.181 916.773 477.075 915.067 476.968 913.36C476.861 911.653 476.808 909.867 476.808 908C476.808 903.893 478.008 901.093 480.408 899.6C482.861 898.107 486.595 897.36 491.608 897.36H496.488V901.12H492.328C489.608 901.12 487.528 901.387 486.088 901.92C484.701 902.4 483.741 903.173 483.208 904.24C482.675 905.253 482.408 906.64 482.408 908.4C482.408 910.693 482.488 913.067 482.648 915.52C482.808 917.92 482.888 920.373 482.888 922.88C482.888 925.44 482.355 927.413 481.288 928.8C480.275 930.187 478.381 931.12 475.608 931.6V931.92C478.381 932.4 480.275 933.333 481.288 934.72C482.355 936.107 482.888 938.08 482.888 940.64C482.888 943.307 482.808 945.787 482.648 948.08C482.488 950.32 482.408 952.667 482.408 955.12C482.408 956.827 482.675 958.213 483.208 959.28C483.741 960.347 484.701 961.12 486.088 961.6C487.528 962.133 489.608 962.4 492.328 962.4H496.488V966.16H491.608ZM511.737 954V915.12H517.177L517.737 921.76H518.057C520.084 919.573 522.27 917.76 524.617 916.32C526.964 914.88 529.657 914.16 532.697 914.16C537.284 914.16 540.67 915.493 542.857 918.16C545.044 920.827 546.137 924.72 546.137 929.84V954H539.577V930.72C539.577 927.04 538.884 924.32 537.497 922.56C536.11 920.747 533.817 919.84 530.617 919.84C528.324 919.84 526.27 920.427 524.457 921.6C522.644 922.773 520.59 924.533 518.297 926.88V954H511.737ZM576.266 954.96C572.852 954.96 569.679 954.16 566.746 952.56C563.866 950.96 561.519 948.64 559.706 945.6C557.946 942.56 557.066 938.907 557.066 934.64C557.066 930.267 557.946 926.56 559.706 923.52C561.519 920.48 563.866 918.16 566.746 916.56C569.679 914.96 572.852 914.16 576.266 914.16C579.679 914.16 582.826 914.96 585.706 916.56C588.639 918.16 590.986 920.48 592.746 923.52C594.559 926.56 595.466 930.267 595.466 934.64C595.466 938.907 594.559 942.56 592.746 945.6C590.986 948.64 588.639 950.96 585.706 952.56C582.826 954.16 579.679 954.96 576.266 954.96ZM576.266 949.52C578.772 949.52 580.959 948.907 582.826 947.68C584.692 946.4 586.132 944.64 587.146 942.4C588.159 940.16 588.666 937.573 588.666 934.64C588.666 931.653 588.159 929.04 587.146 926.8C586.132 924.507 584.692 922.747 582.826 921.52C580.959 920.24 578.772 919.6 576.266 919.6C573.759 919.6 571.572 920.24 569.706 921.52C567.892 922.747 566.452 924.507 565.386 926.8C564.372 929.04 563.866 931.653 563.866 934.64C563.866 937.573 564.372 940.16 565.386 942.4C566.452 944.64 567.892 946.4 569.706 947.68C571.572 948.907 573.759 949.52 576.266 949.52ZM631.754 954.96C627.968 954.96 624.981 954.293 622.794 952.96C620.608 951.573 619.034 949.68 618.074 947.28C617.168 944.88 616.714 942.08 616.714 938.88V920.48H605.754V915.52L616.954 915.12L617.834 902.64H623.274V915.12H642.394V920.48H623.274V938.96C623.274 941.253 623.568 943.2 624.154 944.8C624.741 946.4 625.754 947.6 627.194 948.4C628.634 949.2 630.608 949.6 633.114 949.6C634.981 949.6 636.661 949.44 638.154 949.12C639.648 948.8 641.088 948.373 642.474 947.84L643.914 952.64C642.154 953.28 640.288 953.813 638.314 954.24C636.394 954.72 634.208 954.96 631.754 954.96ZM673.483 954V920.48H655.403V915.12H680.043V954H673.483ZM676.043 906.96C674.55 906.96 673.296 906.507 672.283 905.6C671.27 904.64 670.763 903.387 670.763 901.84C670.763 900.293 671.27 899.067 672.283 898.16C673.296 897.2 674.55 896.72 676.043 896.72C677.536 896.72 678.79 897.2 679.803 898.16C680.816 899.067 681.323 900.293 681.323 901.84C681.323 903.387 680.816 904.64 679.803 905.6C678.79 906.507 677.536 906.96 676.043 906.96ZM715.532 954V911.84C715.532 908.693 716.092 905.947 717.212 903.6C718.385 901.2 720.119 899.36 722.412 898.08C724.705 896.747 727.639 896.08 731.212 896.08C733.132 896.08 734.999 896.267 736.812 896.64C738.679 896.96 740.545 897.52 742.412 898.32L740.892 903.28C739.292 902.533 737.799 902.053 736.412 901.84C735.079 901.573 733.559 901.44 731.852 901.44C728.385 901.44 725.879 902.347 724.332 904.16C722.785 905.973 722.012 908.453 722.012 911.6V954H715.532ZM704.412 920.48V915.52L715.772 915.12H738.332V920.48H704.412ZM769.421 954V920.48H751.341V915.12H775.981V954H769.421ZM771.981 906.96C770.487 906.96 769.234 906.507 768.221 905.6C767.207 904.64 766.701 903.387 766.701 901.84C766.701 900.293 767.207 899.067 768.221 898.16C769.234 897.2 770.487 896.72 771.981 896.72C773.474 896.72 774.727 897.2 775.741 898.16C776.754 899.067 777.261 900.293 777.261 901.84C777.261 903.387 776.754 904.64 775.741 905.6C774.727 906.507 773.474 906.96 771.981 906.96ZM819.789 954.96C815.736 954.96 812.083 954.16 808.829 952.56C805.629 950.96 803.096 948.64 801.229 945.6C799.416 942.56 798.509 938.907 798.509 934.64C798.509 930.267 799.496 926.56 801.469 923.52C803.443 920.48 806.056 918.16 809.309 916.56C812.616 914.96 816.243 914.16 820.189 914.16C823.389 914.16 826.136 914.72 828.429 915.84C830.776 916.96 832.749 918.293 834.349 919.84L831.069 924.08C829.469 922.693 827.816 921.6 826.109 920.8C824.403 920 822.509 919.6 820.429 919.6C817.443 919.6 814.803 920.24 812.509 921.52C810.216 922.747 808.429 924.507 807.149 926.8C805.923 929.04 805.309 931.653 805.309 934.64C805.309 937.573 805.923 940.16 807.149 942.4C808.376 944.64 810.109 946.4 812.349 947.68C814.643 948.907 817.283 949.52 820.269 949.52C822.669 949.52 824.856 949.04 826.829 948.08C828.856 947.12 830.669 945.973 832.269 944.64L835.229 948.88C833.096 950.8 830.696 952.293 828.029 953.36C825.416 954.427 822.669 954.96 819.789 954.96ZM859.758 954.96C857.358 954.96 855.145 954.533 853.118 953.68C851.091 952.773 849.491 951.493 848.318 949.84C847.145 948.187 846.558 946.213 846.558 943.92C846.558 939.547 848.745 936.24 853.118 934C857.491 931.707 864.691 930.16 874.718 929.36C874.665 927.6 874.291 925.973 873.598 924.48C872.958 922.987 871.891 921.813 870.398 920.96C868.905 920.053 866.905 919.6 864.398 919.6C862.745 919.6 861.091 919.84 859.438 920.32C857.838 920.747 856.291 921.333 854.798 922.08C853.358 922.773 852.025 923.493 850.798 924.24L848.238 919.76C849.518 918.907 851.065 918.053 852.878 917.2C854.745 916.293 856.745 915.573 858.878 915.04C861.011 914.453 863.225 914.16 865.518 914.16C869.091 914.16 872.025 914.827 874.318 916.16C876.665 917.493 878.398 919.36 879.518 921.76C880.691 924.107 881.278 926.907 881.278 930.16V954H875.918L875.358 948.72H875.118C872.985 950.427 870.585 951.893 867.918 953.12C865.251 954.347 862.531 954.96 859.758 954.96ZM861.518 949.68C863.758 949.68 865.971 949.173 868.158 948.16C870.345 947.147 872.531 945.733 874.718 943.92V933.68C869.171 934.16 864.798 934.827 861.598 935.68C858.451 936.533 856.211 937.627 854.878 938.96C853.598 940.24 852.958 941.733 852.958 943.44C852.958 944.88 853.358 946.08 854.158 947.04C854.958 947.947 855.998 948.613 857.278 949.04C858.611 949.467 860.025 949.68 861.518 949.68ZM919.567 954.96C915.78 954.96 912.794 954.293 910.607 952.96C908.42 951.573 906.847 949.68 905.887 947.28C904.98 944.88 904.527 942.08 904.527 938.88V920.48H893.567V915.52L904.767 915.12L905.647 902.64H911.087V915.12H930.207V920.48H911.087V938.96C911.087 941.253 911.38 943.2 911.967 944.8C912.554 946.4 913.567 947.6 915.007 948.4C916.447 949.2 918.42 949.6 920.927 949.6C922.794 949.6 924.474 949.44 925.967 949.12C927.46 948.8 928.9 948.373 930.287 947.84L931.727 952.64C929.967 953.28 928.1 953.813 926.127 954.24C924.207 954.72 922.02 954.96 919.567 954.96ZM961.296 954V920.48H943.216V915.12H967.856V954H961.296ZM963.856 906.96C962.362 906.96 961.109 906.507 960.096 905.6C959.082 904.64 958.576 903.387 958.576 901.84C958.576 900.293 959.082 899.067 960.096 898.16C961.109 897.2 962.362 896.72 963.856 896.72C965.349 896.72 966.602 897.2 967.616 898.16C968.629 899.067 969.136 900.293 969.136 901.84C969.136 903.387 968.629 904.64 967.616 905.6C966.602 906.507 965.349 906.96 963.856 906.96ZM1007.98 954.96C1004.57 954.96 1001.4 954.16 998.464 952.56C995.584 950.96 993.238 948.64 991.424 945.6C989.664 942.56 988.784 938.907 988.784 934.64C988.784 930.267 989.664 926.56 991.424 923.52C993.238 920.48 995.584 918.16 998.464 916.56C1001.4 914.96 1004.57 914.16 1007.98 914.16C1011.4 914.16 1014.54 914.96 1017.42 916.56C1020.36 918.16 1022.7 920.48 1024.46 923.52C1026.28 926.56 1027.18 930.267 1027.18 934.64C1027.18 938.907 1026.28 942.56 1024.46 945.6C1022.7 948.64 1020.36 950.96 1017.42 952.56C1014.54 954.16 1011.4 954.96 1007.98 954.96ZM1007.98 949.52C1010.49 949.52 1012.68 948.907 1014.54 947.68C1016.41 946.4 1017.85 944.64 1018.86 942.4C1019.88 940.16 1020.38 937.573 1020.38 934.64C1020.38 931.653 1019.88 929.04 1018.86 926.8C1017.85 924.507 1016.41 922.747 1014.54 921.52C1012.68 920.24 1010.49 919.6 1007.98 919.6C1005.48 919.6 1003.29 920.24 1001.42 921.52C999.611 922.747 998.171 924.507 997.104 926.8C996.091 929.04 995.584 931.653 995.584 934.64C995.584 937.573 996.091 940.16 997.104 942.4C998.171 944.64 999.611 946.4 1001.42 947.68C1003.29 948.907 1005.48 949.52 1007.98 949.52ZM1039.39 954V915.12H1044.83L1045.39 921.76H1045.71C1047.74 919.573 1049.93 917.76 1052.27 916.32C1054.62 914.88 1057.31 914.16 1060.35 914.16C1064.94 914.16 1068.33 915.493 1070.51 918.16C1072.7 920.827 1073.79 924.72 1073.79 929.84V954H1067.23V930.72C1067.23 927.04 1066.54 924.32 1065.15 922.56C1063.77 920.747 1061.47 919.84 1058.27 919.84C1055.98 919.84 1053.93 920.427 1052.11 921.6C1050.3 922.773 1048.25 924.533 1045.95 926.88V954H1039.39ZM1104.72 954.96C1100.94 954.96 1097.39 954.347 1094.08 953.12C1090.78 951.893 1087.95 950.48 1085.6 948.88L1088.64 944.56C1090.88 946.16 1093.36 947.44 1096.08 948.4C1098.8 949.36 1101.95 949.84 1105.52 949.84C1108.83 949.84 1111.28 949.227 1112.88 948C1114.54 946.773 1115.36 945.36 1115.36 943.76C1115.36 943.013 1115.2 942.32 1114.88 941.68C1114.62 941.04 1114.06 940.427 1113.2 939.84C1112.4 939.253 1111.2 938.693 1109.6 938.16C1108 937.627 1105.87 937.093 1103.2 936.56C1098.14 935.493 1094.32 934.053 1091.76 932.24C1089.26 930.427 1088 928.08 1088 925.2C1088 922.053 1089.36 919.44 1092.08 917.36C1094.8 915.227 1098.83 914.16 1104.16 914.16C1107.15 914.16 1110.03 914.667 1112.8 915.68C1115.58 916.64 1117.92 917.787 1119.84 919.12L1116.64 923.36C1114.88 922.08 1112.88 921.093 1110.64 920.4C1108.4 919.653 1106.06 919.28 1103.6 919.28C1101.36 919.28 1099.58 919.547 1098.24 920.08C1096.96 920.56 1096.03 921.227 1095.44 922.08C1094.91 922.933 1094.64 923.867 1094.64 924.88C1094.64 926.533 1095.52 927.84 1097.28 928.8C1099.1 929.707 1101.98 930.56 1105.92 931.36C1110.24 932.267 1113.55 933.28 1115.84 934.4C1118.19 935.52 1119.79 936.8 1120.64 938.24C1121.55 939.68 1122 941.387 1122 943.36C1122 945.493 1121.34 947.44 1120 949.2C1118.67 950.907 1116.72 952.293 1114.16 953.36C1111.6 954.427 1108.46 954.96 1104.72 954.96ZM1151.89 926.32C1150.13 926.32 1148.61 925.707 1147.33 924.48C1146.05 923.2 1145.41 921.573 1145.41 919.6C1145.41 917.573 1146.05 915.947 1147.33 914.72C1148.61 913.44 1150.13 912.8 1151.89 912.8C1153.7 912.8 1155.22 913.44 1156.45 914.72C1157.73 915.947 1158.37 917.573 1158.37 919.6C1158.37 921.573 1157.73 923.2 1156.45 924.48C1155.22 925.707 1153.7 926.32 1151.89 926.32ZM1151.89 954.96C1150.13 954.96 1148.61 954.347 1147.33 953.12C1146.05 951.84 1145.41 950.213 1145.41 948.24C1145.41 946.213 1146.05 944.587 1147.33 943.36C1148.61 942.08 1150.13 941.44 1151.89 941.44C1153.7 941.44 1155.22 942.08 1156.45 943.36C1157.73 944.587 1158.37 946.213 1158.37 948.24C1158.37 950.213 1157.73 951.84 1156.45 953.12C1155.22 954.347 1153.7 954.96 1151.89 954.96ZM1423.62 966.16V962.4H1427.7C1430.48 962.4 1432.56 962.133 1433.94 961.6C1435.38 961.12 1436.37 960.347 1436.9 959.28C1437.44 958.213 1437.7 956.827 1437.7 955.12C1437.7 952.667 1437.62 950.32 1437.46 948.08C1437.3 945.787 1437.22 943.307 1437.22 940.64C1437.22 938.08 1437.73 936.107 1438.74 934.72C1439.76 933.333 1441.65 932.4 1444.42 931.92V931.6C1441.65 931.12 1439.76 930.187 1438.74 928.8C1437.73 927.413 1437.22 925.44 1437.22 922.88C1437.22 920.373 1437.3 917.92 1437.46 915.52C1437.62 913.067 1437.7 910.693 1437.7 908.4C1437.7 906.64 1437.44 905.253 1436.9 904.24C1436.37 903.173 1435.38 902.4 1433.94 901.92C1432.56 901.387 1430.48 901.12 1427.7 901.12H1423.62V897.36H1428.5C1433.52 897.36 1437.22 898.107 1439.62 899.6C1442.02 901.093 1443.22 903.893 1443.22 908C1443.22 909.867 1443.17 911.653 1443.06 913.36C1442.96 915.067 1442.82 916.773 1442.66 918.48C1442.56 920.133 1442.5 921.787 1442.5 923.44C1442.5 924.453 1442.8 925.44 1443.38 926.4C1444.02 927.36 1445.17 928.16 1446.82 928.8C1448.53 929.387 1450.96 929.68 1454.1 929.68V933.84C1450.96 933.84 1448.53 934.16 1446.82 934.8C1445.17 935.387 1444.02 936.16 1443.38 937.12C1442.8 938.027 1442.5 939.013 1442.5 940.08C1442.5 941.84 1442.56 943.547 1442.66 945.2C1442.82 946.8 1442.96 948.427 1443.06 950.08C1443.17 951.733 1443.22 953.547 1443.22 955.52C1443.22 959.627 1442.02 962.427 1439.62 963.92C1437.22 965.413 1433.52 966.16 1428.5 966.16H1423.62Z" fill="black"/>
<path d="M1255.35 954.96C1251.56 954.96 1248.57 954.293 1246.39 952.96C1244.2 951.573 1242.63 949.68 1241.67 947.28C1240.76 944.88 1240.31 942.08 1240.31 938.88V920.48H1229.35V915.52L1240.55 915.12L1241.43 902.64H1246.87V915.12H1265.99V920.48H1246.87V938.96C1246.87 941.253 1247.16 943.2 1247.75 944.8C1248.33 946.4 1249.35 947.6 1250.79 948.4C1252.23 949.2 1254.2 949.6 1256.71 949.6C1258.57 949.6 1260.25 949.44 1261.75 949.12C1263.24 948.8 1264.68 948.373 1266.07 947.84L1267.51 952.64C1265.75 953.28 1263.88 953.813 1261.91 954.24C1259.99 954.72 1257.8 954.96 1255.35 954.96ZM1283.48 954V915.12H1288.92L1289.48 924.32H1289.72C1291.74 921.173 1294.25 918.693 1297.24 916.88C1300.22 915.067 1303.5 914.16 1307.08 914.16C1308.52 914.16 1309.85 914.293 1311.08 914.56C1312.36 914.773 1313.58 915.173 1314.76 915.76L1313.24 921.44C1311.9 920.96 1310.76 920.613 1309.8 920.4C1308.84 920.187 1307.58 920.08 1306.04 920.08C1303.1 920.08 1300.28 920.933 1297.56 922.64C1294.89 924.293 1292.38 927.147 1290.04 931.2V954H1283.48ZM1339.45 954.96C1334.81 954.96 1331.39 953.627 1329.21 950.96C1327.02 948.293 1325.93 944.4 1325.93 939.28V915.12H1332.57V938.4C1332.57 942.08 1333.23 944.827 1334.57 946.64C1335.95 948.4 1338.27 949.28 1341.53 949.28C1343.77 949.28 1345.79 948.72 1347.61 947.6C1349.47 946.427 1351.47 944.587 1353.61 942.08V915.12H1360.17V954H1354.81L1354.25 947.2H1353.93C1351.95 949.44 1349.79 951.307 1347.45 952.8C1345.1 954.24 1342.43 954.96 1339.45 954.96ZM1394.13 954.96C1390.24 954.96 1386.69 954.16 1383.49 952.56C1380.35 950.96 1377.84 948.64 1375.97 945.6C1374.11 942.507 1373.17 938.8 1373.17 934.48C1373.17 930.267 1374.11 926.64 1375.97 923.6C1377.84 920.56 1380.27 918.24 1383.25 916.64C1386.29 914.987 1389.55 914.16 1393.01 914.16C1396.75 914.16 1399.92 914.933 1402.53 916.48C1405.2 917.973 1407.23 920.08 1408.61 922.8C1410.05 925.52 1410.77 928.72 1410.77 932.4C1410.77 933.147 1410.75 933.867 1410.69 934.56C1410.64 935.253 1410.56 935.867 1410.45 936.4H1377.57V931.28H1406.53L1404.85 933.12C1404.85 928.533 1403.79 925.093 1401.65 922.8C1399.57 920.507 1396.75 919.36 1393.17 919.36C1390.77 919.36 1388.53 919.947 1386.45 921.12C1384.43 922.293 1382.8 924 1381.57 926.24C1380.35 928.48 1379.73 931.227 1379.73 934.48C1379.73 937.84 1380.4 940.64 1381.73 942.88C1383.07 945.12 1384.88 946.827 1387.17 948C1389.47 949.12 1392.05 949.68 1394.93 949.68C1397.28 949.68 1399.39 949.36 1401.25 948.72C1403.17 948.027 1405.01 947.12 1406.77 946L1409.17 950.32C1407.25 951.6 1405.04 952.693 1402.53 953.6C1400.08 954.507 1397.28 954.96 1394.13 954.96Z" fill="#FF5200"/>
</svg>
