<svg width="1920" height="1080" viewBox="0 0 1920 1080" fill="none" xmlns="http://www.w3.org/2000/svg">
<rect width="1920" height="1080" fill="url(#paint0_linear_401_2)"/>
<path d="M1184.39 300.413H1179.36V162.702C1179.36 141.563 1170.96 121.291 1156.01 106.344C1141.07 91.3971 1120.79 83 1099.66 83H807.895C786.757 83 766.484 91.3971 751.537 106.344C736.591 121.291 728.193 141.563 728.193 162.702V918.2C728.193 939.338 736.591 959.61 751.537 974.557C766.484 989.504 786.757 997.901 807.895 997.901H1099.66C1120.79 997.901 1141.07 989.504 1156.01 974.557C1170.96 959.61 1179.36 939.338 1179.36 918.2V398.438H1184.39V300.413Z" fill="#1D1D1D"/>
<path d="M1102.87 103.733H1064.79C1066.54 108.028 1067.21 112.687 1066.74 117.301C1066.26 121.914 1064.66 126.341 1062.08 130.191C1059.49 134.04 1056 137.194 1051.9 139.375C1047.81 141.556 1043.24 142.697 1038.61 142.697H871.46C866.822 142.696 862.256 141.555 858.164 139.375C854.071 137.194 850.578 134.04 847.991 130.191C845.404 126.342 843.804 121.916 843.331 117.303C842.858 112.69 843.526 108.031 845.278 103.737H809.701C793.915 103.737 778.775 110.008 767.613 121.171C756.45 132.333 750.179 147.473 750.179 163.259V917.645C750.179 933.431 756.45 948.571 767.613 959.734C778.775 970.896 793.915 977.167 809.701 977.167H1102.86C1118.65 977.167 1133.79 970.896 1144.95 959.734C1156.11 948.571 1162.38 933.431 1162.38 917.645V163.256C1162.38 147.469 1156.11 132.33 1144.95 121.167C1133.79 110.004 1118.65 103.733 1102.86 103.733H1102.87Z" fill="white"/>
<path d="M1138.2 696.214H786.689C784.963 696.212 783.308 695.526 782.088 694.305C780.868 693.085 780.181 691.43 780.179 689.705V602.509C780.181 600.784 780.868 599.129 782.088 597.909C783.308 596.688 784.963 596.002 786.689 596H1138.2C1139.93 596.002 1141.58 596.688 1142.8 597.909C1144.02 599.129 1144.71 600.784 1144.71 602.509V689.706C1144.71 691.431 1144.02 693.086 1142.8 694.306C1141.58 695.526 1139.93 696.212 1138.2 696.214ZM786.689 598.603C785.653 598.604 784.66 599.016 783.928 599.749C783.196 600.481 782.784 601.474 782.783 602.509V689.706C782.784 690.742 783.196 691.734 783.928 692.467C784.66 693.199 785.653 693.611 786.689 693.612H1138.2C1139.24 693.611 1140.23 693.199 1140.96 692.467C1141.7 691.734 1142.11 690.742 1142.11 689.706V602.509C1142.11 601.474 1141.7 600.481 1140.96 599.749C1140.23 599.016 1139.24 598.604 1138.2 598.603H786.689Z" fill="#666666"/>
<path d="M886.059 640.648C885.584 640.648 885.185 640.487 884.863 640.165C884.541 639.843 884.38 639.444 884.38 638.969C884.38 638.494 884.541 638.095 884.863 637.773C885.185 637.451 885.584 637.29 886.059 637.29C886.519 637.29 886.91 637.451 887.232 637.773C887.554 638.095 887.715 638.494 887.715 638.969C887.715 639.444 887.554 639.843 887.232 640.165C886.91 640.487 886.519 640.648 886.059 640.648ZM887.347 642.327V655H884.725V642.327H887.347ZM895.343 642.12C896.34 642.12 897.229 642.327 898.011 642.741C898.809 643.155 899.43 643.768 899.874 644.581C900.319 645.394 900.541 646.375 900.541 647.525V655H897.942V647.916C897.942 646.781 897.659 645.915 897.091 645.317C896.524 644.704 895.75 644.397 894.768 644.397C893.787 644.397 893.005 644.704 892.422 645.317C891.855 645.915 891.571 646.781 891.571 647.916V655H888.949V642.327H891.571V643.776C892.001 643.255 892.545 642.848 893.204 642.557C893.879 642.266 894.592 642.12 895.343 642.12ZM907.359 644.466H905.013V655H902.368V644.466H900.873V642.327H902.368V641.43C902.368 639.973 902.751 638.915 903.518 638.256C904.3 637.581 905.519 637.244 907.175 637.244V639.429C906.378 639.429 905.818 639.582 905.496 639.889C905.174 640.18 905.013 640.694 905.013 641.43V642.327H907.359V644.466ZM913.34 655.207C912.144 655.207 911.063 654.939 910.097 654.402C909.131 653.85 908.372 653.083 907.82 652.102C907.268 651.105 906.992 649.955 906.992 648.652C906.992 647.364 907.275 646.222 907.843 645.225C908.41 644.228 909.184 643.462 910.166 642.925C911.147 642.388 912.243 642.12 913.455 642.12C914.666 642.12 915.762 642.388 916.744 642.925C917.725 643.462 918.499 644.228 919.067 645.225C919.634 646.222 919.918 647.364 919.918 648.652C919.918 649.94 919.626 651.082 919.044 652.079C918.461 653.076 917.664 653.85 916.652 654.402C915.655 654.939 914.551 655.207 913.34 655.207ZM913.34 652.93C914.014 652.93 914.643 652.769 915.226 652.447C915.824 652.125 916.307 651.642 916.675 650.998C917.043 650.354 917.227 649.572 917.227 648.652C917.227 647.732 917.05 646.958 916.698 646.329C916.345 645.685 915.877 645.202 915.295 644.88C914.712 644.558 914.083 644.397 913.409 644.397C912.734 644.397 912.105 644.558 911.523 644.88C910.955 645.202 910.503 645.685 910.166 646.329C909.828 646.958 909.66 647.732 909.66 648.652C909.66 650.017 910.005 651.075 910.695 651.826C911.4 652.562 912.282 652.93 913.34 652.93ZM932.469 640.142C934.217 640.142 935.727 640.464 937 641.108C938.272 641.752 939.238 642.657 939.898 643.822C940.572 644.972 940.91 646.314 940.91 647.847C940.91 649.074 940.695 650.247 940.266 651.366C939.852 652.485 939.246 653.398 938.449 654.103C937.667 654.808 936.739 655.161 935.666 655.161C934.884 655.161 934.27 654.992 933.826 654.655C933.381 654.302 933.105 653.812 932.998 653.183C932.522 653.796 931.924 654.279 931.204 654.632C930.483 654.985 929.732 655.161 928.95 655.161C927.769 655.161 926.841 654.808 926.167 654.103C925.507 653.382 925.178 652.409 925.178 651.182C925.178 650.017 925.415 648.928 925.891 647.916C926.381 646.904 927.064 646.099 927.938 645.501C928.812 644.888 929.793 644.581 930.882 644.581C932.216 644.581 933.151 645.033 933.688 645.938L933.895 644.788H936.172L935.022 651.366C934.976 651.688 934.953 651.972 934.953 652.217C934.953 652.616 935.029 652.915 935.183 653.114C935.351 653.313 935.643 653.413 936.057 653.413C936.639 653.413 937.138 653.129 937.552 652.562C937.966 651.979 938.272 651.266 938.472 650.423C938.686 649.58 938.794 648.759 938.794 647.962C938.794 646.015 938.226 644.527 937.092 643.5C935.957 642.473 934.309 641.959 932.147 641.959C930.337 641.959 928.712 642.388 927.271 643.247C925.845 644.106 924.725 645.286 923.913 646.789C923.1 648.292 922.694 649.963 922.694 651.803C922.694 653.766 923.276 655.261 924.442 656.288C925.607 657.315 927.271 657.829 929.433 657.829C930.889 657.829 932.162 657.561 933.251 657.024L933.596 658.772C932.2 659.37 930.636 659.669 928.904 659.669C927.232 659.669 925.768 659.355 924.511 658.726C923.253 658.097 922.28 657.2 921.59 656.035C920.9 654.885 920.555 653.543 920.555 652.01C920.555 649.817 921.061 647.816 922.073 646.007C923.1 644.198 924.518 642.772 926.328 641.729C928.137 640.671 930.184 640.142 932.469 640.142ZM929.755 653.137C930.399 653.137 930.981 652.953 931.503 652.585C932.039 652.202 932.461 651.703 932.768 651.09C933.074 650.461 933.228 649.794 933.228 649.089C933.228 648.353 933.021 647.755 932.607 647.295C932.208 646.82 931.641 646.582 930.905 646.582C930.245 646.582 929.663 646.789 929.157 647.203C928.666 647.602 928.283 648.123 928.007 648.767C927.746 649.411 927.616 650.086 927.616 650.791C927.616 651.512 927.792 652.087 928.145 652.516C928.497 652.93 929.034 653.137 929.755 653.137ZM941.54 648.606C941.54 647.333 941.8 646.206 942.322 645.225C942.858 644.244 943.579 643.485 944.484 642.948C945.404 642.396 946.416 642.12 947.52 642.12C948.516 642.12 949.383 642.319 950.119 642.718C950.87 643.101 951.468 643.584 951.913 644.167V642.327H954.558V655H951.913V653.114C951.468 653.712 950.862 654.21 950.096 654.609C949.329 655.008 948.455 655.207 947.474 655.207C946.385 655.207 945.388 654.931 944.484 654.379C943.579 653.812 942.858 653.03 942.322 652.033C941.8 651.021 941.54 649.879 941.54 648.606ZM951.913 648.652C951.913 647.778 951.729 647.019 951.361 646.375C951.008 645.731 950.54 645.24 949.958 644.903C949.375 644.566 948.746 644.397 948.072 644.397C947.397 644.397 946.768 644.566 946.186 644.903C945.603 645.225 945.128 645.708 944.76 646.352C944.407 646.981 944.231 647.732 944.231 648.606C944.231 649.48 944.407 650.247 944.76 650.906C945.128 651.565 945.603 652.071 946.186 652.424C946.784 652.761 947.412 652.93 948.072 652.93C948.746 652.93 949.375 652.761 949.958 652.424C950.54 652.087 951.008 651.596 951.361 650.952C951.729 650.293 951.913 649.526 951.913 648.652ZM958.784 644.19C959.228 643.607 959.834 643.117 960.601 642.718C961.367 642.319 962.234 642.12 963.2 642.12C964.304 642.12 965.308 642.396 966.213 642.948C967.133 643.485 967.853 644.244 968.375 645.225C968.896 646.206 969.157 647.333 969.157 648.606C969.157 649.879 968.896 651.021 968.375 652.033C967.853 653.03 967.133 653.812 966.213 654.379C965.308 654.931 964.304 655.207 963.2 655.207C962.234 655.207 961.375 655.015 960.624 654.632C959.872 654.233 959.259 653.743 958.784 653.16V661.026H956.162V642.327H958.784V644.19ZM966.489 648.606C966.489 647.732 966.305 646.981 965.937 646.352C965.584 645.708 965.109 645.225 964.511 644.903C963.928 644.566 963.299 644.397 962.625 644.397C961.965 644.397 961.337 644.566 960.739 644.903C960.156 645.24 959.681 645.731 959.313 646.375C958.96 647.019 958.784 647.778 958.784 648.652C958.784 649.526 958.96 650.293 959.313 650.952C959.681 651.596 960.156 652.087 960.739 652.424C961.337 652.761 961.965 652.93 962.625 652.93C963.299 652.93 963.928 652.761 964.511 652.424C965.109 652.071 965.584 651.565 965.937 650.906C966.305 650.247 966.489 649.48 966.489 648.606ZM972.531 644.19C972.976 643.607 973.582 643.117 974.348 642.718C975.115 642.319 975.981 642.12 976.947 642.12C978.051 642.12 979.056 642.396 979.96 642.948C980.88 643.485 981.601 644.244 982.122 645.225C982.644 646.206 982.904 647.333 982.904 648.606C982.904 649.879 982.644 651.021 982.122 652.033C981.601 653.03 980.88 653.812 979.96 654.379C979.056 654.931 978.051 655.207 976.947 655.207C975.981 655.207 975.123 655.015 974.371 654.632C973.62 654.233 973.007 653.743 972.531 653.16V661.026H969.909V642.327H972.531V644.19ZM980.236 648.606C980.236 647.732 980.052 646.981 979.684 646.352C979.332 645.708 978.856 645.225 978.258 644.903C977.676 644.566 977.047 644.397 976.372 644.397C975.713 644.397 975.084 644.566 974.486 644.903C973.904 645.24 973.428 645.731 973.06 646.375C972.708 647.019 972.531 647.778 972.531 648.652C972.531 649.526 972.708 650.293 973.06 650.952C973.428 651.596 973.904 652.087 974.486 652.424C975.084 652.761 975.713 652.93 976.372 652.93C977.047 652.93 977.676 652.761 978.258 652.424C978.856 652.071 979.332 651.565 979.684 650.906C980.052 650.247 980.236 649.48 980.236 648.606ZM1000.68 642.327L996.744 655H993.984L991.431 645.639L988.878 655H986.118L982.162 642.327H984.83L987.475 652.516L990.166 642.327H992.903L995.479 652.47L998.101 642.327H1000.68ZM1003.42 644.167C1003.8 643.523 1004.31 643.025 1004.94 642.672C1005.58 642.304 1006.34 642.12 1007.21 642.12V644.834H1006.55C1005.52 644.834 1004.74 645.095 1004.2 645.616C1003.68 646.137 1003.42 647.042 1003.42 648.33V655H1000.8V642.327H1003.42V644.167ZM1009.12 640.648C1008.64 640.648 1008.24 640.487 1007.92 640.165C1007.6 639.843 1007.44 639.444 1007.44 638.969C1007.44 638.494 1007.6 638.095 1007.92 637.773C1008.24 637.451 1008.64 637.29 1009.12 637.29C1009.58 637.29 1009.97 637.451 1010.29 637.773C1010.61 638.095 1010.77 638.494 1010.77 638.969C1010.77 639.444 1010.61 639.843 1010.29 640.165C1009.97 640.487 1009.58 640.648 1009.12 640.648ZM1010.41 642.327V655H1007.78V642.327H1010.41ZM1015.07 644.466V651.481C1015.07 651.956 1015.17 652.301 1015.39 652.516C1015.62 652.715 1016 652.815 1016.54 652.815H1018.15V655H1016.08C1014.9 655 1013.99 654.724 1013.37 654.172C1012.74 653.62 1012.42 652.723 1012.42 651.481V644.466H1010.93V642.327H1012.42V639.176H1015.07V642.327H1018.15V644.466H1015.07ZM1030.34 648.353C1030.34 648.828 1030.31 649.258 1030.25 649.641H1020.57C1020.64 650.653 1021.02 651.466 1021.69 652.079C1022.37 652.692 1023.2 652.999 1024.18 652.999C1025.59 652.999 1026.58 652.409 1027.17 651.228H1030C1029.61 652.393 1028.92 653.352 1027.9 654.103C1026.91 654.839 1025.66 655.207 1024.18 655.207C1022.97 655.207 1021.88 654.939 1020.91 654.402C1019.96 653.85 1019.21 653.083 1018.66 652.102C1018.12 651.105 1017.85 649.955 1017.85 648.652C1017.85 647.349 1018.11 646.206 1018.63 645.225C1019.17 644.228 1019.91 643.462 1020.87 642.925C1021.83 642.388 1022.94 642.12 1024.18 642.12C1025.37 642.12 1026.44 642.381 1027.37 642.902C1028.31 643.423 1029.04 644.159 1029.56 645.11C1030.08 646.045 1030.34 647.126 1030.34 648.353ZM1027.6 647.525C1027.59 646.559 1027.24 645.785 1026.57 645.202C1025.89 644.619 1025.06 644.328 1024.06 644.328C1023.16 644.328 1022.38 644.619 1021.74 645.202C1021.1 645.769 1020.71 646.544 1020.59 647.525H1027.6ZM1033.7 644.167C1034.09 643.523 1034.59 643.025 1035.22 642.672C1035.87 642.304 1036.62 642.12 1037.5 642.12V644.834H1036.83C1035.8 644.834 1035.02 645.095 1034.49 645.616C1033.96 646.137 1033.7 647.042 1033.7 648.33V655H1031.08V642.327H1033.7V644.167ZM1042.67 655.207C1041.67 655.207 1040.77 655.031 1039.98 654.678C1039.2 654.31 1038.57 653.819 1038.11 653.206C1037.65 652.577 1037.41 651.88 1037.38 651.113H1040.09C1040.14 651.65 1040.39 652.102 1040.85 652.47C1041.33 652.823 1041.92 652.999 1042.62 652.999C1043.36 652.999 1043.93 652.861 1044.32 652.585C1044.74 652.294 1044.95 651.926 1044.95 651.481C1044.95 651.006 1044.72 650.653 1044.26 650.423C1043.81 650.193 1043.1 649.94 1042.12 649.664C1041.17 649.403 1040.39 649.15 1039.79 648.905C1039.2 648.66 1038.67 648.284 1038.23 647.778C1037.8 647.272 1037.59 646.605 1037.59 645.777C1037.59 645.102 1037.78 644.489 1038.18 643.937C1038.58 643.37 1039.15 642.925 1039.89 642.603C1040.64 642.281 1041.5 642.12 1042.46 642.12C1043.9 642.12 1045.06 642.488 1045.93 643.224C1046.82 643.945 1047.3 644.934 1047.36 646.191H1044.74C1044.69 645.624 1044.46 645.171 1044.05 644.834C1043.63 644.497 1043.07 644.328 1042.37 644.328C1041.68 644.328 1041.15 644.458 1040.78 644.719C1040.41 644.98 1040.23 645.325 1040.23 645.754C1040.23 646.091 1040.35 646.375 1040.6 646.605C1040.84 646.835 1041.14 647.019 1041.5 647.157C1041.85 647.28 1042.37 647.441 1043.06 647.64C1043.98 647.885 1044.73 648.138 1045.31 648.399C1045.91 648.644 1046.43 649.012 1046.85 649.503C1047.28 649.994 1047.51 650.645 1047.52 651.458C1047.52 652.179 1047.32 652.823 1046.92 653.39C1046.52 653.957 1045.96 654.402 1045.22 654.724C1044.5 655.046 1043.65 655.207 1042.67 655.207ZM1049.57 655.161C1049.1 655.161 1048.7 655 1048.38 654.678C1048.05 654.356 1047.89 653.957 1047.89 653.482C1047.89 653.007 1048.05 652.608 1048.38 652.286C1048.7 651.964 1049.1 651.803 1049.57 651.803C1050.03 651.803 1050.42 651.964 1050.75 652.286C1051.07 652.608 1051.23 653.007 1051.23 653.482C1051.23 653.957 1051.07 654.356 1050.75 654.678C1050.42 655 1050.03 655.161 1049.57 655.161ZM1051.35 648.606C1051.35 647.333 1051.61 646.206 1052.13 645.225C1052.67 644.244 1053.39 643.485 1054.29 642.948C1055.21 642.396 1056.23 642.12 1057.35 642.12C1058.18 642.12 1058.99 642.304 1059.79 642.672C1060.6 643.025 1061.25 643.5 1061.72 644.098V637.98H1064.37V655H1061.72V653.091C1061.29 653.704 1060.69 654.21 1059.93 654.609C1059.18 655.008 1058.31 655.207 1057.33 655.207C1056.22 655.207 1055.21 654.931 1054.29 654.379C1053.39 653.812 1052.67 653.03 1052.13 652.033C1051.61 651.021 1051.35 649.879 1051.35 648.606ZM1061.72 648.652C1061.72 647.778 1061.54 647.019 1061.17 646.375C1060.82 645.731 1060.35 645.24 1059.77 644.903C1059.18 644.566 1058.56 644.397 1057.88 644.397C1057.21 644.397 1056.58 644.566 1055.99 644.903C1055.41 645.225 1054.94 645.708 1054.57 646.352C1054.22 646.981 1054.04 647.732 1054.04 648.606C1054.04 649.48 1054.22 650.247 1054.57 650.906C1054.94 651.565 1055.41 652.071 1055.99 652.424C1056.59 652.761 1057.22 652.93 1057.88 652.93C1058.56 652.93 1059.18 652.761 1059.77 652.424C1060.35 652.087 1060.82 651.596 1061.17 650.952C1061.54 650.293 1061.72 649.526 1061.72 648.652ZM1077.59 648.353C1077.59 648.828 1077.55 649.258 1077.49 649.641H1067.81C1067.89 650.653 1068.26 651.466 1068.94 652.079C1069.61 652.692 1070.44 652.999 1071.42 652.999C1072.83 652.999 1073.83 652.409 1074.41 651.228H1077.24C1076.86 652.393 1076.16 653.352 1075.15 654.103C1074.15 654.839 1072.91 655.207 1071.42 655.207C1070.21 655.207 1069.12 654.939 1068.16 654.402C1067.2 653.85 1066.45 653.083 1065.9 652.102C1065.36 651.105 1065.1 649.955 1065.1 648.652C1065.1 647.349 1065.36 646.206 1065.88 645.225C1066.42 644.228 1067.16 643.462 1068.11 642.925C1069.08 642.388 1070.18 642.12 1071.42 642.12C1072.62 642.12 1073.68 642.381 1074.62 642.902C1075.55 643.423 1076.28 644.159 1076.8 645.11C1077.32 646.045 1077.59 647.126 1077.59 648.353ZM1074.85 647.525C1074.83 646.559 1074.49 645.785 1073.81 645.202C1073.14 644.619 1072.3 644.328 1071.31 644.328C1070.4 644.328 1069.63 644.619 1068.98 645.202C1068.34 645.769 1067.96 646.544 1067.83 647.525H1074.85ZM1083.22 652.654L1086.81 642.327H1089.6L1084.77 655H1081.64L1076.83 642.327H1079.64L1083.22 652.654Z" fill="black"/>
<path d="M1138.2 550.421H786.689C784.963 550.419 783.308 549.733 782.088 548.512C780.868 547.292 780.181 545.637 780.179 543.912V456.716C780.181 454.991 780.868 453.336 782.088 452.116C783.308 450.895 784.963 450.209 786.689 450.207H1138.2C1139.93 450.209 1141.58 450.895 1142.8 452.116C1144.02 453.336 1144.71 454.991 1144.71 456.716V543.913C1144.71 545.639 1144.02 547.293 1142.8 548.513C1141.58 549.733 1139.93 550.419 1138.2 550.421ZM786.689 452.811C785.653 452.812 784.66 453.223 783.928 453.956C783.196 454.688 782.784 455.681 782.783 456.716V543.913C782.784 544.949 783.196 545.941 783.928 546.674C784.66 547.406 785.653 547.818 786.689 547.819H1138.2C1139.24 547.818 1140.23 547.406 1140.96 546.674C1141.7 545.941 1142.11 544.949 1142.11 543.913V456.716C1142.11 455.681 1141.7 454.688 1140.96 453.956C1140.23 453.223 1139.24 452.812 1138.2 452.811H786.689Z" fill="#666666"/>
<path d="M798.094 485.281C798.094 507.717 816.283 525.906 838.719 525.906H844.812C846.429 525.906 847.979 525.264 849.121 524.121C850.264 522.979 850.906 521.429 850.906 519.812V516.097C850.906 514.699 849.956 513.48 848.599 513.142L836.62 510.146C835.428 509.849 834.177 510.295 833.443 511.276L830.816 514.778C830.052 515.796 828.733 516.246 827.539 515.807C823.105 514.177 819.078 511.602 815.738 508.262C812.398 504.922 809.823 500.895 808.193 496.461C807.754 495.267 808.204 493.948 809.222 493.184L812.724 490.557C813.707 489.823 814.151 488.569 813.854 487.38L810.858 475.401C810.693 474.742 810.313 474.157 809.778 473.739C809.242 473.321 808.583 473.094 807.903 473.094H804.187C802.571 473.094 801.021 473.736 799.879 474.879C798.736 476.021 798.094 477.571 798.094 479.187V485.281Z" stroke="black" stroke-width="1.5" stroke-linecap="round" stroke-linejoin="round"/>
<path d="M1138.2 404.214H786.689C784.963 404.212 783.308 403.526 782.088 402.305C780.868 401.085 780.181 399.43 780.179 397.705V310.509C780.181 308.784 780.868 307.129 782.088 305.909C783.308 304.688 784.963 304.002 786.689 304H1138.2C1139.93 304.002 1141.58 304.688 1142.8 305.909C1144.02 307.129 1144.71 308.784 1144.71 310.509V397.706C1144.71 399.431 1144.02 401.086 1142.8 402.306C1141.58 403.526 1139.93 404.212 1138.2 404.214ZM786.689 306.603C785.653 306.604 784.66 307.016 783.928 307.749C783.196 308.481 782.784 309.474 782.783 310.509V397.706C782.784 398.742 783.196 399.734 783.928 400.467C784.66 401.199 785.653 401.611 786.689 401.612H1138.2C1139.24 401.611 1140.23 401.199 1140.96 400.467C1141.7 399.734 1142.11 398.742 1142.11 397.706V310.509C1142.11 309.474 1141.7 308.481 1140.96 307.749C1140.23 307.016 1139.24 306.604 1138.2 306.603H786.689Z" fill="#666666"/>
<path d="M1138.2 842.214H786.689C784.963 842.212 783.308 841.526 782.088 840.305C780.868 839.085 780.181 837.43 780.179 835.705V748.509C780.181 746.784 780.868 745.129 782.088 743.909C783.308 742.688 784.963 742.002 786.689 742H1138.2C1139.93 742.002 1141.58 742.688 1142.8 743.909C1144.02 745.129 1144.71 746.784 1144.71 748.509V835.706C1144.71 837.431 1144.02 839.086 1142.8 840.306C1141.58 841.526 1139.93 842.212 1138.2 842.214ZM786.689 744.603C785.653 744.604 784.66 745.016 783.928 745.749C783.196 746.481 782.784 747.474 782.783 748.509V835.706C782.784 836.742 783.196 837.734 783.928 838.467C784.66 839.199 785.653 839.611 786.689 839.612H1138.2C1139.24 839.611 1140.23 839.199 1140.96 838.467C1141.7 837.734 1142.11 836.742 1142.11 835.706V748.509C1142.11 747.474 1141.7 746.481 1140.96 745.749C1140.23 745.016 1139.24 744.604 1138.2 744.603H786.689Z" fill="#666666"/>
<path d="M799.938 794.343C799.938 799.277 803.4 803.575 808.284 804.293C811.636 804.787 815.021 805.166 818.437 805.431V819.75L831.005 807.182C831.857 806.335 833.001 805.847 834.203 805.816C840.065 805.654 845.913 805.146 851.716 804.293C856.6 803.575 860.062 799.28 860.062 794.34V775.785C860.062 770.845 856.6 766.55 851.716 765.832C844.525 764.776 837.267 764.248 830 764.25C822.625 764.25 815.373 764.79 808.284 765.832C803.4 766.55 799.938 770.848 799.938 775.785V794.34V794.343Z" stroke="black" stroke-width="1.5" stroke-linecap="round" stroke-linejoin="round"/>
<path d="M886.3 793.175H881.25V798.35H878.6V793.175H873.55V790.775H878.6V785.6H881.25V790.775H886.3V793.175ZM891.897 796.05C892.063 796.883 892.422 797.517 892.972 797.95C893.522 798.383 894.263 798.6 895.197 798.6C896.38 798.6 897.247 798.133 897.797 797.2C898.347 796.267 898.622 794.675 898.622 792.425C898.222 792.992 897.655 793.433 896.922 793.75C896.205 794.05 895.422 794.2 894.572 794.2C893.488 794.2 892.505 793.983 891.622 793.55C890.738 793.1 890.038 792.442 889.522 791.575C889.022 790.692 888.772 789.625 888.772 788.375C888.772 786.542 889.305 785.083 890.372 784C891.455 782.9 892.938 782.35 894.822 782.35C897.088 782.35 898.697 783.108 899.647 784.625C900.613 786.125 901.097 788.433 901.097 791.55C901.097 793.7 900.913 795.458 900.547 796.825C900.197 798.192 899.58 799.225 898.697 799.925C897.813 800.625 896.588 800.975 895.022 800.975C893.238 800.975 891.863 800.508 890.897 799.575C889.93 798.642 889.388 797.467 889.272 796.05H891.897ZM895.072 791.8C896.072 791.8 896.855 791.492 897.422 790.875C898.005 790.242 898.297 789.408 898.297 788.375C898.297 787.225 897.988 786.333 897.372 785.7C896.772 785.05 895.947 784.725 894.897 784.725C893.847 784.725 893.013 785.058 892.397 785.725C891.797 786.375 891.497 787.233 891.497 788.3C891.497 789.317 891.788 790.158 892.372 790.825C892.972 791.475 893.872 791.8 895.072 791.8ZM913.766 784.975L906.816 801H903.941L910.966 785.275H901.716V782.85H913.766V784.975ZM925.755 784.975L918.805 801H915.93L922.955 785.275H913.705V782.85H925.755V784.975ZM937.144 790.75V793.15H926.869V790.75H937.144ZM942.368 796.05C942.535 796.883 942.893 797.517 943.443 797.95C943.993 798.383 944.735 798.6 945.668 798.6C946.852 798.6 947.718 798.133 948.268 797.2C948.818 796.267 949.093 794.675 949.093 792.425C948.693 792.992 948.127 793.433 947.393 793.75C946.677 794.05 945.893 794.2 945.043 794.2C943.96 794.2 942.977 793.983 942.093 793.55C941.21 793.1 940.51 792.442 939.993 791.575C939.493 790.692 939.243 789.625 939.243 788.375C939.243 786.542 939.777 785.083 940.843 784C941.927 782.9 943.41 782.35 945.293 782.35C947.56 782.35 949.168 783.108 950.118 784.625C951.085 786.125 951.568 788.433 951.568 791.55C951.568 793.7 951.385 795.458 951.018 796.825C950.668 798.192 950.052 799.225 949.168 799.925C948.285 800.625 947.06 800.975 945.493 800.975C943.71 800.975 942.335 800.508 941.368 799.575C940.402 798.642 939.86 797.467 939.743 796.05H942.368ZM945.543 791.8C946.543 791.8 947.327 791.492 947.893 790.875C948.477 790.242 948.768 789.408 948.768 788.375C948.768 787.225 948.46 786.333 947.843 785.7C947.243 785.05 946.418 784.725 945.368 784.725C944.318 784.725 943.485 785.058 942.868 785.725C942.268 786.375 941.968 787.233 941.968 788.3C941.968 789.317 942.26 790.158 942.843 790.825C943.443 791.475 944.343 791.8 945.543 791.8ZM955.763 791.475C954.029 790.608 953.163 789.242 953.163 787.375C953.163 786.475 953.388 785.65 953.838 784.9C954.288 784.15 954.963 783.558 955.863 783.125C956.763 782.675 957.863 782.45 959.163 782.45C960.446 782.45 961.538 782.675 962.438 783.125C963.354 783.558 964.037 784.15 964.488 784.9C964.938 785.65 965.163 786.475 965.163 787.375C965.163 788.308 964.921 789.133 964.438 789.85C963.971 790.55 963.346 791.092 962.563 791.475C963.513 791.825 964.263 792.4 964.813 793.2C965.363 793.983 965.638 794.908 965.638 795.975C965.638 797.058 965.363 798.017 964.813 798.85C964.263 799.683 963.496 800.325 962.513 800.775C961.529 801.225 960.413 801.45 959.163 801.45C957.913 801.45 956.796 801.225 955.813 800.775C954.846 800.325 954.088 799.683 953.538 798.85C952.988 798.017 952.713 797.058 952.713 795.975C952.713 794.892 952.988 793.958 953.538 793.175C954.088 792.392 954.829 791.825 955.763 791.475ZM962.438 787.725C962.438 786.792 962.146 786.075 961.563 785.575C960.979 785.075 960.179 784.825 959.163 784.825C958.163 784.825 957.371 785.075 956.788 785.575C956.204 786.075 955.913 786.8 955.913 787.75C955.913 788.583 956.213 789.267 956.813 789.8C957.429 790.317 958.213 790.575 959.163 790.575C960.113 790.575 960.896 790.308 961.513 789.775C962.129 789.242 962.438 788.558 962.438 787.725ZM959.163 792.725C958.063 792.725 957.163 793 956.463 793.55C955.779 794.083 955.438 794.858 955.438 795.875C955.438 796.825 955.771 797.6 956.438 798.2C957.104 798.783 958.013 799.075 959.163 799.075C960.296 799.075 961.188 798.775 961.838 798.175C962.504 797.575 962.838 796.808 962.838 795.875C962.838 794.875 962.496 794.1 961.813 793.55C961.146 793 960.263 792.725 959.163 792.725ZM968.205 797.125C969.805 795.742 971.063 794.608 971.98 793.725C972.913 792.825 973.688 791.892 974.305 790.925C974.922 789.958 975.23 788.992 975.23 788.025C975.23 787.025 974.988 786.242 974.505 785.675C974.038 785.108 973.297 784.825 972.28 784.825C971.297 784.825 970.53 785.142 969.98 785.775C969.447 786.392 969.163 787.225 969.13 788.275H966.38C966.43 786.375 966.997 784.925 968.08 783.925C969.18 782.908 970.572 782.4 972.255 782.4C974.072 782.4 975.488 782.9 976.505 783.9C977.538 784.9 978.055 786.233 978.055 787.9C978.055 789.1 977.747 790.258 977.13 791.375C976.53 792.475 975.805 793.467 974.955 794.35C974.122 795.217 973.055 796.225 971.755 797.375L970.63 798.375H978.555V800.75H966.405V798.675L968.205 797.125ZM979.009 787.275C979.109 785.725 979.7 784.517 980.784 783.65C981.884 782.783 983.284 782.35 984.984 782.35C986.15 782.35 987.159 782.558 988.009 782.975C988.859 783.392 989.5 783.958 989.934 784.675C990.367 785.392 990.584 786.2 990.584 787.1C990.584 788.133 990.309 789.017 989.759 789.75C989.209 790.483 988.55 790.975 987.784 791.225V791.325C988.767 791.625 989.534 792.175 990.084 792.975C990.634 793.758 990.909 794.767 990.909 796C990.909 796.983 990.684 797.858 990.234 798.625C989.784 799.392 989.117 800 988.234 800.45C987.35 800.883 986.292 801.1 985.059 801.1C983.259 801.1 981.775 800.642 980.609 799.725C979.459 798.792 978.842 797.458 978.759 795.725H981.509C981.575 796.608 981.917 797.333 982.534 797.9C983.15 798.45 983.984 798.725 985.034 798.725C986.05 798.725 986.834 798.45 987.384 797.9C987.934 797.333 988.209 796.608 988.209 795.725C988.209 794.558 987.834 793.733 987.084 793.25C986.35 792.75 985.217 792.5 983.684 792.5H983.034V790.15H983.709C985.059 790.133 986.084 789.908 986.784 789.475C987.5 789.042 987.859 788.358 987.859 787.425C987.859 786.625 987.6 785.992 987.084 785.525C986.567 785.042 985.834 784.8 984.884 784.8C983.95 784.8 983.225 785.042 982.709 785.525C982.192 785.992 981.884 786.575 981.784 787.275H979.009ZM991.902 791.65C991.902 788.767 992.386 786.517 993.352 784.9C994.336 783.267 996.019 782.45 998.402 782.45C1000.79 782.45 1002.46 783.267 1003.43 784.9C1004.41 786.517 1004.9 788.767 1004.9 791.65C1004.9 794.567 1004.41 796.85 1003.43 798.5C1002.46 800.133 1000.79 800.95 998.402 800.95C996.019 800.95 994.336 800.133 993.352 798.5C992.386 796.85 991.902 794.567 991.902 791.65ZM1002.1 791.65C1002.1 790.3 1002.01 789.158 1001.83 788.225C1001.66 787.292 1001.31 786.533 1000.78 785.95C1000.24 785.35 999.452 785.05 998.402 785.05C997.352 785.05 996.561 785.35 996.027 785.95C995.494 786.533 995.136 787.292 994.952 788.225C994.786 789.158 994.702 790.3 994.702 791.65C994.702 793.05 994.786 794.225 994.952 795.175C995.119 796.125 995.469 796.892 996.002 797.475C996.552 798.058 997.352 798.35 998.402 798.35C999.452 798.35 1000.24 798.058 1000.78 797.475C1001.33 796.892 1001.69 796.125 1001.85 795.175C1002.02 794.225 1002.1 793.05 1002.1 791.65ZM1005.92 791.65C1005.92 788.767 1006.4 786.517 1007.37 784.9C1008.35 783.267 1010.03 782.45 1012.42 782.45C1014.8 782.45 1016.48 783.267 1017.44 784.9C1018.43 786.517 1018.92 788.767 1018.92 791.65C1018.92 794.567 1018.43 796.85 1017.44 798.5C1016.48 800.133 1014.8 800.95 1012.42 800.95C1010.03 800.95 1008.35 800.133 1007.37 798.5C1006.4 796.85 1005.92 794.567 1005.92 791.65ZM1016.12 791.65C1016.12 790.3 1016.03 789.158 1015.84 788.225C1015.68 787.292 1015.33 786.533 1014.79 785.95C1014.26 785.35 1013.47 785.05 1012.42 785.05C1011.37 785.05 1010.58 785.35 1010.04 785.95C1009.51 786.533 1009.15 787.292 1008.97 788.225C1008.8 789.158 1008.72 790.3 1008.72 791.65C1008.72 793.05 1008.8 794.225 1008.97 795.175C1009.13 796.125 1009.48 796.892 1010.02 797.475C1010.57 798.058 1011.37 798.35 1012.42 798.35C1013.47 798.35 1014.26 798.058 1014.79 797.475C1015.34 796.892 1015.7 796.125 1015.87 795.175C1016.03 794.225 1016.12 793.05 1016.12 791.65ZM1019.93 791.65C1019.93 788.767 1020.42 786.517 1021.38 784.9C1022.37 783.267 1024.05 782.45 1026.43 782.45C1028.82 782.45 1030.49 783.267 1031.46 784.9C1032.44 786.517 1032.93 788.767 1032.93 791.65C1032.93 794.567 1032.44 796.85 1031.46 798.5C1030.49 800.133 1028.82 800.95 1026.43 800.95C1024.05 800.95 1022.37 800.133 1021.38 798.5C1020.42 796.85 1019.93 794.567 1019.93 791.65ZM1030.13 791.65C1030.13 790.3 1030.04 789.158 1029.86 788.225C1029.69 787.292 1029.34 786.533 1028.81 785.95C1028.28 785.35 1027.48 785.05 1026.43 785.05C1025.38 785.05 1024.59 785.35 1024.06 785.95C1023.53 786.533 1023.17 787.292 1022.98 788.225C1022.82 789.158 1022.73 790.3 1022.73 791.65C1022.73 793.05 1022.82 794.225 1022.98 795.175C1023.15 796.125 1023.5 796.892 1024.03 797.475C1024.58 798.058 1025.38 798.35 1026.43 798.35C1027.48 798.35 1028.28 798.058 1028.81 797.475C1029.36 796.892 1029.72 796.125 1029.88 795.175C1030.05 794.225 1030.13 793.05 1030.13 791.65ZM1033.95 791.65C1033.95 788.767 1034.43 786.517 1035.4 784.9C1036.38 783.267 1038.07 782.45 1040.45 782.45C1042.83 782.45 1044.51 783.267 1045.47 784.9C1046.46 786.517 1046.95 788.767 1046.95 791.65C1046.95 794.567 1046.46 796.85 1045.47 798.5C1044.51 800.133 1042.83 800.95 1040.45 800.95C1038.07 800.95 1036.38 800.133 1035.4 798.5C1034.43 796.85 1033.95 794.567 1033.95 791.65ZM1044.15 791.65C1044.15 790.3 1044.06 789.158 1043.87 788.225C1043.71 787.292 1043.36 786.533 1042.82 785.95C1042.29 785.35 1041.5 785.05 1040.45 785.05C1039.4 785.05 1038.61 785.35 1038.07 785.95C1037.54 786.533 1037.18 787.292 1037 788.225C1036.83 789.158 1036.75 790.3 1036.75 791.65C1036.75 793.05 1036.83 794.225 1037 795.175C1037.17 796.125 1037.52 796.892 1038.05 797.475C1038.6 798.058 1039.4 798.35 1040.45 798.35C1041.5 798.35 1042.29 798.058 1042.82 797.475C1043.37 796.892 1043.73 796.125 1043.9 795.175C1044.07 794.225 1044.15 793.05 1044.15 791.65ZM1047.96 791.65C1047.96 788.767 1048.45 786.517 1049.41 784.9C1050.4 783.267 1052.08 782.45 1054.46 782.45C1056.85 782.45 1058.52 783.267 1059.49 784.9C1060.47 786.517 1060.96 788.767 1060.96 791.65C1060.96 794.567 1060.47 796.85 1059.49 798.5C1058.52 800.133 1056.85 800.95 1054.46 800.95C1052.08 800.95 1050.4 800.133 1049.41 798.5C1048.45 796.85 1047.96 794.567 1047.96 791.65ZM1058.16 791.65C1058.16 790.3 1058.07 789.158 1057.89 788.225C1057.72 787.292 1057.37 786.533 1056.84 785.95C1056.31 785.35 1055.51 785.05 1054.46 785.05C1053.41 785.05 1052.62 785.35 1052.09 785.95C1051.56 786.533 1051.2 787.292 1051.01 788.225C1050.85 789.158 1050.76 790.3 1050.76 791.65C1050.76 793.05 1050.85 794.225 1051.01 795.175C1051.18 796.125 1051.53 796.892 1052.06 797.475C1052.61 798.058 1053.41 798.35 1054.46 798.35C1055.51 798.35 1056.31 798.058 1056.84 797.475C1057.39 796.892 1057.75 796.125 1057.91 795.175C1058.08 794.225 1058.16 793.05 1058.16 791.65ZM1061.98 791.65C1061.98 788.767 1062.46 786.517 1063.43 784.9C1064.41 783.267 1066.1 782.45 1068.48 782.45C1070.86 782.45 1072.54 783.267 1073.51 784.9C1074.49 786.517 1074.98 788.767 1074.98 791.65C1074.98 794.567 1074.49 796.85 1073.51 798.5C1072.54 800.133 1070.86 800.95 1068.48 800.95C1066.1 800.95 1064.41 800.133 1063.43 798.5C1062.46 796.85 1061.98 794.567 1061.98 791.65ZM1072.18 791.65C1072.18 790.3 1072.09 789.158 1071.91 788.225C1071.74 787.292 1071.39 786.533 1070.86 785.95C1070.32 785.35 1069.53 785.05 1068.48 785.05C1067.43 785.05 1066.64 785.35 1066.11 785.95C1065.57 786.533 1065.21 787.292 1065.03 788.225C1064.86 789.158 1064.78 790.3 1064.78 791.65C1064.78 793.05 1064.86 794.225 1065.03 795.175C1065.2 796.125 1065.55 796.892 1066.08 797.475C1066.63 798.058 1067.43 798.35 1068.48 798.35C1069.53 798.35 1070.32 798.058 1070.86 797.475C1071.41 796.892 1071.76 796.125 1071.93 795.175C1072.1 794.225 1072.18 793.05 1072.18 791.65Z" fill="black"/>
<path d="M857.344 636.625V639.305C857.344 640.507 857.018 641.686 856.402 642.718C855.786 643.75 854.902 644.596 853.844 645.166L834.68 655.484M799.656 636.625V639.305C799.656 640.507 799.982 641.686 800.598 642.718C801.214 643.75 802.098 644.596 803.156 645.166L822.32 655.484M822.32 655.484L825.343 653.857C826.314 653.335 827.398 653.061 828.5 653.061C829.602 653.061 830.686 653.335 831.657 653.857L834.683 655.484L848.469 662.91M822.32 655.484L808.531 662.91M857.344 667.688C857.344 669.453 856.642 671.146 855.394 672.394C854.146 673.643 852.453 674.344 850.687 674.344H806.312C804.547 674.344 802.854 673.643 801.606 672.394C800.358 671.146 799.656 669.453 799.656 667.688V636.164C799.657 634.962 799.982 633.784 800.598 632.752C801.215 631.721 802.098 630.876 803.156 630.306L825.343 618.354C826.314 617.832 827.398 617.558 828.5 617.558C829.602 617.558 830.686 617.832 831.657 618.354L853.844 630.306C854.902 630.876 855.785 631.721 856.402 632.752C857.018 633.784 857.343 634.962 857.344 636.164V667.688Z" stroke="black" stroke-width="1.5" stroke-linecap="round" stroke-linejoin="round"/>
<path d="M831.5 383.125C838.067 383.125 844.448 380.943 849.64 376.924C854.833 372.904 858.544 367.273 860.19 360.916M831.5 383.125C824.933 383.125 818.552 380.943 813.36 376.924C808.167 372.904 804.456 367.273 802.81 360.916M831.5 383.125C839.68 383.125 846.313 369.86 846.313 353.5C846.313 337.14 839.68 323.875 831.5 323.875M831.5 383.125C823.32 383.125 816.688 369.86 816.688 353.5C816.688 337.14 823.32 323.875 831.5 323.875M860.19 360.916C860.799 358.546 861.125 356.061 861.125 353.5C861.133 348.405 859.821 343.395 857.317 338.957M860.19 360.916C851.412 365.782 841.537 368.328 831.5 368.313C821.092 368.313 811.312 365.63 802.81 360.916M802.81 360.916C802.187 358.493 801.873 356.002 801.875 353.5C801.875 348.217 803.258 343.253 805.683 338.957M831.5 323.875C836.754 323.873 841.915 325.269 846.451 327.919C850.988 330.569 854.738 334.379 857.317 338.957M831.5 323.875C826.246 323.873 821.085 325.269 816.549 327.919C812.012 330.569 808.262 334.379 805.683 338.957M857.317 338.957C850.15 345.165 840.982 348.576 831.5 348.563C821.632 348.563 812.606 344.942 805.683 338.957" stroke="black" stroke-width="1.5" stroke-linecap="round" stroke-linejoin="round"/>
<path d="M891.28 349.12C892.246 349.12 893.105 349.327 893.856 349.741C894.623 350.155 895.221 350.768 895.65 351.581C896.095 352.394 896.317 353.375 896.317 354.525V362H893.718V354.916C893.718 353.781 893.434 352.915 892.867 352.317C892.3 351.704 891.525 351.397 890.544 351.397C889.563 351.397 888.781 351.704 888.198 352.317C887.631 352.915 887.347 353.781 887.347 354.916V362H884.725V344.98H887.347V350.799C887.792 350.262 888.351 349.848 889.026 349.557C889.716 349.266 890.467 349.12 891.28 349.12ZM900.881 351.466V358.481C900.881 358.956 900.988 359.301 901.203 359.516C901.433 359.715 901.816 359.815 902.353 359.815H903.963V362H901.893C900.712 362 899.807 361.724 899.179 361.172C898.55 360.62 898.236 359.723 898.236 358.481V351.466H896.741V349.327H898.236V346.176H900.881V349.327H903.963V351.466H900.881ZM907.598 351.466V358.481C907.598 358.956 907.705 359.301 907.92 359.516C908.15 359.715 908.533 359.815 909.07 359.815H910.68V362H908.61C907.429 362 906.525 361.724 905.896 361.172C905.267 360.62 904.953 359.723 904.953 358.481V351.466H903.458V349.327H904.953V346.176H907.598V349.327H910.68V351.466H907.598ZM913.879 351.19C914.323 350.607 914.929 350.117 915.696 349.718C916.462 349.319 917.329 349.12 918.295 349.12C919.399 349.12 920.403 349.396 921.308 349.948C922.228 350.485 922.948 351.244 923.47 352.225C923.991 353.206 924.252 354.333 924.252 355.606C924.252 356.879 923.991 358.021 923.47 359.033C922.948 360.03 922.228 360.812 921.308 361.379C920.403 361.931 919.399 362.207 918.295 362.207C917.329 362.207 916.47 362.015 915.719 361.632C914.967 361.233 914.354 360.743 913.879 360.16V368.026H911.257V349.327H913.879V351.19ZM921.584 355.606C921.584 354.732 921.4 353.981 921.032 353.352C920.679 352.708 920.204 352.225 919.606 351.903C919.023 351.566 918.394 351.397 917.72 351.397C917.06 351.397 916.432 351.566 915.834 351.903C915.251 352.24 914.776 352.731 914.408 353.375C914.055 354.019 913.879 354.778 913.879 355.652C913.879 356.526 914.055 357.293 914.408 357.952C914.776 358.596 915.251 359.087 915.834 359.424C916.432 359.761 917.06 359.93 917.72 359.93C918.394 359.93 919.023 359.761 919.606 359.424C920.204 359.071 920.679 358.565 921.032 357.906C921.4 357.247 921.584 356.48 921.584 355.606ZM929.605 362.207C928.608 362.207 927.711 362.031 926.914 361.678C926.132 361.31 925.511 360.819 925.051 360.206C924.591 359.577 924.345 358.88 924.315 358.113H927.029C927.075 358.65 927.328 359.102 927.788 359.47C928.263 359.823 928.853 359.999 929.559 359.999C930.295 359.999 930.862 359.861 931.261 359.585C931.675 359.294 931.882 358.926 931.882 358.481C931.882 358.006 931.652 357.653 931.192 357.423C930.747 357.193 930.034 356.94 929.053 356.664C928.102 356.403 927.328 356.15 926.73 355.905C926.132 355.66 925.61 355.284 925.166 354.778C924.736 354.272 924.522 353.605 924.522 352.777C924.522 352.102 924.721 351.489 925.12 350.937C925.518 350.37 926.086 349.925 926.822 349.603C927.573 349.281 928.432 349.12 929.398 349.12C930.839 349.12 931.997 349.488 932.871 350.224C933.76 350.945 934.235 351.934 934.297 353.191H931.675C931.629 352.624 931.399 352.171 930.985 351.834C930.571 351.497 930.011 351.328 929.306 351.328C928.616 351.328 928.087 351.458 927.719 351.719C927.351 351.98 927.167 352.325 927.167 352.754C927.167 353.091 927.289 353.375 927.535 353.605C927.78 353.835 928.079 354.019 928.432 354.157C928.784 354.28 929.306 354.441 929.996 354.64C930.916 354.885 931.667 355.138 932.25 355.399C932.848 355.644 933.361 356.012 933.791 356.503C934.22 356.994 934.442 357.645 934.458 358.458C934.458 359.179 934.258 359.823 933.86 360.39C933.461 360.957 932.894 361.402 932.158 361.724C931.437 362.046 930.586 362.207 929.605 362.207ZM936.509 362.161C936.033 362.161 935.635 362 935.313 361.678C934.991 361.356 934.83 360.957 934.83 360.482C934.83 360.007 934.991 359.608 935.313 359.286C935.635 358.964 936.033 358.803 936.509 358.803C936.969 358.803 937.36 358.964 937.682 359.286C938.004 359.608 938.165 360.007 938.165 360.482C938.165 360.957 938.004 361.356 937.682 361.678C937.36 362 936.969 362.161 936.509 362.161ZM936.509 352.501C936.033 352.501 935.635 352.34 935.313 352.018C934.991 351.696 934.83 351.297 934.83 350.822C934.83 350.347 934.991 349.948 935.313 349.626C935.635 349.304 936.033 349.143 936.509 349.143C936.969 349.143 937.36 349.304 937.682 349.626C938.004 349.948 938.165 350.347 938.165 350.822C938.165 351.297 938.004 351.696 937.682 352.018C937.36 352.34 936.969 352.501 936.509 352.501ZM947.758 340.288L941.502 366.025H938.926L945.159 340.288H947.758ZM957.733 340.288L951.477 366.025H948.901L955.134 340.288H957.733ZM958.323 355.606C958.323 354.333 958.584 353.206 959.105 352.225C959.642 351.244 960.363 350.485 961.267 349.948C962.187 349.396 963.199 349.12 964.303 349.12C965.3 349.12 966.166 349.319 966.902 349.718C967.654 350.101 968.252 350.584 968.696 351.167V349.327H971.341V362H968.696V360.114C968.252 360.712 967.646 361.21 966.879 361.609C966.113 362.008 965.239 362.207 964.257 362.207C963.169 362.207 962.172 361.931 961.267 361.379C960.363 360.812 959.642 360.03 959.105 359.033C958.584 358.021 958.323 356.879 958.323 355.606ZM968.696 355.652C968.696 354.778 968.512 354.019 968.144 353.375C967.792 352.731 967.324 352.24 966.741 351.903C966.159 351.566 965.53 351.397 964.855 351.397C964.181 351.397 963.552 351.566 962.969 351.903C962.387 352.225 961.911 352.708 961.543 353.352C961.191 353.981 961.014 354.732 961.014 355.606C961.014 356.48 961.191 357.247 961.543 357.906C961.911 358.565 962.387 359.071 962.969 359.424C963.567 359.761 964.196 359.93 964.855 359.93C965.53 359.93 966.159 359.761 966.741 359.424C967.324 359.087 967.792 358.596 968.144 357.952C968.512 357.293 968.696 356.526 968.696 355.652ZM975.567 351.19C976.012 350.607 976.618 350.117 977.384 349.718C978.151 349.319 979.017 349.12 979.983 349.12C981.087 349.12 982.092 349.396 982.996 349.948C983.916 350.485 984.637 351.244 985.158 352.225C985.68 353.206 985.94 354.333 985.94 355.606C985.94 356.879 985.68 358.021 985.158 359.033C984.637 360.03 983.916 360.812 982.996 361.379C982.092 361.931 981.087 362.207 979.983 362.207C979.017 362.207 978.159 362.015 977.407 361.632C976.656 361.233 976.043 360.743 975.567 360.16V368.026H972.945V349.327H975.567V351.19ZM983.272 355.606C983.272 354.732 983.088 353.981 982.72 353.352C982.368 352.708 981.892 352.225 981.294 351.903C980.712 351.566 980.083 351.397 979.408 351.397C978.749 351.397 978.12 351.566 977.522 351.903C976.94 352.24 976.464 352.731 976.096 353.375C975.744 354.019 975.567 354.778 975.567 355.652C975.567 356.526 975.744 357.293 976.096 357.952C976.464 358.596 976.94 359.087 977.522 359.424C978.12 359.761 978.749 359.93 979.408 359.93C980.083 359.93 980.712 359.761 981.294 359.424C981.892 359.071 982.368 358.565 982.72 357.906C983.088 357.247 983.272 356.48 983.272 355.606ZM989.315 351.19C989.76 350.607 990.365 350.117 991.132 349.718C991.899 349.319 992.765 349.12 993.731 349.12C994.835 349.12 995.839 349.396 996.744 349.948C997.664 350.485 998.385 351.244 998.906 352.225C999.427 353.206 999.688 354.333 999.688 355.606C999.688 356.879 999.427 358.021 998.906 359.033C998.385 360.03 997.664 360.812 996.744 361.379C995.839 361.931 994.835 362.207 993.731 362.207C992.765 362.207 991.906 362.015 991.155 361.632C990.404 361.233 989.79 360.743 989.315 360.16V368.026H986.693V349.327H989.315V351.19ZM997.02 355.606C997.02 354.732 996.836 353.981 996.468 353.352C996.115 352.708 995.64 352.225 995.042 351.903C994.459 351.566 993.831 351.397 993.156 351.397C992.497 351.397 991.868 351.566 991.27 351.903C990.687 352.24 990.212 352.731 989.844 353.375C989.491 354.019 989.315 354.778 989.315 355.652C989.315 356.526 989.491 357.293 989.844 357.952C990.212 358.596 990.687 359.087 991.27 359.424C991.868 359.761 992.497 359.93 993.156 359.93C993.831 359.93 994.459 359.761 995.042 359.424C995.64 359.071 996.115 358.565 996.468 357.906C996.836 357.247 997.02 356.48 997.02 355.606ZM1017.46 349.327L1013.53 362H1010.77L1008.22 352.639L1005.66 362H1002.9L998.946 349.327H1001.61L1004.26 359.516L1006.95 349.327H1009.69L1012.26 359.47L1014.89 349.327H1017.46ZM1020.2 351.167C1020.59 350.523 1021.09 350.025 1021.72 349.672C1022.36 349.304 1023.12 349.12 1024 349.12V351.834H1023.33C1022.3 351.834 1021.52 352.095 1020.98 352.616C1020.46 353.137 1020.2 354.042 1020.2 355.33V362H1017.58V349.327H1020.2V351.167ZM1025.9 347.648C1025.43 347.648 1025.03 347.487 1024.71 347.165C1024.38 346.843 1024.22 346.444 1024.22 345.969C1024.22 345.494 1024.38 345.095 1024.71 344.773C1025.03 344.451 1025.43 344.29 1025.9 344.29C1026.36 344.29 1026.75 344.451 1027.07 344.773C1027.4 345.095 1027.56 345.494 1027.56 345.969C1027.56 346.444 1027.4 346.843 1027.07 347.165C1026.75 347.487 1026.36 347.648 1025.9 347.648ZM1027.19 349.327V362H1024.57V349.327H1027.19ZM1031.85 351.466V358.481C1031.85 358.956 1031.96 359.301 1032.17 359.516C1032.4 359.715 1032.79 359.815 1033.32 359.815H1034.93V362H1032.86C1031.68 362 1030.78 361.724 1030.15 361.172C1029.52 360.62 1029.21 359.723 1029.21 358.481V351.466H1027.71V349.327H1029.21V346.176H1031.85V349.327H1034.93V351.466H1031.85ZM1047.12 355.353C1047.12 355.828 1047.09 356.258 1047.03 356.641H1037.35C1037.43 357.653 1037.8 358.466 1038.48 359.079C1039.15 359.692 1039.98 359.999 1040.96 359.999C1042.37 359.999 1043.37 359.409 1043.95 358.228H1046.78C1046.4 359.393 1045.7 360.352 1044.69 361.103C1043.69 361.839 1042.45 362.207 1040.96 362.207C1039.75 362.207 1038.66 361.939 1037.69 361.402C1036.74 360.85 1035.99 360.083 1035.44 359.102C1034.9 358.105 1034.64 356.955 1034.64 355.652C1034.64 354.349 1034.9 353.206 1035.42 352.225C1035.95 351.228 1036.7 350.462 1037.65 349.925C1038.61 349.388 1039.72 349.12 1040.96 349.12C1042.16 349.12 1043.22 349.381 1044.16 349.902C1045.09 350.423 1045.82 351.159 1046.34 352.11C1046.86 353.045 1047.12 354.126 1047.12 355.353ZM1044.39 354.525C1044.37 353.559 1044.03 352.785 1043.35 352.202C1042.68 351.619 1041.84 351.328 1040.85 351.328C1039.94 351.328 1039.17 351.619 1038.52 352.202C1037.88 352.769 1037.5 353.544 1037.37 354.525H1044.39ZM1050.49 351.167C1050.87 350.523 1051.38 350.025 1052.01 349.672C1052.65 349.304 1053.41 349.12 1054.28 349.12V351.834H1053.62C1052.59 351.834 1051.81 352.095 1051.27 352.616C1050.75 353.137 1050.49 354.042 1050.49 355.33V362H1047.87V349.327H1050.49V351.167ZM1059.45 362.207C1058.46 362.207 1057.56 362.031 1056.76 361.678C1055.98 361.31 1055.36 360.819 1054.9 360.206C1054.44 359.577 1054.19 358.88 1054.16 358.113H1056.88C1056.92 358.65 1057.18 359.102 1057.64 359.47C1058.11 359.823 1058.7 359.999 1059.41 359.999C1060.14 359.999 1060.71 359.861 1061.11 359.585C1061.52 359.294 1061.73 358.926 1061.73 358.481C1061.73 358.006 1061.5 357.653 1061.04 357.423C1060.59 357.193 1059.88 356.94 1058.9 356.664C1057.95 356.403 1057.18 356.15 1056.58 355.905C1055.98 355.66 1055.46 355.284 1055.01 354.778C1054.58 354.272 1054.37 353.605 1054.37 352.777C1054.37 352.102 1054.57 351.489 1054.97 350.937C1055.37 350.37 1055.93 349.925 1056.67 349.603C1057.42 349.281 1058.28 349.12 1059.25 349.12C1060.69 349.12 1061.84 349.488 1062.72 350.224C1063.61 350.945 1064.08 351.934 1064.14 353.191H1061.52C1061.48 352.624 1061.25 352.171 1060.83 351.834C1060.42 351.497 1059.86 351.328 1059.15 351.328C1058.46 351.328 1057.93 351.458 1057.57 351.719C1057.2 351.98 1057.01 352.325 1057.01 352.754C1057.01 353.091 1057.14 353.375 1057.38 353.605C1057.63 353.835 1057.93 354.019 1058.28 354.157C1058.63 354.28 1059.15 354.441 1059.84 354.64C1060.76 354.885 1061.51 355.138 1062.1 355.399C1062.7 355.644 1063.21 356.012 1063.64 356.503C1064.07 356.994 1064.29 357.645 1064.31 358.458C1064.31 359.179 1064.11 359.823 1063.71 360.39C1063.31 360.957 1062.74 361.402 1062.01 361.724C1061.28 362.046 1060.43 362.207 1059.45 362.207ZM1066.36 362.161C1065.88 362.161 1065.48 362 1065.16 361.678C1064.84 361.356 1064.68 360.957 1064.68 360.482C1064.68 360.007 1064.84 359.608 1065.16 359.286C1065.48 358.964 1065.88 358.803 1066.36 358.803C1066.82 358.803 1067.21 358.964 1067.53 359.286C1067.85 359.608 1068.01 360.007 1068.01 360.482C1068.01 360.957 1067.85 361.356 1067.53 361.678C1067.21 362 1066.82 362.161 1066.36 362.161ZM1068.13 355.606C1068.13 354.333 1068.39 353.206 1068.91 352.225C1069.45 351.244 1070.17 350.485 1071.08 349.948C1072 349.396 1073.02 349.12 1074.14 349.12C1074.96 349.12 1075.78 349.304 1076.57 349.672C1077.39 350.025 1078.03 350.5 1078.51 351.098V344.98H1081.15V362H1078.51V360.091C1078.08 360.704 1077.48 361.21 1076.71 361.609C1075.96 362.008 1075.09 362.207 1074.11 362.207C1073.01 362.207 1072 361.931 1071.08 361.379C1070.17 360.812 1069.45 360.03 1068.91 359.033C1068.39 358.021 1068.13 356.879 1068.13 355.606ZM1078.51 355.652C1078.51 354.778 1078.32 354.019 1077.95 353.375C1077.6 352.731 1077.13 352.24 1076.55 351.903C1075.97 351.566 1075.34 351.397 1074.66 351.397C1073.99 351.397 1073.36 351.566 1072.78 351.903C1072.2 352.225 1071.72 352.708 1071.35 353.352C1071 353.981 1070.82 354.732 1070.82 355.606C1070.82 356.48 1071 357.247 1071.35 357.906C1071.72 358.565 1072.2 359.071 1072.78 359.424C1073.38 359.761 1074 359.93 1074.66 359.93C1075.34 359.93 1075.97 359.761 1076.55 359.424C1077.13 359.087 1077.6 358.596 1077.95 357.952C1078.32 357.293 1078.51 356.526 1078.51 355.652ZM1094.37 355.353C1094.37 355.828 1094.34 356.258 1094.28 356.641H1084.59C1084.67 357.653 1085.05 358.466 1085.72 359.079C1086.4 359.692 1087.22 359.999 1088.21 359.999C1089.62 359.999 1090.61 359.409 1091.2 358.228H1094.02C1093.64 359.393 1092.94 360.352 1091.93 361.103C1090.93 361.839 1089.69 362.207 1088.21 362.207C1086.99 362.207 1085.91 361.939 1084.94 361.402C1083.99 360.85 1083.24 360.083 1082.69 359.102C1082.15 358.105 1081.88 356.955 1081.88 355.652C1081.88 354.349 1082.14 353.206 1082.66 352.225C1083.2 351.228 1083.94 350.462 1084.89 349.925C1085.86 349.388 1086.96 349.12 1088.21 349.12C1089.4 349.12 1090.47 349.381 1091.4 349.902C1092.34 350.423 1093.07 351.159 1093.59 352.11C1094.11 353.045 1094.37 354.126 1094.37 355.353ZM1091.63 354.525C1091.62 353.559 1091.27 352.785 1090.6 352.202C1089.92 351.619 1089.09 351.328 1088.09 351.328C1087.19 351.328 1086.41 351.619 1085.77 352.202C1085.12 352.769 1084.74 353.544 1084.62 354.525H1091.63ZM1100.01 359.654L1103.6 349.327H1106.38L1101.55 362H1098.42L1093.61 349.327H1096.42L1100.01 359.654Z" fill="black"/>
<path d="M886.3 503.175H881.25V508.35H878.6V503.175H873.55V500.775H878.6V495.6H881.25V500.775H886.3V503.175ZM891.897 506.05C892.063 506.883 892.422 507.517 892.972 507.95C893.522 508.383 894.263 508.6 895.197 508.6C896.38 508.6 897.247 508.133 897.797 507.2C898.347 506.267 898.622 504.675 898.622 502.425C898.222 502.992 897.655 503.433 896.922 503.75C896.205 504.05 895.422 504.2 894.572 504.2C893.488 504.2 892.505 503.983 891.622 503.55C890.738 503.1 890.038 502.442 889.522 501.575C889.022 500.692 888.772 499.625 888.772 498.375C888.772 496.542 889.305 495.083 890.372 494C891.455 492.9 892.938 492.35 894.822 492.35C897.088 492.35 898.697 493.108 899.647 494.625C900.613 496.125 901.097 498.433 901.097 501.55C901.097 503.7 900.913 505.458 900.547 506.825C900.197 508.192 899.58 509.225 898.697 509.925C897.813 510.625 896.588 510.975 895.022 510.975C893.238 510.975 891.863 510.508 890.897 509.575C889.93 508.642 889.388 507.467 889.272 506.05H891.897ZM895.072 501.8C896.072 501.8 896.855 501.492 897.422 500.875C898.005 500.242 898.297 499.408 898.297 498.375C898.297 497.225 897.988 496.333 897.372 495.7C896.772 495.05 895.947 494.725 894.897 494.725C893.847 494.725 893.013 495.058 892.397 495.725C891.797 496.375 891.497 497.233 891.497 498.3C891.497 499.317 891.788 500.158 892.372 500.825C892.972 501.475 893.872 501.8 895.072 501.8ZM913.766 494.975L906.816 511H903.941L910.966 495.275H901.716V492.85H913.766V494.975ZM925.755 494.975L918.805 511H915.93L922.955 495.275H913.705V492.85H925.755V494.975ZM937.144 500.75V503.15H926.869V500.75H937.144ZM942.368 506.05C942.535 506.883 942.893 507.517 943.443 507.95C943.993 508.383 944.735 508.6 945.668 508.6C946.852 508.6 947.718 508.133 948.268 507.2C948.818 506.267 949.093 504.675 949.093 502.425C948.693 502.992 948.127 503.433 947.393 503.75C946.677 504.05 945.893 504.2 945.043 504.2C943.96 504.2 942.977 503.983 942.093 503.55C941.21 503.1 940.51 502.442 939.993 501.575C939.493 500.692 939.243 499.625 939.243 498.375C939.243 496.542 939.777 495.083 940.843 494C941.927 492.9 943.41 492.35 945.293 492.35C947.56 492.35 949.168 493.108 950.118 494.625C951.085 496.125 951.568 498.433 951.568 501.55C951.568 503.7 951.385 505.458 951.018 506.825C950.668 508.192 950.052 509.225 949.168 509.925C948.285 510.625 947.06 510.975 945.493 510.975C943.71 510.975 942.335 510.508 941.368 509.575C940.402 508.642 939.86 507.467 939.743 506.05H942.368ZM945.543 501.8C946.543 501.8 947.327 501.492 947.893 500.875C948.477 500.242 948.768 499.408 948.768 498.375C948.768 497.225 948.46 496.333 947.843 495.7C947.243 495.05 946.418 494.725 945.368 494.725C944.318 494.725 943.485 495.058 942.868 495.725C942.268 496.375 941.968 497.233 941.968 498.3C941.968 499.317 942.26 500.158 942.843 500.825C943.443 501.475 944.343 501.8 945.543 501.8ZM955.763 501.475C954.029 500.608 953.163 499.242 953.163 497.375C953.163 496.475 953.388 495.65 953.838 494.9C954.288 494.15 954.963 493.558 955.863 493.125C956.763 492.675 957.863 492.45 959.163 492.45C960.446 492.45 961.538 492.675 962.438 493.125C963.354 493.558 964.037 494.15 964.488 494.9C964.938 495.65 965.163 496.475 965.163 497.375C965.163 498.308 964.921 499.133 964.438 499.85C963.971 500.55 963.346 501.092 962.563 501.475C963.513 501.825 964.263 502.4 964.813 503.2C965.363 503.983 965.638 504.908 965.638 505.975C965.638 507.058 965.363 508.017 964.813 508.85C964.263 509.683 963.496 510.325 962.513 510.775C961.529 511.225 960.413 511.45 959.163 511.45C957.913 511.45 956.796 511.225 955.813 510.775C954.846 510.325 954.088 509.683 953.538 508.85C952.988 508.017 952.713 507.058 952.713 505.975C952.713 504.892 952.988 503.958 953.538 503.175C954.088 502.392 954.829 501.825 955.763 501.475ZM962.438 497.725C962.438 496.792 962.146 496.075 961.563 495.575C960.979 495.075 960.179 494.825 959.163 494.825C958.163 494.825 957.371 495.075 956.788 495.575C956.204 496.075 955.913 496.8 955.913 497.75C955.913 498.583 956.213 499.267 956.813 499.8C957.429 500.317 958.213 500.575 959.163 500.575C960.113 500.575 960.896 500.308 961.513 499.775C962.129 499.242 962.438 498.558 962.438 497.725ZM959.163 502.725C958.063 502.725 957.163 503 956.463 503.55C955.779 504.083 955.438 504.858 955.438 505.875C955.438 506.825 955.771 507.6 956.438 508.2C957.104 508.783 958.013 509.075 959.163 509.075C960.296 509.075 961.188 508.775 961.838 508.175C962.504 507.575 962.838 506.808 962.838 505.875C962.838 504.875 962.496 504.1 961.813 503.55C961.146 503 960.263 502.725 959.163 502.725ZM968.205 507.125C969.805 505.742 971.063 504.608 971.98 503.725C972.913 502.825 973.688 501.892 974.305 500.925C974.922 499.958 975.23 498.992 975.23 498.025C975.23 497.025 974.988 496.242 974.505 495.675C974.038 495.108 973.297 494.825 972.28 494.825C971.297 494.825 970.53 495.142 969.98 495.775C969.447 496.392 969.163 497.225 969.13 498.275H966.38C966.43 496.375 966.997 494.925 968.08 493.925C969.18 492.908 970.572 492.4 972.255 492.4C974.072 492.4 975.488 492.9 976.505 493.9C977.538 494.9 978.055 496.233 978.055 497.9C978.055 499.1 977.747 500.258 977.13 501.375C976.53 502.475 975.805 503.467 974.955 504.35C974.122 505.217 973.055 506.225 971.755 507.375L970.63 508.375H978.555V510.75H966.405V508.675L968.205 507.125ZM979.009 497.275C979.109 495.725 979.7 494.517 980.784 493.65C981.884 492.783 983.284 492.35 984.984 492.35C986.15 492.35 987.159 492.558 988.009 492.975C988.859 493.392 989.5 493.958 989.934 494.675C990.367 495.392 990.584 496.2 990.584 497.1C990.584 498.133 990.309 499.017 989.759 499.75C989.209 500.483 988.55 500.975 987.784 501.225V501.325C988.767 501.625 989.534 502.175 990.084 502.975C990.634 503.758 990.909 504.767 990.909 506C990.909 506.983 990.684 507.858 990.234 508.625C989.784 509.392 989.117 510 988.234 510.45C987.35 510.883 986.292 511.1 985.059 511.1C983.259 511.1 981.775 510.642 980.609 509.725C979.459 508.792 978.842 507.458 978.759 505.725H981.509C981.575 506.608 981.917 507.333 982.534 507.9C983.15 508.45 983.984 508.725 985.034 508.725C986.05 508.725 986.834 508.45 987.384 507.9C987.934 507.333 988.209 506.608 988.209 505.725C988.209 504.558 987.834 503.733 987.084 503.25C986.35 502.75 985.217 502.5 983.684 502.5H983.034V500.15H983.709C985.059 500.133 986.084 499.908 986.784 499.475C987.5 499.042 987.859 498.358 987.859 497.425C987.859 496.625 987.6 495.992 987.084 495.525C986.567 495.042 985.834 494.8 984.884 494.8C983.95 494.8 983.225 495.042 982.709 495.525C982.192 495.992 981.884 496.575 981.784 497.275H979.009ZM991.902 501.65C991.902 498.767 992.386 496.517 993.352 494.9C994.336 493.267 996.019 492.45 998.402 492.45C1000.79 492.45 1002.46 493.267 1003.43 494.9C1004.41 496.517 1004.9 498.767 1004.9 501.65C1004.9 504.567 1004.41 506.85 1003.43 508.5C1002.46 510.133 1000.79 510.95 998.402 510.95C996.019 510.95 994.336 510.133 993.352 508.5C992.386 506.85 991.902 504.567 991.902 501.65ZM1002.1 501.65C1002.1 500.3 1002.01 499.158 1001.83 498.225C1001.66 497.292 1001.31 496.533 1000.78 495.95C1000.24 495.35 999.452 495.05 998.402 495.05C997.352 495.05 996.561 495.35 996.027 495.95C995.494 496.533 995.136 497.292 994.952 498.225C994.786 499.158 994.702 500.3 994.702 501.65C994.702 503.05 994.786 504.225 994.952 505.175C995.119 506.125 995.469 506.892 996.002 507.475C996.552 508.058 997.352 508.35 998.402 508.35C999.452 508.35 1000.24 508.058 1000.78 507.475C1001.33 506.892 1001.69 506.125 1001.85 505.175C1002.02 504.225 1002.1 503.05 1002.1 501.65ZM1005.92 501.65C1005.92 498.767 1006.4 496.517 1007.37 494.9C1008.35 493.267 1010.03 492.45 1012.42 492.45C1014.8 492.45 1016.48 493.267 1017.44 494.9C1018.43 496.517 1018.92 498.767 1018.92 501.65C1018.92 504.567 1018.43 506.85 1017.44 508.5C1016.48 510.133 1014.8 510.95 1012.42 510.95C1010.03 510.95 1008.35 510.133 1007.37 508.5C1006.4 506.85 1005.92 504.567 1005.92 501.65ZM1016.12 501.65C1016.12 500.3 1016.03 499.158 1015.84 498.225C1015.68 497.292 1015.33 496.533 1014.79 495.95C1014.26 495.35 1013.47 495.05 1012.42 495.05C1011.37 495.05 1010.58 495.35 1010.04 495.95C1009.51 496.533 1009.15 497.292 1008.97 498.225C1008.8 499.158 1008.72 500.3 1008.72 501.65C1008.72 503.05 1008.8 504.225 1008.97 505.175C1009.13 506.125 1009.48 506.892 1010.02 507.475C1010.57 508.058 1011.37 508.35 1012.42 508.35C1013.47 508.35 1014.26 508.058 1014.79 507.475C1015.34 506.892 1015.7 506.125 1015.87 505.175C1016.03 504.225 1016.12 503.05 1016.12 501.65ZM1019.93 501.65C1019.93 498.767 1020.42 496.517 1021.38 494.9C1022.37 493.267 1024.05 492.45 1026.43 492.45C1028.82 492.45 1030.49 493.267 1031.46 494.9C1032.44 496.517 1032.93 498.767 1032.93 501.65C1032.93 504.567 1032.44 506.85 1031.46 508.5C1030.49 510.133 1028.82 510.95 1026.43 510.95C1024.05 510.95 1022.37 510.133 1021.38 508.5C1020.42 506.85 1019.93 504.567 1019.93 501.65ZM1030.13 501.65C1030.13 500.3 1030.04 499.158 1029.86 498.225C1029.69 497.292 1029.34 496.533 1028.81 495.95C1028.28 495.35 1027.48 495.05 1026.43 495.05C1025.38 495.05 1024.59 495.35 1024.06 495.95C1023.53 496.533 1023.17 497.292 1022.98 498.225C1022.82 499.158 1022.73 500.3 1022.73 501.65C1022.73 503.05 1022.82 504.225 1022.98 505.175C1023.15 506.125 1023.5 506.892 1024.03 507.475C1024.58 508.058 1025.38 508.35 1026.43 508.35C1027.48 508.35 1028.28 508.058 1028.81 507.475C1029.36 506.892 1029.72 506.125 1029.88 505.175C1030.05 504.225 1030.13 503.05 1030.13 501.65ZM1033.95 501.65C1033.95 498.767 1034.43 496.517 1035.4 494.9C1036.38 493.267 1038.07 492.45 1040.45 492.45C1042.83 492.45 1044.51 493.267 1045.47 494.9C1046.46 496.517 1046.95 498.767 1046.95 501.65C1046.95 504.567 1046.46 506.85 1045.47 508.5C1044.51 510.133 1042.83 510.95 1040.45 510.95C1038.07 510.95 1036.38 510.133 1035.4 508.5C1034.43 506.85 1033.95 504.567 1033.95 501.65ZM1044.15 501.65C1044.15 500.3 1044.06 499.158 1043.87 498.225C1043.71 497.292 1043.36 496.533 1042.82 495.95C1042.29 495.35 1041.5 495.05 1040.45 495.05C1039.4 495.05 1038.61 495.35 1038.07 495.95C1037.54 496.533 1037.18 497.292 1037 498.225C1036.83 499.158 1036.75 500.3 1036.75 501.65C1036.75 503.05 1036.83 504.225 1037 505.175C1037.17 506.125 1037.52 506.892 1038.05 507.475C1038.6 508.058 1039.4 508.35 1040.45 508.35C1041.5 508.35 1042.29 508.058 1042.82 507.475C1043.37 506.892 1043.73 506.125 1043.9 505.175C1044.07 504.225 1044.15 503.05 1044.15 501.65ZM1047.96 501.65C1047.96 498.767 1048.45 496.517 1049.41 494.9C1050.4 493.267 1052.08 492.45 1054.46 492.45C1056.85 492.45 1058.52 493.267 1059.49 494.9C1060.47 496.517 1060.96 498.767 1060.96 501.65C1060.96 504.567 1060.47 506.85 1059.49 508.5C1058.52 510.133 1056.85 510.95 1054.46 510.95C1052.08 510.95 1050.4 510.133 1049.41 508.5C1048.45 506.85 1047.96 504.567 1047.96 501.65ZM1058.16 501.65C1058.16 500.3 1058.07 499.158 1057.89 498.225C1057.72 497.292 1057.37 496.533 1056.84 495.95C1056.31 495.35 1055.51 495.05 1054.46 495.05C1053.41 495.05 1052.62 495.35 1052.09 495.95C1051.56 496.533 1051.2 497.292 1051.01 498.225C1050.85 499.158 1050.76 500.3 1050.76 501.65C1050.76 503.05 1050.85 504.225 1051.01 505.175C1051.18 506.125 1051.53 506.892 1052.06 507.475C1052.61 508.058 1053.41 508.35 1054.46 508.35C1055.51 508.35 1056.31 508.058 1056.84 507.475C1057.39 506.892 1057.75 506.125 1057.91 505.175C1058.08 504.225 1058.16 503.05 1058.16 501.65ZM1061.98 501.65C1061.98 498.767 1062.46 496.517 1063.43 494.9C1064.41 493.267 1066.1 492.45 1068.48 492.45C1070.86 492.45 1072.54 493.267 1073.51 494.9C1074.49 496.517 1074.98 498.767 1074.98 501.65C1074.98 504.567 1074.49 506.85 1073.51 508.5C1072.54 510.133 1070.86 510.95 1068.48 510.95C1066.1 510.95 1064.41 510.133 1063.43 508.5C1062.46 506.85 1061.98 504.567 1061.98 501.65ZM1072.18 501.65C1072.18 500.3 1072.09 499.158 1071.91 498.225C1071.74 497.292 1071.39 496.533 1070.86 495.95C1070.32 495.35 1069.53 495.05 1068.48 495.05C1067.43 495.05 1066.64 495.35 1066.11 495.95C1065.57 496.533 1065.21 497.292 1065.03 498.225C1064.86 499.158 1064.78 500.3 1064.78 501.65C1064.78 503.05 1064.86 504.225 1065.03 505.175C1065.2 506.125 1065.55 506.892 1066.08 507.475C1066.63 508.058 1067.43 508.35 1068.48 508.35C1069.53 508.35 1070.32 508.058 1070.86 507.475C1071.41 506.892 1071.76 506.125 1071.93 505.175C1072.1 504.225 1072.18 503.05 1072.18 501.65Z" fill="black"/>
<path d="M1269.81 562.588C1268.27 562.588 1266.89 562.31 1265.64 561.755C1264.44 561.167 1263.47 560.367 1262.75 559.354C1262.07 558.309 1261.72 557.084 1261.72 555.679C1261.72 553 1263.03 550.959 1265.64 549.554C1268.29 548.149 1272.62 547.218 1278.63 546.761C1278.6 545.781 1278.37 544.883 1277.94 544.066C1277.55 543.249 1276.91 542.612 1276.03 542.155C1275.18 541.665 1274.06 541.42 1272.65 541.42C1271.67 541.42 1270.71 541.551 1269.76 541.812C1268.81 542.041 1267.9 542.367 1267.02 542.792C1266.13 543.217 1265.3 543.658 1264.52 544.115L1262.7 540.832C1263.59 540.309 1264.6 539.787 1265.74 539.264C1266.89 538.709 1268.11 538.268 1269.42 537.941C1270.76 537.614 1272.11 537.451 1273.48 537.451C1275.71 537.451 1277.55 537.859 1279.02 538.676C1280.49 539.493 1281.6 540.652 1282.35 542.155C1283.1 543.658 1283.48 545.471 1283.48 547.594V562H1279.51L1279.12 558.913H1278.97C1277.7 559.893 1276.26 560.759 1274.66 561.51C1273.06 562.229 1271.44 562.588 1269.81 562.588ZM1271.18 558.717C1272.46 558.717 1273.71 558.439 1274.95 557.884C1276.2 557.329 1277.42 556.545 1278.63 555.532V549.848C1275.49 550.077 1273.03 550.436 1271.23 550.926C1269.47 551.416 1268.22 552.037 1267.51 552.788C1266.79 553.507 1266.43 554.356 1266.43 555.336C1266.43 556.12 1266.64 556.773 1267.07 557.296C1267.52 557.786 1268.11 558.145 1268.83 558.374C1269.55 558.603 1270.33 558.717 1271.18 558.717ZM1288.7 562L1283.8 538.039H1288.61L1291.06 551.22C1291.28 552.331 1291.48 553.441 1291.64 554.552C1291.81 555.663 1291.95 556.79 1292.08 557.933H1292.28C1292.44 556.79 1292.64 555.663 1292.87 554.552C1293.1 553.441 1293.33 552.331 1293.55 551.22L1296.15 539.999H1300.46L1303.01 551.22C1303.24 552.331 1303.49 553.441 1303.75 554.552C1304.04 555.663 1304.25 556.79 1304.38 557.933H1304.58C1304.78 556.79 1304.94 555.663 1305.07 554.552C1305.2 553.441 1305.36 552.331 1305.56 551.22L1308.01 538.039H1312.52L1307.76 562H1301.74L1299.39 551.514C1299.19 550.632 1298.99 549.603 1298.8 548.427C1298.63 547.251 1298.45 545.928 1298.26 544.458H1298.06C1297.9 545.83 1297.72 547.104 1297.52 548.28C1297.36 549.423 1297.18 550.501 1296.98 551.514L1294.68 562H1288.7ZM1320.73 562.588C1319.2 562.588 1317.81 562.31 1316.57 561.755C1315.36 561.167 1314.39 560.367 1313.67 559.354C1312.99 558.309 1312.65 557.084 1312.65 555.679C1312.65 553 1313.95 550.959 1316.57 549.554C1319.21 548.149 1323.54 547.218 1329.55 546.761C1329.52 545.781 1329.29 544.883 1328.86 544.066C1328.47 543.249 1327.84 542.612 1326.95 542.155C1326.1 541.665 1324.98 541.42 1323.57 541.42C1322.59 541.42 1321.63 541.551 1320.68 541.812C1319.73 542.041 1318.82 542.367 1317.94 542.792C1317.06 543.217 1316.22 543.658 1315.44 544.115L1313.63 540.832C1314.51 540.309 1315.52 539.787 1316.66 539.264C1317.81 538.709 1319.03 538.268 1320.34 537.941C1321.68 537.614 1323.03 537.451 1324.41 537.451C1326.63 537.451 1328.47 537.859 1329.94 538.676C1331.41 539.493 1332.52 540.652 1333.27 542.155C1334.03 543.658 1334.4 545.471 1334.4 547.594V562H1330.43L1330.04 558.913H1329.89C1328.62 559.893 1327.18 560.759 1325.58 561.51C1323.98 562.229 1322.36 562.588 1320.73 562.588ZM1322.1 558.717C1323.38 558.717 1324.63 558.439 1325.88 557.884C1327.12 557.329 1328.34 556.545 1329.55 555.532V549.848C1326.41 550.077 1323.95 550.436 1322.15 550.926C1320.39 551.416 1319.15 552.037 1318.43 552.788C1317.71 553.507 1317.35 554.356 1317.35 555.336C1317.35 556.12 1317.56 556.773 1317.99 557.296C1318.44 557.786 1319.03 558.145 1319.75 558.374C1320.47 558.603 1321.25 558.717 1322.1 558.717ZM1349.38 562V541.959H1338.65V538.039H1354.23V562H1349.38ZM1351.39 533.384C1350.34 533.384 1349.47 533.074 1348.79 532.453C1348.1 531.8 1347.76 530.95 1347.76 529.905C1347.76 528.86 1348.1 528.027 1348.79 527.406C1349.47 526.753 1350.34 526.426 1351.39 526.426C1352.43 526.426 1353.3 526.753 1353.98 527.406C1354.67 528.027 1355.01 528.86 1355.01 529.905C1355.01 530.95 1354.67 531.8 1353.98 532.453C1353.3 533.074 1352.43 533.384 1351.39 533.384ZM1379.1 562.588C1376.68 562.588 1374.77 562.163 1373.37 561.314C1372 560.465 1371.02 559.289 1370.43 557.786C1369.84 556.283 1369.55 554.536 1369.55 552.543V541.959H1362.98V538.333L1369.74 538.039L1370.38 530.493H1374.4V538.039H1385.72V541.959H1374.4V552.543C1374.4 553.882 1374.58 555.026 1374.94 555.973C1375.29 556.888 1375.9 557.574 1376.75 558.031C1377.6 558.456 1378.74 558.668 1380.18 558.668C1381.26 558.668 1382.24 558.586 1383.12 558.423C1384 558.227 1384.85 557.982 1385.67 557.688L1386.65 561.216C1385.57 561.575 1384.41 561.886 1383.17 562.147C1381.96 562.441 1380.6 562.588 1379.1 562.588ZM1430.51 562.588C1427.87 562.588 1425.84 561.82 1424.44 560.285C1423.03 558.717 1422.33 556.496 1422.33 553.621V531.179H1414.34V527.259H1427.18V553.915C1427.18 555.581 1427.6 556.79 1428.45 557.541C1429.3 558.26 1430.37 558.619 1431.64 558.619C1432.29 558.619 1432.96 558.537 1433.65 558.374C1434.37 558.211 1435.15 557.949 1436 557.59L1437.18 561.216C1436.03 561.608 1434.97 561.935 1433.99 562.196C1433.04 562.457 1431.88 562.588 1430.51 562.588ZM1448.04 562.588C1446.5 562.588 1445.11 562.31 1443.87 561.755C1442.66 561.167 1441.7 560.367 1440.98 559.354C1440.29 558.309 1439.95 557.084 1439.95 555.679C1439.95 553 1441.26 550.959 1443.87 549.554C1446.52 548.149 1450.84 547.218 1456.86 546.761C1456.82 545.781 1456.59 544.883 1456.17 544.066C1455.78 543.249 1455.14 542.612 1454.26 542.155C1453.41 541.665 1452.28 541.42 1450.88 541.42C1449.9 541.42 1448.93 541.551 1447.99 541.812C1447.04 542.041 1446.12 542.367 1445.24 542.792C1444.36 543.217 1443.53 543.658 1442.74 544.115L1440.93 540.832C1441.81 540.309 1442.82 539.787 1443.97 539.264C1445.11 538.709 1446.34 538.268 1447.64 537.941C1448.98 537.614 1450.34 537.451 1451.71 537.451C1453.93 537.451 1455.78 537.859 1457.25 538.676C1458.72 539.493 1459.83 540.652 1460.58 542.155C1461.33 543.658 1461.71 545.471 1461.71 547.594V562H1457.74L1457.35 558.913H1457.2C1455.92 559.893 1454.49 560.759 1452.89 561.51C1451.29 562.229 1449.67 562.588 1448.04 562.588ZM1449.41 558.717C1450.68 558.717 1451.94 558.439 1453.18 557.884C1454.42 557.329 1455.65 556.545 1456.86 555.532V549.848C1453.72 550.077 1451.25 550.436 1449.46 550.926C1447.69 551.416 1446.45 552.037 1445.73 552.788C1445.01 553.507 1444.65 554.356 1444.65 555.336C1444.65 556.12 1444.87 556.773 1445.29 557.296C1445.75 557.786 1446.34 558.145 1447.06 558.374C1447.77 558.603 1448.56 558.717 1449.41 558.717ZM1473.45 562.588C1470.64 562.588 1468.56 561.755 1467.22 560.089C1465.92 558.423 1465.26 556.022 1465.26 552.886V538.039H1470.11V552.249C1470.11 554.372 1470.49 555.94 1471.24 556.953C1472.03 557.933 1473.32 558.423 1475.11 558.423C1476.39 558.423 1477.53 558.113 1478.54 557.492C1479.56 556.871 1480.65 555.859 1481.83 554.454V538.039H1486.68V562H1482.71L1482.32 558.031H1482.12C1480.94 559.37 1479.65 560.465 1478.25 561.314C1476.88 562.163 1475.28 562.588 1473.45 562.588ZM1491.46 562V538.039H1495.43L1495.82 541.91H1496.02C1497.23 540.669 1498.53 539.623 1499.94 538.774C1501.34 537.892 1502.97 537.451 1504.84 537.451C1507.61 537.451 1509.66 538.3 1510.96 539.999C1512.3 541.665 1512.97 544.05 1512.97 547.153V562H1508.12V547.79C1508.12 545.699 1507.73 544.164 1506.94 543.184C1506.19 542.171 1504.92 541.665 1503.12 541.665C1501.85 541.665 1500.7 541.992 1499.69 542.645C1498.68 543.266 1497.55 544.213 1496.31 545.487V562H1491.46ZM1529.51 562.588C1527.03 562.588 1524.79 562.098 1522.8 561.118C1520.81 560.138 1519.22 558.717 1518.05 556.855C1516.9 554.96 1516.33 552.69 1516.33 550.044C1516.33 547.398 1516.95 545.144 1518.19 543.282C1519.44 541.387 1521.07 539.95 1523.09 538.97C1525.15 537.957 1527.39 537.451 1529.81 537.451C1531.77 537.451 1533.48 537.794 1534.95 538.48C1536.42 539.133 1537.65 539.934 1538.63 540.881L1536.28 543.968C1535.3 543.184 1534.3 542.58 1533.29 542.155C1532.31 541.698 1531.23 541.469 1530.05 541.469C1528.35 541.469 1526.83 541.828 1525.5 542.547C1524.19 543.266 1523.16 544.278 1522.41 545.585C1521.69 546.859 1521.33 548.345 1521.33 550.044C1521.33 551.775 1521.69 553.278 1522.41 554.552C1523.13 555.826 1524.12 556.822 1525.4 557.541C1526.7 558.26 1528.21 558.619 1529.91 558.619C1531.34 558.619 1532.65 558.341 1533.83 557.786C1535 557.231 1536.06 556.561 1537.01 555.777L1539.12 558.913C1537.78 560.089 1536.28 561.004 1534.61 561.657C1532.98 562.278 1531.28 562.588 1529.51 562.588ZM1542.38 562V527.259H1547.23V536.471L1546.94 541.861H1547.09C1548.23 540.652 1549.5 539.623 1550.91 538.774C1552.31 537.892 1553.93 537.451 1555.76 537.451C1558.57 537.451 1560.63 538.3 1561.93 539.999C1563.24 541.665 1563.89 544.05 1563.89 547.153V562H1559.04V547.79C1559.04 545.699 1558.65 544.164 1557.87 543.184C1557.11 542.171 1555.84 541.665 1554.04 541.665C1552.77 541.665 1551.63 541.992 1550.61 542.645C1549.6 543.266 1548.47 544.213 1547.23 545.487V562H1542.38ZM1584.21 570.624C1580.88 567.945 1578.23 564.744 1576.27 561.02C1574.34 557.296 1573.38 553.082 1573.38 548.378C1573.38 543.674 1574.34 539.46 1576.27 535.736C1578.23 531.979 1580.88 528.778 1584.21 526.132L1586.9 528.435C1583.7 531.212 1581.35 534.217 1579.85 537.451C1578.34 540.685 1577.59 544.327 1577.59 548.378C1577.59 552.429 1578.34 556.071 1579.85 559.305C1581.35 562.506 1583.7 565.512 1586.9 568.321L1584.21 570.624ZM1597.71 570.624L1595.02 568.321C1598.22 565.512 1600.57 562.506 1602.07 559.305C1603.58 556.071 1604.33 552.429 1604.33 548.378C1604.33 544.327 1603.58 540.685 1602.07 537.451C1600.57 534.217 1598.22 531.212 1595.02 528.435L1597.71 526.132C1601.05 528.778 1603.67 531.979 1605.6 535.736C1607.56 539.46 1608.54 543.674 1608.54 548.378C1608.54 553.082 1607.56 557.296 1605.6 561.02C1603.67 564.744 1601.05 567.945 1597.71 570.624ZM1629.15 545.487C1627.91 545.487 1626.87 545.062 1626.02 544.213C1625.17 543.364 1624.74 542.269 1624.74 540.93C1624.74 539.591 1625.17 538.496 1626.02 537.647C1626.87 536.798 1627.91 536.373 1629.15 536.373C1630.43 536.373 1631.47 536.798 1632.29 537.647C1633.14 538.496 1633.56 539.591 1633.56 540.93C1633.56 542.269 1633.14 543.364 1632.29 544.213C1631.47 545.062 1630.43 545.487 1629.15 545.487ZM1625.23 572.486L1623.91 569.497C1626.03 568.615 1627.6 567.504 1628.61 566.165C1629.66 564.826 1630.16 563.209 1630.13 561.314L1629.35 556.463L1632.19 560.628C1631.77 561.053 1631.31 561.347 1630.82 561.51C1630.33 561.673 1629.84 561.755 1629.35 561.755C1628.56 561.755 1627.85 561.608 1627.19 561.314C1626.57 560.987 1626.07 560.53 1625.67 559.942C1625.31 559.321 1625.13 558.586 1625.13 557.737C1625.13 556.43 1625.56 555.434 1626.41 554.748C1627.26 554.029 1628.27 553.67 1629.45 553.67C1631.01 553.67 1632.21 554.274 1633.02 555.483C1633.84 556.692 1634.25 558.358 1634.25 560.481C1634.25 563.421 1633.45 565.904 1631.85 567.929C1630.28 569.954 1628.07 571.473 1625.23 572.486Z" fill="white"/>
<path d="M185.809 562.588C184.274 562.588 182.885 562.31 181.644 561.755C180.435 561.167 179.472 560.367 178.753 559.354C178.067 558.309 177.724 557.084 177.724 555.679C177.724 553 179.031 550.959 181.644 549.554C184.29 548.149 188.618 547.218 194.629 546.761C194.596 545.781 194.368 544.883 193.943 544.066C193.551 543.249 192.914 542.612 192.032 542.155C191.183 541.665 190.056 541.42 188.651 541.42C187.671 541.42 186.707 541.551 185.76 541.812C184.813 542.041 183.898 542.367 183.016 542.792C182.134 543.217 181.301 543.658 180.517 544.115L178.704 540.832C179.586 540.309 180.599 539.787 181.742 539.264C182.885 538.709 184.11 538.268 185.417 537.941C186.756 537.614 188.112 537.451 189.484 537.451C191.705 537.451 193.551 537.859 195.021 538.676C196.491 539.493 197.602 540.652 198.353 542.155C199.104 543.658 199.48 545.471 199.48 547.594V562H195.511L195.119 558.913H194.972C193.698 559.893 192.261 560.759 190.66 561.51C189.059 562.229 187.442 562.588 185.809 562.588ZM187.181 558.717C188.455 558.717 189.713 558.439 190.954 557.884C192.195 557.329 193.42 556.545 194.629 555.532V549.848C191.493 550.077 189.027 550.436 187.23 550.926C185.466 551.416 184.225 552.037 183.506 552.788C182.787 553.507 182.428 554.356 182.428 555.336C182.428 556.12 182.64 556.773 183.065 557.296C183.522 557.786 184.11 558.145 184.829 558.374C185.548 558.603 186.332 558.717 187.181 558.717ZM204.704 562L199.804 538.039H204.606L207.056 551.22C207.285 552.331 207.481 553.441 207.644 554.552C207.807 555.663 207.954 556.79 208.085 557.933H208.281C208.444 556.79 208.64 555.663 208.869 554.552C209.098 553.441 209.326 552.331 209.555 551.22L212.152 539.999H216.464L219.012 551.22C219.241 552.331 219.486 553.441 219.747 554.552C220.041 555.663 220.253 556.79 220.384 557.933H220.58C220.776 556.79 220.939 555.663 221.07 554.552C221.201 553.441 221.364 552.331 221.56 551.22L224.01 538.039H228.518L223.765 562H217.738L215.386 551.514C215.19 550.632 214.994 549.603 214.798 548.427C214.635 547.251 214.455 545.928 214.259 544.458H214.063C213.9 545.83 213.72 547.104 213.524 548.28C213.361 549.423 213.181 550.501 212.985 551.514L210.682 562H204.704ZM236.731 562.588C235.195 562.588 233.807 562.31 232.566 561.755C231.357 561.167 230.393 560.367 229.675 559.354C228.989 558.309 228.646 557.084 228.646 555.679C228.646 553 229.952 550.959 232.566 549.554C235.212 548.149 239.54 547.218 245.551 546.761C245.518 545.781 245.289 544.883 244.865 544.066C244.473 543.249 243.836 542.612 242.954 542.155C242.104 541.665 240.977 541.42 239.573 541.42C238.593 541.42 237.629 541.551 236.682 541.812C235.734 542.041 234.82 542.367 233.938 542.792C233.056 543.217 232.223 543.658 231.439 544.115L229.626 540.832C230.508 540.309 231.52 539.787 232.664 539.264C233.807 538.709 235.032 538.268 236.339 537.941C237.678 537.614 239.034 537.451 240.406 537.451C242.627 537.451 244.473 537.859 245.943 538.676C247.413 539.493 248.523 540.652 249.275 542.155C250.026 543.658 250.402 545.471 250.402 547.594V562H246.433L246.041 558.913H245.894C244.62 559.893 243.182 560.759 241.582 561.51C239.981 562.229 238.364 562.588 236.731 562.588ZM238.103 558.717C239.377 558.717 240.634 558.439 241.876 557.884C243.117 557.329 244.342 556.545 245.551 555.532V549.848C242.415 550.077 239.948 550.436 238.152 550.926C236.388 551.416 235.146 552.037 234.428 552.788C233.709 553.507 233.35 554.356 233.35 555.336C233.35 556.12 233.562 556.773 233.987 557.296C234.444 557.786 235.032 558.145 235.751 558.374C236.469 558.603 237.253 558.717 238.103 558.717ZM265.377 562V541.959H254.646V538.039H270.228V562H265.377ZM267.386 533.384C266.34 533.384 265.475 533.074 264.789 532.453C264.103 531.8 263.76 530.95 263.76 529.905C263.76 528.86 264.103 528.027 264.789 527.406C265.475 526.753 266.34 526.426 267.386 526.426C268.431 526.426 269.297 526.753 269.983 527.406C270.669 528.027 271.012 528.86 271.012 529.905C271.012 530.95 270.669 531.8 269.983 532.453C269.297 533.074 268.431 533.384 267.386 533.384ZM295.1 562.588C292.683 562.588 290.772 562.163 289.367 561.314C287.995 560.465 287.015 559.289 286.427 557.786C285.839 556.283 285.545 554.536 285.545 552.543V541.959H278.979V538.333L285.741 538.039L286.378 530.493H290.396V538.039H301.715V541.959H290.396V552.543C290.396 553.882 290.576 555.026 290.935 555.973C291.295 556.888 291.899 557.574 292.748 558.031C293.598 558.456 294.741 558.668 296.178 558.668C297.256 558.668 298.236 558.586 299.118 558.423C300 558.227 300.85 557.982 301.666 557.688L302.646 561.216C301.568 561.575 300.409 561.886 299.167 562.147C297.959 562.441 296.603 562.588 295.1 562.588ZM343.67 562.588C341.187 562.588 338.95 562.098 336.957 561.118C334.964 560.138 333.38 558.717 332.204 556.855C331.061 554.96 330.489 552.69 330.489 550.044C330.489 547.398 331.11 545.144 332.351 543.282C333.592 541.387 335.226 539.95 337.251 538.97C339.309 537.957 341.547 537.451 343.964 537.451C345.924 537.451 347.639 537.794 349.109 538.48C350.579 539.133 351.804 539.934 352.784 540.881L350.432 543.968C349.452 543.184 348.456 542.58 347.443 542.155C346.463 541.698 345.385 541.469 344.209 541.469C342.51 541.469 340.991 541.828 339.652 542.547C338.345 543.266 337.316 544.278 336.565 545.585C335.846 546.859 335.487 548.345 335.487 550.044C335.487 551.775 335.846 553.278 336.565 554.552C337.284 555.826 338.28 556.822 339.554 557.541C340.861 558.26 342.363 558.619 344.062 558.619C345.499 558.619 346.806 558.341 347.982 557.786C349.158 557.231 350.22 556.561 351.167 555.777L353.274 558.913C351.935 560.089 350.432 561.004 348.766 561.657C347.133 562.278 345.434 562.588 343.67 562.588ZM364.035 562.588C362.5 562.588 361.111 562.31 359.87 561.755C358.661 561.167 357.698 560.367 356.979 559.354C356.293 558.309 355.95 557.084 355.95 555.679C355.95 553 357.257 550.959 359.87 549.554C362.516 548.149 366.844 547.218 372.855 546.761C372.822 545.781 372.594 544.883 372.169 544.066C371.777 543.249 371.14 542.612 370.258 542.155C369.409 541.665 368.282 541.42 366.877 541.42C365.897 541.42 364.933 541.551 363.986 541.812C363.039 542.041 362.124 542.367 361.242 542.792C360.36 543.217 359.527 543.658 358.743 544.115L356.93 540.832C357.812 540.309 358.825 539.787 359.968 539.264C361.111 538.709 362.336 538.268 363.643 537.941C364.982 537.614 366.338 537.451 367.71 537.451C369.931 537.451 371.777 537.859 373.247 538.676C374.717 539.493 375.828 540.652 376.579 542.155C377.33 543.658 377.706 545.471 377.706 547.594V562H373.737L373.345 558.913H373.198C371.924 559.893 370.487 560.759 368.886 561.51C367.285 562.229 365.668 562.588 364.035 562.588ZM365.407 558.717C366.681 558.717 367.939 558.439 369.18 557.884C370.421 557.329 371.646 556.545 372.855 555.532V549.848C369.719 550.077 367.253 550.436 365.456 550.926C363.692 551.416 362.451 552.037 361.732 552.788C361.013 553.507 360.654 554.356 360.654 555.336C360.654 556.12 360.866 556.773 361.291 557.296C361.748 557.786 362.336 558.145 363.055 558.374C363.774 558.603 364.558 558.717 365.407 558.717ZM381.999 562V538.039H385.968L386.36 541.91H386.556C387.765 540.669 389.071 539.623 390.476 538.774C391.881 537.892 393.514 537.451 395.376 537.451C398.153 537.451 400.194 538.3 401.501 539.999C402.84 541.665 403.51 544.05 403.51 547.153V562H398.659V547.79C398.659 545.699 398.267 544.164 397.483 543.184C396.732 542.171 395.458 541.665 393.661 541.665C392.387 541.665 391.244 541.992 390.231 542.645C389.218 543.266 388.091 544.213 386.85 545.487V562H381.999ZM409.371 562V529.905H414.222V557.884H429.657V562H409.371ZM440.418 562.588C438.882 562.588 437.494 562.31 436.253 561.755C435.044 561.167 434.08 560.367 433.362 559.354C432.676 558.309 432.333 557.084 432.333 555.679C432.333 553 433.639 550.959 436.253 549.554C438.899 548.149 443.227 547.218 449.238 546.761C449.205 545.781 448.976 544.883 448.552 544.066C448.16 543.249 447.523 542.612 446.641 542.155C445.791 541.665 444.664 541.42 443.26 541.42C442.28 541.42 441.316 541.551 440.369 541.812C439.421 542.041 438.507 542.367 437.625 542.792C436.743 543.217 435.91 543.658 435.126 544.115L433.313 540.832C434.195 540.309 435.207 539.787 436.351 539.264C437.494 538.709 438.719 538.268 440.026 537.941C441.365 537.614 442.721 537.451 444.093 537.451C446.314 537.451 448.16 537.859 449.63 538.676C451.1 539.493 452.21 540.652 452.962 542.155C453.713 543.658 454.089 545.471 454.089 547.594V562H450.12L449.728 558.913H449.581C448.307 559.893 446.869 560.759 445.269 561.51C443.668 562.229 442.051 562.588 440.418 562.588ZM441.79 558.717C443.064 558.717 444.321 558.439 445.563 557.884C446.804 557.329 448.029 556.545 449.238 555.532V549.848C446.102 550.077 443.635 550.436 441.839 550.926C440.075 551.416 438.833 552.037 438.115 552.788C437.396 553.507 437.037 554.356 437.037 555.336C437.037 556.12 437.249 556.773 437.674 557.296C438.131 557.786 438.719 558.145 439.438 558.374C440.156 558.603 440.94 558.717 441.79 558.717ZM465.829 562.588C463.02 562.588 460.946 561.755 459.606 560.089C458.3 558.423 457.646 556.022 457.646 552.886V538.039H462.497V552.249C462.497 554.372 462.873 555.94 463.624 556.953C464.408 557.933 465.699 558.423 467.495 558.423C468.769 558.423 469.913 558.113 470.925 557.492C471.938 556.871 473.032 555.859 474.208 554.454V538.039H479.059V562H475.09L474.698 558.031H474.502C473.326 559.37 472.036 560.465 470.631 561.314C469.259 562.163 467.659 562.588 465.829 562.588ZM483.842 562V538.039H487.811L488.203 541.91H488.399C489.608 540.669 490.915 539.623 492.319 538.774C493.724 537.892 495.357 537.451 497.219 537.451C499.996 537.451 502.038 538.3 503.344 539.999C504.684 541.665 505.353 544.05 505.353 547.153V562H500.502V547.79C500.502 545.699 500.11 544.164 499.326 543.184C498.575 542.171 497.301 541.665 495.504 541.665C494.23 541.665 493.087 541.992 492.074 542.645C491.062 543.266 489.935 544.213 488.693 545.487V562H483.842ZM521.896 562.588C519.414 562.588 517.176 562.098 515.183 561.118C513.191 560.138 511.606 558.717 510.43 556.855C509.287 554.96 508.715 552.69 508.715 550.044C508.715 547.398 509.336 545.144 510.577 543.282C511.819 541.387 513.452 539.95 515.477 538.97C517.535 537.957 519.773 537.451 522.19 537.451C524.15 537.451 525.865 537.794 527.335 538.48C528.805 539.133 530.03 539.934 531.01 540.881L528.658 543.968C527.678 543.184 526.682 542.58 525.669 542.155C524.689 541.698 523.611 541.469 522.435 541.469C520.737 541.469 519.218 541.828 517.878 542.547C516.572 543.266 515.543 544.278 514.791 545.585C514.073 546.859 513.713 548.345 513.713 550.044C513.713 551.775 514.073 553.278 514.791 554.552C515.51 555.826 516.506 556.822 517.78 557.541C519.087 558.26 520.59 558.619 522.288 558.619C523.726 558.619 525.032 558.341 526.208 557.786C527.384 557.231 528.446 556.561 529.393 555.777L531.5 558.913C530.161 560.089 528.658 561.004 526.992 561.657C525.359 562.278 523.66 562.588 521.896 562.588ZM534.764 562V527.259H539.615V536.471L539.321 541.861H539.468C540.611 540.652 541.885 539.623 543.29 538.774C544.695 537.892 546.312 537.451 548.141 537.451C550.95 537.451 553.008 538.3 554.315 539.999C555.622 541.665 556.275 544.05 556.275 547.153V562H551.424V547.79C551.424 545.699 551.032 544.164 550.248 543.184C549.497 542.171 548.223 541.665 546.426 541.665C545.152 541.665 544.009 541.992 542.996 542.645C541.983 543.266 540.856 544.213 539.615 545.487V562H534.764ZM576.591 570.624C573.259 567.945 570.613 564.744 568.653 561.02C566.726 557.296 565.762 553.082 565.762 548.378C565.762 543.674 566.726 539.46 568.653 535.736C570.613 531.979 573.259 528.778 576.591 526.132L579.286 528.435C576.085 531.212 573.733 534.217 572.23 537.451C570.727 540.685 569.976 544.327 569.976 548.378C569.976 552.429 570.727 556.071 572.23 559.305C573.733 562.506 576.085 565.512 579.286 568.321L576.591 570.624ZM590.096 570.624L587.401 568.321C590.602 565.512 592.954 562.506 594.457 559.305C595.959 556.071 596.711 552.429 596.711 548.378C596.711 544.327 595.959 540.685 594.457 537.451C592.954 534.217 590.602 531.212 587.401 528.435L590.096 526.132C593.428 528.778 596.057 531.979 597.985 535.736C599.945 539.46 600.925 543.674 600.925 548.378C600.925 553.082 599.945 557.296 597.985 561.02C596.057 564.744 593.428 567.945 590.096 570.624Z" fill="white"/>
<defs>
<linearGradient id="paint0_linear_401_2" x1="960" y1="0" x2="960" y2="1080" gradientUnits="userSpaceOnUse">
<stop stop-color="#E97A7A"/>
<stop offset="1" stop-color="#420404"/>
</linearGradient>
</defs>
</svg>
