<svg width="1920" height="1080" viewBox="0 0 1920 1080" fill="none" xmlns="http://www.w3.org/2000/svg">
<g clip-path="url(#clip0_310_2)">
<rect width="1920" height="1080" fill="white"/>
<circle cx="960" cy="540" r="424" stroke="url(#paint0_linear_310_2)" stroke-width="4"/>
<path d="M1144.81 819.766H1140.74V708.434C1140.74 691.345 1133.95 674.956 1121.87 662.872C1109.79 650.789 1093.4 644 1076.31 644H840.434C823.345 644 806.956 650.789 794.872 662.872C782.789 674.956 776 691.345 776 708.434V1319.21C776 1336.3 782.789 1352.69 794.872 1364.77C806.956 1376.86 823.345 1383.65 840.434 1383.65H1076.31C1093.4 1383.65 1109.79 1376.86 1121.87 1364.77C1133.95 1352.69 1140.74 1336.3 1140.74 1319.21V899.014H1144.81V819.766Z" fill="#393838" fill-opacity="0.5"/>
<path d="M1078.91 660.762H1048.12C1049.54 664.233 1050.08 668 1049.69 671.73C1049.31 675.46 1048.02 679.039 1045.93 682.151C1043.84 685.263 1041.01 687.813 1037.7 689.576C1034.39 691.339 1030.7 692.261 1026.95 692.261H891.823C888.074 692.261 884.383 691.339 881.074 689.576C877.765 687.813 874.941 685.263 872.85 682.151C870.759 679.04 869.465 675.461 869.082 671.732C868.7 668.002 869.24 664.236 870.656 660.765H841.895C829.132 660.765 816.893 665.835 807.868 674.859C798.844 683.883 793.774 696.123 793.774 708.885V1318.76C793.774 1331.53 798.844 1343.77 807.868 1352.79C816.893 1361.81 829.132 1366.88 841.895 1366.88H1078.9C1091.66 1366.88 1103.9 1361.81 1112.93 1352.79C1121.95 1343.77 1127.02 1331.53 1127.02 1318.76V708.882C1127.02 696.12 1121.95 683.88 1112.93 674.856C1103.9 665.832 1091.66 660.762 1078.9 660.762H1078.91Z" fill="white"/>
<path d="M1107.47 1139.77H823.29C821.895 1139.77 820.557 1139.22 819.57 1138.23C818.584 1137.24 818.029 1135.91 818.027 1134.51V1064.02C818.029 1062.62 818.584 1061.29 819.57 1060.3C820.557 1059.31 821.895 1058.76 823.29 1058.76H1107.47C1108.87 1058.76 1110.2 1059.31 1111.19 1060.3C1112.18 1061.29 1112.73 1062.62 1112.73 1064.02V1134.51C1112.73 1135.91 1112.18 1137.25 1111.19 1138.23C1110.2 1139.22 1108.87 1139.77 1107.47 1139.77ZM823.29 1060.86C822.453 1060.86 821.65 1061.2 821.058 1061.79C820.466 1062.38 820.133 1063.18 820.132 1064.02V1134.51C820.133 1135.35 820.466 1136.15 821.058 1136.74C821.65 1137.34 822.453 1137.67 823.29 1137.67H1107.47C1108.31 1137.67 1109.11 1137.34 1109.7 1136.74C1110.29 1136.15 1110.63 1135.35 1110.63 1134.51V1064.02C1110.63 1063.18 1110.29 1062.38 1109.7 1061.79C1109.11 1061.2 1108.31 1060.86 1107.47 1060.86H823.29Z" fill="#FF5200" fill-opacity="0.75"/>
<path d="M860.127 1121.37C872.334 1121.37 882.23 1111.47 882.23 1099.27C882.23 1087.06 872.334 1077.16 860.127 1077.16C847.92 1077.16 838.024 1087.06 838.024 1099.27C838.024 1111.47 847.92 1121.37 860.127 1121.37Z" fill="#FF5200" fill-opacity="0.75"/>
<path d="M1107.47 1021.88H823.29C821.895 1021.88 820.557 1021.33 819.57 1020.34C818.584 1019.35 818.029 1018.02 818.027 1016.62V946.129C818.029 944.733 818.584 943.396 819.57 942.409C820.557 941.423 821.895 940.868 823.29 940.866H1107.47C1108.87 940.868 1110.2 941.423 1111.19 942.409C1112.18 943.396 1112.73 944.733 1112.73 946.129V1016.62C1112.73 1018.02 1112.18 1019.35 1111.19 1020.34C1110.2 1021.33 1108.87 1021.88 1107.47 1021.88ZM823.29 942.971C822.453 942.972 821.65 943.305 821.058 943.897C820.466 944.489 820.133 945.291 820.132 946.129V1016.62C820.133 1017.46 820.466 1018.26 821.058 1018.85C821.65 1019.45 822.453 1019.78 823.29 1019.78H1107.47C1108.31 1019.78 1109.11 1019.45 1109.7 1018.85C1110.29 1018.26 1110.63 1017.46 1110.63 1016.62V946.129C1110.63 945.291 1110.29 944.489 1109.7 943.897C1109.11 943.305 1108.31 942.972 1107.47 942.971H823.29Z" fill="#FF5200" fill-opacity="0.75"/>
<path d="M860.127 1003.48C872.334 1003.48 882.23 993.581 882.23 981.374C882.23 969.167 872.334 959.271 860.127 959.271C847.92 959.271 838.024 969.167 838.024 981.374C838.024 993.581 847.92 1003.48 860.127 1003.48Z" fill="#FF5200" fill-opacity="0.75"/>
<path d="M911.175 966.64C910.686 966.632 910.201 966.721 909.746 966.903C909.292 967.084 908.879 967.354 908.53 967.697C908.182 968.04 907.905 968.449 907.716 968.9C907.527 969.351 907.43 969.835 907.43 970.324C907.43 970.813 907.527 971.297 907.716 971.748C907.905 972.199 908.182 972.608 908.53 972.95C908.879 973.293 909.292 973.563 909.746 973.745C910.201 973.926 910.686 974.016 911.175 974.007H1084.85C1085.33 974.017 1085.81 973.93 1086.26 973.753C1086.71 973.576 1087.13 973.311 1087.47 972.975C1087.82 972.638 1088.1 972.236 1088.29 971.792C1088.49 971.347 1088.59 970.869 1088.6 970.384C1088.61 969.9 1088.52 969.419 1088.34 968.968C1088.16 968.517 1087.9 968.106 1087.56 967.759C1087.22 967.411 1086.82 967.133 1086.37 966.941C1085.93 966.749 1085.45 966.647 1084.97 966.64H911.177H911.175Z" fill="#E6E6E6"/>
<path d="M911.174 988.743C910.197 988.743 909.26 989.131 908.569 989.822C907.878 990.513 907.49 991.45 907.49 992.427C907.49 993.404 907.878 994.341 908.569 995.032C909.26 995.723 910.197 996.111 911.174 996.111H1084.84C1085.33 996.121 1085.81 996.034 1086.26 995.857C1086.71 995.68 1087.12 995.415 1087.47 995.079C1087.82 994.742 1088.1 994.34 1088.29 993.896C1088.49 993.451 1088.59 992.973 1088.6 992.488C1088.61 992.004 1088.52 991.523 1088.34 991.072C1088.16 990.621 1087.9 990.21 1087.56 989.863C1087.22 989.515 1086.82 989.237 1086.37 989.045C1085.93 988.853 1085.45 988.751 1084.97 988.744H911.176L911.174 988.743Z" fill="#E6E6E6"/>
<path d="M1107.47 903.993H823.29C821.895 903.992 820.557 903.437 819.57 902.45C818.584 901.464 818.029 900.126 818.027 898.731V828.239C818.029 826.843 818.584 825.506 819.57 824.519C820.557 823.533 821.895 822.978 823.29 822.976H1107.47C1108.87 822.978 1110.2 823.533 1111.19 824.519C1112.18 825.506 1112.73 826.843 1112.73 828.239V898.732C1112.73 900.127 1112.18 901.464 1111.19 902.451C1110.2 903.437 1108.87 903.992 1107.47 903.993ZM823.29 825.081C822.453 825.082 821.65 825.415 821.058 826.007C820.466 826.599 820.133 827.401 820.132 828.239V898.732C820.133 899.569 820.466 900.372 821.058 900.964C821.65 901.556 822.453 901.889 823.29 901.89H1107.47C1108.31 901.889 1109.11 901.556 1109.7 900.964C1110.29 900.372 1110.63 899.569 1110.63 898.732V828.239C1110.63 827.401 1110.29 826.599 1109.7 826.007C1109.11 825.415 1108.31 825.082 1107.47 825.081H823.29Z" fill="#FF5200" fill-opacity="0.75"/>
<path d="M860.127 885.586C872.334 885.586 882.23 875.691 882.23 863.484C882.23 851.277 872.334 841.381 860.127 841.381C847.92 841.381 838.024 851.277 838.024 863.484C838.024 875.691 847.92 885.586 860.127 885.586Z" fill="#FF5200" fill-opacity="0.75"/>
<path d="M911.175 848.75C910.686 848.742 910.201 848.831 909.746 849.013C909.292 849.194 908.879 849.464 908.53 849.807C908.182 850.15 907.905 850.559 907.716 851.01C907.527 851.461 907.43 851.945 907.43 852.434C907.43 852.923 907.527 853.407 907.716 853.858C907.905 854.309 908.182 854.717 908.53 855.06C908.879 855.403 909.292 855.673 909.746 855.855C910.201 856.036 910.686 856.125 911.175 856.117H1084.85C1085.33 856.126 1085.81 856.04 1086.26 855.863C1086.71 855.686 1087.13 855.421 1087.47 855.085C1087.82 854.748 1088.1 854.346 1088.29 853.901C1088.49 853.457 1088.59 852.979 1088.6 852.494C1088.61 852.01 1088.52 851.528 1088.34 851.078C1088.16 850.627 1087.9 850.216 1087.56 849.868C1087.22 849.521 1086.82 849.243 1086.37 849.051C1085.93 848.859 1085.45 848.757 1084.97 848.75H911.177H911.175Z" fill="#E6E6E6"/>
<path d="M911.174 870.854C910.197 870.854 909.26 871.242 908.569 871.933C907.878 872.624 907.49 873.561 907.49 874.538C907.49 875.515 907.878 876.452 908.569 877.143C909.26 877.834 910.197 878.222 911.174 878.222H1084.84C1085.33 878.231 1085.81 878.144 1086.26 877.967C1086.71 877.79 1087.12 877.526 1087.47 877.189C1087.82 876.852 1088.1 876.45 1088.29 876.006C1088.49 875.562 1088.59 875.083 1088.6 874.599C1088.61 874.114 1088.52 873.633 1088.34 873.182C1088.16 872.732 1087.9 872.321 1087.56 871.973C1087.22 871.625 1086.82 871.347 1086.37 871.155C1085.93 870.963 1085.45 870.861 1084.97 870.855H911.176L911.174 870.854Z" fill="#E6E6E6"/>
<path d="M1083.71 257.322V-74.8564L836.473 -74.8564V257.322H1083.71Z" fill="#2F2E41"/>
<path d="M1126.18 -85H794V46.8572H1126.18V-85Z" fill="#3F3D56"/>
<path d="M1126.18 62.0723H794V193.929H1126.18V62.0723Z" fill="#3F3D56"/>
<path d="M1126.18 209.143H794V341H1126.18V209.143Z" fill="#3F3D56"/>
<path d="M1126.18 117.979H794V138.265H1126.18V117.979Z" fill="#FF5200"/>
<path d="M1126.18 265.051H794V285.337H1126.18V265.051Z" fill="#FF5200"/>
<path d="M1061.52 86.1606C1065.72 86.1606 1069.13 82.7547 1069.13 78.5534C1069.13 74.3521 1065.72 70.9463 1061.52 70.9463C1057.32 70.9463 1053.91 74.3521 1053.91 78.5534C1053.91 82.7547 1057.32 86.1606 1061.52 86.1606Z" fill="#FF5200"/>
<path d="M1088.14 86.1606C1092.34 86.1606 1095.75 82.7547 1095.75 78.5534C1095.75 74.3521 1092.34 70.9463 1088.14 70.9463C1083.94 70.9463 1080.54 74.3521 1080.54 78.5534C1080.54 82.7547 1083.94 86.1606 1088.14 86.1606Z" fill="#FF5200"/>
<path d="M1114.77 86.1606C1118.97 86.1606 1122.38 82.7547 1122.38 78.5534C1122.38 74.3521 1118.97 70.9463 1114.77 70.9463C1110.57 70.9463 1107.16 74.3521 1107.16 78.5534C1107.16 82.7547 1110.57 86.1606 1114.77 86.1606Z" fill="#FF5200"/>
<path d="M1061.52 230.697C1065.72 230.697 1069.13 227.291 1069.13 223.09C1069.13 218.888 1065.72 215.482 1061.52 215.482C1057.32 215.482 1053.91 218.888 1053.91 223.09C1053.91 227.291 1057.32 230.697 1061.52 230.697Z" fill="#FF5200"/>
<path d="M1088.14 230.697C1092.34 230.697 1095.75 227.291 1095.75 223.09C1095.75 218.888 1092.34 215.482 1088.14 215.482C1083.94 215.482 1080.54 218.888 1080.54 223.09C1080.54 227.291 1083.94 230.697 1088.14 230.697Z" fill="#FF5200"/>
<path d="M1114.77 230.697C1118.97 230.697 1122.38 227.291 1122.38 223.09C1122.38 218.888 1118.97 215.482 1114.77 215.482C1110.57 215.482 1107.16 218.888 1107.16 223.09C1107.16 227.291 1110.57 230.697 1114.77 230.697Z" fill="#FF5200"/>
<path d="M427.132 560.66C424.126 560.66 421.394 559.945 418.937 558.515C416.517 557.085 414.592 554.995 413.162 552.245C411.769 549.458 411.072 546.085 411.072 542.125C411.072 538.202 411.787 534.847 413.217 532.06C414.647 529.237 416.591 527.092 419.047 525.625C421.504 524.122 424.291 523.37 427.407 523.37C429.791 523.37 431.807 523.847 433.457 524.8C435.144 525.717 436.519 526.743 437.582 527.88L434.062 531.84C433.256 530.96 432.321 530.263 431.257 529.75C430.231 529.2 428.947 528.925 427.407 528.925C425.501 528.925 423.814 529.457 422.347 530.52C420.881 531.547 419.726 533.032 418.882 534.975C418.076 536.918 417.672 539.247 417.672 541.96C417.672 544.673 418.039 547.02 418.772 549C419.542 550.98 420.661 552.502 422.127 553.565C423.594 554.592 425.391 555.105 427.517 555.105C428.471 555.105 429.387 554.977 430.267 554.72C431.147 554.427 431.844 554.023 432.357 553.51V545.755H426.142V540.53H438.132V556.37C436.959 557.543 435.401 558.552 433.457 559.395C431.551 560.238 429.442 560.66 427.132 560.66ZM442.676 560V524.03H465.721V529.42H449.056V538.605H463.191V543.995H449.056V554.61H466.271V560H442.676ZM478.899 560V529.365H467.569V524.03H496.609V529.365H485.279V560H478.899Z" fill="black"/>
<path d="M1436.98 560V524.03H1448.81C1451.45 524.03 1453.79 524.378 1455.85 525.075C1457.9 525.772 1459.51 526.927 1460.69 528.54C1461.9 530.153 1462.5 532.353 1462.5 535.14C1462.5 537.78 1461.9 539.962 1460.69 541.685C1459.51 543.408 1457.88 544.692 1455.79 545.535C1453.74 546.378 1451.41 546.8 1448.81 546.8H1443.36V560H1436.98ZM1443.36 541.685H1448.31C1450.99 541.685 1452.97 541.135 1454.25 540.035C1455.57 538.935 1456.23 537.303 1456.23 535.14C1456.23 532.867 1455.55 531.308 1454.2 530.465C1452.88 529.585 1450.92 529.145 1448.31 529.145H1443.36V541.685ZM1477.22 560.66C1474.43 560.66 1471.98 559.927 1469.85 558.46C1467.72 556.993 1466.06 554.867 1464.85 552.08C1463.67 549.293 1463.09 545.883 1463.09 541.85C1463.09 537.927 1463.67 534.59 1464.85 531.84C1466.06 529.053 1467.72 526.945 1469.85 525.515C1471.98 524.085 1474.43 523.37 1477.22 523.37C1480.01 523.37 1482.46 524.085 1484.59 525.515C1486.72 526.945 1488.37 529.053 1489.54 531.84C1490.75 534.59 1491.36 537.927 1491.36 541.85C1491.36 545.883 1490.75 549.293 1489.54 552.08C1488.37 554.867 1486.72 556.993 1484.59 558.46C1482.46 559.927 1480.01 560.66 1477.22 560.66ZM1477.22 555.105C1478.76 555.105 1480.1 554.592 1481.24 553.565C1482.37 552.538 1483.25 551.035 1483.88 549.055C1484.5 547.075 1484.81 544.673 1484.81 541.85C1484.81 539.1 1484.5 536.772 1483.88 534.865C1483.25 532.922 1482.37 531.455 1481.24 530.465C1480.1 529.438 1478.76 528.925 1477.22 528.925C1475.68 528.925 1474.34 529.438 1473.21 530.465C1472.07 531.455 1471.19 532.922 1470.57 534.865C1469.94 536.772 1469.63 539.1 1469.63 541.85C1469.63 544.673 1469.94 547.075 1470.57 549.055C1471.19 551.035 1472.07 552.538 1473.21 553.565C1474.34 554.592 1475.68 555.105 1477.22 555.105ZM1505.91 560.66C1503.38 560.66 1500.96 560.202 1498.65 559.285C1496.34 558.368 1494.29 557.067 1492.49 555.38L1496.23 551.035C1497.59 552.245 1499.13 553.235 1500.85 554.005C1502.57 554.738 1504.39 555.105 1506.3 555.105C1508.39 555.105 1509.98 554.702 1511.08 553.895C1512.18 553.052 1512.73 552.007 1512.73 550.76C1512.73 549.697 1512.47 548.853 1511.96 548.23C1511.45 547.57 1510.73 547.02 1509.82 546.58C1508.93 546.14 1507.89 545.682 1506.68 545.205L1501.78 543.06C1500.54 542.547 1499.31 541.887 1498.1 541.08C1496.93 540.273 1495.95 539.247 1495.18 538C1494.45 536.753 1494.08 535.25 1494.08 533.49C1494.08 531.583 1494.62 529.878 1495.68 528.375C1496.74 526.835 1498.21 525.625 1500.08 524.745C1501.99 523.828 1504.15 523.37 1506.57 523.37C1508.77 523.37 1510.86 523.792 1512.84 524.635C1514.86 525.442 1516.62 526.542 1518.12 527.935L1514.82 532.005C1513.61 531.015 1512.33 530.263 1510.97 529.75C1509.65 529.2 1508.07 528.925 1506.24 528.925C1504.55 528.925 1503.18 529.292 1502.11 530.025C1501.05 530.758 1500.52 531.803 1500.52 533.16C1500.52 534.077 1500.81 534.828 1501.4 535.415C1501.99 536.002 1502.74 536.515 1503.65 536.955C1504.61 537.395 1505.62 537.817 1506.68 538.22L1511.41 540.255C1512.95 540.842 1514.31 541.557 1515.48 542.4C1516.65 543.243 1517.57 544.288 1518.23 545.535C1518.89 546.745 1519.22 548.23 1519.22 549.99C1519.22 551.933 1518.69 553.712 1517.63 555.325C1516.56 556.938 1515.04 558.24 1513.06 559.23C1511.08 560.183 1508.7 560.66 1505.91 560.66ZM1531.19 560V529.365H1519.86V524.03H1548.9V529.365H1537.57V560H1531.19Z" fill="black"/>
</g>
<defs>
<linearGradient id="paint0_linear_310_2" x1="994" y1="850" x2="983.5" y2="-3.49998" gradientUnits="userSpaceOnUse">
<stop stop-color="#999999"/>
<stop offset="1" stop-color="#999999" stop-opacity="0"/>
</linearGradient>
<clipPath id="clip0_310_2">
<rect width="1920" height="1080" fill="white"/>
</clipPath>
</defs>
</svg>
