<svg width="1920" height="1080" viewBox="0 0 1920 1080" fill="none" xmlns="http://www.w3.org/2000/svg">
<g clip-path="url(#clip0_405_2)">
<rect width="1920" height="1080" fill="url(#paint0_radial_405_2)"/>
<g filter="url(#filter0_f_405_2)">
<path d="M924 737L950.594 895.69L951.156 895.721C953.121 900.9 977.736 905.003 1007.84 905.003C1037.95 905.003 1062.6 900.9 1064.56 895.721L1065.44 895.69L1092 737L1008 743.156L924 737Z" fill="#D7D7D7"/>
<path d="M1008 720C971.509 720 940.127 723.61 926 728.812V727H918V735C918 743.284 958.294 750 1008 750C1057.71 750 1098 743.284 1098 735V727H1090V728.812C1075.87 723.613 1044.48 720 1008 720Z" fill="#D7D7D7"/>
</g>
<g filter="url(#filter1_f_405_2)">
<rect x="622.573" y="203.199" width="84.1466" height="659.408" transform="rotate(103.702 622.573 203.199)" fill="#D7D7D7"/>
</g>
<path d="M876 759L902.594 917.69L903.156 917.721C905.121 922.9 929.736 927.003 959.844 927.003C989.952 927.003 1014.6 922.9 1016.56 917.721L1017.44 917.69L1044 759L960.001 765.156L876 759Z" fill="url(#paint1_linear_405_2)"/>
<path d="M960 742C923.509 742 892.127 745.61 878 750.812V749H870V757C870 765.284 910.294 772 960 772C1009.71 772 1050 765.284 1050 757V749H1042V750.812C1027.87 745.613 996.479 742 960 742Z" fill="url(#paint2_linear_405_2)"/>
<path d="M960 734C910.294 734 870 740.716 870 749C870 757.284 910.294 764 960 764C1009.71 764 1050 757.284 1050 749C1050 740.716 1009.71 734 960 734ZM960 737C1003.08 737 1038 742.373 1038 749C1038 755.627 1003.08 761 960 761C916.922 761 882 755.627 882 749C882 742.373 916.922 737 960 737Z" fill="url(#paint3_linear_405_2)"/>
<path d="M906.42 779.816C906.42 781.938 905.577 783.972 904.077 785.473C902.576 786.973 900.542 787.816 898.42 787.816C896.298 787.816 894.263 786.973 892.763 785.473C891.263 783.972 890.42 781.938 890.42 779.816C890.42 777.694 891.263 775.659 892.763 774.159C894.263 772.659 896.298 771.816 898.42 771.816C900.542 771.816 902.576 772.659 904.077 774.159C905.577 775.659 906.42 777.694 906.42 779.816Z" fill="#EEEEEC"/>
<path d="M898.666 787.32C898.666 787.32 917.681 832.303 963.166 855.32C1008.65 878.337 1031.17 854.32 1031.17 854.32C1031.17 854.32 1000.67 860.32 970.666 843.32C940.666 826.32 905.666 780.32 905.666 780.32" fill="#EEEEEC"/>
<path d="M1036.64 790.146C1036.64 790.146 1042.17 801.32 1037.67 823.32C1033.2 845.167 1018.29 856.07 1018.29 856.07L1030.48 855.007C1030.48 855.007 1049.17 836.819 1048.67 813.319C1048.17 789.819 1040.17 770.2 1040.17 770.2" fill="url(#paint4_linear_405_2)"/>
<path d="M902.658 779.258C902.658 779.258 900.719 772.87 896.385 774.899C892.05 776.927 895.597 782.487 895.597 782.487" fill="#D6A910"/>
<g filter="url(#filter2_f_405_2)">
<path d="M882.005 749.012C882.005 752.195 890.223 755.247 904.851 757.498C919.478 759.748 939.318 761.013 960.005 761.013C980.692 761.013 1000.53 759.748 1015.16 757.498C1029.79 755.247 1038 752.195 1038 749.012C1038 745.829 1029.79 742.777 1015.16 740.527C1000.53 738.276 980.692 737.012 960.005 737.012C939.318 737.012 919.478 738.276 904.851 740.527C890.223 742.777 882.005 745.829 882.005 749.012Z" fill="url(#paint5_linear_405_2)"/>
</g>
<path fill-rule="evenodd" clip-rule="evenodd" d="M600.055 248.234C598.642 248.532 596.938 248.732 594.907 248.854C570.716 251.326 550.284 262.589 533.647 282.654C518.332 301.423 510.598 322.887 510.407 347.037C510.47 371.574 517.962 391.805 532.909 407.749C539.415 414.452 546.315 419.611 553.628 423.23L-30.0901 254.509C-38.689 253.201 -46.7595 250.553 -54.3034 246.534L-59.8702 245.044L-60.8887 243.279C-71.1913 237.2 -78.831 231.684 -83.791 226.707C-98.1185 210.939 -104.302 192.539 -102.31 171.536C-100.712 150.745 -91.9705 132.385 -76.0927 116.412C-64.2353 104.344 -52.5852 97.3513 -41.1357 95.4454C-34.9141 94.4564 -30.0264 94.7708 -26.4726 96.3885C12.3131 103.791 130.41 131.265 327.805 178.819L612.523 248.092C608.247 247.942 604.099 247.985 600.055 248.234Z" fill="url(#paint6_linear_405_2)"/>
<path fill-rule="evenodd" clip-rule="evenodd" d="M612.275 249.02C608.63 249.039 604.779 249.161 600.734 249.41C576.92 251.665 556.7 262.806 540.04 282.884C524.348 301.87 516.402 323.457 516.234 347.593C515.831 371.349 523.215 391.392 538.397 407.717C553.337 423.649 571.662 431.369 593.33 430.887C595.974 430.929 598.502 430.77 600.91 430.431C596.702 431.293 592.469 431.651 588.194 431.5C575.617 431.454 564.083 428.704 553.616 423.236C546.303 419.618 539.403 414.459 532.909 407.749C517.963 391.805 510.459 371.581 510.407 347.037C510.587 322.894 518.333 301.423 533.648 282.654C550.296 262.583 570.728 251.319 594.907 248.854C596.939 248.732 598.643 248.532 600.055 248.234C604.331 248.385 608.399 248.639 612.275 249.02Z" fill="url(#paint7_linear_405_2)"/>
<path fill-rule="evenodd" clip-rule="evenodd" d="M600.922 430.424C598.514 430.764 595.985 430.922 593.342 430.88C571.673 431.362 553.348 423.642 538.409 407.71C523.226 391.385 515.831 371.349 516.246 347.586C516.414 323.45 524.36 301.863 540.051 282.877C556.712 262.799 576.932 251.658 600.746 249.403C604.79 249.154 608.642 249.032 612.286 249.013C631.437 250.502 647.846 258.544 661.506 273.129C677.744 290.413 685.03 312.081 683.353 338.14C681.675 364.199 671.533 386.52 652.962 405.083C638.03 419.977 620.691 428.419 600.922 430.424ZM610.2 295.694C598.296 296.812 588.198 302.391 579.859 312.428C572.319 322.003 568.486 332.59 568.369 344.152C568.082 356.345 571.519 366.373 578.692 374.259C585.853 382.153 595.106 385.953 606.458 385.671C617.41 385.621 627.186 381.278 635.805 372.648C644.969 363.171 650.089 352.123 651.152 339.481C652.003 326.445 648.408 315.708 640.399 307.27C632.57 298.194 622.505 294.345 610.2 295.694Z" fill="url(#paint8_linear_405_2)"/>
<path fill-rule="evenodd" clip-rule="evenodd" d="M610.2 295.694C622.504 294.346 632.57 298.194 640.41 307.263C648.42 315.702 652.014 326.438 651.164 339.475C650.101 352.116 644.969 363.171 635.816 372.642C627.186 381.278 617.41 385.621 606.458 385.671C595.118 385.946 585.853 382.153 578.692 374.26C571.519 366.373 568.082 356.345 568.368 344.152C568.486 332.59 572.307 322.01 579.847 312.435C588.186 302.398 598.295 296.812 610.2 295.694ZM644.42 338.663C645.55 327.034 642.634 317.474 635.704 309.981C628.531 302.094 619.617 298.882 608.956 300.333C598.471 301.165 589.531 306.059 582.144 315.029C575.333 323.148 571.826 332.48 571.661 343.035C571.484 353.597 574.63 362.225 581.112 368.942C587.83 376.04 595.847 379.519 605.167 379.36C615.107 379.377 623.906 375.598 631.572 368.035C639.403 359.861 643.679 350.069 644.42 338.663Z" fill="url(#paint9_linear_405_2)"/>
<path fill-rule="evenodd" clip-rule="evenodd" d="M644.421 338.663C643.679 350.068 639.391 359.867 631.573 368.035C623.906 375.598 615.107 379.376 605.167 379.36C595.835 379.526 587.83 376.04 581.112 368.942C574.63 362.225 571.472 353.604 571.661 343.035C571.826 332.48 575.333 323.148 582.144 315.029C589.52 306.066 598.459 301.171 608.956 300.333C619.617 298.882 628.531 302.094 635.704 309.98C642.634 317.474 645.55 327.034 644.421 338.663Z" fill="url(#paint10_linear_405_2)"/>
<g opacity="0.623" filter="url(#filter3_f_405_2)">
<path d="M692 224.116C632.888 225.549 570.297 261.089 537.229 316.126C537.186 316.192 537.158 316.265 537.116 316.332L536.975 316.561C535.657 318.657 534.353 320.775 533.122 322.93C492.323 394.367 516.422 470.23 586.925 492.361C648.442 511.671 724.968 483.701 770.581 428.803L917.675 461.089C922.212 466.365 928.272 470.71 935.703 473.652C940.646 475.61 945.856 476.8 951.171 477.302C953.53 478.186 955.942 478.915 958.399 479.466C959.998 480.31 961.68 481.098 963.434 481.792C969.193 484.073 975.319 485.314 981.546 485.631L981.574 485.63L981.659 485.674C994.841 490.894 1009.93 490.733 1023.82 486.28L1022.64 486.013C1020.96 486.003 1019.34 485.947 1017.8 485.829C1017.38 485.796 1016.97 485.761 1016.56 485.721C1018.79 485.329 1021.01 484.82 1023.2 484.215L1048.93 489.87L1050.27 512.894C1051.12 527.836 1050.05 537.22 1048.02 543.902C1049.92 549.435 1051.81 553.989 1053.73 557.579L1055.02 579.559C1055.56 574.592 1056.49 569.778 1057.72 565.307L1058.79 577.982C1058.82 574.554 1058.84 571.128 1058.85 567.699C1058.94 567.853 1059.05 567.992 1059.16 568.099C1059.51 568.448 1059.92 568.515 1060.31 568.299C1060.75 568.049 1061.13 567.42 1061.38 566.648C1061.77 566.846 1062.16 567.006 1062.56 567.118L1063.71 580.108C1064.62 578.296 1065.35 576.206 1065.96 573.956L1066.05 575.242L1065.96 579.311C1065.34 579.262 1064.73 579.568 1064.19 580.187C1063.65 580.807 1063.21 581.747 1062.92 582.837C1062.64 583.928 1062.52 585.159 1062.59 586.37C1062.65 587.581 1062.88 588.756 1063.26 589.699C1063.65 590.642 1064.19 591.349 1064.78 591.721C1065.37 592.093 1066.01 592.134 1066.61 591.815C1067.21 591.497 1067.74 590.834 1068.16 589.927C1068.57 589.021 1068.87 587.881 1068.97 586.678C1069.08 585.453 1069 584.187 1068.97 582.949C1068.84 577.479 1069.67 572.156 1070.38 566.806L1071.61 591.815V582.889C1071.61 581.171 1071.58 579.456 1071.56 577.739L1071.98 583.627C1072.87 580.888 1073.51 577.847 1073.86 574.681C1074 573.446 1074.11 572.199 1074.26 570.966C1074.48 569.08 1074.83 567.26 1075.21 565.477L1075.75 568.696C1075.72 566.843 1075.71 564.992 1075.72 563.138C1076.34 560.526 1077 557.935 1077.52 555.256L1079.52 582.711C1080.63 578.306 1081.28 573.462 1081.4 568.568V570.059C1081.46 569.376 1081.52 568.687 1081.57 567.999C1082.04 571.092 1082.75 574.026 1083.68 576.674L1082.13 556.937C1082.62 554.589 1083.3 552.387 1083.68 549.965C1083.76 549.478 1083.82 548.986 1083.88 548.492L1085.93 579.606C1086.87 572.309 1087.39 564.799 1087.45 557.291C1087.52 548.017 1086.9 538.816 1086.16 529.662C1086.59 527.883 1087.04 526.129 1087.53 524.411C1088.9 519.638 1088.16 516.211 1089 511C1089 520.5 1092.4 540.795 1092 535C1091.6 529.205 1095.71 520.318 1094.5 515C1093.35 509.975 1094.72 511.456 1093.5 506.5C1091.98 500.352 1092.78 498.279 1091.4 492.005V489.294C1092.47 485.423 1092.96 482.194 1093.09 479.381C1098.36 473.561 1102.51 466.256 1104.73 458.103L1106.39 447.875C1107.19 431.869 1099.3 419.137 1086.79 415.35L1086.85 415.123L1061 409.38C1060.62 408.895 1060.25 408.407 1059.85 407.937C1055.15 401.844 1048.61 396.866 1040.47 393.642C1034.7 391.36 1028.56 390.102 1022.33 389.782L1022.24 389.761C1019.59 388.709 1016.85 387.883 1014.06 387.257C1012.46 386.413 1010.8 385.621 1009.05 384.93C1004.13 382.98 998.935 381.788 993.64 381.279C986.268 378.509 978.326 377.391 970.353 377.738C961.847 378.109 953.315 380.162 945.378 383.658L808.128 353.138C808.817 349.556 809.352 346 809.731 342.481C809.777 342.055 809.83 341.638 809.872 341.213C809.92 340.717 809.97 340.213 810.012 339.718C810.045 339.34 810.068 338.964 810.097 338.586C810.138 338.039 810.175 337.503 810.209 336.957C810.229 336.641 810.248 336.322 810.265 336.007C810.299 335.402 810.326 334.8 810.35 334.197C810.36 333.938 810.369 333.686 810.378 333.428C810.4 332.781 810.423 332.127 810.434 331.484C810.438 331.272 810.432 331.062 810.434 330.851C810.443 330.151 810.438 329.468 810.434 328.772C810.433 328.622 810.436 328.47 810.434 328.32C810.431 327.904 810.442 327.492 810.434 327.077C810.495 324.152 810.457 321.266 810.294 318.403C810.046 317.063 809.753 315.742 809.45 314.423C804.194 274.976 778.07 243.13 736.803 230.176C722.482 225.681 707.369 223.744 692 224.116ZM1006.75 480.61L1017.46 482.966C1013.42 482.536 1009.86 481.729 1006.75 480.61Z" fill="black" fill-opacity="0.25"/>
</g>
<g opacity="0.5287" filter="url(#filter4_f_405_2)">
<path d="M724.112 390.237C689.642 464.389 613.41 504.276 553.849 479.329C494.288 454.381 473.944 374.044 508.415 299.891C542.886 225.739 619.117 185.852 678.678 210.8C727.621 231.3 751.358 290.256 736.493 354.402" fill="black" fill-opacity="0.9922"/>
</g>
<path d="M725.925 386.61C691.455 460.762 615.223 500.649 555.662 475.702C496.101 450.754 475.757 370.417 510.228 296.264C544.699 222.112 620.93 182.225 680.491 207.173C729.434 227.673 753.171 286.629 738.306 350.775" fill="url(#paint11_linear_405_2)"/>
<path d="M658.099 224.956C614.484 225.047 568.275 257.909 544.756 309.93C515.243 375.211 532.653 445.933 583.654 467.901C605.358 477.247 629.643 476.25 652.66 466.998C682.486 450.665 709.165 422.701 725.942 386.609L738.322 350.776C741.818 335.691 743.175 320.894 742.576 306.816C737.81 272.097 719.241 243.851 690.536 231.49C680.177 227.028 669.219 224.932 658.101 224.955L658.099 224.956Z" fill="#666666"/>
<path d="M658.099 224.956C614.484 225.047 568.275 257.909 544.756 309.93C515.243 375.211 532.653 445.933 583.654 467.901C605.358 477.247 629.643 476.25 652.66 466.998C682.486 450.665 709.165 422.701 725.942 386.609L738.322 350.776C741.818 335.691 743.175 320.894 742.576 306.816C737.81 272.097 719.241 243.851 690.536 231.49C680.177 227.028 669.219 224.932 658.101 224.955L658.099 224.956Z" fill="url(#paint12_linear_405_2)"/>
<g opacity="0.7" filter="url(#filter5_f_405_2)">
<path d="M649.013 217.352C600.711 217.446 549.524 251.31 523.48 304.919C490.796 372.19 510.081 445.058 566.561 467.688C580.206 473.156 594.768 475.207 609.476 474.198C600.632 473.534 591.95 471.477 583.646 467.901C532.645 445.938 515.234 375.21 544.748 309.93C568.266 257.91 614.478 225.048 658.091 224.957C669.209 224.934 680.167 227.03 690.526 231.491C719.23 243.853 737.799 272.099 742.566 306.817C742.623 308.153 742.663 309.485 742.685 310.833C742.736 307.758 742.704 304.723 742.566 301.708C737.288 265.931 716.707 236.816 684.919 224.08C673.447 219.483 661.327 217.332 649.014 217.355L649.013 217.352Z" fill="url(#paint13_linear_405_2)"/>
</g>
<path d="M658.099 224.956C614.484 225.047 568.275 257.909 544.756 309.93C515.243 375.211 532.653 445.933 583.654 467.901C605.358 477.247 629.643 476.25 652.66 466.998C682.486 450.665 709.165 422.701 725.942 386.609L738.322 350.776C741.818 335.691 743.175 320.894 742.576 306.816C737.81 272.097 719.241 243.851 690.536 231.49C680.177 227.028 669.219 224.932 658.101 224.955L658.099 224.956Z" fill="url(#paint14_linear_405_2)"/>
<path d="M714.437 330.194C666.519 301.628 625.836 407.898 686.194 410.035L956.672 491.503L976.225 410.035L714.437 330.194Z" fill="url(#paint15_linear_405_2)"/>
<g filter="url(#filter6_f_405_2)">
<g opacity="0.7787" filter="url(#filter7_f_405_2)">
<path d="M643.096 296.388C625.487 296.832 607.674 307.635 597.971 325.614C584.469 350.627 591.779 380.079 614.291 391.4C625.249 396.911 637.795 397.092 649.339 392.957L648.357 392.664C588.964 390.634 629.009 289.703 676.157 316.835L680.88 318.234C676.928 310.82 670.915 304.701 663.181 300.812C656.85 297.628 649.987 296.214 643.096 296.388Z" fill="black" fill-opacity="0.9922"/>
</g>
<path d="M641.675 294.03C623.779 294.497 605.676 305.872 595.815 324.802C582.093 351.139 589.522 382.149 612.4 394.069C623.538 399.871 636.287 400.061 648.02 395.708L647.022 395.399C586.661 393.262 627.358 286.991 675.275 315.558L680.075 317.032C676.058 309.226 669.947 302.782 662.087 298.687C655.653 295.335 648.678 293.846 641.675 294.03Z" fill="black" fill-opacity="0.9922"/>
<path d="M641.675 294.03C623.779 294.497 605.676 305.872 595.815 324.802C582.093 351.139 589.522 382.149 612.4 394.069C623.538 399.871 636.287 400.061 648.02 395.708L647.022 395.399C586.661 393.262 627.358 286.991 675.275 315.558L680.075 317.032C676.058 309.226 669.947 302.782 662.087 298.687C655.653 295.335 648.678 293.846 641.675 294.03Z" fill="black" fill-opacity="0.9922"/>
<g filter="url(#filter8_f_405_2)">
<path d="M641.767 297.831C625.393 298.259 608.414 308.777 599.138 326.583C586.231 351.357 593.324 379.948 614.132 390.789C619.136 393.396 624.503 394.74 629.957 394.971C623.159 391.435 618.356 385.981 615.747 379.455C611.336 368.421 612.475 355.014 617.03 342.719C621.585 330.424 629.625 319.103 640.175 312.54C648.695 307.24 659.077 305.417 669.64 308.976C666.938 306.233 663.84 303.881 660.349 302.061C654.496 299.012 648.174 297.664 641.767 297.831Z" fill="black"/>
</g>
</g>
<g opacity="0.7787" filter="url(#filter9_f_405_2)">
<path d="M643.096 296.388C625.487 296.832 607.674 307.635 597.971 325.614C584.469 350.627 591.779 380.079 614.291 391.4C625.249 396.911 637.795 397.092 649.339 392.957L648.357 392.664C588.964 390.634 629.009 289.703 676.157 316.835L680.88 318.234C676.928 310.82 670.915 304.701 663.181 300.812C656.85 297.628 649.987 296.214 643.096 296.388Z" fill="black" fill-opacity="0.9922"/>
</g>
<path d="M641.675 294.03C623.779 294.497 605.676 305.872 595.815 324.802C582.093 351.139 589.522 382.149 612.4 394.069C623.538 399.871 636.287 400.061 648.02 395.708L647.022 395.399C586.661 393.262 627.358 286.991 675.275 315.558L680.075 317.032C676.058 309.226 669.947 302.782 662.087 298.687C655.653 295.335 648.678 293.846 641.675 294.03Z" fill="#C6C8C6" fill-opacity="0.9922"/>
<path d="M641.675 294.03C623.779 294.497 605.676 305.872 595.815 324.802C582.093 351.139 589.522 382.149 612.4 394.069C623.538 399.871 636.287 400.061 648.02 395.708L647.022 395.399C586.661 393.262 627.358 286.991 675.275 315.558L680.075 317.032C676.058 309.226 669.947 302.782 662.087 298.687C655.653 295.335 648.678 293.846 641.675 294.03Z" fill="url(#paint16_linear_405_2)" fill-opacity="0.9922"/>
<g filter="url(#filter10_f_405_2)">
<path d="M641.767 297.831C625.393 298.259 608.414 308.777 599.138 326.583C586.231 351.357 593.324 379.948 614.132 390.789C619.136 393.396 624.503 394.74 629.957 394.971C623.159 391.435 618.356 385.981 615.747 379.455C611.336 368.421 612.475 355.014 617.03 342.719C621.585 330.424 629.625 319.103 640.175 312.54C648.695 307.24 659.077 305.417 669.64 308.976C666.938 306.233 663.84 303.881 660.349 302.061C654.496 299.012 648.174 297.664 641.767 297.831Z" fill="url(#paint17_radial_405_2)"/>
</g>
<g opacity="0.7787" filter="url(#filter11_f_405_2)">
<path d="M655.384 300.228C637.775 300.672 619.962 311.475 610.259 329.454C596.758 354.467 604.067 383.919 626.579 395.24C637.538 400.751 650.083 400.932 661.627 396.797L660.645 396.504C601.252 394.474 641.297 293.543 688.445 320.675L693.168 322.074C689.216 314.66 683.203 308.54 675.469 304.651C669.138 301.468 662.275 300.054 655.384 300.228Z" fill="black" fill-opacity="0.9922"/>
</g>
<path d="M653.963 297.87C636.067 298.337 617.964 309.712 608.103 328.642C594.381 354.979 601.81 385.989 624.688 397.909C635.826 403.711 648.575 403.901 660.308 399.548L659.31 399.239C598.949 397.102 639.646 290.831 687.563 319.399L692.363 320.872C688.346 313.066 682.235 306.622 674.375 302.527C667.941 299.175 660.966 297.687 653.963 297.87Z" fill="#C6C8C6" fill-opacity="0.9922"/>
<path d="M653.963 297.87C636.067 298.337 617.964 309.712 608.103 328.642C594.381 354.979 601.81 385.989 624.688 397.909C635.826 403.711 648.575 403.901 660.308 399.548L659.31 399.239C598.949 397.102 639.646 290.831 687.563 319.399L692.363 320.872C688.346 313.066 682.235 306.622 674.375 302.527C667.941 299.175 660.966 297.687 653.963 297.87Z" fill="url(#paint18_linear_405_2)" fill-opacity="0.9922"/>
<g filter="url(#filter12_f_405_2)">
<path d="M654.055 301.672C637.681 302.1 620.702 312.618 611.426 330.424C598.519 355.197 605.612 383.789 626.42 394.629C631.424 397.237 636.791 398.581 642.245 398.812C635.447 395.276 630.644 389.821 628.035 383.295C623.624 372.262 624.763 358.854 629.318 346.559C633.873 334.264 641.913 322.944 652.463 316.381C660.983 311.08 671.365 309.257 681.928 312.817C679.226 310.074 676.129 307.721 672.637 305.902C666.784 302.853 660.462 301.504 654.055 301.672Z" fill="url(#paint19_radial_405_2)"/>
</g>
<g opacity="0.7787" filter="url(#filter13_f_405_2)">
<path d="M666.524 305.604C648.914 306.048 631.102 316.851 621.399 334.83C607.897 359.843 615.207 389.295 637.718 400.616C648.677 406.127 661.222 406.308 672.767 402.173L671.785 401.88C612.392 399.85 652.436 298.919 699.585 326.051L704.308 327.45C700.356 320.036 694.343 313.916 686.609 310.027C680.277 306.844 673.415 305.43 666.524 305.604Z" fill="black" fill-opacity="0.9922"/>
</g>
<path d="M665.103 303.246C647.206 303.713 629.104 315.088 619.242 334.018C605.521 360.355 612.95 391.365 635.828 403.285C646.965 409.087 659.715 409.277 671.448 404.924L670.45 404.615C610.089 402.478 650.786 296.207 698.703 324.775L703.503 326.248C699.486 318.442 693.375 311.998 685.515 307.903C679.08 304.551 672.106 303.063 665.103 303.246Z" fill="#C6C8C6" fill-opacity="0.9922"/>
<path d="M665.103 303.246C647.206 303.713 629.104 315.088 619.242 334.018C605.521 360.355 612.95 391.365 635.828 403.285C646.965 409.087 659.715 409.277 671.448 404.924L670.45 404.615C610.089 402.478 650.786 296.207 698.703 324.775L703.503 326.248C699.486 318.442 693.375 311.998 685.515 307.903C679.08 304.551 672.106 303.063 665.103 303.246Z" fill="url(#paint20_linear_405_2)" fill-opacity="0.9922"/>
<g filter="url(#filter14_f_405_2)">
<path d="M665.194 307.048C648.821 307.476 631.842 317.994 622.565 335.8C609.658 360.573 616.752 389.165 637.559 400.005C642.564 402.613 647.93 403.957 653.385 404.188C646.586 400.652 641.783 395.197 639.175 388.671C634.764 377.638 635.903 364.23 640.458 351.935C645.013 339.64 653.053 328.32 663.602 321.757C672.123 316.456 682.505 314.633 693.068 318.192C690.366 315.45 687.268 313.097 683.776 311.278C677.924 308.229 671.601 306.88 665.194 307.048Z" fill="url(#paint21_radial_405_2)"/>
</g>
<g opacity="0.7787" filter="url(#filter15_f_405_2)">
<path d="M681.922 310.128C664.312 310.572 646.5 321.375 636.796 339.354C623.295 364.368 630.605 393.819 653.116 405.14C664.075 410.651 676.62 410.832 688.165 406.698L687.183 406.404C627.79 404.374 667.834 303.443 714.983 330.575L719.706 331.974C715.754 324.561 709.741 318.441 702.007 314.552C695.675 311.368 688.813 309.954 681.922 310.128Z" fill="black" fill-opacity="0.9922"/>
</g>
<path d="M680.501 307.77C662.604 308.238 644.502 319.612 634.64 338.542C620.919 364.879 628.348 395.889 651.226 407.809C662.363 413.611 675.113 413.802 686.846 409.449L685.848 409.14C625.487 407.002 666.184 300.731 714.101 329.299L718.901 330.772C714.884 322.966 708.773 316.522 700.913 312.428C694.478 309.075 687.504 307.587 680.501 307.77Z" fill="#C6C8C6" fill-opacity="0.9922"/>
<path d="M680.501 307.77C662.604 308.238 644.502 319.612 634.64 338.542C620.919 364.879 628.348 395.889 651.226 407.809C662.363 413.611 675.113 413.802 686.846 409.449L685.848 409.14C625.487 407.002 666.184 300.731 714.101 329.299L718.901 330.772C714.884 322.966 708.773 316.522 700.913 312.428C694.478 309.075 687.504 307.587 680.501 307.77Z" fill="url(#paint22_linear_405_2)" fill-opacity="0.9922"/>
<g filter="url(#filter16_f_405_2)">
<path d="M680.592 311.572C664.219 312 647.24 322.517 637.963 340.324C625.056 365.097 632.15 393.688 652.957 404.529C657.962 407.137 663.328 408.48 668.783 408.711C661.984 405.175 657.181 399.721 654.572 393.195C650.162 382.162 651.301 368.754 655.856 356.459C660.411 344.164 668.451 332.844 679 326.281C687.521 320.98 697.903 319.157 708.466 322.716C705.764 319.974 702.666 317.621 699.174 315.802C693.322 312.753 686.999 311.404 680.592 311.572Z" fill="url(#paint23_radial_405_2)"/>
</g>
<path d="M991.34 455.633C986.324 478.353 969.781 494.404 954.392 491.482C939.003 488.56 930.594 467.773 935.61 445.052C940.627 422.332 957.169 406.282 972.558 409.204C985.203 411.605 993.488 426.275 992.736 444.937" fill="url(#paint24_linear_405_2)"/>
<path d="M971.418 414.328C966.086 413.315 960.042 415.505 954.246 421.128C948.451 426.751 943.412 435.62 941.095 446.116C938.777 456.613 939.652 466.599 942.598 473.886C945.544 481.174 950.171 485.406 955.501 486.418C960.832 487.43 966.898 485.229 972.701 479.601C978.487 473.989 983.508 465.154 985.834 454.698L987.127 444.774C987.128 444.75 987.117 444.73 987.118 444.706C987.45 436.168 985.682 428.7 982.695 423.417C979.7 418.12 975.78 415.156 971.419 414.328L971.418 414.328Z" fill="url(#paint25_linear_405_2)"/>
<g opacity="0.7787" filter="url(#filter17_f_405_2)">
<path d="M879.23 370.26C861.62 370.704 843.807 381.507 834.104 399.485C820.603 424.499 827.913 453.951 850.424 465.272C861.383 470.783 873.928 470.963 885.473 466.829L884.491 466.536C825.098 464.505 865.142 363.574 912.291 390.707L917.014 392.106C913.062 384.692 907.048 378.572 899.314 374.683C892.983 371.499 886.12 370.086 879.23 370.26Z" fill="black" fill-opacity="0.9922"/>
</g>
<path d="M877.808 367.901C859.912 368.369 841.809 379.744 831.948 398.674C818.227 425.01 825.656 456.021 848.533 467.941C859.671 473.743 872.42 473.933 884.153 469.58L883.155 469.271C822.795 467.134 863.491 360.862 911.408 389.43L916.208 390.904C912.192 383.097 906.081 376.654 898.22 372.559C891.786 369.207 884.812 367.718 877.808 367.901Z" fill="#C6C8C6" fill-opacity="0.9922"/>
<path d="M877.808 367.901C859.912 368.369 841.809 379.744 831.948 398.674C818.227 425.01 825.656 456.021 848.533 467.941C859.671 473.743 872.42 473.933 884.153 469.58L883.155 469.271C822.795 467.134 863.491 360.862 911.408 389.43L916.208 390.904C912.192 383.097 906.081 376.654 898.22 372.559C891.786 369.207 884.812 367.718 877.808 367.901Z" fill="url(#paint26_linear_405_2)" fill-opacity="0.9922"/>
<g filter="url(#filter18_f_405_2)">
<path d="M877.9 371.704C861.526 372.131 844.548 382.649 835.271 400.455C822.364 425.229 829.458 453.82 850.265 464.661C855.27 467.269 860.636 468.612 866.09 468.843C859.292 465.307 854.489 459.853 851.88 453.327C847.47 442.294 848.608 428.886 853.163 416.591C857.718 404.296 865.758 392.975 876.308 386.412C884.828 381.112 895.211 379.289 905.773 382.848C903.071 380.106 899.974 377.753 896.482 375.933C890.629 372.884 884.307 371.536 877.9 371.704Z" fill="url(#paint27_radial_405_2)"/>
</g>
<g opacity="0.7787" filter="url(#filter19_f_405_2)">
<path d="M891.52 374.1C873.91 374.544 856.098 385.347 846.394 403.326C832.893 428.339 840.203 457.791 862.714 469.112C873.673 474.623 886.218 474.803 897.763 470.669L896.781 470.376C837.388 468.345 877.432 367.414 924.581 394.547L929.304 395.946C925.352 388.532 919.338 382.412 911.604 378.523C905.273 375.339 898.411 373.926 891.52 374.1Z" fill="black" fill-opacity="0.9922"/>
</g>
<path d="M890.099 371.741C872.202 372.209 854.099 383.584 844.238 402.514C830.517 428.851 837.946 459.861 860.823 471.781C871.961 477.583 884.71 477.773 896.443 473.42L895.445 473.111C835.085 470.974 875.782 364.702 923.698 393.27L928.498 394.744C924.482 386.937 918.371 380.494 910.51 376.399C904.076 373.047 897.102 371.558 890.099 371.741Z" fill="#C6C8C6" fill-opacity="0.9922"/>
<path d="M890.099 371.741C872.202 372.209 854.099 383.584 844.238 402.514C830.517 428.851 837.946 459.861 860.823 471.781C871.961 477.583 884.71 477.773 896.443 473.42L895.445 473.111C835.085 470.974 875.782 364.702 923.698 393.27L928.498 394.744C924.482 386.937 918.371 380.494 910.51 376.399C904.076 373.047 897.102 371.558 890.099 371.741Z" fill="url(#paint28_linear_405_2)" fill-opacity="0.9922"/>
<g filter="url(#filter20_f_405_2)">
<path d="M890.19 375.543C873.816 375.971 856.838 386.489 847.561 404.295C834.654 429.069 841.748 457.66 862.555 468.501C867.56 471.108 872.926 472.452 878.38 472.683C871.582 469.147 866.779 463.693 864.17 457.167C859.76 446.133 860.898 432.725 865.453 420.431C870.008 408.136 878.048 396.815 888.598 390.252C897.118 384.952 907.501 383.129 918.063 386.688C915.361 383.945 912.264 381.592 908.772 379.773C902.92 376.724 896.597 375.376 890.19 375.543Z" fill="url(#paint29_radial_405_2)"/>
</g>
<g opacity="0.7787" filter="url(#filter21_f_405_2)">
<path d="M902.657 379.476C885.047 379.92 867.235 390.723 857.531 408.702C844.03 433.715 851.34 463.167 873.851 474.488C884.81 479.999 897.355 480.18 908.9 476.045L907.918 475.752C848.525 473.722 888.569 372.791 935.718 399.923L940.441 401.322C936.489 393.908 930.476 387.788 922.742 383.9C916.41 380.716 909.548 379.302 902.657 379.476Z" fill="black" fill-opacity="0.9922"/>
</g>
<path d="M901.236 377.117C883.339 377.585 865.237 388.96 855.375 407.89C841.654 434.227 849.083 465.237 871.961 477.157C883.098 482.959 895.848 483.149 907.58 478.796L906.582 478.487C846.222 476.35 886.919 370.078 934.835 398.646L939.635 400.12C935.619 392.313 929.508 385.87 921.648 381.775C915.213 378.423 908.239 376.934 901.236 377.117Z" fill="#C6C8C6" fill-opacity="0.9922"/>
<path d="M901.236 377.117C883.339 377.585 865.237 388.96 855.375 407.89C841.654 434.227 849.083 465.237 871.961 477.157C883.098 482.959 895.848 483.149 907.58 478.796L906.582 478.487C846.222 476.35 886.919 370.078 934.835 398.646L939.635 400.12C935.619 392.313 929.508 385.87 921.648 381.775C915.213 378.423 908.239 376.934 901.236 377.117Z" fill="url(#paint30_linear_405_2)" fill-opacity="0.9922"/>
<g filter="url(#filter22_f_405_2)">
<path d="M901.327 380.919C884.954 381.347 867.975 391.865 858.698 409.671C845.791 434.445 852.885 463.036 873.692 473.877C878.697 476.484 884.063 477.828 889.518 478.059C882.719 474.523 877.916 469.069 875.307 462.543C870.897 451.509 872.035 438.101 876.591 425.807C881.146 413.512 889.186 402.191 899.735 395.628C908.255 390.328 918.638 388.505 929.2 392.064C926.499 389.321 923.401 386.968 919.909 385.149C914.057 382.1 907.734 380.752 901.327 380.919Z" fill="url(#paint31_radial_405_2)"/>
</g>
<g opacity="0.7787" filter="url(#filter23_f_405_2)">
<path d="M918.05 384.008C900.441 384.452 882.628 395.255 872.925 413.233C859.424 438.247 866.734 467.699 889.245 479.02C900.204 484.531 912.749 484.711 924.293 480.577L923.311 480.284C863.918 478.253 903.963 377.322 951.111 404.455L955.835 405.854C951.882 398.44 945.869 392.32 938.135 388.431C931.804 385.247 924.941 383.834 918.05 384.008Z" fill="black" fill-opacity="0.9922"/>
</g>
<path d="M916.629 381.649C898.733 382.117 880.63 393.492 870.769 412.422C857.047 438.758 864.476 469.769 887.354 481.689C898.492 487.491 911.241 487.681 922.974 483.328L921.976 483.019C861.615 480.882 902.312 374.61 950.229 403.178L955.029 404.652C951.012 396.845 944.901 390.402 937.041 386.307C930.607 382.955 923.632 381.466 916.629 381.649Z" fill="#C6C8C6" fill-opacity="0.9922"/>
<path d="M916.629 381.649C898.733 382.117 880.63 393.492 870.769 412.422C857.047 438.758 864.476 469.769 887.354 481.689C898.492 487.491 911.241 487.681 922.974 483.328L921.976 483.019C861.615 480.882 902.312 374.61 950.229 403.178L955.029 404.652C951.012 396.845 944.901 390.402 937.041 386.307C930.607 382.955 923.632 381.466 916.629 381.649Z" fill="url(#paint32_linear_405_2)" fill-opacity="0.9922"/>
<g filter="url(#filter24_f_405_2)">
<path d="M916.721 385.452C900.347 385.88 883.368 396.397 874.092 414.203C861.185 438.977 868.278 467.568 889.086 478.409C894.09 481.017 899.457 482.36 904.911 482.591C898.113 479.055 893.31 473.601 890.701 467.075C886.29 456.042 887.429 442.634 891.984 430.339C896.539 418.044 904.579 406.723 915.129 400.161C923.649 394.86 934.031 393.037 944.594 396.596C941.892 393.854 938.795 391.501 935.303 389.682C929.45 386.632 923.128 385.284 916.721 385.452Z" fill="url(#paint33_radial_405_2)"/>
</g>
<path d="M940.849 466.206C953.512 465.671 965.227 462.131 975.597 472.602L978.095 545.063C969.153 562.096 960.417 560.646 951.868 542.344C955.818 532.966 955.571 514.778 940.849 466.206Z" fill="#48D2FD"/>
<g opacity="0.5041" filter="url(#filter25_f_405_2)">
<path d="M971.418 414.328C966.086 413.315 960.042 415.505 954.246 421.128C948.451 426.751 943.412 435.62 941.095 446.116C938.777 456.613 939.652 466.599 942.598 473.886C945.544 481.174 950.171 485.406 955.501 486.418C960.832 487.43 966.898 485.229 972.701 479.601C978.487 473.989 983.508 465.154 985.834 454.698L987.127 444.774C987.128 444.75 987.117 444.73 987.118 444.706C987.45 436.168 985.682 428.7 982.695 423.417C979.7 418.12 975.78 415.156 971.419 414.328L971.418 414.328Z" fill="#1C241F"/>
</g>
<path d="M1069.41 819.74V856H1062.55V819.74H1069.41ZM1079.67 825.62C1078.46 825.62 1077.44 825.244 1076.63 824.493C1075.84 823.709 1075.45 822.745 1075.45 821.602C1075.45 820.459 1075.84 819.511 1076.63 818.76C1077.44 817.976 1078.46 817.584 1079.67 817.584C1080.87 817.584 1081.87 817.976 1082.65 818.76C1083.47 819.511 1083.88 820.459 1083.88 821.602C1083.88 822.745 1083.47 823.709 1082.65 824.493C1081.87 825.244 1080.87 825.62 1079.67 825.62ZM1083.05 828.854V856H1076.19V828.854H1083.05ZM1100.21 856.441C1097.99 856.441 1096 856.049 1094.23 855.265C1092.47 854.448 1091.07 853.354 1090.02 851.982C1089.01 850.61 1088.45 849.091 1088.35 847.425H1095.26C1095.39 848.47 1095.9 849.336 1096.78 850.022C1097.7 850.708 1098.82 851.051 1100.16 851.051C1101.47 851.051 1102.48 850.79 1103.2 850.267C1103.95 849.744 1104.33 849.075 1104.33 848.258C1104.33 847.376 1103.87 846.723 1102.96 846.298C1102.07 845.841 1100.65 845.351 1098.69 844.828C1096.67 844.338 1095 843.832 1093.7 843.309C1092.42 842.786 1091.31 841.986 1090.36 840.908C1089.45 839.83 1088.99 838.376 1088.99 836.547C1088.99 835.044 1089.42 833.672 1090.27 832.431C1091.15 831.19 1092.39 830.21 1093.99 829.491C1095.62 828.772 1097.53 828.413 1099.72 828.413C1102.96 828.413 1105.54 829.23 1107.46 830.863C1109.39 832.464 1110.45 834.636 1110.65 837.38H1104.08C1103.99 836.302 1103.53 835.453 1102.71 834.832C1101.93 834.179 1100.87 833.852 1099.53 833.852C1098.29 833.852 1097.32 834.081 1096.64 834.538C1095.98 834.995 1095.66 835.632 1095.66 836.449C1095.66 837.364 1096.11 838.066 1097.03 838.556C1097.94 839.013 1099.36 839.487 1101.29 839.977C1103.25 840.467 1104.87 840.973 1106.14 841.496C1107.42 842.019 1108.51 842.835 1109.42 843.946C1110.37 845.024 1110.86 846.461 1110.89 848.258C1110.89 849.826 1110.45 851.231 1109.57 852.472C1108.72 853.713 1107.48 854.693 1105.85 855.412C1104.25 856.098 1102.37 856.441 1100.21 856.441ZM1124.51 834.489V847.621C1124.51 848.536 1124.72 849.205 1125.15 849.63C1125.61 850.022 1126.36 850.218 1127.4 850.218H1130.59V856H1126.28C1120.49 856 1117.6 853.191 1117.6 847.572V834.489H1114.37V828.854H1117.6V822.141H1124.51V828.854H1130.59V834.489H1124.51ZM1160.76 841.839C1160.76 842.819 1160.69 843.701 1160.56 844.485H1140.72C1140.88 846.445 1141.57 847.98 1142.77 849.091C1143.98 850.202 1145.47 850.757 1147.23 850.757C1149.78 850.757 1151.59 849.663 1152.67 847.474H1160.07C1159.29 850.087 1157.78 852.243 1155.56 853.942C1153.34 855.608 1150.61 856.441 1147.38 856.441C1144.77 856.441 1142.42 855.869 1140.32 854.726C1138.27 853.55 1136.65 851.9 1135.47 849.777C1134.33 847.654 1133.76 845.204 1133.76 842.427C1133.76 839.618 1134.33 837.151 1135.47 835.028C1136.62 832.905 1138.22 831.271 1140.28 830.128C1142.33 828.985 1144.7 828.413 1147.38 828.413C1149.96 828.413 1152.26 828.968 1154.29 830.079C1156.35 831.19 1157.93 832.774 1159.04 834.832C1160.19 836.857 1160.76 839.193 1160.76 841.839ZM1153.65 839.879C1153.62 838.115 1152.98 836.71 1151.74 835.665C1150.5 834.587 1148.98 834.048 1147.18 834.048C1145.49 834.048 1144.05 834.571 1142.87 835.616C1141.73 836.629 1141.03 838.05 1140.77 839.879H1153.65ZM1180.81 828.462C1184.04 828.462 1186.66 829.491 1188.65 831.549C1190.64 833.574 1191.64 836.416 1191.64 840.075V856H1184.78V841.006C1184.78 838.85 1184.24 837.2 1183.16 836.057C1182.08 834.881 1180.61 834.293 1178.75 834.293C1176.86 834.293 1175.35 834.881 1174.24 836.057C1173.16 837.2 1172.62 838.85 1172.62 841.006V856H1165.76V828.854H1172.62V832.235C1173.54 831.059 1174.7 830.144 1176.1 829.491C1177.54 828.805 1179.11 828.462 1180.81 828.462ZM1223.4 841.839C1223.4 842.819 1223.33 843.701 1223.2 844.485H1203.35C1203.52 846.445 1204.2 847.98 1205.41 849.091C1206.62 850.202 1208.11 850.757 1209.87 850.757C1212.42 850.757 1214.23 849.663 1215.31 847.474H1222.71C1221.93 850.087 1220.42 852.243 1218.2 853.942C1215.98 855.608 1213.25 856.441 1210.02 856.441C1207.4 856.441 1205.05 855.869 1202.96 854.726C1200.9 853.55 1199.29 851.9 1198.11 849.777C1196.97 847.654 1196.4 845.204 1196.4 842.427C1196.4 839.618 1196.97 837.151 1198.11 835.028C1199.25 832.905 1200.86 831.271 1202.91 830.128C1204.97 828.985 1207.34 828.413 1210.02 828.413C1212.6 828.413 1214.9 828.968 1216.93 830.079C1218.99 831.19 1220.57 832.774 1221.68 834.832C1222.82 836.857 1223.4 839.193 1223.4 841.839ZM1216.29 839.879C1216.26 838.115 1215.62 836.71 1214.38 835.665C1213.14 834.587 1211.62 834.048 1209.82 834.048C1208.12 834.048 1206.69 834.571 1205.51 835.616C1204.37 836.629 1203.66 838.05 1203.4 839.879H1216.29ZM1235.26 833.068C1236.14 831.631 1237.29 830.504 1238.69 829.687C1240.13 828.87 1241.76 828.462 1243.59 828.462V835.665H1241.78C1239.62 835.665 1237.99 836.171 1236.88 837.184C1235.8 838.197 1235.26 839.961 1235.26 842.476V856H1228.4V828.854H1235.26V833.068Z" fill="#FF5900"/>
<path d="M984.117 320.441C981.895 320.441 979.903 320.049 978.139 319.265C976.375 318.448 974.97 317.354 973.925 315.982C972.912 314.61 972.357 313.091 972.259 311.425H979.168C979.298 312.47 979.805 313.336 980.687 314.022C981.601 314.708 982.728 315.051 984.068 315.051C985.374 315.051 986.387 314.79 987.106 314.267C987.857 313.744 988.233 313.075 988.233 312.258C988.233 311.376 987.775 310.723 986.861 310.298C985.979 309.841 984.558 309.351 982.598 308.828C980.572 308.338 978.906 307.832 977.6 307.309C976.326 306.786 975.215 305.986 974.268 304.908C973.353 303.83 972.896 302.376 972.896 300.547C972.896 299.044 973.32 297.672 974.17 296.431C975.052 295.19 976.293 294.21 977.894 293.491C979.527 292.772 981.438 292.413 983.627 292.413C986.861 292.413 989.441 293.23 991.369 294.863C993.296 296.464 994.358 298.636 994.554 301.38H987.988C987.89 300.302 987.432 299.453 986.616 298.832C985.832 298.179 984.77 297.852 983.431 297.852C982.189 297.852 981.226 298.081 980.54 298.538C979.886 298.995 979.56 299.632 979.56 300.449C979.56 301.364 980.017 302.066 980.932 302.556C981.846 303.013 983.267 303.487 985.195 303.977C987.155 304.467 988.772 304.973 990.046 305.496C991.32 306.019 992.414 306.835 993.329 307.946C994.276 309.024 994.766 310.461 994.799 312.258C994.799 313.826 994.358 315.231 993.476 316.472C992.626 317.713 991.385 318.693 989.752 319.412C988.151 320.098 986.273 320.441 984.117 320.441ZM1008.42 298.489V311.621C1008.42 312.536 1008.63 313.205 1009.05 313.63C1009.51 314.022 1010.26 314.218 1011.31 314.218H1014.49V320H1010.18C1004.4 320 1001.51 317.191 1001.51 311.572V298.489H998.274V292.854H1001.51V286.141H1008.42V292.854H1014.49V298.489H1008.42ZM1026.29 297.068C1027.17 295.631 1028.31 294.504 1029.72 293.687C1031.15 292.87 1032.79 292.462 1034.62 292.462V299.665H1032.8C1030.65 299.665 1029.01 300.171 1027.9 301.184C1026.83 302.197 1026.29 303.961 1026.29 306.476V320H1019.43V292.854H1026.29V297.068ZM1064.47 305.839C1064.47 306.819 1064.41 307.701 1064.28 308.485H1044.43C1044.59 310.445 1045.28 311.98 1046.49 313.091C1047.7 314.202 1049.18 314.757 1050.95 314.757C1053.5 314.757 1055.31 313.663 1056.39 311.474H1063.79C1063 314.087 1061.5 316.243 1059.28 317.942C1057.06 319.608 1054.33 320.441 1051.1 320.441C1048.48 320.441 1046.13 319.869 1044.04 318.726C1041.98 317.55 1040.36 315.9 1039.19 313.777C1038.05 311.654 1037.47 309.204 1037.47 306.427C1037.47 303.618 1038.05 301.151 1039.19 299.028C1040.33 296.905 1041.93 295.271 1043.99 294.128C1046.05 292.985 1048.42 292.413 1051.1 292.413C1053.68 292.413 1055.98 292.968 1058 294.079C1060.06 295.19 1061.65 296.774 1062.76 298.832C1063.9 300.857 1064.47 303.193 1064.47 305.839ZM1057.37 303.879C1057.33 302.115 1056.7 300.71 1055.46 299.665C1054.22 298.587 1052.7 298.048 1050.9 298.048C1049.2 298.048 1047.76 298.571 1046.59 299.616C1045.44 300.629 1044.74 302.05 1044.48 303.879H1057.37ZM1067.72 306.329C1067.72 303.585 1068.25 301.151 1069.33 299.028C1070.44 296.905 1071.93 295.271 1073.79 294.128C1075.69 292.985 1077.79 292.413 1080.11 292.413C1082.14 292.413 1083.9 292.821 1085.4 293.638C1086.94 294.455 1088.16 295.484 1089.08 296.725V292.854H1095.99V320H1089.08V316.031C1088.2 317.305 1086.97 318.367 1085.4 319.216C1083.87 320.033 1082.09 320.441 1080.06 320.441C1077.78 320.441 1075.69 319.853 1073.79 318.677C1071.93 317.501 1070.44 315.851 1069.33 313.728C1068.25 311.572 1067.72 309.106 1067.72 306.329ZM1089.08 306.427C1089.08 304.761 1088.75 303.34 1088.1 302.164C1087.45 300.955 1086.56 300.041 1085.45 299.42C1084.34 298.767 1083.15 298.44 1081.88 298.44C1080.6 298.44 1079.43 298.75 1078.35 299.371C1077.27 299.992 1076.39 300.906 1075.7 302.115C1075.05 303.291 1074.72 304.696 1074.72 306.329C1074.72 307.962 1075.05 309.4 1075.7 310.641C1076.39 311.85 1077.27 312.781 1078.35 313.434C1079.46 314.087 1080.64 314.414 1081.88 314.414C1083.15 314.414 1084.34 314.104 1085.45 313.483C1086.56 312.83 1087.45 311.915 1088.1 310.739C1088.75 309.53 1089.08 308.093 1089.08 306.427ZM1136.4 292.462C1139.73 292.462 1142.41 293.491 1144.44 295.549C1146.49 297.574 1147.52 300.416 1147.52 304.075V320H1140.66V305.006C1140.66 302.883 1140.12 301.266 1139.05 300.155C1137.97 299.012 1136.5 298.44 1134.64 298.44C1132.77 298.44 1131.29 299.012 1130.18 300.155C1129.1 301.266 1128.56 302.883 1128.56 305.006V320H1121.7V305.006C1121.7 302.883 1121.16 301.266 1120.08 300.155C1119.01 299.012 1117.54 298.44 1115.67 298.44C1113.78 298.44 1112.28 299.012 1111.17 300.155C1110.09 301.266 1109.55 302.883 1109.55 305.006V320H1102.69V292.854H1109.55V296.137C1110.43 294.994 1111.56 294.095 1112.93 293.442C1114.33 292.789 1115.87 292.462 1117.54 292.462C1119.66 292.462 1121.55 292.919 1123.22 293.834C1124.89 294.716 1126.18 295.99 1127.09 297.656C1127.97 296.088 1129.25 294.83 1130.91 293.883C1132.61 292.936 1134.44 292.462 1136.4 292.462Z" fill="#FF5900"/>
</g>
<defs>
<filter id="filter0_f_405_2" x="905" y="707" width="206" height="211.002" filterUnits="userSpaceOnUse" color-interpolation-filters="sRGB">
<feFlood flood-opacity="0" result="BackgroundImageFix"/>
<feBlend mode="normal" in="SourceGraphic" in2="BackgroundImageFix" result="shape"/>
<feGaussianBlur stdDeviation="6.5" result="effect1_foregroundBlur_405_2"/>
</filter>
<filter id="filter1_f_405_2" x="-51" y="34" width="686.573" height="263.95" filterUnits="userSpaceOnUse" color-interpolation-filters="sRGB">
<feFlood flood-opacity="0" result="BackgroundImageFix"/>
<feBlend mode="normal" in="SourceGraphic" in2="BackgroundImageFix" result="shape"/>
<feGaussianBlur stdDeviation="6.5" result="effect1_foregroundBlur_405_2"/>
</filter>
<filter id="filter2_f_405_2" x="881.105" y="736.112" width="157.8" height="25.8011" filterUnits="userSpaceOnUse" color-interpolation-filters="sRGB">
<feFlood flood-opacity="0" result="BackgroundImageFix"/>
<feBlend mode="normal" in="SourceGraphic" in2="BackgroundImageFix" result="shape"/>
<feGaussianBlur stdDeviation="0.450026" result="effect1_foregroundBlur_405_2"/>
</filter>
<filter id="filter3_f_405_2" x="508.269" y="219.071" width="603.18" height="377.958" filterUnits="userSpaceOnUse" color-interpolation-filters="sRGB">
<feFlood flood-opacity="0" result="BackgroundImageFix"/>
<feBlend mode="normal" in="SourceGraphic" in2="BackgroundImageFix" result="shape"/>
<feGaussianBlur stdDeviation="2.5" result="effect1_foregroundBlur_405_2"/>
</filter>
<filter id="filter4_f_405_2" x="483.644" y="195.374" width="265.236" height="299.381" filterUnits="userSpaceOnUse" color-interpolation-filters="sRGB">
<feFlood flood-opacity="0" result="BackgroundImageFix"/>
<feBlend mode="normal" in="SourceGraphic" in2="BackgroundImageFix" result="shape"/>
<feGaussianBlur stdDeviation="3.99631" result="effect1_foregroundBlur_405_2"/>
</filter>
<filter id="filter5_f_405_2" x="497.726" y="207.507" width="254.826" height="276.783" filterUnits="userSpaceOnUse" color-interpolation-filters="sRGB">
<feFlood flood-opacity="0" result="BackgroundImageFix"/>
<feBlend mode="normal" in="SourceGraphic" in2="BackgroundImageFix" result="shape"/>
<feGaussianBlur stdDeviation="4.92231" result="effect1_foregroundBlur_405_2"/>
</filter>
<filter id="filter6_f_405_2" x="586.963" y="292.048" width="95.884" height="108.647" filterUnits="userSpaceOnUse" color-interpolation-filters="sRGB">
<feFlood flood-opacity="0" result="BackgroundImageFix"/>
<feBlend mode="normal" in="SourceGraphic" in2="BackgroundImageFix" result="shape"/>
<feGaussianBlur stdDeviation="0.983336" result="effect1_foregroundBlur_405_2"/>
</filter>
<filter id="filter7_f_405_2" x="589.303" y="294.48" width="93.4709" height="103.238" filterUnits="userSpaceOnUse" color-interpolation-filters="sRGB">
<feFlood flood-opacity="0" result="BackgroundImageFix"/>
<feBlend mode="normal" in="SourceGraphic" in2="BackgroundImageFix" result="shape"/>
<feGaussianBlur stdDeviation="0.946704" result="effect1_foregroundBlur_405_2"/>
</filter>
<filter id="filter8_f_405_2" x="590.05" y="295.206" width="82.2019" height="102.377" filterUnits="userSpaceOnUse" color-interpolation-filters="sRGB">
<feFlood flood-opacity="0" result="BackgroundImageFix"/>
<feBlend mode="normal" in="SourceGraphic" in2="BackgroundImageFix" result="shape"/>
<feGaussianBlur stdDeviation="1.30597" result="effect1_foregroundBlur_405_2"/>
</filter>
<filter id="filter9_f_405_2" x="589.303" y="294.48" width="93.4709" height="103.238" filterUnits="userSpaceOnUse" color-interpolation-filters="sRGB">
<feFlood flood-opacity="0" result="BackgroundImageFix"/>
<feBlend mode="normal" in="SourceGraphic" in2="BackgroundImageFix" result="shape"/>
<feGaussianBlur stdDeviation="0.946704" result="effect1_foregroundBlur_405_2"/>
</filter>
<filter id="filter10_f_405_2" x="590.05" y="295.206" width="82.2019" height="102.377" filterUnits="userSpaceOnUse" color-interpolation-filters="sRGB">
<feFlood flood-opacity="0" result="BackgroundImageFix"/>
<feBlend mode="normal" in="SourceGraphic" in2="BackgroundImageFix" result="shape"/>
<feGaussianBlur stdDeviation="1.30597" result="effect1_foregroundBlur_405_2"/>
</filter>
<filter id="filter11_f_405_2" x="601.591" y="298.32" width="93.4709" height="103.238" filterUnits="userSpaceOnUse" color-interpolation-filters="sRGB">
<feFlood flood-opacity="0" result="BackgroundImageFix"/>
<feBlend mode="normal" in="SourceGraphic" in2="BackgroundImageFix" result="shape"/>
<feGaussianBlur stdDeviation="0.946704" result="effect1_foregroundBlur_405_2"/>
</filter>
<filter id="filter12_f_405_2" x="602.338" y="299.046" width="82.2019" height="102.377" filterUnits="userSpaceOnUse" color-interpolation-filters="sRGB">
<feFlood flood-opacity="0" result="BackgroundImageFix"/>
<feBlend mode="normal" in="SourceGraphic" in2="BackgroundImageFix" result="shape"/>
<feGaussianBlur stdDeviation="1.30597" result="effect1_foregroundBlur_405_2"/>
</filter>
<filter id="filter13_f_405_2" x="612.731" y="303.696" width="93.4709" height="103.238" filterUnits="userSpaceOnUse" color-interpolation-filters="sRGB">
<feFlood flood-opacity="0" result="BackgroundImageFix"/>
<feBlend mode="normal" in="SourceGraphic" in2="BackgroundImageFix" result="shape"/>
<feGaussianBlur stdDeviation="0.946704" result="effect1_foregroundBlur_405_2"/>
</filter>
<filter id="filter14_f_405_2" x="613.477" y="304.422" width="82.2019" height="102.377" filterUnits="userSpaceOnUse" color-interpolation-filters="sRGB">
<feFlood flood-opacity="0" result="BackgroundImageFix"/>
<feBlend mode="normal" in="SourceGraphic" in2="BackgroundImageFix" result="shape"/>
<feGaussianBlur stdDeviation="1.30597" result="effect1_foregroundBlur_405_2"/>
</filter>
<filter id="filter15_f_405_2" x="628.129" y="308.221" width="93.4709" height="103.238" filterUnits="userSpaceOnUse" color-interpolation-filters="sRGB">
<feFlood flood-opacity="0" result="BackgroundImageFix"/>
<feBlend mode="normal" in="SourceGraphic" in2="BackgroundImageFix" result="shape"/>
<feGaussianBlur stdDeviation="0.946704" result="effect1_foregroundBlur_405_2"/>
</filter>
<filter id="filter16_f_405_2" x="628.875" y="308.946" width="82.2019" height="102.377" filterUnits="userSpaceOnUse" color-interpolation-filters="sRGB">
<feFlood flood-opacity="0" result="BackgroundImageFix"/>
<feBlend mode="normal" in="SourceGraphic" in2="BackgroundImageFix" result="shape"/>
<feGaussianBlur stdDeviation="1.30597" result="effect1_foregroundBlur_405_2"/>
</filter>
<filter id="filter17_f_405_2" x="825.436" y="368.352" width="93.4709" height="103.238" filterUnits="userSpaceOnUse" color-interpolation-filters="sRGB">
<feFlood flood-opacity="0" result="BackgroundImageFix"/>
<feBlend mode="normal" in="SourceGraphic" in2="BackgroundImageFix" result="shape"/>
<feGaussianBlur stdDeviation="0.946704" result="effect1_foregroundBlur_405_2"/>
</filter>
<filter id="filter18_f_405_2" x="826.183" y="369.078" width="82.2019" height="102.377" filterUnits="userSpaceOnUse" color-interpolation-filters="sRGB">
<feFlood flood-opacity="0" result="BackgroundImageFix"/>
<feBlend mode="normal" in="SourceGraphic" in2="BackgroundImageFix" result="shape"/>
<feGaussianBlur stdDeviation="1.30597" result="effect1_foregroundBlur_405_2"/>
</filter>
<filter id="filter19_f_405_2" x="837.726" y="372.192" width="93.4709" height="103.238" filterUnits="userSpaceOnUse" color-interpolation-filters="sRGB">
<feFlood flood-opacity="0" result="BackgroundImageFix"/>
<feBlend mode="normal" in="SourceGraphic" in2="BackgroundImageFix" result="shape"/>
<feGaussianBlur stdDeviation="0.946704" result="effect1_foregroundBlur_405_2"/>
</filter>
<filter id="filter20_f_405_2" x="838.473" y="372.918" width="82.2019" height="102.377" filterUnits="userSpaceOnUse" color-interpolation-filters="sRGB">
<feFlood flood-opacity="0" result="BackgroundImageFix"/>
<feBlend mode="normal" in="SourceGraphic" in2="BackgroundImageFix" result="shape"/>
<feGaussianBlur stdDeviation="1.30597" result="effect1_foregroundBlur_405_2"/>
</filter>
<filter id="filter21_f_405_2" x="848.863" y="377.568" width="93.4709" height="103.238" filterUnits="userSpaceOnUse" color-interpolation-filters="sRGB">
<feFlood flood-opacity="0" result="BackgroundImageFix"/>
<feBlend mode="normal" in="SourceGraphic" in2="BackgroundImageFix" result="shape"/>
<feGaussianBlur stdDeviation="0.946704" result="effect1_foregroundBlur_405_2"/>
</filter>
<filter id="filter22_f_405_2" x="849.61" y="378.294" width="82.2019" height="102.377" filterUnits="userSpaceOnUse" color-interpolation-filters="sRGB">
<feFlood flood-opacity="0" result="BackgroundImageFix"/>
<feBlend mode="normal" in="SourceGraphic" in2="BackgroundImageFix" result="shape"/>
<feGaussianBlur stdDeviation="1.30597" result="effect1_foregroundBlur_405_2"/>
</filter>
<filter id="filter23_f_405_2" x="864.257" y="382.1" width="93.4709" height="103.238" filterUnits="userSpaceOnUse" color-interpolation-filters="sRGB">
<feFlood flood-opacity="0" result="BackgroundImageFix"/>
<feBlend mode="normal" in="SourceGraphic" in2="BackgroundImageFix" result="shape"/>
<feGaussianBlur stdDeviation="0.946704" result="effect1_foregroundBlur_405_2"/>
</filter>
<filter id="filter24_f_405_2" x="865.004" y="382.826" width="82.2019" height="102.377" filterUnits="userSpaceOnUse" color-interpolation-filters="sRGB">
<feFlood flood-opacity="0" result="BackgroundImageFix"/>
<feBlend mode="normal" in="SourceGraphic" in2="BackgroundImageFix" result="shape"/>
<feGaussianBlur stdDeviation="1.30597" result="effect1_foregroundBlur_405_2"/>
</filter>
<filter id="filter25_f_405_2" x="926.401" y="400.717" width="74.1277" height="99.3106" filterUnits="userSpaceOnUse" color-interpolation-filters="sRGB">
<feFlood flood-opacity="0" result="BackgroundImageFix"/>
<feBlend mode="normal" in="SourceGraphic" in2="BackgroundImageFix" result="shape"/>
<feGaussianBlur stdDeviation="6.68573" result="effect1_foregroundBlur_405_2"/>
</filter>
<radialGradient id="paint0_radial_405_2" cx="0" cy="0" r="1" gradientUnits="userSpaceOnUse" gradientTransform="translate(960 540) rotate(90) scale(540 960)">
<stop stop-color="white"/>
<stop offset="0.706156" stop-color="#D8D7D7"/>
</radialGradient>
<linearGradient id="paint1_linear_405_2" x1="876.563" y1="700.416" x2="1047.76" y2="700.416" gradientUnits="userSpaceOnUse">
<stop stop-color="#F0C83C"/>
<stop offset="1" stop-color="#D4A710"/>
</linearGradient>
<linearGradient id="paint2_linear_405_2" x1="869.75" y1="700.416" x2="1050.76" y2="700.416" gradientUnits="userSpaceOnUse">
<stop stop-color="#F9D13F"/>
<stop offset="1" stop-color="#E9B807"/>
</linearGradient>
<linearGradient id="paint3_linear_405_2" x1="870" y1="700.416" x2="1050" y2="700.416" gradientUnits="userSpaceOnUse">
<stop stop-color="#FCD54A"/>
<stop offset="1" stop-color="#FAC404"/>
</linearGradient>
<linearGradient id="paint4_linear_405_2" x1="852.16" y1="854.406" x2="852.16" y2="773.784" gradientUnits="userSpaceOnUse">
<stop stop-color="#E5E6E3"/>
<stop offset="1" stop-color="#C7CAC3"/>
</linearGradient>
<linearGradient id="paint5_linear_405_2" x1="1039.01" y1="396.016" x2="881.001" y2="396.016" gradientUnits="userSpaceOnUse">
<stop stop-color="#D6A910"/>
<stop offset="1" stop-color="#D19002"/>
</linearGradient>
<linearGradient id="paint6_linear_405_2" x1="221.443" y1="333.172" x2="270.089" y2="150.56" gradientUnits="userSpaceOnUse">
<stop stop-color="#8A8A8A"/>
<stop offset="0.251" stop-color="#575757"/>
<stop offset="0.5765" stop-color="#616161"/>
<stop offset="1" stop-color="#0F0F0F"/>
</linearGradient>
<linearGradient id="paint7_linear_405_2" x1="524.93" y1="405.713" x2="640.421" y2="271.561" gradientUnits="userSpaceOnUse">
<stop stop-color="#EDEDF7"/>
<stop offset="1" stop-color="#3D3E40"/>
</linearGradient>
<linearGradient id="paint8_linear_405_2" x1="538.377" y1="411.715" x2="653.868" y2="277.563" gradientUnits="userSpaceOnUse">
<stop stop-color="#B2B2BA"/>
<stop offset="1" stop-color="#75767A"/>
</linearGradient>
<linearGradient id="paint9_linear_405_2" x1="641.367" y1="293.519" x2="586.889" y2="374.394" gradientUnits="userSpaceOnUse">
<stop stop-color="#EDEDF7"/>
<stop offset="1" stop-color="#3D3E40"/>
</linearGradient>
<linearGradient id="paint10_linear_405_2" x1="660.562" y1="339.529" x2="577.953" y2="339.755" gradientUnits="userSpaceOnUse">
<stop stop-color="#737373"/>
<stop offset="1" stop-color="#333333"/>
</linearGradient>
<linearGradient id="paint11_linear_405_2" x1="584.562" y1="490.211" x2="648.543" y2="195.727" gradientUnits="userSpaceOnUse">
<stop stop-color="#999999"/>
<stop offset="0.0223" stop-color="#8B8B8A"/>
<stop offset="0.0921" stop-color="#E6E6E6"/>
<stop offset="0.1917" stop-color="#999999"/>
<stop offset="0.5158" stop-color="#F2F2F2"/>
<stop offset="0.7266" stop-color="#999999"/>
<stop offset="0.8842" stop-color="#ECECEC"/>
<stop offset="0.9883" stop-color="#808080"/>
<stop offset="1" stop-color="#F2F2F2"/>
</linearGradient>
<linearGradient id="paint12_linear_405_2" x1="534.977" y1="400.606" x2="732.679" y2="282.137" gradientUnits="userSpaceOnUse">
<stop stop-color="#C6C8C6" stop-opacity="0.9922"/>
<stop offset="0.675" stop-color="#B5B1B2"/>
<stop offset="1" stop-color="#959394" stop-opacity="0.9922"/>
</linearGradient>
<linearGradient id="paint13_linear_405_2" x1="578.243" y1="476.493" x2="637.592" y2="216.288" gradientUnits="userSpaceOnUse">
<stop stop-color="#F2F2F0" stop-opacity="0"/>
<stop offset="0.5413" stop-color="#F2F2F0"/>
<stop offset="1" stop-color="#F2F2F0" stop-opacity="0"/>
</linearGradient>
<linearGradient id="paint14_linear_405_2" x1="566.267" y1="471.855" x2="698.605" y2="271.492" gradientUnits="userSpaceOnUse">
<stop stop-color="white"/>
<stop offset="1" stop-color="white" stop-opacity="0"/>
</linearGradient>
<linearGradient id="paint15_linear_405_2" x1="721.204" y1="427.6" x2="748.099" y2="338.482" gradientUnits="userSpaceOnUse">
<stop stop-color="#999999"/>
<stop offset="0.0818" stop-color="#8B8B8A"/>
<stop offset="0.1307" stop-color="#E6E6E6"/>
<stop offset="0.2198" stop-color="#999999"/>
<stop offset="0.3918" stop-color="#F2F2F2"/>
<stop offset="0.7052" stop-color="#999999"/>
<stop offset="0.811" stop-color="#ECECEC"/>
<stop offset="0.9251" stop-color="#808080"/>
<stop offset="1" stop-color="#F2F2F2"/>
</linearGradient>
<linearGradient id="paint16_linear_405_2" x1="629.653" y1="396.834" x2="654.146" y2="295.322" gradientUnits="userSpaceOnUse">
<stop stop-color="#999999"/>
<stop offset="0.0223" stop-color="#8B8B8A"/>
<stop offset="0.1899" stop-color="#E6E6E6"/>
<stop offset="0.2513" stop-color="#999999"/>
<stop offset="0.4083" stop-color="#F2F2F2"/>
<stop offset="0.7678" stop-color="#999999"/>
<stop offset="0.8269" stop-color="#ECECEC"/>
<stop offset="0.9548" stop-color="#808080"/>
<stop offset="1" stop-color="#F2F2F2"/>
</linearGradient>
<radialGradient id="paint17_radial_405_2" cx="0" cy="0" r="1" gradientUnits="userSpaceOnUse" gradientTransform="translate(632.349 306.484) rotate(92.0336) scale(107.715 59.1108)">
<stop stop-color="#F0F0EE"/>
<stop offset="1" stop-color="#F0F0EE" stop-opacity="0"/>
</radialGradient>
<linearGradient id="paint18_linear_405_2" x1="641.941" y1="400.674" x2="666.434" y2="299.162" gradientUnits="userSpaceOnUse">
<stop stop-color="#999999"/>
<stop offset="0.0223" stop-color="#8B8B8A"/>
<stop offset="0.1899" stop-color="#E6E6E6"/>
<stop offset="0.2513" stop-color="#999999"/>
<stop offset="0.4083" stop-color="#F2F2F2"/>
<stop offset="0.7678" stop-color="#999999"/>
<stop offset="0.8269" stop-color="#ECECEC"/>
<stop offset="0.9548" stop-color="#808080"/>
<stop offset="1" stop-color="#F2F2F2"/>
</linearGradient>
<radialGradient id="paint19_radial_405_2" cx="0" cy="0" r="1" gradientUnits="userSpaceOnUse" gradientTransform="translate(644.637 310.324) rotate(92.0336) scale(107.715 59.1108)">
<stop stop-color="#F0F0EE"/>
<stop offset="1" stop-color="#F0F0EE" stop-opacity="0"/>
</radialGradient>
<linearGradient id="paint20_linear_405_2" x1="653.081" y1="406.05" x2="677.573" y2="304.538" gradientUnits="userSpaceOnUse">
<stop stop-color="#999999"/>
<stop offset="0.0223" stop-color="#8B8B8A"/>
<stop offset="0.1899" stop-color="#E6E6E6"/>
<stop offset="0.2513" stop-color="#999999"/>
<stop offset="0.4083" stop-color="#F2F2F2"/>
<stop offset="0.7678" stop-color="#999999"/>
<stop offset="0.8269" stop-color="#ECECEC"/>
<stop offset="0.9548" stop-color="#808080"/>
<stop offset="1" stop-color="#F2F2F2"/>
</linearGradient>
<radialGradient id="paint21_radial_405_2" cx="0" cy="0" r="1" gradientUnits="userSpaceOnUse" gradientTransform="translate(655.776 315.7) rotate(92.0336) scale(107.715 59.1108)">
<stop stop-color="#F0F0EE"/>
<stop offset="1" stop-color="#F0F0EE" stop-opacity="0"/>
</radialGradient>
<linearGradient id="paint22_linear_405_2" x1="668.479" y1="410.575" x2="692.971" y2="309.062" gradientUnits="userSpaceOnUse">
<stop stop-color="#999999"/>
<stop offset="0.0223" stop-color="#8B8B8A"/>
<stop offset="0.1899" stop-color="#E6E6E6"/>
<stop offset="0.2513" stop-color="#999999"/>
<stop offset="0.4083" stop-color="#F2F2F2"/>
<stop offset="0.7678" stop-color="#999999"/>
<stop offset="0.8269" stop-color="#ECECEC"/>
<stop offset="0.9548" stop-color="#808080"/>
<stop offset="1" stop-color="#F2F2F2"/>
</linearGradient>
<radialGradient id="paint23_radial_405_2" cx="0" cy="0" r="1" gradientUnits="userSpaceOnUse" gradientTransform="translate(671.174 320.224) rotate(92.0336) scale(107.715 59.1108)">
<stop stop-color="#F0F0EE"/>
<stop offset="1" stop-color="#F0F0EE" stop-opacity="0"/>
</radialGradient>
<linearGradient id="paint24_linear_405_2" x1="953.968" y1="491.953" x2="972.403" y2="406.515" gradientUnits="userSpaceOnUse">
<stop stop-color="#999999"/>
<stop offset="0.0571" stop-color="#8B8B8A"/>
<stop offset="0.1106" stop-color="#E6E6E6"/>
<stop offset="0.1367" stop-color="#999999"/>
<stop offset="0.2825" stop-color="#F2F2F2"/>
<stop offset="0.6852" stop-color="#999999"/>
<stop offset="0.757" stop-color="#ECECEC"/>
<stop offset="0.9054" stop-color="#808080"/>
<stop offset="1" stop-color="#F2F2F2"/>
</linearGradient>
<linearGradient id="paint25_linear_405_2" x1="932.931" y1="442.369" x2="994.891" y2="449.782" gradientUnits="userSpaceOnUse">
<stop/>
<stop offset="1" stop-opacity="0"/>
</linearGradient>
<linearGradient id="paint26_linear_405_2" x1="865.787" y1="470.706" x2="890.279" y2="369.194" gradientUnits="userSpaceOnUse">
<stop stop-color="#999999"/>
<stop offset="0.0223" stop-color="#8B8B8A"/>
<stop offset="0.1899" stop-color="#E6E6E6"/>
<stop offset="0.2513" stop-color="#999999"/>
<stop offset="0.4083" stop-color="#F2F2F2"/>
<stop offset="0.7678" stop-color="#999999"/>
<stop offset="0.8269" stop-color="#ECECEC"/>
<stop offset="0.9548" stop-color="#808080"/>
<stop offset="1" stop-color="#F2F2F2"/>
</linearGradient>
<radialGradient id="paint27_radial_405_2" cx="0" cy="0" r="1" gradientUnits="userSpaceOnUse" gradientTransform="translate(868.482 380.356) rotate(92.0336) scale(107.715 59.1108)">
<stop stop-color="#F0F0EE"/>
<stop offset="1" stop-color="#F0F0EE" stop-opacity="0"/>
</radialGradient>
<linearGradient id="paint28_linear_405_2" x1="878.077" y1="474.546" x2="902.569" y2="373.034" gradientUnits="userSpaceOnUse">
<stop stop-color="#999999"/>
<stop offset="0.0223" stop-color="#8B8B8A"/>
<stop offset="0.1899" stop-color="#E6E6E6"/>
<stop offset="0.2513" stop-color="#999999"/>
<stop offset="0.4083" stop-color="#F2F2F2"/>
<stop offset="0.7678" stop-color="#999999"/>
<stop offset="0.8269" stop-color="#ECECEC"/>
<stop offset="0.9548" stop-color="#808080"/>
<stop offset="1" stop-color="#F2F2F2"/>
</linearGradient>
<radialGradient id="paint29_radial_405_2" cx="0" cy="0" r="1" gradientUnits="userSpaceOnUse" gradientTransform="translate(880.772 384.196) rotate(92.0336) scale(107.715 59.1108)">
<stop stop-color="#F0F0EE"/>
<stop offset="1" stop-color="#F0F0EE" stop-opacity="0"/>
</radialGradient>
<linearGradient id="paint30_linear_405_2" x1="889.214" y1="479.922" x2="913.706" y2="378.41" gradientUnits="userSpaceOnUse">
<stop stop-color="#999999"/>
<stop offset="0.0223" stop-color="#8B8B8A"/>
<stop offset="0.1899" stop-color="#E6E6E6"/>
<stop offset="0.2513" stop-color="#999999"/>
<stop offset="0.4083" stop-color="#F2F2F2"/>
<stop offset="0.7678" stop-color="#999999"/>
<stop offset="0.8269" stop-color="#ECECEC"/>
<stop offset="0.9548" stop-color="#808080"/>
<stop offset="1" stop-color="#F2F2F2"/>
</linearGradient>
<radialGradient id="paint31_radial_405_2" cx="0" cy="0" r="1" gradientUnits="userSpaceOnUse" gradientTransform="translate(891.909 389.572) rotate(92.0336) scale(107.715 59.1108)">
<stop stop-color="#F0F0EE"/>
<stop offset="1" stop-color="#F0F0EE" stop-opacity="0"/>
</radialGradient>
<linearGradient id="paint32_linear_405_2" x1="904.608" y1="484.454" x2="929.1" y2="382.942" gradientUnits="userSpaceOnUse">
<stop stop-color="#999999"/>
<stop offset="0.0223" stop-color="#8B8B8A"/>
<stop offset="0.1899" stop-color="#E6E6E6"/>
<stop offset="0.2513" stop-color="#999999"/>
<stop offset="0.4083" stop-color="#F2F2F2"/>
<stop offset="0.7678" stop-color="#999999"/>
<stop offset="0.8269" stop-color="#ECECEC"/>
<stop offset="0.9548" stop-color="#808080"/>
<stop offset="1" stop-color="#F2F2F2"/>
</linearGradient>
<radialGradient id="paint33_radial_405_2" cx="0" cy="0" r="1" gradientUnits="userSpaceOnUse" gradientTransform="translate(907.303 394.104) rotate(92.0336) scale(107.715 59.1108)">
<stop stop-color="#F0F0EE"/>
<stop offset="1" stop-color="#F0F0EE" stop-opacity="0"/>
</radialGradient>
<clipPath id="clip0_405_2">
<rect width="1920" height="1080" fill="white"/>
</clipPath>
</defs>
</svg>
