<svg width="1920" height="1080" viewBox="0 0 1920 1080" fill="none" xmlns="http://www.w3.org/2000/svg">
<rect width="1920" height="1080" fill="white"/>
<path d="M1184.39 300.413H1179.36V162.702C1179.36 141.563 1170.96 121.291 1156.01 106.344C1141.07 91.3971 1120.79 83 1099.66 83H807.895C786.757 83 766.484 91.3971 751.537 106.344C736.591 121.291 728.193 141.563 728.193 162.702V918.2C728.193 939.338 736.591 959.61 751.537 974.557C766.484 989.504 786.757 997.901 807.895 997.901H1099.66C1120.79 997.901 1141.07 989.504 1156.01 974.557C1170.96 959.61 1179.36 939.338 1179.36 918.2V398.438H1184.39V300.413Z" fill="#FF5200" fill-opacity="0.5"/>
<path d="M1102.87 103.733H1064.79C1066.54 108.028 1067.21 112.687 1066.74 117.301C1066.26 121.914 1064.66 126.341 1062.08 130.191C1059.49 134.04 1056 137.194 1051.9 139.375C1047.81 141.556 1043.24 142.697 1038.61 142.697H871.46C866.822 142.696 862.256 141.555 858.164 139.375C854.071 137.194 850.577 134.04 847.991 130.191C845.404 126.342 843.804 121.916 843.331 117.303C842.857 112.69 843.526 108.031 845.277 103.737H809.701C793.915 103.737 778.775 110.008 767.612 121.171C756.45 132.333 750.179 147.473 750.179 163.259V917.645C750.179 933.431 756.45 948.571 767.612 959.733C778.775 970.896 793.915 977.167 809.701 977.167H1102.86C1118.65 977.167 1133.79 970.896 1144.95 959.733C1156.11 948.571 1162.38 933.431 1162.38 917.645V163.256C1162.38 147.469 1156.11 132.33 1144.95 121.167C1133.79 110.004 1118.65 103.733 1102.86 103.733H1102.87Z" fill="white"/>
<path d="M1138.2 696.245H786.689C784.963 696.243 783.308 695.557 782.088 694.337C780.868 693.116 780.181 691.462 780.179 689.736V602.541C780.181 600.815 780.868 599.16 782.088 597.94C783.308 596.72 784.963 596.033 786.689 596.031H1138.2C1139.93 596.033 1141.58 596.72 1142.8 597.94C1144.02 599.16 1144.71 600.815 1144.71 602.541V689.737C1144.71 691.463 1144.02 693.117 1142.8 694.337C1141.58 695.557 1139.93 696.243 1138.2 696.245ZM786.689 598.635C785.653 598.636 784.66 599.048 783.928 599.78C783.196 600.512 782.784 601.505 782.783 602.541V689.737C782.784 690.773 783.196 691.766 783.928 692.498C784.66 693.23 785.653 693.642 786.689 693.643H1138.2C1139.24 693.642 1140.23 693.23 1140.96 692.498C1141.7 691.766 1142.11 690.773 1142.11 689.737V602.541C1142.11 601.505 1141.7 600.512 1140.96 599.78C1140.23 599.048 1139.24 598.636 1138.2 598.635H786.689Z" fill="#666666"/>
<path d="M832.254 673.478C847.353 673.478 859.594 661.237 859.594 646.138C859.594 631.038 847.353 618.798 832.254 618.798C817.155 618.798 804.914 631.038 804.914 646.138C804.914 661.237 817.155 673.478 832.254 673.478Z" fill="#666666"/>
<path d="M895.396 627.913C894.792 627.903 894.191 628.013 893.629 628.238C893.068 628.462 892.557 628.796 892.125 629.22C891.694 629.644 891.352 630.15 891.118 630.708C890.884 631.266 890.764 631.864 890.764 632.469C890.764 633.074 890.884 633.673 891.118 634.231C891.352 634.788 891.694 635.294 892.125 635.718C892.557 636.142 893.068 636.476 893.629 636.701C894.191 636.925 894.792 637.036 895.396 637.026H1110.22C1110.82 637.037 1111.41 636.93 1111.97 636.711C1112.53 636.492 1113.04 636.164 1113.47 635.748C1113.9 635.332 1114.24 634.835 1114.48 634.285C1114.72 633.735 1114.85 633.143 1114.86 632.544C1114.87 631.945 1114.76 631.349 1114.54 630.792C1114.32 630.235 1113.99 629.726 1113.57 629.296C1113.16 628.866 1112.66 628.522 1112.11 628.285C1111.56 628.048 1110.97 627.921 1110.37 627.913H895.399H895.396Z" fill="#E6E6E6"/>
<path d="M895.397 655.253C894.188 655.253 893.029 655.734 892.175 656.588C891.32 657.443 890.84 658.602 890.84 659.81C890.84 661.019 891.32 662.178 892.175 663.033C893.029 663.887 894.188 664.368 895.397 664.368H1110.22C1110.82 664.379 1111.41 664.272 1111.97 664.053C1112.53 663.834 1113.04 663.506 1113.47 663.09C1113.9 662.674 1114.25 662.177 1114.48 661.627C1114.72 661.077 1114.85 660.485 1114.86 659.886C1114.87 659.287 1114.76 658.691 1114.54 658.134C1114.32 657.577 1113.99 657.068 1113.57 656.638C1113.16 656.208 1112.66 655.864 1112.11 655.627C1111.56 655.389 1110.97 655.263 1110.37 655.255H895.399L895.397 655.253Z" fill="#E6E6E6"/>
<path d="M1138.2 550.421H786.689C784.963 550.419 783.308 549.733 782.088 548.512C780.868 547.292 780.181 545.637 780.179 543.912V456.716C780.181 454.991 780.868 453.336 782.088 452.116C783.308 450.895 784.963 450.209 786.689 450.207H1138.2C1139.93 450.209 1141.58 450.895 1142.8 452.116C1144.02 453.336 1144.71 454.991 1144.71 456.716V543.913C1144.71 545.639 1144.02 547.293 1142.8 548.513C1141.58 549.733 1139.93 550.419 1138.2 550.421ZM786.689 452.811C785.653 452.812 784.66 453.223 783.928 453.956C783.196 454.688 782.784 455.681 782.783 456.716V543.913C782.784 544.949 783.196 545.941 783.928 546.674C784.66 547.406 785.653 547.818 786.689 547.819H1138.2C1139.24 547.818 1140.23 547.406 1140.96 546.674C1141.7 545.941 1142.11 544.949 1142.11 543.913V456.716C1142.11 455.681 1141.7 454.688 1140.96 453.956C1140.23 453.223 1139.24 452.812 1138.2 452.811H786.689Z" fill="#666666"/>
<path d="M832.254 527.652C847.353 527.652 859.594 515.412 859.594 500.313C859.594 485.213 847.353 472.973 832.254 472.973C817.155 472.973 804.914 485.213 804.914 500.313C804.914 515.412 817.155 527.652 832.254 527.652Z" fill="#666666"/>
<path d="M895.396 482.088C894.792 482.077 894.191 482.188 893.629 482.412C893.068 482.637 892.557 482.971 892.125 483.395C891.694 483.819 891.352 484.325 891.118 484.883C890.884 485.44 890.764 486.039 890.764 486.644C890.764 487.249 890.884 487.848 891.118 488.405C891.352 488.963 891.694 489.469 892.125 489.893C892.557 490.317 893.068 490.651 893.629 490.876C894.191 491.1 894.792 491.21 895.396 491.2H1110.22C1110.82 491.212 1111.41 491.105 1111.97 490.886C1112.53 490.666 1113.04 490.339 1113.47 489.923C1113.9 489.507 1114.24 489.009 1114.48 488.46C1114.72 487.91 1114.85 487.318 1114.86 486.719C1114.87 486.12 1114.76 485.524 1114.54 484.967C1114.32 484.41 1113.99 483.901 1113.57 483.471C1113.16 483.041 1112.66 482.697 1112.11 482.46C1111.56 482.222 1110.97 482.096 1110.37 482.088H895.399H895.396Z" fill="#E6E6E6"/>
<path d="M895.397 509.428C894.188 509.428 893.029 509.908 892.175 510.763C891.32 511.618 890.84 512.777 890.84 513.985C890.84 515.194 891.32 516.353 892.175 517.208C893.029 518.062 894.188 518.542 895.397 518.542H1110.22C1110.82 518.554 1111.41 518.447 1111.97 518.228C1112.53 518.008 1113.04 517.681 1113.47 517.265C1113.9 516.849 1114.25 516.351 1114.48 515.802C1114.72 515.252 1114.85 514.66 1114.86 514.061C1114.87 513.462 1114.76 512.866 1114.54 512.309C1114.32 511.752 1113.99 511.243 1113.57 510.813C1113.16 510.383 1112.66 510.039 1112.11 509.802C1111.56 509.564 1110.97 509.438 1110.37 509.43H895.399L895.397 509.428Z" fill="#E6E6E6"/>
<path d="M1138.2 404.597H786.689C784.963 404.595 783.308 403.909 782.088 402.689C780.868 401.468 780.181 399.814 780.179 398.088V310.893C780.181 309.167 780.868 307.512 782.088 306.292C783.308 305.072 784.963 304.385 786.689 304.383H1138.2C1139.93 304.385 1141.58 305.072 1142.8 306.292C1144.02 307.512 1144.71 309.167 1144.71 310.893V398.089C1144.71 399.815 1144.02 401.469 1142.8 402.689C1141.58 403.909 1139.93 404.595 1138.2 404.597ZM786.689 306.987C785.653 306.988 784.66 307.4 783.928 308.132C783.196 308.864 782.784 309.857 782.783 310.893V398.089C782.784 399.125 783.196 400.118 783.928 400.85C784.66 401.582 785.653 401.994 786.689 401.995H1138.2C1139.24 401.994 1140.23 401.582 1140.96 400.85C1141.7 400.118 1142.11 399.125 1142.11 398.089V310.893C1142.11 309.857 1141.7 308.864 1140.96 308.132C1140.23 307.4 1139.24 306.988 1138.2 306.987H786.689Z" fill="#666666"/>
<path d="M832.254 381.829C847.353 381.829 859.594 369.588 859.594 354.489C859.594 339.389 847.353 327.149 832.254 327.149C817.155 327.149 804.914 339.389 804.914 354.489C804.914 369.588 817.155 381.829 832.254 381.829Z" fill="#666666"/>
<path d="M895.396 336.264C894.792 336.254 894.191 336.364 893.629 336.589C893.068 336.813 892.557 337.147 892.125 337.571C891.694 337.995 891.352 338.501 891.118 339.059C890.884 339.617 890.764 340.215 890.764 340.82C890.764 341.425 890.884 342.024 891.118 342.582C891.352 343.139 891.694 343.645 892.125 344.069C892.557 344.493 893.068 344.827 893.629 345.052C894.191 345.276 894.792 345.387 895.396 345.377H1110.22C1110.82 345.388 1111.41 345.281 1111.97 345.062C1112.53 344.843 1113.04 344.516 1113.47 344.099C1113.9 343.683 1114.24 343.186 1114.48 342.636C1114.72 342.086 1114.85 341.495 1114.86 340.895C1114.87 340.296 1114.76 339.701 1114.54 339.143C1114.32 338.586 1113.99 338.077 1113.57 337.647C1113.16 337.217 1112.66 336.873 1112.11 336.636C1111.56 336.399 1110.97 336.272 1110.37 336.264H895.399H895.396Z" fill="#E6E6E6"/>
<path d="M895.397 363.604C894.188 363.604 893.029 364.085 892.175 364.939C891.32 365.794 890.84 366.953 890.84 368.162C890.84 369.37 891.32 370.529 892.175 371.384C893.029 372.239 894.188 372.719 895.397 372.719H1110.22C1110.82 372.73 1111.41 372.623 1111.97 372.404C1112.53 372.185 1113.04 371.857 1113.47 371.441C1113.9 371.025 1114.25 370.528 1114.48 369.978C1114.72 369.428 1114.85 368.837 1114.86 368.237C1114.87 367.638 1114.76 367.042 1114.54 366.485C1114.32 365.928 1113.99 365.419 1113.57 364.989C1113.16 364.559 1112.66 364.215 1112.11 363.978C1111.56 363.741 1110.97 363.614 1110.37 363.606H895.399L895.397 363.604Z" fill="#E6E6E6"/>
<path d="M1138.2 842.059H786.689C784.963 842.057 783.308 841.37 782.088 840.15C780.868 838.93 780.181 837.275 780.179 835.549V748.354C780.181 746.628 780.868 744.974 782.088 743.754C783.308 742.533 784.963 741.847 786.689 741.845H1138.2C1139.93 741.847 1141.58 742.533 1142.8 743.754C1144.02 744.974 1144.71 746.628 1144.71 748.354V835.551C1144.71 837.276 1144.02 838.93 1142.8 840.15C1141.58 841.37 1139.93 842.057 1138.2 842.059ZM786.689 744.448C785.653 744.449 784.66 744.861 783.928 745.593C783.196 746.326 782.784 747.318 782.783 748.354V835.551C782.784 836.586 783.196 837.579 783.928 838.311C784.66 839.044 785.653 839.456 786.689 839.457H1138.2C1139.24 839.456 1140.23 839.044 1140.96 838.311C1141.7 837.579 1142.11 836.586 1142.11 835.551V748.354C1142.11 747.318 1141.7 746.326 1140.96 745.593C1140.23 744.861 1139.24 744.449 1138.2 744.448H786.689Z" fill="#666666"/>
<path d="M832.254 819.292C847.353 819.292 859.594 807.051 859.594 791.952C859.594 776.852 847.353 764.612 832.254 764.612C817.155 764.612 804.914 776.852 804.914 791.952C804.914 807.051 817.155 819.292 832.254 819.292Z" fill="#666666"/>
<path d="M895.397 773.726C894.188 773.726 893.029 774.206 892.175 775.061C891.32 775.915 890.84 777.075 890.84 778.283C890.84 779.492 891.32 780.651 892.175 781.506C893.029 782.36 894.188 782.84 895.397 782.84H1110.22C1110.82 782.852 1111.41 782.745 1111.97 782.525C1112.53 782.306 1113.04 781.979 1113.47 781.563C1113.9 781.146 1114.25 780.649 1114.48 780.099C1114.72 779.55 1114.85 778.958 1114.86 778.359C1114.87 777.759 1114.76 777.164 1114.54 776.607C1114.32 776.049 1113.99 775.541 1113.57 775.111C1113.16 774.681 1112.66 774.337 1112.11 774.1C1111.56 773.862 1110.97 773.736 1110.37 773.727H895.399L895.397 773.726Z" fill="#E6E6E6"/>
<path d="M895.397 801.066C894.188 801.066 893.029 801.546 892.175 802.401C891.32 803.255 890.84 804.414 890.84 805.623C890.84 806.832 891.32 807.991 892.175 808.845C893.029 809.7 894.188 810.18 895.397 810.18H1110.22C1110.82 810.191 1111.41 810.084 1111.97 809.865C1112.53 809.646 1113.04 809.319 1113.47 808.903C1113.9 808.486 1114.25 807.989 1114.48 807.439C1114.72 806.89 1114.85 806.298 1114.86 805.699C1114.87 805.099 1114.76 804.504 1114.54 803.947C1114.32 803.389 1113.99 802.881 1113.57 802.451C1113.16 802.02 1112.66 801.677 1112.11 801.439C1111.56 801.202 1110.97 801.076 1110.37 801.067H895.399L895.397 801.066Z" fill="#E6E6E6"/>
<path d="M578.194 366.364H574.554V266.688C574.554 251.388 568.476 236.715 557.657 225.896C546.839 215.078 532.166 209 516.866 209H305.688C290.388 209 275.715 215.078 264.896 225.896C254.078 236.715 248 251.388 248 266.688V813.519C248 828.819 254.078 843.492 264.896 854.31C275.715 865.129 290.388 871.207 305.688 871.207H516.866C532.166 871.207 546.839 865.129 557.657 854.31C568.476 843.492 574.554 828.819 574.554 813.519V437.315H578.194V366.364Z" fill="#FF5200" fill-opacity="0.5"/>
<path d="M519.193 224.007H491.628C492.896 227.115 493.38 230.487 493.038 233.827C492.696 237.166 491.538 240.37 489.665 243.157C487.793 245.943 485.264 248.226 482.301 249.804C479.339 251.383 476.033 252.209 472.676 252.208H351.696C348.339 252.208 345.034 251.382 342.072 249.804C339.11 248.226 336.581 245.943 334.709 243.157C332.837 240.371 331.678 237.168 331.336 233.829C330.994 230.489 331.477 227.117 332.745 224.01H306.995C295.569 224.01 284.611 228.549 276.531 236.628C268.452 244.708 263.913 255.666 263.913 267.092V813.117C263.913 824.543 268.452 835.501 276.531 843.581C284.611 851.66 295.569 856.199 306.995 856.199H519.185C530.611 856.199 541.569 851.66 549.649 843.581C557.728 835.501 562.268 824.543 562.268 813.117V267.089C562.268 255.663 557.728 244.705 549.649 236.625C541.569 228.546 530.611 224.007 519.185 224.007H519.193Z" fill="white"/>
<g opacity="0.8">
<path d="M544.766 576.124H290.339C289.09 576.123 287.892 575.626 287.009 574.743C286.126 573.86 285.629 572.662 285.627 571.413V508.301C285.629 507.052 286.126 505.854 287.009 504.971C287.892 504.088 289.09 503.591 290.339 503.589H544.766C546.015 503.591 547.213 504.088 548.096 504.971C548.98 505.854 549.476 507.052 549.478 508.301V571.414C549.476 572.663 548.979 573.86 548.096 574.743C547.213 575.626 546.015 576.123 544.766 576.124ZM290.339 505.474C289.589 505.474 288.871 505.773 288.341 506.303C287.811 506.833 287.513 507.551 287.512 508.301V571.414C287.513 572.163 287.811 572.882 288.341 573.412C288.871 573.942 289.589 574.24 290.339 574.241H544.766C545.516 574.24 546.235 573.942 546.765 573.412C547.295 572.882 547.593 572.163 547.593 571.414V508.301C547.593 507.551 547.295 506.833 546.765 506.303C546.235 505.773 545.516 505.474 544.766 505.474H290.339Z" fill="#CCCCCC"/>
<path d="M323.319 559.645C334.248 559.645 343.108 550.785 343.108 539.856C343.108 528.927 334.248 520.067 323.319 520.067C312.39 520.067 303.53 528.927 303.53 539.856C303.53 550.785 312.39 559.645 323.319 559.645Z" fill="#CCCCCC"/>
<path d="M369.022 526.665C368.584 526.657 368.15 526.737 367.743 526.9C367.337 527.062 366.967 527.304 366.654 527.611C366.342 527.918 366.095 528.284 365.925 528.688C365.756 529.091 365.669 529.525 365.669 529.962C365.669 530.4 365.756 530.834 365.925 531.237C366.095 531.641 366.342 532.007 366.654 532.314C366.967 532.621 367.337 532.863 367.743 533.025C368.15 533.188 368.584 533.268 369.022 533.26H524.51C524.944 533.269 525.375 533.191 525.779 533.033C526.182 532.874 526.551 532.637 526.863 532.336C527.175 532.035 527.425 531.675 527.598 531.277C527.771 530.879 527.863 530.451 527.87 530.017C527.877 529.583 527.799 529.152 527.639 528.749C527.48 528.345 527.242 527.977 526.94 527.666C526.638 527.354 526.277 527.106 525.879 526.934C525.48 526.762 525.052 526.671 524.618 526.665H369.024H369.022Z" fill="#E6E6E6"/>
<path d="M369.023 546.454C368.148 546.454 367.309 546.801 366.69 547.42C366.072 548.038 365.724 548.877 365.724 549.752C365.724 550.627 366.072 551.466 366.69 552.084C367.309 552.703 368.148 553.05 369.023 553.05H524.51C524.944 553.059 525.375 552.981 525.779 552.823C526.183 552.664 526.551 552.427 526.863 552.126C527.176 551.825 527.425 551.465 527.598 551.067C527.771 550.669 527.864 550.241 527.871 549.807C527.878 549.373 527.799 548.942 527.64 548.539C527.48 548.135 527.242 547.767 526.94 547.456C526.638 547.144 526.277 546.896 525.879 546.724C525.481 546.552 525.052 546.461 524.618 546.455H369.024L369.023 546.454Z" fill="#E6E6E6"/>
</g>
<path d="M1672.58 362.177H1668.85V260.086C1668.85 244.415 1662.63 229.387 1651.55 218.306C1640.47 207.225 1625.44 201 1609.77 201H1393.47C1377.8 201 1362.77 207.225 1351.69 218.306C1340.61 229.387 1334.39 244.415 1334.39 260.086V820.165C1334.39 835.836 1340.61 850.864 1351.69 861.945C1362.77 873.026 1377.8 879.251 1393.47 879.251H1609.77C1625.44 879.251 1640.47 873.026 1651.55 861.945C1662.63 850.864 1668.85 835.836 1668.85 820.165V434.846H1672.58V362.177Z" fill="#FF5200" fill-opacity="0.5"/>
<path d="M1612.15 216.371H1583.92C1585.22 219.554 1585.71 223.008 1585.36 226.429C1585.01 229.849 1583.83 233.131 1581.91 235.984C1579.99 238.838 1577.4 241.176 1574.37 242.793C1571.33 244.41 1567.95 245.256 1564.51 245.256H1440.6C1437.16 245.255 1433.77 244.41 1430.74 242.793C1427.7 241.176 1425.11 238.838 1423.2 235.985C1421.28 233.131 1420.09 229.85 1419.74 226.43C1419.39 223.01 1419.89 219.557 1421.19 216.373H1394.81C1383.11 216.373 1371.88 221.022 1363.61 229.298C1355.33 237.573 1350.69 248.797 1350.69 260.499V819.754C1350.69 831.457 1355.33 842.681 1363.61 850.956C1371.88 859.231 1383.11 863.88 1394.81 863.88H1612.14C1623.85 863.88 1635.07 859.231 1643.34 850.956C1651.62 842.681 1656.27 831.457 1656.27 819.754V260.497C1656.27 248.794 1651.62 237.57 1643.34 229.295C1635.07 221.02 1623.85 216.371 1612.14 216.371H1612.15Z" fill="white"/>
<g opacity="0.8">
<path d="M1638.18 577H1377.82C1376.54 576.998 1375.32 576.382 1374.41 575.286C1373.51 574.19 1373 572.704 1373 571.154V492.846C1373 491.296 1373.51 489.81 1374.41 488.714C1375.32 487.618 1376.54 487.002 1377.82 487H1638.18C1639.46 487.002 1640.68 487.618 1641.59 488.714C1642.49 489.81 1643 491.296 1643 492.846V571.155C1643 572.705 1642.49 574.19 1641.59 575.286C1640.68 576.382 1639.46 576.998 1638.18 577ZM1377.82 489.338C1377.05 489.339 1376.32 489.709 1375.78 490.367C1375.23 491.024 1374.93 491.916 1374.93 492.846V571.155C1374.93 572.085 1375.23 572.977 1375.78 573.635C1376.32 574.292 1377.05 574.662 1377.82 574.663H1638.18C1638.95 574.662 1639.68 574.292 1640.22 573.635C1640.77 572.977 1641.07 572.085 1641.07 571.155V492.846C1641.07 491.916 1640.77 491.024 1640.22 490.367C1639.68 489.709 1638.95 489.339 1638.18 489.338H1377.82Z" fill="#CCCCCC"/>
<path d="M1458.34 526.361C1457.89 526.353 1457.45 526.435 1457.03 526.602C1456.61 526.768 1456.24 527.016 1455.92 527.33C1455.6 527.644 1455.34 528.019 1455.17 528.433C1455 528.846 1454.91 529.29 1454.91 529.739C1454.91 530.187 1455 530.631 1455.17 531.044C1455.34 531.458 1455.6 531.833 1455.92 532.147C1456.24 532.462 1456.61 532.709 1457.03 532.876C1457.45 533.042 1457.89 533.124 1458.34 533.117H1617.6C1618.04 533.125 1618.48 533.046 1618.9 532.883C1619.31 532.721 1619.69 532.478 1620.01 532.17C1620.33 531.861 1620.58 531.492 1620.76 531.085C1620.94 530.677 1621.03 530.239 1621.04 529.794C1621.04 529.35 1620.96 528.909 1620.8 528.495C1620.64 528.082 1620.39 527.705 1620.08 527.386C1619.77 527.067 1619.41 526.813 1619 526.637C1618.59 526.461 1618.15 526.367 1617.71 526.361H1458.34H1458.34Z" fill="#E6E6E6"/>
<path d="M1458.34 506.361C1457.89 506.353 1457.45 506.435 1457.03 506.602C1456.61 506.768 1456.24 507.016 1455.92 507.33C1455.6 507.644 1455.34 508.019 1455.17 508.433C1455 508.846 1454.91 509.29 1454.91 509.739C1454.91 510.187 1455 510.631 1455.17 511.044C1455.34 511.458 1455.6 511.833 1455.92 512.147C1456.24 512.462 1456.61 512.709 1457.03 512.876C1457.45 513.042 1457.89 513.124 1458.34 513.117H1617.6C1618.04 513.125 1618.48 513.046 1618.9 512.883C1619.31 512.721 1619.69 512.478 1620.01 512.17C1620.33 511.861 1620.58 511.492 1620.76 511.085C1620.94 510.677 1621.03 510.239 1621.04 509.794C1621.04 509.35 1620.96 508.909 1620.8 508.495C1620.64 508.082 1620.39 507.705 1620.08 507.386C1619.77 507.067 1619.41 506.813 1619 506.637C1618.59 506.461 1618.15 506.367 1617.71 506.361H1458.34H1458.34Z" fill="#E6E6E6"/>
<path d="M1458.34 546.629C1457.44 546.629 1456.58 546.985 1455.95 547.619C1455.32 548.252 1454.96 549.112 1454.96 550.008C1454.96 550.904 1455.32 551.763 1455.95 552.397C1456.58 553.03 1457.44 553.386 1458.34 553.386H1617.6C1618.04 553.394 1618.48 553.315 1618.89 553.153C1619.31 552.99 1619.69 552.748 1620.01 552.439C1620.33 552.13 1620.58 551.762 1620.76 551.354C1620.93 550.947 1621.03 550.508 1621.04 550.064C1621.04 549.619 1620.96 549.178 1620.8 548.765C1620.64 548.352 1620.39 547.975 1620.08 547.656C1619.77 547.337 1619.41 547.082 1619 546.906C1618.59 546.73 1618.15 546.637 1617.71 546.63H1458.34L1458.34 546.629Z" fill="#E6E6E6"/>
<path d="M1413.2 510.227C1415.12 506.893 1419.93 506.893 1421.86 510.227L1445.72 551.549C1447.64 554.882 1445.24 559.049 1441.39 559.049H1393.67C1389.82 559.049 1387.42 554.882 1389.34 551.549L1413.2 510.227Z" fill="#FF5200"/>
<path d="M1416.58 538.212L1416.2 528.7L1416.11 525.684H1418.96L1418.87 528.7L1418.49 538.212H1416.58ZM1417.53 545.462C1416.9 545.462 1416.35 545.239 1415.88 544.795C1415.44 544.35 1415.21 543.76 1415.21 543.026C1415.21 542.291 1415.44 541.711 1415.88 541.286C1416.35 540.841 1416.9 540.619 1417.53 540.619C1418.19 540.619 1418.74 540.841 1419.19 541.286C1419.63 541.711 1419.85 542.291 1419.85 543.026C1419.85 543.76 1419.63 544.35 1419.19 544.795C1418.74 545.239 1418.19 545.462 1417.53 545.462Z" fill="white"/>
</g>
</svg>
