<svg width="1920" height="1080" viewBox="0 0 1920 1080" fill="none" xmlns="http://www.w3.org/2000/svg">
<rect width="1920" height="1080" fill="white"/>
<g opacity="0.5" filter="url(#filter0_d_303_2)">
<circle cx="514.5" cy="539.5" r="288.5" fill="#FFDDCC"/>
<circle cx="514.5" cy="539.5" r="285" stroke="#FF5200" stroke-width="7"/>
</g>
<g opacity="0.5" filter="url(#filter1_d_303_2)">
<ellipse cx="917.5" cy="539.5" rx="287.5" ry="288.5" fill="#FFDDCC"/>
<path d="M1201.5 539.5C1201.5 696.913 1074.34 824.5 917.5 824.5C760.663 824.5 633.5 696.913 633.5 539.5C633.5 382.087 760.663 254.5 917.5 254.5C1074.34 254.5 1201.5 382.087 1201.5 539.5Z" stroke="#FF5200" stroke-width="7"/>
</g>
<g opacity="0.5" filter="url(#filter2_d_303_2)">
<circle cx="1369.5" cy="539.5" r="288.5" fill="#FFDDCC"/>
<circle cx="1369.5" cy="539.5" r="285" stroke="#FF5200" stroke-width="7"/>
</g>
<path d="M266.363 894.804C264.264 894.804 262.366 894.424 260.668 893.665C259.016 892.861 257.698 891.767 256.715 890.382C255.777 888.953 255.308 887.278 255.308 885.357C255.308 881.694 257.095 878.903 260.668 876.982C264.286 875.061 270.205 873.788 278.423 873.163C278.379 871.823 278.066 870.595 277.485 869.478C276.949 868.361 276.078 867.49 274.872 866.865C273.711 866.195 272.17 865.86 270.249 865.86C268.909 865.86 267.592 866.039 266.296 866.396C265.001 866.709 263.75 867.155 262.544 867.736C261.338 868.317 260.199 868.92 259.127 869.545L256.648 865.056C257.854 864.341 259.239 863.627 260.802 862.912C262.366 862.153 264.041 861.55 265.827 861.103C267.659 860.656 269.512 860.433 271.388 860.433C274.426 860.433 276.949 860.991 278.959 862.108C280.969 863.225 282.488 864.81 283.515 866.865C284.543 868.92 285.056 871.399 285.056 874.302V894H279.629L279.093 889.779H278.892C277.15 891.119 275.185 892.303 272.996 893.33C270.808 894.313 268.597 894.804 266.363 894.804ZM268.239 889.511C269.981 889.511 271.701 889.131 273.398 888.372C275.096 887.613 276.771 886.541 278.423 885.156V877.384C274.135 877.697 270.763 878.188 268.306 878.858C265.894 879.528 264.197 880.377 263.214 881.404C262.232 882.387 261.74 883.548 261.74 884.888C261.74 885.96 262.031 886.853 262.611 887.568C263.237 888.238 264.041 888.729 265.023 889.042C266.006 889.355 267.078 889.511 268.239 889.511ZM292.199 894L285.499 861.237H292.065L295.415 879.26C295.728 880.779 295.996 882.297 296.219 883.816C296.442 885.335 296.643 886.876 296.822 888.439H297.09C297.313 886.876 297.581 885.335 297.894 883.816C298.207 882.297 298.519 880.779 298.832 879.26L302.383 863.917H308.279L311.763 879.26C312.076 880.779 312.411 882.297 312.768 883.816C313.17 885.335 313.46 886.876 313.639 888.439H313.907C314.175 886.876 314.398 885.335 314.577 883.816C314.756 882.297 314.979 880.779 315.247 879.26L318.597 861.237H324.761L318.262 894H310.021L306.805 879.662C306.537 878.456 306.269 877.049 306.001 875.441C305.778 873.833 305.532 872.024 305.264 870.014H304.996C304.773 871.89 304.527 873.632 304.259 875.24C304.036 876.803 303.79 878.277 303.522 879.662L300.373 894H292.199ZM335.991 894.804C333.892 894.804 331.993 894.424 330.296 893.665C328.643 892.861 327.326 891.767 326.343 890.382C325.405 888.953 324.936 887.278 324.936 885.357C324.936 881.694 326.723 878.903 330.296 876.982C333.914 875.061 339.832 873.788 348.051 873.163C348.006 871.823 347.694 870.595 347.113 869.478C346.577 868.361 345.706 867.49 344.5 866.865C343.339 866.195 341.798 865.86 339.877 865.86C338.537 865.86 337.219 866.039 335.924 866.396C334.629 866.709 333.378 867.155 332.172 867.736C330.966 868.317 329.827 868.92 328.755 869.545L326.276 865.056C327.482 864.341 328.867 863.627 330.43 862.912C331.993 862.153 333.668 861.55 335.455 861.103C337.286 860.656 339.14 860.433 341.016 860.433C344.053 860.433 346.577 860.991 348.587 862.108C350.597 863.225 352.116 864.81 353.143 866.865C354.17 868.92 354.684 871.399 354.684 874.302V894H349.257L348.721 889.779H348.52C346.778 891.119 344.813 892.303 342.624 893.33C340.435 894.313 338.224 894.804 335.991 894.804ZM337.867 889.511C339.609 889.511 341.329 889.131 343.026 888.372C344.723 887.613 346.398 886.541 348.051 885.156V877.384C343.763 877.697 340.391 878.188 337.934 878.858C335.522 879.528 333.825 880.377 332.842 881.404C331.859 882.387 331.368 883.548 331.368 884.888C331.368 885.96 331.658 886.853 332.239 887.568C332.864 888.238 333.668 888.729 334.651 889.042C335.634 889.355 336.706 889.511 337.867 889.511ZM375.16 894V866.597H360.487V861.237H381.793V894H375.16ZM377.907 854.872C376.477 854.872 375.294 854.448 374.356 853.599C373.418 852.706 372.949 851.544 372.949 850.115C372.949 848.686 373.418 847.547 374.356 846.698C375.294 845.805 376.477 845.358 377.907 845.358C379.336 845.358 380.52 845.805 381.458 846.698C382.396 847.547 382.865 848.686 382.865 850.115C382.865 851.544 382.396 852.706 381.458 853.599C380.52 854.448 379.336 854.872 377.907 854.872ZM415.803 894.804C412.497 894.804 409.884 894.223 407.964 893.062C406.088 891.901 404.748 890.293 403.944 888.238C403.14 886.183 402.738 883.794 402.738 881.069V866.597H393.76V861.639L403.006 861.237L403.877 850.919H409.371V861.237H424.848V866.597H409.371V881.069C409.371 882.9 409.616 884.464 410.108 885.759C410.599 887.01 411.425 887.948 412.587 888.573C413.748 889.154 415.311 889.444 417.277 889.444C418.751 889.444 420.091 889.332 421.297 889.109C422.503 888.841 423.664 888.506 424.781 888.104L426.121 892.928C424.647 893.419 423.061 893.844 421.364 894.201C419.711 894.603 417.857 894.804 415.803 894.804ZM478.596 908.807C475.514 908.807 472.834 908.45 470.556 907.735C468.323 907.065 466.603 906.06 465.397 904.72C464.191 903.425 463.588 901.817 463.588 899.896C463.588 898.556 464.035 897.261 464.928 896.01C465.822 894.804 467.139 893.732 468.881 892.794V892.526C468.033 891.99 467.251 891.298 466.536 890.449C465.866 889.6 465.531 888.484 465.531 887.099C465.531 886.027 465.866 884.955 466.536 883.883C467.251 882.766 468.211 881.784 469.417 880.935V880.667C468.301 879.818 467.34 878.679 466.536 877.25C465.732 875.821 465.33 874.146 465.33 872.225C465.33 869.768 465.933 867.669 467.139 865.927C468.39 864.185 469.998 862.845 471.963 861.907C473.973 860.924 476.162 860.433 478.529 860.433C480.405 860.433 482.058 860.701 483.487 861.237H496.954V866.463H488.981C489.651 867.178 490.21 868.071 490.656 869.143C491.148 870.17 491.393 871.265 491.393 872.426C491.393 874.838 490.813 876.87 489.651 878.523C488.535 880.176 486.994 881.449 485.028 882.342C483.108 883.191 480.941 883.615 478.529 883.615C477.725 883.615 476.854 883.526 475.916 883.347C475.023 883.168 474.13 882.9 473.236 882.543C472.522 883.034 471.963 883.548 471.561 884.084C471.159 884.62 470.958 885.245 470.958 885.96C470.958 887.121 471.517 887.992 472.633 888.573C473.75 889.109 475.358 889.377 477.457 889.377H484.425C488.669 889.377 491.84 889.98 493.939 891.186C496.083 892.392 497.155 894.402 497.155 897.216C497.155 899.315 496.396 901.236 494.877 902.978C493.359 904.765 491.215 906.172 488.445 907.199C485.676 908.271 482.393 908.807 478.596 908.807ZM478.529 879.327C479.78 879.327 480.919 879.059 481.946 878.523C482.974 877.942 483.8 877.116 484.425 876.044C485.051 874.972 485.363 873.699 485.363 872.225C485.363 870.796 485.051 869.567 484.425 868.54C483.8 867.468 482.974 866.642 481.946 866.061C480.919 865.436 479.78 865.123 478.529 865.123C477.279 865.123 476.117 865.436 475.045 866.061C474.018 866.642 473.192 867.468 472.566 868.54C471.941 869.567 471.628 870.796 471.628 872.225C471.628 873.699 471.941 874.972 472.566 876.044C473.192 877.116 474.018 877.942 475.045 878.523C476.117 879.059 477.279 879.327 478.529 879.327ZM479.266 904.184C481.634 904.184 483.666 903.894 485.363 903.313C487.061 902.777 488.356 902.062 489.249 901.169C490.187 900.32 490.656 899.382 490.656 898.355C490.656 896.881 490.076 895.898 488.914 895.407C487.753 894.96 486.011 894.737 483.688 894.737H477.859C476.832 894.737 475.916 894.692 475.112 894.603C474.308 894.514 473.571 894.38 472.901 894.201C471.517 894.96 470.534 895.742 469.953 896.546C469.417 897.395 469.149 898.243 469.149 899.092C469.149 900.655 470.02 901.884 471.762 902.777C473.504 903.715 476.006 904.184 479.266 904.184ZM516.023 894.804C512.718 894.804 509.703 894.134 506.978 892.794C504.298 891.454 502.176 889.489 500.613 886.898C499.05 884.307 498.268 881.203 498.268 877.585C498.268 874.012 499.05 870.952 500.613 868.406C502.221 865.86 504.298 863.895 506.844 862.51C509.39 861.125 512.115 860.433 515.018 860.433C518.234 860.433 520.959 861.103 523.192 862.443C525.425 863.738 527.123 865.547 528.284 867.87C529.49 870.148 530.093 872.828 530.093 875.91C530.093 876.58 530.071 877.25 530.026 877.92C529.981 878.545 529.914 879.081 529.825 879.528H502.891V874.637H525.671L524.197 876.245C524.197 872.716 523.393 870.081 521.785 868.339C520.177 866.552 517.988 865.659 515.219 865.659C513.298 865.659 511.534 866.128 509.926 867.066C508.363 867.959 507.112 869.299 506.174 871.086C505.236 872.828 504.767 874.994 504.767 877.585C504.767 880.265 505.281 882.498 506.308 884.285C507.38 886.027 508.809 887.345 510.596 888.238C512.427 889.131 514.527 889.578 516.894 889.578C518.725 889.578 520.4 889.332 521.919 888.841C523.438 888.305 524.934 887.59 526.408 886.697L528.753 890.918C527.1 892.035 525.202 892.973 523.058 893.732C520.914 894.447 518.569 894.804 516.023 894.804ZM555.058 894.804C551.753 894.804 549.14 894.223 547.219 893.062C545.343 891.901 544.003 890.293 543.199 888.238C542.395 886.183 541.993 883.794 541.993 881.069V866.597H533.015V861.639L542.261 861.237L543.132 850.919H548.626V861.237H564.103V866.597H548.626V881.069C548.626 882.9 548.872 884.464 549.363 885.759C549.854 887.01 550.681 887.948 551.842 888.573C553.003 889.154 554.567 889.444 556.532 889.444C558.006 889.444 559.346 889.332 560.552 889.109C561.758 888.841 562.919 888.506 564.036 888.104L565.376 892.928C563.902 893.419 562.316 893.844 560.619 894.201C558.966 894.603 557.113 894.804 555.058 894.804ZM583.708 894.804C581.43 894.804 579.353 894.469 577.477 893.799C575.645 893.129 574.06 892.102 572.72 890.717C571.424 889.288 570.397 887.479 569.638 885.29C568.923 883.057 568.566 880.399 568.566 877.317V850.115H575.333V877.719C575.333 880.399 575.69 882.565 576.405 884.218C577.119 885.871 578.102 887.077 579.353 887.836C580.603 888.595 582.055 888.975 583.708 888.975C585.405 888.975 586.879 888.595 588.13 887.836C589.425 887.077 590.43 885.871 591.145 884.218C591.859 882.565 592.217 880.399 592.217 877.719V850.115H598.716V877.317C598.716 880.399 598.358 883.057 597.644 885.29C596.929 887.479 595.902 889.288 594.562 890.717C593.266 892.102 591.703 893.129 589.872 893.799C588.04 894.469 585.986 894.804 583.708 894.804ZM618.857 894.804C615.775 894.804 612.827 894.29 610.013 893.263C607.199 892.236 604.809 891.052 602.844 889.712L605.792 885.424C607.712 886.764 609.789 887.814 612.023 888.573C614.301 889.332 616.869 889.712 619.728 889.712C622.229 889.712 624.083 889.265 625.289 888.372C626.539 887.479 627.165 886.429 627.165 885.223C627.165 884.642 627.031 884.106 626.763 883.615C626.539 883.124 626.093 882.677 625.423 882.275C624.797 881.828 623.837 881.404 622.542 881.002C621.291 880.6 619.638 880.176 617.584 879.729C613.251 878.836 610.035 877.607 607.936 876.044C605.881 874.481 604.854 872.471 604.854 870.014C604.854 867.245 606.037 864.967 608.405 863.18C610.817 861.349 614.301 860.433 618.857 860.433C621.447 860.433 623.904 860.88 626.227 861.773C628.594 862.622 630.604 863.604 632.257 864.721L629.175 868.875C627.611 867.848 625.892 867.044 624.016 866.463C622.184 865.838 620.264 865.525 618.254 865.525C616.601 865.525 615.283 865.726 614.301 866.128C613.318 866.485 612.603 866.977 612.157 867.602C611.71 868.227 611.487 868.92 611.487 869.679C611.487 870.93 612.179 871.912 613.564 872.627C614.993 873.297 617.293 873.967 620.465 874.637C624.038 875.396 626.785 876.245 628.706 877.183C630.671 878.121 632.011 879.215 632.726 880.466C633.485 881.672 633.865 883.124 633.865 884.821C633.865 886.652 633.284 888.327 632.123 889.846C630.961 891.365 629.264 892.571 627.031 893.464C624.842 894.357 622.117 894.804 618.857 894.804ZM655.278 894.804C651.973 894.804 648.958 894.134 646.233 892.794C643.553 891.454 641.432 889.489 639.868 886.898C638.305 884.307 637.523 881.203 637.523 877.585C637.523 874.012 638.305 870.952 639.868 868.406C641.476 865.86 643.553 863.895 646.099 862.51C648.645 861.125 651.37 860.433 654.273 860.433C657.489 860.433 660.214 861.103 662.447 862.443C664.681 863.738 666.378 865.547 667.539 867.87C668.745 870.148 669.348 872.828 669.348 875.91C669.348 876.58 669.326 877.25 669.281 877.92C669.237 878.545 669.17 879.081 669.08 879.528H642.146V874.637H664.926L663.452 876.245C663.452 872.716 662.648 870.081 661.04 868.339C659.432 866.552 657.244 865.659 654.474 865.659C652.554 865.659 650.789 866.128 649.181 867.066C647.618 867.959 646.367 869.299 645.429 871.086C644.491 872.828 644.022 874.994 644.022 877.585C644.022 880.265 644.536 882.498 645.563 884.285C646.635 886.027 648.065 887.345 649.851 888.238C651.683 889.131 653.782 889.578 656.149 889.578C657.981 889.578 659.656 889.332 661.174 888.841C662.693 888.305 664.189 887.59 665.663 886.697L668.008 890.918C666.356 892.035 664.457 892.973 662.313 893.732C660.169 894.447 657.824 894.804 655.278 894.804ZM677.228 894V861.237H682.722L683.258 868.875H683.459C685.157 866.195 687.234 864.118 689.69 862.644C692.147 861.17 694.827 860.433 697.73 860.433C698.981 860.433 700.12 860.545 701.147 860.768C702.175 860.991 703.18 861.326 704.162 861.773L702.688 867.468C701.572 867.066 700.611 866.798 699.807 866.664C699.003 866.485 697.976 866.396 696.725 866.396C694.358 866.396 692.08 867.066 689.891 868.406C687.703 869.746 685.693 872.069 683.861 875.374V894H677.228ZM731.07 905.792C726.514 902.129 722.896 897.752 720.216 892.66C717.581 887.568 716.263 881.806 716.263 875.374C716.263 868.942 717.581 863.18 720.216 858.088C722.896 852.951 726.514 848.574 731.07 844.956L734.755 848.105C730.378 851.902 727.162 856.011 725.107 860.433C723.052 864.855 722.025 869.835 722.025 875.374C722.025 880.913 723.052 885.893 725.107 890.315C727.162 894.692 730.378 898.802 734.755 902.643L731.07 905.792ZM749.536 905.792L745.851 902.643C750.228 898.802 753.444 894.692 755.499 890.315C757.554 885.893 758.581 880.913 758.581 875.374C758.581 869.835 757.554 864.855 755.499 860.433C753.444 856.011 750.228 851.902 745.851 848.105L749.536 844.956C754.092 848.574 757.688 852.951 760.323 858.088C763.003 863.18 764.343 868.942 764.343 875.374C764.343 881.806 763.003 887.568 760.323 892.66C757.688 897.752 754.092 902.129 749.536 905.792Z" fill="#FF5200"/>
<path d="M653.456 212.804C651.357 212.804 649.459 212.424 647.761 211.665C646.109 210.861 644.791 209.767 643.808 208.382C642.87 206.953 642.401 205.278 642.401 203.357C642.401 199.694 644.188 196.903 647.761 194.982C651.379 193.061 657.298 191.788 665.516 191.163C665.472 189.823 665.159 188.595 664.578 187.478C664.042 186.361 663.171 185.49 661.965 184.865C660.804 184.195 659.263 183.86 657.342 183.86C656.002 183.86 654.685 184.039 653.389 184.396C652.094 184.709 650.843 185.155 649.637 185.736C648.431 186.317 647.292 186.92 646.22 187.545L643.741 183.056C644.947 182.341 646.332 181.627 647.895 180.912C649.459 180.153 651.134 179.55 652.92 179.103C654.752 178.656 656.605 178.433 658.481 178.433C661.519 178.433 664.042 178.991 666.052 180.108C668.062 181.225 669.581 182.81 670.608 184.865C671.636 186.92 672.149 189.399 672.149 192.302V212H666.722L666.186 207.779H665.985C664.243 209.119 662.278 210.303 660.089 211.33C657.901 212.313 655.69 212.804 653.456 212.804ZM655.332 207.511C657.074 207.511 658.794 207.131 660.491 206.372C662.189 205.613 663.864 204.541 665.516 203.156V195.384C661.228 195.697 657.856 196.188 655.399 196.858C652.987 197.528 651.29 198.377 650.307 199.404C649.325 200.387 648.833 201.548 648.833 202.888C648.833 203.96 649.124 204.853 649.704 205.568C650.33 206.238 651.134 206.729 652.116 207.042C653.099 207.355 654.171 207.511 655.332 207.511ZM679.292 212L672.592 179.237H679.158L682.508 197.26C682.821 198.779 683.089 200.297 683.312 201.816C683.536 203.335 683.737 204.876 683.915 206.439H684.183C684.407 204.876 684.675 203.335 684.987 201.816C685.3 200.297 685.613 198.779 685.925 197.26L689.476 181.917H695.372L698.856 197.26C699.169 198.779 699.504 200.297 699.861 201.816C700.263 203.335 700.554 204.876 700.732 206.439H701C701.268 204.876 701.492 203.335 701.67 201.816C701.849 200.297 702.072 198.779 702.34 197.26L705.69 179.237H711.854L705.355 212H697.114L693.898 197.662C693.63 196.456 693.362 195.049 693.094 193.441C692.871 191.833 692.625 190.024 692.357 188.014H692.089C691.866 189.89 691.62 191.632 691.352 193.24C691.129 194.803 690.883 196.277 690.615 197.662L687.466 212H679.292ZM723.084 212.804C720.985 212.804 719.086 212.424 717.389 211.665C715.736 210.861 714.419 209.767 713.436 208.382C712.498 206.953 712.029 205.278 712.029 203.357C712.029 199.694 713.816 196.903 717.389 194.982C721.007 193.061 726.925 191.788 735.144 191.163C735.099 189.823 734.787 188.595 734.206 187.478C733.67 186.361 732.799 185.49 731.593 184.865C730.432 184.195 728.891 183.86 726.97 183.86C725.63 183.86 724.312 184.039 723.017 184.396C721.722 184.709 720.471 185.155 719.265 185.736C718.059 186.317 716.92 186.92 715.848 187.545L713.369 183.056C714.575 182.341 715.96 181.627 717.523 180.912C719.086 180.153 720.761 179.55 722.548 179.103C724.379 178.656 726.233 178.433 728.109 178.433C731.146 178.433 733.67 178.991 735.68 180.108C737.69 181.225 739.209 182.81 740.236 184.865C741.263 186.92 741.777 189.399 741.777 192.302V212H736.35L735.814 207.779H735.613C733.871 209.119 731.906 210.303 729.717 211.33C727.528 212.313 725.317 212.804 723.084 212.804ZM724.96 207.511C726.702 207.511 728.422 207.131 730.119 206.372C731.816 205.613 733.491 204.541 735.144 203.156V195.384C730.856 195.697 727.484 196.188 725.027 196.858C722.615 197.528 720.918 198.377 719.935 199.404C718.952 200.387 718.461 201.548 718.461 202.888C718.461 203.96 718.751 204.853 719.332 205.568C719.957 206.238 720.761 206.729 721.744 207.042C722.727 207.355 723.799 207.511 724.96 207.511ZM762.253 212V184.597H747.58V179.237H768.886V212H762.253ZM765 172.872C763.571 172.872 762.387 172.448 761.449 171.599C760.511 170.706 760.042 169.544 760.042 168.115C760.042 166.686 760.511 165.547 761.449 164.698C762.387 163.805 763.571 163.358 765 163.358C766.429 163.358 767.613 163.805 768.551 164.698C769.489 165.547 769.958 166.686 769.958 168.115C769.958 169.544 769.489 170.706 768.551 171.599C767.613 172.448 766.429 172.872 765 172.872ZM802.896 212.804C799.59 212.804 796.977 212.223 795.057 211.062C793.181 209.901 791.841 208.293 791.037 206.238C790.233 204.183 789.831 201.794 789.831 199.069V184.597H780.853V179.639L790.099 179.237L790.97 168.919H796.464V179.237H811.941V184.597H796.464V199.069C796.464 200.9 796.709 202.464 797.201 203.759C797.692 205.01 798.518 205.948 799.68 206.573C800.841 207.154 802.404 207.444 804.37 207.444C805.844 207.444 807.184 207.332 808.39 207.109C809.596 206.841 810.757 206.506 811.874 206.104L813.214 210.928C811.74 211.419 810.154 211.844 808.457 212.201C806.804 212.603 804.95 212.804 802.896 212.804ZM865.689 226.807C862.607 226.807 859.927 226.45 857.649 225.735C855.416 225.065 853.696 224.06 852.49 222.72C851.284 221.425 850.681 219.817 850.681 217.896C850.681 216.556 851.128 215.261 852.021 214.01C852.915 212.804 854.232 211.732 855.974 210.794V210.526C855.126 209.99 854.344 209.298 853.629 208.449C852.959 207.6 852.624 206.484 852.624 205.099C852.624 204.027 852.959 202.955 853.629 201.883C854.344 200.766 855.304 199.784 856.51 198.935V198.667C855.394 197.818 854.433 196.679 853.629 195.25C852.825 193.821 852.423 192.146 852.423 190.225C852.423 187.768 853.026 185.669 854.232 183.927C855.483 182.185 857.091 180.845 859.056 179.907C861.066 178.924 863.255 178.433 865.622 178.433C867.498 178.433 869.151 178.701 870.58 179.237H884.047V184.463H876.074C876.744 185.178 877.303 186.071 877.749 187.143C878.241 188.17 878.486 189.265 878.486 190.426C878.486 192.838 877.906 194.87 876.744 196.523C875.628 198.176 874.087 199.449 872.121 200.342C870.201 201.191 868.034 201.615 865.622 201.615C864.818 201.615 863.947 201.526 863.009 201.347C862.116 201.168 861.223 200.9 860.329 200.543C859.615 201.034 859.056 201.548 858.654 202.084C858.252 202.62 858.051 203.245 858.051 203.96C858.051 205.121 858.61 205.992 859.726 206.573C860.843 207.109 862.451 207.377 864.55 207.377H871.518C875.762 207.377 878.933 207.98 881.032 209.186C883.176 210.392 884.248 212.402 884.248 215.216C884.248 217.315 883.489 219.236 881.97 220.978C880.452 222.765 878.308 224.172 875.538 225.199C872.769 226.271 869.486 226.807 865.689 226.807ZM865.622 197.327C866.873 197.327 868.012 197.059 869.039 196.523C870.067 195.942 870.893 195.116 871.518 194.044C872.144 192.972 872.456 191.699 872.456 190.225C872.456 188.796 872.144 187.567 871.518 186.54C870.893 185.468 870.067 184.642 869.039 184.061C868.012 183.436 866.873 183.123 865.622 183.123C864.372 183.123 863.21 183.436 862.138 184.061C861.111 184.642 860.285 185.468 859.659 186.54C859.034 187.567 858.721 188.796 858.721 190.225C858.721 191.699 859.034 192.972 859.659 194.044C860.285 195.116 861.111 195.942 862.138 196.523C863.21 197.059 864.372 197.327 865.622 197.327ZM866.359 222.184C868.727 222.184 870.759 221.894 872.456 221.313C874.154 220.777 875.449 220.062 876.342 219.169C877.28 218.32 877.749 217.382 877.749 216.355C877.749 214.881 877.169 213.898 876.007 213.407C874.846 212.96 873.104 212.737 870.781 212.737H864.952C863.925 212.737 863.009 212.692 862.205 212.603C861.401 212.514 860.664 212.38 859.994 212.201C858.61 212.96 857.627 213.742 857.046 214.546C856.51 215.395 856.242 216.243 856.242 217.092C856.242 218.655 857.113 219.884 858.855 220.777C860.597 221.715 863.099 222.184 866.359 222.184ZM903.116 212.804C899.811 212.804 896.796 212.134 894.071 210.794C891.391 209.454 889.27 207.489 887.706 204.898C886.143 202.307 885.361 199.203 885.361 195.585C885.361 192.012 886.143 188.952 887.706 186.406C889.314 183.86 891.391 181.895 893.937 180.51C896.483 179.125 899.208 178.433 902.111 178.433C905.327 178.433 908.052 179.103 910.285 180.443C912.519 181.738 914.216 183.547 915.377 185.87C916.583 188.148 917.186 190.828 917.186 193.91C917.186 194.58 917.164 195.25 917.119 195.92C917.075 196.545 917.008 197.081 916.918 197.528H889.984V192.637H912.764L911.29 194.245C911.29 190.716 910.486 188.081 908.878 186.339C907.27 184.552 905.082 183.659 902.312 183.659C900.392 183.659 898.627 184.128 897.019 185.066C895.456 185.959 894.205 187.299 893.267 189.086C892.329 190.828 891.86 192.994 891.86 195.585C891.86 198.265 892.374 200.498 893.401 202.285C894.473 204.027 895.903 205.345 897.689 206.238C899.521 207.131 901.62 207.578 903.987 207.578C905.819 207.578 907.494 207.332 909.012 206.841C910.531 206.305 912.027 205.59 913.501 204.697L915.846 208.918C914.194 210.035 912.295 210.973 910.151 211.732C908.007 212.447 905.662 212.804 903.116 212.804ZM942.151 212.804C938.846 212.804 936.233 212.223 934.312 211.062C932.436 209.901 931.096 208.293 930.292 206.238C929.488 204.183 929.086 201.794 929.086 199.069V184.597H920.108V179.639L929.354 179.237L930.225 168.919H935.719V179.237H951.196V184.597H935.719V199.069C935.719 200.9 935.965 202.464 936.456 203.759C936.947 205.01 937.774 205.948 938.935 206.573C940.096 207.154 941.66 207.444 943.625 207.444C945.099 207.444 946.439 207.332 947.645 207.109C948.851 206.841 950.012 206.506 951.129 206.104L952.469 210.928C950.995 211.419 949.409 211.844 947.712 212.201C946.059 212.603 944.206 212.804 942.151 212.804ZM967.384 212V173.743H953.247V168.115H988.221V173.743H974.084V212H967.384ZM1005.55 212.804C1002.69 212.804 1000.01 212.134 997.508 210.794C995.051 209.454 993.041 207.511 991.478 204.965C989.959 202.374 989.2 199.27 989.2 195.652C989.2 192.034 989.959 188.952 991.478 186.406C993.041 183.815 995.051 181.85 997.508 180.51C1000.01 179.125 1002.69 178.433 1005.55 178.433C1008.41 178.433 1011.06 179.125 1013.52 180.51C1016.02 181.85 1018.03 183.815 1019.55 186.406C1021.11 188.952 1021.9 192.034 1021.9 195.652C1021.9 199.27 1021.11 202.374 1019.55 204.965C1018.03 207.511 1016.02 209.454 1013.52 210.794C1011.06 212.134 1008.41 212.804 1005.55 212.804ZM1005.55 207.377C1007.47 207.377 1009.14 206.886 1010.57 205.903C1012 204.92 1013.1 203.558 1013.86 201.816C1014.66 200.074 1015.06 198.019 1015.06 195.652C1015.06 193.329 1014.66 191.297 1013.86 189.555C1013.1 187.768 1012 186.384 1010.57 185.401C1009.14 184.418 1007.47 183.927 1005.55 183.927C1003.63 183.927 1001.95 184.418 1000.52 185.401C999.093 186.384 997.977 187.768 997.173 189.555C996.413 191.297 996.034 193.329 996.034 195.652C996.034 198.019 996.413 200.074 997.173 201.816C997.977 203.558 999.093 204.92 1000.52 205.903C1001.95 206.886 1003.63 207.377 1005.55 207.377ZM1038.15 212.804C1033.91 212.804 1030.49 211.308 1027.9 208.315C1025.31 205.278 1024.01 201.057 1024.01 195.652C1024.01 192.123 1024.71 189.086 1026.09 186.54C1027.52 183.949 1029.35 181.962 1031.58 180.577C1033.82 179.148 1036.19 178.433 1038.69 178.433C1040.61 178.433 1042.33 178.79 1043.85 179.505C1045.36 180.22 1046.77 181.225 1048.07 182.52H1048.27L1047.93 176.691V164.497H1054.57V212H1049.14L1048.6 207.98H1048.4C1047.11 209.275 1045.57 210.414 1043.78 211.397C1041.99 212.335 1040.12 212.804 1038.15 212.804ZM1039.69 207.31C1041.17 207.31 1042.57 206.953 1043.91 206.238C1045.3 205.479 1046.64 204.362 1047.93 202.888V187.344C1046.64 186.138 1045.34 185.289 1044.05 184.798C1042.75 184.262 1041.46 183.994 1040.16 183.994C1038.46 183.994 1036.9 184.463 1035.47 185.401C1034.09 186.339 1032.97 187.679 1032.12 189.421C1031.27 191.163 1030.85 193.218 1030.85 195.585C1030.85 199.337 1031.63 202.24 1033.19 204.295C1034.76 206.305 1036.92 207.31 1039.69 207.31ZM1075.18 212.804C1072.32 212.804 1069.64 212.134 1067.14 210.794C1064.68 209.454 1062.67 207.511 1061.11 204.965C1059.59 202.374 1058.83 199.27 1058.83 195.652C1058.83 192.034 1059.59 188.952 1061.11 186.406C1062.67 183.815 1064.68 181.85 1067.14 180.51C1069.64 179.125 1072.32 178.433 1075.18 178.433C1078.03 178.433 1080.69 179.125 1083.15 180.51C1085.65 181.85 1087.66 183.815 1089.18 186.406C1090.74 188.952 1091.52 192.034 1091.52 195.652C1091.52 199.27 1090.74 202.374 1089.18 204.965C1087.66 207.511 1085.65 209.454 1083.15 210.794C1080.69 212.134 1078.03 212.804 1075.18 212.804ZM1075.18 207.377C1077.1 207.377 1078.77 206.886 1080.2 205.903C1081.63 204.92 1082.72 203.558 1083.48 201.816C1084.29 200.074 1084.69 198.019 1084.69 195.652C1084.69 193.329 1084.29 191.297 1083.48 189.555C1082.72 187.768 1081.63 186.384 1080.2 185.401C1078.77 184.418 1077.1 183.927 1075.18 183.927C1073.25 183.927 1071.58 184.418 1070.15 185.401C1068.72 186.384 1067.6 187.768 1066.8 189.555C1066.04 191.297 1065.66 193.329 1065.66 195.652C1065.66 198.019 1066.04 200.074 1066.8 201.816C1067.6 203.558 1068.72 204.92 1070.15 205.903C1071.58 206.886 1073.25 207.377 1075.18 207.377ZM1110.39 212.804C1107.31 212.804 1104.36 212.29 1101.55 211.263C1098.73 210.236 1096.34 209.052 1094.38 207.712L1097.33 203.424C1099.25 204.764 1101.32 205.814 1103.56 206.573C1105.84 207.332 1108.4 207.712 1111.26 207.712C1113.76 207.712 1115.62 207.265 1116.82 206.372C1118.07 205.479 1118.7 204.429 1118.7 203.223C1118.7 202.642 1118.57 202.106 1118.3 201.615C1118.07 201.124 1117.63 200.677 1116.96 200.275C1116.33 199.828 1115.37 199.404 1114.08 199.002C1112.83 198.6 1111.17 198.176 1109.12 197.729C1104.79 196.836 1101.57 195.607 1099.47 194.044C1097.42 192.481 1096.39 190.471 1096.39 188.014C1096.39 185.245 1097.57 182.967 1099.94 181.18C1102.35 179.349 1105.84 178.433 1110.39 178.433C1112.98 178.433 1115.44 178.88 1117.76 179.773C1120.13 180.622 1122.14 181.604 1123.79 182.721L1120.71 186.875C1119.15 185.848 1117.43 185.044 1115.55 184.463C1113.72 183.838 1111.8 183.525 1109.79 183.525C1108.14 183.525 1106.82 183.726 1105.84 184.128C1104.85 184.485 1104.14 184.977 1103.69 185.602C1103.24 186.227 1103.02 186.92 1103.02 187.679C1103.02 188.93 1103.71 189.912 1105.1 190.627C1106.53 191.297 1108.83 191.967 1112 192.637C1115.57 193.396 1118.32 194.245 1120.24 195.183C1122.21 196.121 1123.55 197.215 1124.26 198.466C1125.02 199.672 1125.4 201.124 1125.4 202.821C1125.4 204.652 1124.82 206.327 1123.66 207.846C1122.5 209.365 1120.8 210.571 1118.57 211.464C1116.38 212.357 1113.65 212.804 1110.39 212.804ZM1152.98 223.792C1148.42 220.129 1144.8 215.752 1142.12 210.66C1139.49 205.568 1138.17 199.806 1138.17 193.374C1138.17 186.942 1139.49 181.18 1142.12 176.088C1144.8 170.951 1148.42 166.574 1152.98 162.956L1156.66 166.105C1152.28 169.902 1149.07 174.011 1147.01 178.433C1144.96 182.855 1143.93 187.835 1143.93 193.374C1143.93 198.913 1144.96 203.893 1147.01 208.315C1149.07 212.692 1152.28 216.802 1156.66 220.643L1152.98 223.792ZM1171.44 223.792L1167.76 220.643C1172.14 216.802 1175.35 212.692 1177.41 208.315C1179.46 203.893 1180.49 198.913 1180.49 193.374C1180.49 187.835 1179.46 182.855 1177.41 178.433C1175.35 174.011 1172.14 169.902 1167.76 166.105L1171.44 162.956C1176 166.574 1179.59 170.951 1182.23 176.088C1184.91 181.18 1186.25 186.942 1186.25 193.374C1186.25 199.806 1184.91 205.568 1182.23 210.66C1179.59 215.752 1176 220.129 1171.44 223.792Z" fill="#FF5200"/>
<path d="M1052.24 894.804C1050.14 894.804 1048.24 894.424 1046.54 893.665C1044.89 892.861 1043.57 891.767 1042.59 890.382C1041.65 888.953 1041.18 887.278 1041.18 885.357C1041.18 881.694 1042.97 878.903 1046.54 876.982C1050.16 875.061 1056.08 873.788 1064.3 873.163C1064.25 871.823 1063.94 870.595 1063.36 869.478C1062.82 868.361 1061.95 867.49 1060.74 866.865C1059.58 866.195 1058.04 865.86 1056.12 865.86C1054.78 865.86 1053.46 866.039 1052.17 866.396C1050.87 866.709 1049.62 867.155 1048.42 867.736C1047.21 868.317 1046.07 868.92 1045 869.545L1042.52 865.056C1043.73 864.341 1045.11 863.627 1046.67 862.912C1048.24 862.153 1049.91 861.55 1051.7 861.103C1053.53 860.656 1055.38 860.433 1057.26 860.433C1060.3 860.433 1062.82 860.991 1064.83 862.108C1066.84 863.225 1068.36 864.81 1069.39 866.865C1070.41 868.92 1070.93 871.399 1070.93 874.302V894H1065.5L1064.97 889.779H1064.76C1063.02 891.119 1061.06 892.303 1058.87 893.33C1056.68 894.313 1054.47 894.804 1052.24 894.804ZM1054.11 889.511C1055.85 889.511 1057.57 889.131 1059.27 888.372C1060.97 887.613 1062.64 886.541 1064.3 885.156V877.384C1060.01 877.697 1056.64 878.188 1054.18 878.858C1051.77 879.528 1050.07 880.377 1049.09 881.404C1048.1 882.387 1047.61 883.548 1047.61 884.888C1047.61 885.96 1047.9 886.853 1048.48 887.568C1049.11 888.238 1049.91 888.729 1050.9 889.042C1051.88 889.355 1052.95 889.511 1054.11 889.511ZM1078.07 894L1071.37 861.237H1077.94L1081.29 879.26C1081.6 880.779 1081.87 882.297 1082.09 883.816C1082.31 885.335 1082.52 886.876 1082.69 888.439H1082.96C1083.19 886.876 1083.45 885.335 1083.77 883.816C1084.08 882.297 1084.39 880.779 1084.7 879.26L1088.26 863.917H1094.15L1097.64 879.26C1097.95 880.779 1098.28 882.297 1098.64 883.816C1099.04 885.335 1099.33 886.876 1099.51 888.439H1099.78C1100.05 886.876 1100.27 885.335 1100.45 883.816C1100.63 882.297 1100.85 880.779 1101.12 879.26L1104.47 861.237H1110.63L1104.13 894H1095.89L1092.68 879.662C1092.41 878.456 1092.14 877.049 1091.87 875.441C1091.65 873.833 1091.4 872.024 1091.14 870.014H1090.87C1090.65 871.89 1090.4 873.632 1090.13 875.24C1089.91 876.803 1089.66 878.277 1089.39 879.662L1086.25 894H1078.07ZM1121.86 894.804C1119.76 894.804 1117.87 894.424 1116.17 893.665C1114.52 892.861 1113.2 891.767 1112.22 890.382C1111.28 888.953 1110.81 887.278 1110.81 885.357C1110.81 881.694 1112.59 878.903 1116.17 876.982C1119.79 875.061 1125.7 873.788 1133.92 873.163C1133.88 871.823 1133.57 870.595 1132.99 869.478C1132.45 868.361 1131.58 867.49 1130.37 866.865C1129.21 866.195 1127.67 865.86 1125.75 865.86C1124.41 865.86 1123.09 866.039 1121.8 866.396C1120.5 866.709 1119.25 867.155 1118.04 867.736C1116.84 868.317 1115.7 868.92 1114.63 869.545L1112.15 865.056C1113.35 864.341 1114.74 863.627 1116.3 862.912C1117.87 862.153 1119.54 861.55 1121.33 861.103C1123.16 860.656 1125.01 860.433 1126.89 860.433C1129.93 860.433 1132.45 860.991 1134.46 862.108C1136.47 863.225 1137.99 864.81 1139.02 866.865C1140.04 868.92 1140.56 871.399 1140.56 874.302V894H1135.13L1134.59 889.779H1134.39C1132.65 891.119 1130.68 892.303 1128.5 893.33C1126.31 894.313 1124.1 894.804 1121.86 894.804ZM1123.74 889.511C1125.48 889.511 1127.2 889.131 1128.9 888.372C1130.6 887.613 1132.27 886.541 1133.92 885.156V877.384C1129.64 877.697 1126.26 878.188 1123.81 878.858C1121.39 879.528 1119.7 880.377 1118.71 881.404C1117.73 882.387 1117.24 883.548 1117.24 884.888C1117.24 885.96 1117.53 886.853 1118.11 887.568C1118.74 888.238 1119.54 888.729 1120.52 889.042C1121.51 889.355 1122.58 889.511 1123.74 889.511ZM1161.03 894V866.597H1146.36V861.237H1167.67V894H1161.03ZM1163.78 854.872C1162.35 854.872 1161.17 854.448 1160.23 853.599C1159.29 852.706 1158.82 851.544 1158.82 850.115C1158.82 848.686 1159.29 847.547 1160.23 846.698C1161.17 845.805 1162.35 845.358 1163.78 845.358C1165.21 845.358 1166.39 845.805 1167.33 846.698C1168.27 847.547 1168.74 848.686 1168.74 850.115C1168.74 851.544 1168.27 852.706 1167.33 853.599C1166.39 854.448 1165.21 854.872 1163.78 854.872ZM1201.67 894.804C1198.37 894.804 1195.76 894.223 1193.84 893.062C1191.96 891.901 1190.62 890.293 1189.82 888.238C1189.01 886.183 1188.61 883.794 1188.61 881.069V866.597H1179.63V861.639L1188.88 861.237L1189.75 850.919H1195.24V861.237H1210.72V866.597H1195.24V881.069C1195.24 882.9 1195.49 884.464 1195.98 885.759C1196.47 887.01 1197.3 887.948 1198.46 888.573C1199.62 889.154 1201.18 889.444 1203.15 889.444C1204.62 889.444 1205.96 889.332 1207.17 889.109C1208.37 888.841 1209.54 888.506 1210.65 888.104L1211.99 892.928C1210.52 893.419 1208.93 893.844 1207.24 894.201C1205.58 894.603 1203.73 894.804 1201.67 894.804ZM1264.47 908.807C1261.39 908.807 1258.71 908.45 1256.43 907.735C1254.2 907.065 1252.48 906.06 1251.27 904.72C1250.06 903.425 1249.46 901.817 1249.46 899.896C1249.46 898.556 1249.91 897.261 1250.8 896.01C1251.69 894.804 1253.01 893.732 1254.75 892.794V892.526C1253.9 891.99 1253.12 891.298 1252.41 890.449C1251.74 889.6 1251.4 888.484 1251.4 887.099C1251.4 886.027 1251.74 884.955 1252.41 883.883C1253.12 882.766 1254.08 881.784 1255.29 880.935V880.667C1254.17 879.818 1253.21 878.679 1252.41 877.25C1251.6 875.821 1251.2 874.146 1251.2 872.225C1251.2 869.768 1251.81 867.669 1253.01 865.927C1254.26 864.185 1255.87 862.845 1257.84 861.907C1259.85 860.924 1262.03 860.433 1264.4 860.433C1266.28 860.433 1267.93 860.701 1269.36 861.237H1282.83V866.463H1274.85C1275.52 867.178 1276.08 868.071 1276.53 869.143C1277.02 870.17 1277.27 871.265 1277.27 872.426C1277.27 874.838 1276.68 876.87 1275.52 878.523C1274.41 880.176 1272.87 881.449 1270.9 882.342C1268.98 883.191 1266.81 883.615 1264.4 883.615C1263.6 883.615 1262.73 883.526 1261.79 883.347C1260.9 883.168 1260 882.9 1259.11 882.543C1258.39 883.034 1257.84 883.548 1257.43 884.084C1257.03 884.62 1256.83 885.245 1256.83 885.96C1256.83 887.121 1257.39 887.992 1258.51 888.573C1259.62 889.109 1261.23 889.377 1263.33 889.377H1270.3C1274.54 889.377 1277.71 889.98 1279.81 891.186C1281.96 892.392 1283.03 894.402 1283.03 897.216C1283.03 899.315 1282.27 901.236 1280.75 902.978C1279.23 904.765 1277.09 906.172 1274.32 907.199C1271.55 908.271 1268.27 908.807 1264.47 908.807ZM1264.4 879.327C1265.65 879.327 1266.79 879.059 1267.82 878.523C1268.85 877.942 1269.67 877.116 1270.3 876.044C1270.92 874.972 1271.24 873.699 1271.24 872.225C1271.24 870.796 1270.92 869.567 1270.3 868.54C1269.67 867.468 1268.85 866.642 1267.82 866.061C1266.79 865.436 1265.65 865.123 1264.4 865.123C1263.15 865.123 1261.99 865.436 1260.92 866.061C1259.89 866.642 1259.06 867.468 1258.44 868.54C1257.81 869.567 1257.5 870.796 1257.5 872.225C1257.5 873.699 1257.81 874.972 1258.44 876.044C1259.06 877.116 1259.89 877.942 1260.92 878.523C1261.99 879.059 1263.15 879.327 1264.4 879.327ZM1265.14 904.184C1267.51 904.184 1269.54 903.894 1271.24 903.313C1272.93 902.777 1274.23 902.062 1275.12 901.169C1276.06 900.32 1276.53 899.382 1276.53 898.355C1276.53 896.881 1275.95 895.898 1274.79 895.407C1273.63 894.96 1271.88 894.737 1269.56 894.737H1263.73C1262.7 894.737 1261.79 894.692 1260.98 894.603C1260.18 894.514 1259.44 894.38 1258.77 894.201C1257.39 894.96 1256.41 895.742 1255.83 896.546C1255.29 897.395 1255.02 898.243 1255.02 899.092C1255.02 900.655 1255.89 901.884 1257.63 902.777C1259.38 903.715 1261.88 904.184 1265.14 904.184ZM1301.9 894.804C1298.59 894.804 1295.58 894.134 1292.85 892.794C1290.17 891.454 1288.05 889.489 1286.49 886.898C1284.92 884.307 1284.14 881.203 1284.14 877.585C1284.14 874.012 1284.92 870.952 1286.49 868.406C1288.09 865.86 1290.17 863.895 1292.72 862.51C1295.26 861.125 1297.99 860.433 1300.89 860.433C1304.11 860.433 1306.83 861.103 1309.06 862.443C1311.3 863.738 1313 865.547 1314.16 867.87C1315.36 870.148 1315.97 872.828 1315.97 875.91C1315.97 876.58 1315.94 877.25 1315.9 877.92C1315.85 878.545 1315.79 879.081 1315.7 879.528H1288.76V874.637H1311.54L1310.07 876.245C1310.07 872.716 1309.27 870.081 1307.66 868.339C1306.05 866.552 1303.86 865.659 1301.09 865.659C1299.17 865.659 1297.41 866.128 1295.8 867.066C1294.24 867.959 1292.98 869.299 1292.05 871.086C1291.11 872.828 1290.64 874.994 1290.64 877.585C1290.64 880.265 1291.15 882.498 1292.18 884.285C1293.25 886.027 1294.68 887.345 1296.47 888.238C1298.3 889.131 1300.4 889.578 1302.77 889.578C1304.6 889.578 1306.27 889.332 1307.79 888.841C1309.31 888.305 1310.81 887.59 1312.28 886.697L1314.63 890.918C1312.97 892.035 1311.07 892.973 1308.93 893.732C1306.79 894.447 1304.44 894.804 1301.9 894.804ZM1340.93 894.804C1337.62 894.804 1335.01 894.223 1333.09 893.062C1331.22 891.901 1329.88 890.293 1329.07 888.238C1328.27 886.183 1327.87 883.794 1327.87 881.069V866.597H1318.89V861.639L1328.13 861.237L1329 850.919H1334.5V861.237H1349.98V866.597H1334.5V881.069C1334.5 882.9 1334.74 884.464 1335.24 885.759C1335.73 887.01 1336.55 887.948 1337.71 888.573C1338.88 889.154 1340.44 889.444 1342.4 889.444C1343.88 889.444 1345.22 889.332 1346.42 889.109C1347.63 888.841 1348.79 888.506 1349.91 888.104L1351.25 892.928C1349.77 893.419 1348.19 893.844 1346.49 894.201C1344.84 894.603 1342.98 894.804 1340.93 894.804ZM1369.71 894.804C1366.59 894.804 1363.64 894.223 1360.87 893.062C1358.1 891.901 1355.69 890.315 1353.63 888.305L1357.52 883.749C1359.22 885.312 1361.14 886.585 1363.28 887.568C1365.43 888.506 1367.7 888.975 1370.12 888.975C1372.89 888.975 1375.03 888.394 1376.55 887.233C1378.07 886.072 1378.83 884.598 1378.83 882.811C1378.83 881.382 1378.49 880.243 1377.82 879.394C1377.15 878.545 1376.24 877.831 1375.07 877.25C1373.96 876.669 1372.66 876.089 1371.19 875.508L1365.02 872.761C1363.55 872.18 1362.08 871.421 1360.6 870.483C1359.17 869.5 1357.99 868.272 1357.05 866.798C1356.11 865.279 1355.64 863.448 1355.64 861.304C1355.64 859.026 1356.27 856.994 1357.52 855.207C1358.77 853.376 1360.51 851.946 1362.75 850.919C1364.98 849.847 1367.55 849.311 1370.45 849.311C1373.18 849.311 1375.72 849.825 1378.09 850.852C1380.46 851.835 1382.49 853.152 1384.19 854.805L1380.7 859.093C1379.27 857.842 1377.71 856.882 1376.01 856.212C1374.36 855.497 1372.39 855.14 1370.12 855.14C1367.84 855.14 1365.98 855.654 1364.56 856.681C1363.13 857.708 1362.41 859.115 1362.41 860.902C1362.41 862.197 1362.77 863.247 1363.48 864.051C1364.24 864.855 1365.2 865.525 1366.36 866.061C1367.57 866.597 1368.8 867.133 1370.05 867.669L1376.01 870.282C1377.84 870.997 1379.47 871.868 1380.9 872.895C1382.38 873.878 1383.54 875.106 1384.39 876.58C1385.24 878.054 1385.66 879.863 1385.66 882.007C1385.66 884.374 1385.01 886.541 1383.72 888.506C1382.47 890.427 1380.64 891.968 1378.22 893.129C1375.86 894.246 1373.02 894.804 1369.71 894.804ZM1406.34 894.804C1403.03 894.804 1400.02 894.134 1397.29 892.794C1394.61 891.454 1392.49 889.489 1390.93 886.898C1389.36 884.307 1388.58 881.203 1388.58 877.585C1388.58 874.012 1389.36 870.952 1390.93 868.406C1392.53 865.86 1394.61 863.895 1397.16 862.51C1399.7 861.125 1402.43 860.433 1405.33 860.433C1408.55 860.433 1411.27 861.103 1413.51 862.443C1415.74 863.738 1417.44 865.547 1418.6 867.87C1419.8 870.148 1420.41 872.828 1420.41 875.91C1420.41 876.58 1420.38 877.25 1420.34 877.92C1420.3 878.545 1420.23 879.081 1420.14 879.528H1393.2V874.637H1415.98L1414.51 876.245C1414.51 872.716 1413.71 870.081 1412.1 868.339C1410.49 866.552 1408.3 865.659 1405.53 865.659C1403.61 865.659 1401.85 866.128 1400.24 867.066C1398.68 867.959 1397.43 869.299 1396.49 871.086C1395.55 872.828 1395.08 874.994 1395.08 877.585C1395.08 880.265 1395.59 882.498 1396.62 884.285C1397.69 886.027 1399.12 887.345 1400.91 888.238C1402.74 889.131 1404.84 889.578 1407.21 889.578C1409.04 889.578 1410.71 889.332 1412.23 888.841C1413.75 888.305 1415.25 887.59 1416.72 886.697L1419.07 890.918C1417.41 892.035 1415.52 892.973 1413.37 893.732C1411.23 894.447 1408.88 894.804 1406.34 894.804ZM1445.37 894.804C1442.07 894.804 1439.45 894.223 1437.53 893.062C1435.66 891.901 1434.32 890.293 1433.51 888.238C1432.71 886.183 1432.31 883.794 1432.31 881.069V866.597H1423.33V861.639L1432.57 861.237L1433.45 850.919H1438.94V861.237H1454.42V866.597H1438.94V881.069C1438.94 882.9 1439.19 884.464 1439.68 885.759C1440.17 887.01 1440.99 887.948 1442.16 888.573C1443.32 889.154 1444.88 889.444 1446.85 889.444C1448.32 889.444 1449.66 889.332 1450.87 889.109C1452.07 888.841 1453.23 888.506 1454.35 888.104L1455.69 892.928C1454.22 893.419 1452.63 893.844 1450.93 894.201C1449.28 894.603 1447.43 894.804 1445.37 894.804ZM1480.19 894.804C1476.88 894.804 1474.27 894.223 1472.35 893.062C1470.47 891.901 1469.13 890.293 1468.33 888.238C1467.52 886.183 1467.12 883.794 1467.12 881.069V866.597H1458.14V861.639L1467.39 861.237L1468.26 850.919H1473.75V861.237H1489.23V866.597H1473.75V881.069C1473.75 882.9 1474 884.464 1474.49 885.759C1474.98 887.01 1475.81 887.948 1476.97 888.573C1478.13 889.154 1479.69 889.444 1481.66 889.444C1483.13 889.444 1484.47 889.332 1485.68 889.109C1486.89 888.841 1488.05 888.506 1489.16 888.104L1490.5 892.928C1489.03 893.419 1487.44 893.844 1485.75 894.201C1484.09 894.603 1482.24 894.804 1480.19 894.804ZM1509.17 894V866.597H1494.5V861.237H1515.8V894H1509.17ZM1511.92 854.872C1510.49 854.872 1509.3 854.448 1508.37 853.599C1507.43 852.706 1506.96 851.544 1506.96 850.115C1506.96 848.686 1507.43 847.547 1508.37 846.698C1509.3 845.805 1510.49 845.358 1511.92 845.358C1513.35 845.358 1514.53 845.805 1515.47 846.698C1516.41 847.547 1516.88 848.686 1516.88 850.115C1516.88 851.544 1516.41 852.706 1515.47 853.599C1514.53 854.448 1513.35 854.872 1511.92 854.872ZM1529.38 894V861.237H1534.81L1535.34 866.53H1535.61C1537.26 864.833 1539.05 863.403 1540.97 862.242C1542.89 861.036 1545.12 860.433 1547.67 860.433C1551.47 860.433 1554.26 861.594 1556.04 863.917C1557.88 866.195 1558.79 869.456 1558.79 873.699V894H1552.16V874.57C1552.16 871.711 1551.62 869.612 1550.55 868.272C1549.52 866.887 1547.78 866.195 1545.32 866.195C1543.58 866.195 1542.02 866.642 1540.63 867.535C1539.25 868.384 1537.71 869.679 1536.01 871.421V894H1529.38ZM1577.79 908.807C1574.71 908.807 1572.03 908.45 1569.75 907.735C1567.52 907.065 1565.8 906.06 1564.59 904.72C1563.39 903.425 1562.79 901.817 1562.79 899.896C1562.79 898.556 1563.23 897.261 1564.13 896.01C1565.02 894.804 1566.34 893.732 1568.08 892.794V892.526C1567.23 891.99 1566.45 891.298 1565.73 890.449C1565.06 889.6 1564.73 888.484 1564.73 887.099C1564.73 886.027 1565.06 884.955 1565.73 883.883C1566.45 882.766 1567.41 881.784 1568.61 880.935V880.667C1567.5 879.818 1566.54 878.679 1565.73 877.25C1564.93 875.821 1564.53 874.146 1564.53 872.225C1564.53 869.768 1565.13 867.669 1566.34 865.927C1567.59 864.185 1569.19 862.845 1571.16 861.907C1573.17 860.924 1575.36 860.433 1577.73 860.433C1579.6 860.433 1581.25 860.701 1582.68 861.237H1596.15V866.463H1588.18C1588.85 867.178 1589.41 868.071 1589.85 869.143C1590.34 870.17 1590.59 871.265 1590.59 872.426C1590.59 874.838 1590.01 876.87 1588.85 878.523C1587.73 880.176 1586.19 881.449 1584.23 882.342C1582.3 883.191 1580.14 883.615 1577.73 883.615C1576.92 883.615 1576.05 883.526 1575.11 883.347C1574.22 883.168 1573.33 882.9 1572.43 882.543C1571.72 883.034 1571.16 883.548 1570.76 884.084C1570.36 884.62 1570.16 885.245 1570.16 885.96C1570.16 887.121 1570.71 887.992 1571.83 888.573C1572.95 889.109 1574.55 889.377 1576.65 889.377H1583.62C1587.87 889.377 1591.04 889.98 1593.14 891.186C1595.28 892.392 1596.35 894.402 1596.35 897.216C1596.35 899.315 1595.59 901.236 1594.07 902.978C1592.56 904.765 1590.41 906.172 1587.64 907.199C1584.87 908.271 1581.59 908.807 1577.79 908.807ZM1577.73 879.327C1578.98 879.327 1580.12 879.059 1581.14 878.523C1582.17 877.942 1583 877.116 1583.62 876.044C1584.25 874.972 1584.56 873.699 1584.56 872.225C1584.56 870.796 1584.25 869.567 1583.62 868.54C1583 867.468 1582.17 866.642 1581.14 866.061C1580.12 865.436 1578.98 865.123 1577.73 865.123C1576.48 865.123 1575.31 865.436 1574.24 866.061C1573.21 866.642 1572.39 867.468 1571.76 868.54C1571.14 869.567 1570.83 870.796 1570.83 872.225C1570.83 873.699 1571.14 874.972 1571.76 876.044C1572.39 877.116 1573.21 877.942 1574.24 878.523C1575.31 879.059 1576.48 879.327 1577.73 879.327ZM1578.46 904.184C1580.83 904.184 1582.86 903.894 1584.56 903.313C1586.26 902.777 1587.55 902.062 1588.45 901.169C1589.38 900.32 1589.85 899.382 1589.85 898.355C1589.85 896.881 1589.27 895.898 1588.11 895.407C1586.95 894.96 1585.21 894.737 1582.89 894.737H1577.06C1576.03 894.737 1575.11 894.692 1574.31 894.603C1573.51 894.514 1572.77 894.38 1572.1 894.201C1570.71 894.96 1569.73 895.742 1569.15 896.546C1568.61 897.395 1568.35 898.243 1568.35 899.092C1568.35 900.655 1569.22 901.884 1570.96 902.777C1572.7 903.715 1575.2 904.184 1578.46 904.184ZM1613.61 894.804C1610.53 894.804 1607.58 894.29 1604.77 893.263C1601.95 892.236 1599.56 891.052 1597.6 889.712L1600.55 885.424C1602.47 886.764 1604.54 887.814 1606.78 888.573C1609.06 889.332 1611.62 889.712 1614.48 889.712C1616.98 889.712 1618.84 889.265 1620.04 888.372C1621.29 887.479 1621.92 886.429 1621.92 885.223C1621.92 884.642 1621.79 884.106 1621.52 883.615C1621.29 883.124 1620.85 882.677 1620.18 882.275C1619.55 881.828 1618.59 881.404 1617.3 881.002C1616.05 880.6 1614.39 880.176 1612.34 879.729C1608.01 878.836 1604.79 877.607 1602.69 876.044C1600.64 874.481 1599.61 872.471 1599.61 870.014C1599.61 867.245 1600.79 864.967 1603.16 863.18C1605.57 861.349 1609.06 860.433 1613.61 860.433C1616.2 860.433 1618.66 860.88 1620.98 861.773C1623.35 862.622 1625.36 863.604 1627.01 864.721L1623.93 868.875C1622.37 867.848 1620.65 867.044 1618.77 866.463C1616.94 865.838 1615.02 865.525 1613.01 865.525C1611.36 865.525 1610.04 865.726 1609.06 866.128C1608.07 866.485 1607.36 866.977 1606.91 867.602C1606.47 868.227 1606.24 868.92 1606.24 869.679C1606.24 870.93 1606.93 871.912 1608.32 872.627C1609.75 873.297 1612.05 873.967 1615.22 874.637C1618.79 875.396 1621.54 876.245 1623.46 877.183C1625.43 878.121 1626.77 879.215 1627.48 880.466C1628.24 881.672 1628.62 883.124 1628.62 884.821C1628.62 886.652 1628.04 888.327 1626.88 889.846C1625.72 891.365 1624.02 892.571 1621.79 893.464C1619.6 894.357 1616.87 894.804 1613.61 894.804ZM1656.2 905.792C1651.64 902.129 1648.02 897.752 1645.34 892.66C1642.71 887.568 1641.39 881.806 1641.39 875.374C1641.39 868.942 1642.71 863.18 1645.34 858.088C1648.02 852.951 1651.64 848.574 1656.2 844.956L1659.88 848.105C1655.51 851.902 1652.29 856.011 1650.23 860.433C1648.18 864.855 1647.15 869.835 1647.15 875.374C1647.15 880.913 1648.18 885.893 1650.23 890.315C1652.29 894.692 1655.51 898.802 1659.88 902.643L1656.2 905.792ZM1674.66 905.792L1670.98 902.643C1675.36 898.802 1678.57 894.692 1680.63 890.315C1682.68 885.893 1683.71 880.913 1683.71 875.374C1683.71 869.835 1682.68 864.855 1680.63 860.433C1678.57 856.011 1675.36 851.902 1670.98 848.105L1674.66 844.956C1679.22 848.574 1682.82 852.951 1685.45 858.088C1688.13 863.18 1689.47 868.942 1689.47 875.374C1689.47 881.806 1688.13 887.568 1685.45 892.66C1682.82 897.752 1679.22 902.129 1674.66 905.792Z" fill="#FF5200"/>
<defs>
<filter id="filter0_d_303_2" x="226" y="251" width="637" height="637" filterUnits="userSpaceOnUse" color-interpolation-filters="sRGB">
<feFlood flood-opacity="0" result="BackgroundImageFix"/>
<feColorMatrix in="SourceAlpha" type="matrix" values="0 0 0 0 0 0 0 0 0 0 0 0 0 0 0 0 0 0 127 0" result="hardAlpha"/>
<feMorphology radius="10" operator="dilate" in="SourceAlpha" result="effect1_dropShadow_303_2"/>
<feOffset dx="30" dy="30"/>
<feGaussianBlur stdDeviation="10"/>
<feComposite in2="hardAlpha" operator="out"/>
<feColorMatrix type="matrix" values="0 0 0 0 0 0 0 0 0 0 0 0 0 0 0 0 0 0 0.25 0"/>
<feBlend mode="normal" in2="BackgroundImageFix" result="effect1_dropShadow_303_2"/>
<feBlend mode="normal" in="SourceGraphic" in2="effect1_dropShadow_303_2" result="shape"/>
</filter>
<filter id="filter1_d_303_2" x="630" y="251" width="635" height="637" filterUnits="userSpaceOnUse" color-interpolation-filters="sRGB">
<feFlood flood-opacity="0" result="BackgroundImageFix"/>
<feColorMatrix in="SourceAlpha" type="matrix" values="0 0 0 0 0 0 0 0 0 0 0 0 0 0 0 0 0 0 127 0" result="hardAlpha"/>
<feMorphology radius="10" operator="dilate" in="SourceAlpha" result="effect1_dropShadow_303_2"/>
<feOffset dx="30" dy="30"/>
<feGaussianBlur stdDeviation="10"/>
<feComposite in2="hardAlpha" operator="out"/>
<feColorMatrix type="matrix" values="0 0 0 0 0 0 0 0 0 0 0 0 0 0 0 0 0 0 0.25 0"/>
<feBlend mode="normal" in2="BackgroundImageFix" result="effect1_dropShadow_303_2"/>
<feBlend mode="normal" in="SourceGraphic" in2="effect1_dropShadow_303_2" result="shape"/>
</filter>
<filter id="filter2_d_303_2" x="1081" y="251" width="637" height="637" filterUnits="userSpaceOnUse" color-interpolation-filters="sRGB">
<feFlood flood-opacity="0" result="BackgroundImageFix"/>
<feColorMatrix in="SourceAlpha" type="matrix" values="0 0 0 0 0 0 0 0 0 0 0 0 0 0 0 0 0 0 127 0" result="hardAlpha"/>
<feMorphology radius="10" operator="dilate" in="SourceAlpha" result="effect1_dropShadow_303_2"/>
<feOffset dx="30" dy="30"/>
<feGaussianBlur stdDeviation="10"/>
<feComposite in2="hardAlpha" operator="out"/>
<feColorMatrix type="matrix" values="0 0 0 0 0 0 0 0 0 0 0 0 0 0 0 0 0 0 0.25 0"/>
<feBlend mode="normal" in2="BackgroundImageFix" result="effect1_dropShadow_303_2"/>
<feBlend mode="normal" in="SourceGraphic" in2="effect1_dropShadow_303_2" result="shape"/>
</filter>
</defs>
</svg>
