<svg width="1920" height="1080" viewBox="0 0 1920 1080" fill="none" xmlns="http://www.w3.org/2000/svg">
<rect width="1920" height="1080" fill="#EAEAEA"/>
<path d="M450.129 728.778C450.129 731.429 449.49 733.914 448.212 736.233C446.982 738.552 445.017 740.422 442.319 741.842C439.669 743.262 436.308 743.972 432.237 743.972H423.93V763H413.99V713.442H432.237C436.071 713.442 439.337 714.105 442.035 715.43C444.733 716.755 446.745 718.578 448.07 720.897C449.443 723.216 450.129 725.843 450.129 728.778ZM431.811 735.949C434.557 735.949 436.592 735.334 437.917 734.103C439.243 732.825 439.905 731.05 439.905 728.778C439.905 723.95 437.207 721.536 431.811 721.536H423.93V735.949H431.811ZM467.127 729.772C468.405 727.689 470.061 726.056 472.097 724.873C474.179 723.69 476.546 723.098 479.197 723.098V733.535H476.57C473.446 733.535 471.079 734.269 469.47 735.736C467.908 737.203 467.127 739.759 467.127 743.404V763H457.187V723.666H467.127V729.772ZM503.358 763.639C499.571 763.639 496.163 762.811 493.134 761.154C490.104 759.45 487.714 757.06 485.963 753.983C484.259 750.906 483.407 747.356 483.407 743.333C483.407 739.31 484.282 735.76 486.034 732.683C487.832 729.606 490.27 727.24 493.347 725.583C496.423 723.879 499.855 723.027 503.642 723.027C507.428 723.027 510.86 723.879 513.937 725.583C517.013 727.24 519.427 729.606 521.179 732.683C522.977 735.76 523.877 739.31 523.877 743.333C523.877 747.356 522.954 750.906 521.108 753.983C519.309 757.06 516.848 759.45 513.724 761.154C510.647 762.811 507.192 763.639 503.358 763.639ZM503.358 754.977C505.156 754.977 506.837 754.551 508.399 753.699C510.008 752.8 511.286 751.474 512.233 749.723C513.179 747.972 513.653 745.842 513.653 743.333C513.653 739.594 512.659 736.73 510.671 734.742C508.73 732.707 506.34 731.689 503.5 731.689C500.66 731.689 498.269 732.707 496.329 734.742C494.435 736.73 493.489 739.594 493.489 743.333C493.489 747.072 494.412 749.96 496.258 751.995C498.151 753.983 500.518 754.977 503.358 754.977ZM546.575 723.027C549.51 723.027 552.089 723.619 554.314 724.802C556.539 725.938 558.29 727.429 559.568 729.275V723.666H569.579V763.284C569.579 766.929 568.845 770.171 567.378 773.011C565.911 775.898 563.71 778.17 560.775 779.827C557.84 781.531 554.29 782.383 550.125 782.383C544.54 782.383 539.948 781.081 536.351 778.478C532.801 775.875 530.789 772.325 530.316 767.828H540.185C540.706 769.627 541.818 771.047 543.522 772.088C545.273 773.177 547.38 773.721 549.841 773.721C552.728 773.721 555.071 772.845 556.87 771.094C558.669 769.39 559.568 766.787 559.568 763.284V757.178C558.29 759.024 556.515 760.562 554.243 761.793C552.018 763.024 549.462 763.639 546.575 763.639C543.262 763.639 540.232 762.787 537.487 761.083C534.742 759.379 532.564 756.989 530.955 753.912C529.393 750.788 528.612 747.214 528.612 743.191C528.612 739.215 529.393 735.689 530.955 732.612C532.564 729.535 534.718 727.169 537.416 725.512C540.161 723.855 543.214 723.027 546.575 723.027ZM559.568 743.333C559.568 740.919 559.095 738.86 558.148 737.156C557.201 735.405 555.923 734.079 554.314 733.18C552.705 732.233 550.977 731.76 549.131 731.76C547.285 731.76 545.581 732.21 544.019 733.109C542.457 734.008 541.179 735.334 540.185 737.085C539.238 738.789 538.765 740.824 538.765 743.191C538.765 745.558 539.238 747.64 540.185 749.439C541.179 751.19 542.457 752.539 544.019 753.486C545.628 754.433 547.332 754.906 549.131 754.906C550.977 754.906 552.705 754.456 554.314 753.557C555.923 752.61 557.201 751.285 558.148 749.581C559.095 747.83 559.568 745.747 559.568 743.333ZM589.227 729.772C590.505 727.689 592.162 726.056 594.197 724.873C596.28 723.69 598.647 723.098 601.297 723.098V733.535H598.67C595.546 733.535 593.18 734.269 591.57 735.736C590.008 737.203 589.227 739.759 589.227 743.404V763H579.287V723.666H589.227V729.772ZM605.436 743.191C605.436 739.215 606.217 735.689 607.779 732.612C609.389 729.535 611.542 727.169 614.24 725.512C616.986 723.855 620.039 723.027 623.399 723.027C626.334 723.027 628.89 723.619 631.067 724.802C633.292 725.985 635.067 727.476 636.392 729.275V723.666H646.403V763H636.392V757.249C635.114 759.095 633.339 760.633 631.067 761.864C628.843 763.047 626.263 763.639 623.328 763.639C620.015 763.639 616.986 762.787 614.24 761.083C611.542 759.379 609.389 756.989 607.779 753.912C606.217 750.788 605.436 747.214 605.436 743.191ZM636.392 743.333C636.392 740.919 635.919 738.86 634.972 737.156C634.026 735.405 632.748 734.079 631.138 733.18C629.529 732.233 627.801 731.76 625.955 731.76C624.109 731.76 622.405 732.21 620.843 733.109C619.281 734.008 618.003 735.334 617.009 737.085C616.063 738.789 615.589 740.824 615.589 743.191C615.589 745.558 616.063 747.64 617.009 749.439C618.003 751.19 619.281 752.539 620.843 753.486C622.453 754.433 624.157 754.906 625.955 754.906C627.801 754.906 629.529 754.456 631.138 753.557C632.748 752.61 634.026 751.285 634.972 749.581C635.919 747.83 636.392 745.747 636.392 743.333ZM704.959 723.098C709.787 723.098 713.669 724.589 716.603 727.571C719.585 730.506 721.076 734.624 721.076 739.925V763H711.136V741.274C711.136 738.197 710.355 735.854 708.793 734.245C707.231 732.588 705.101 731.76 702.403 731.76C699.705 731.76 697.552 732.588 695.942 734.245C694.38 735.854 693.599 738.197 693.599 741.274V763H683.659V741.274C683.659 738.197 682.878 735.854 681.316 734.245C679.754 732.588 677.624 731.76 674.926 731.76C672.181 731.76 670.004 732.588 668.394 734.245C666.832 735.854 666.051 738.197 666.051 741.274V763H656.111V723.666H666.051V728.423C667.329 726.766 668.962 725.465 670.95 724.518C672.986 723.571 675.21 723.098 677.624 723.098C680.701 723.098 683.446 723.761 685.86 725.086C688.274 726.364 690.144 728.21 691.469 730.624C692.747 728.352 694.593 726.53 697.007 725.157C699.469 723.784 702.119 723.098 704.959 723.098ZM779.357 723.098C784.185 723.098 788.066 724.589 791.001 727.571C793.983 730.506 795.474 734.624 795.474 739.925V763H785.534V741.274C785.534 738.197 784.753 735.854 783.191 734.245C781.629 732.588 779.499 731.76 776.801 731.76C774.103 731.76 771.949 732.588 770.34 734.245C768.778 735.854 767.997 738.197 767.997 741.274V763H758.057V741.274C758.057 738.197 757.276 735.854 755.714 734.245C754.152 732.588 752.022 731.76 749.324 731.76C746.579 731.76 744.401 732.588 742.792 734.245C741.23 735.854 740.449 738.197 740.449 741.274V763H730.509V723.666H740.449V728.423C741.727 726.766 743.36 725.465 745.348 724.518C747.383 723.571 749.608 723.098 752.022 723.098C755.099 723.098 757.844 723.761 760.258 725.086C762.672 726.364 764.542 728.21 765.867 730.624C767.145 728.352 768.991 726.53 771.405 725.157C773.866 723.784 776.517 723.098 779.357 723.098ZM841.471 742.481C841.471 743.901 841.377 745.179 841.187 746.315H812.432C812.669 749.155 813.663 751.38 815.414 752.989C817.166 754.598 819.319 755.403 821.875 755.403C825.567 755.403 828.194 753.817 829.756 750.646H840.477C839.341 754.433 837.164 757.557 833.945 760.018C830.727 762.432 826.774 763.639 822.088 763.639C818.302 763.639 814.894 762.811 811.864 761.154C808.882 759.45 806.539 757.06 804.835 753.983C803.179 750.906 802.35 747.356 802.35 743.333C802.35 739.262 803.179 735.689 804.835 732.612C806.492 729.535 808.811 727.169 811.793 725.512C814.775 723.855 818.207 723.027 822.088 723.027C825.828 723.027 829.165 723.832 832.099 725.441C835.081 727.05 837.377 729.346 838.986 732.328C840.643 735.263 841.471 738.647 841.471 742.481ZM831.176 739.641C831.129 737.085 830.206 735.05 828.407 733.535C826.609 731.973 824.408 731.192 821.804 731.192C819.343 731.192 817.26 731.949 815.556 733.464C813.9 734.931 812.882 736.99 812.503 739.641H831.176ZM858.667 729.772C859.945 727.689 861.601 726.056 863.637 724.873C865.719 723.69 868.086 723.098 870.737 723.098V733.535H868.11C864.986 733.535 862.619 734.269 861.01 735.736C859.448 737.203 858.667 739.759 858.667 743.404V763H848.727V723.666H858.667V729.772ZM898.752 763.497C896.953 763.497 895.462 762.953 894.279 761.864C893.143 760.728 892.575 759.332 892.575 757.675C892.575 756.018 893.143 754.646 894.279 753.557C895.462 752.421 896.953 751.853 898.752 751.853C900.503 751.853 901.947 752.421 903.083 753.557C904.219 754.646 904.787 756.018 904.787 757.675C904.787 759.332 904.219 760.728 903.083 761.864C901.947 762.953 900.503 763.497 898.752 763.497ZM927.297 738.15C927.297 733.275 928.386 728.92 930.563 725.086C932.788 721.205 935.793 718.199 939.58 716.069C943.414 713.892 947.698 712.803 952.431 712.803C957.969 712.803 962.821 714.223 966.986 717.063C971.151 719.903 974.062 723.832 975.719 728.849H964.288C963.152 726.482 961.543 724.707 959.46 723.524C957.425 722.341 955.058 721.749 952.36 721.749C949.473 721.749 946.893 722.435 944.621 723.808C942.396 725.133 940.645 727.027 939.367 729.488C938.136 731.949 937.521 734.837 937.521 738.15C937.521 741.416 938.136 744.303 939.367 746.812C940.645 749.273 942.396 751.19 944.621 752.563C946.893 753.888 949.473 754.551 952.36 754.551C955.058 754.551 957.425 753.959 959.46 752.776C961.543 751.545 963.152 749.747 964.288 747.38H975.719C974.062 752.445 971.151 756.397 966.986 759.237C962.868 762.03 958.016 763.426 952.431 763.426C947.698 763.426 943.414 762.361 939.58 760.231C935.793 758.054 932.788 755.048 930.563 751.214C928.386 747.38 927.297 743.025 927.297 738.15ZM1001.68 763.639C997.888 763.639 994.48 762.811 991.451 761.154C988.422 759.45 986.031 757.06 984.28 753.983C982.576 750.906 981.724 747.356 981.724 743.333C981.724 739.31 982.6 735.76 984.351 732.683C986.15 729.606 988.587 727.24 991.664 725.583C994.741 723.879 998.172 723.027 1001.96 723.027C1005.75 723.027 1009.18 723.879 1012.25 725.583C1015.33 727.24 1017.74 729.606 1019.5 732.683C1021.29 735.76 1022.19 739.31 1022.19 743.333C1022.19 747.356 1021.27 750.906 1019.43 753.983C1017.63 757.06 1015.17 759.45 1012.04 761.154C1008.96 762.811 1005.51 763.639 1001.68 763.639ZM1001.68 754.977C1003.47 754.977 1005.15 754.551 1006.72 753.699C1008.33 752.8 1009.6 751.474 1010.55 749.723C1011.5 747.972 1011.97 745.842 1011.97 743.333C1011.97 739.594 1010.98 736.73 1008.99 734.742C1007.05 732.707 1004.66 731.689 1001.82 731.689C998.977 731.689 996.587 732.707 994.646 734.742C992.753 736.73 991.806 739.594 991.806 743.333C991.806 747.072 992.729 749.96 994.575 751.995C996.468 753.983 998.835 754.977 1001.68 754.977ZM1051.28 723.098C1055.97 723.098 1059.76 724.589 1062.64 727.571C1065.53 730.506 1066.97 734.624 1066.97 739.925V763H1057.03V741.274C1057.03 738.15 1056.25 735.76 1054.69 734.103C1053.13 732.399 1051 731.547 1048.3 731.547C1045.56 731.547 1043.38 732.399 1041.77 734.103C1040.21 735.76 1039.43 738.15 1039.43 741.274V763H1029.49V723.666H1039.43V728.565C1040.75 726.861 1042.43 725.536 1044.47 724.589C1046.55 723.595 1048.82 723.098 1051.28 723.098ZM1088 731.831V750.859C1088 752.184 1088.31 753.155 1088.92 753.77C1089.58 754.338 1090.67 754.622 1092.19 754.622H1096.8V763H1090.55C1082.18 763 1077.99 758.929 1077.99 750.788V731.831H1073.3V723.666H1077.99V713.939H1088V723.666H1096.8V731.831H1088ZM1140.52 742.481C1140.52 743.901 1140.42 745.179 1140.23 746.315H1111.48C1111.71 749.155 1112.71 751.38 1114.46 752.989C1116.21 754.598 1118.37 755.403 1120.92 755.403C1124.61 755.403 1127.24 753.817 1128.8 750.646H1139.52C1138.39 754.433 1136.21 757.557 1132.99 760.018C1129.77 762.432 1125.82 763.639 1121.13 763.639C1117.35 763.639 1113.94 762.811 1110.91 761.154C1107.93 759.45 1105.59 757.06 1103.88 753.983C1102.22 750.906 1101.4 747.356 1101.4 743.333C1101.4 739.262 1102.22 735.689 1103.88 732.612C1105.54 729.535 1107.86 727.169 1110.84 725.512C1113.82 723.855 1117.25 723.027 1121.13 723.027C1124.87 723.027 1128.21 723.832 1131.15 725.441C1134.13 727.05 1136.42 729.346 1138.03 732.328C1139.69 735.263 1140.52 738.647 1140.52 742.481ZM1130.22 739.641C1130.17 737.085 1129.25 735.05 1127.45 733.535C1125.65 731.973 1123.45 731.192 1120.85 731.192C1118.39 731.192 1116.31 731.949 1114.6 733.464C1112.95 734.931 1111.93 736.99 1111.55 739.641H1130.22ZM1169.57 723.098C1174.26 723.098 1178.04 724.589 1180.93 727.571C1183.82 730.506 1185.26 734.624 1185.26 739.925V763H1175.32V741.274C1175.32 738.15 1174.54 735.76 1172.98 734.103C1171.42 732.399 1169.29 731.547 1166.59 731.547C1163.84 731.547 1161.66 732.399 1160.06 734.103C1158.49 735.76 1157.71 738.15 1157.71 741.274V763H1147.77V723.666H1157.71V728.565C1159.04 726.861 1160.72 725.536 1162.75 724.589C1164.84 723.595 1167.11 723.098 1169.57 723.098ZM1206.29 731.831V750.859C1206.29 752.184 1206.59 753.155 1207.21 753.77C1207.87 754.338 1208.96 754.622 1210.47 754.622H1215.09V763H1208.84C1200.46 763 1196.27 758.929 1196.27 750.788V731.831H1191.59V723.666H1196.27V713.939H1206.29V723.666H1215.09V731.831H1206.29ZM1236.74 738.15C1236.74 733.275 1237.83 728.92 1240.01 725.086C1242.23 721.205 1245.24 718.199 1249.03 716.069C1252.86 713.892 1257.14 712.803 1261.88 712.803C1267.42 712.803 1272.27 714.223 1276.43 717.063C1280.6 719.903 1283.51 723.832 1285.17 728.849H1273.73C1272.6 726.482 1270.99 724.707 1268.91 723.524C1266.87 722.341 1264.5 721.749 1261.81 721.749C1258.92 721.749 1256.34 722.435 1254.07 723.808C1251.84 725.133 1250.09 727.027 1248.81 729.488C1247.58 731.949 1246.97 734.837 1246.97 738.15C1246.97 741.416 1247.58 744.303 1248.81 746.812C1250.09 749.273 1251.84 751.19 1254.07 752.563C1256.34 753.888 1258.92 754.551 1261.81 754.551C1264.5 754.551 1266.87 753.959 1268.91 752.776C1270.99 751.545 1272.6 749.747 1273.73 747.38H1285.17C1283.51 752.445 1280.6 756.397 1276.43 759.237C1272.31 762.03 1267.46 763.426 1261.88 763.426C1257.14 763.426 1252.86 762.361 1249.03 760.231C1245.24 758.054 1242.23 755.048 1240.01 751.214C1237.83 747.38 1236.74 743.025 1236.74 738.15ZM1303.6 729.772C1304.87 727.689 1306.53 726.056 1308.57 724.873C1310.65 723.69 1313.01 723.098 1315.67 723.098V733.535H1313.04C1309.91 733.535 1307.55 734.269 1305.94 735.736C1304.38 737.203 1303.6 739.759 1303.6 743.404V763H1293.66V723.666H1303.6V729.772ZM1358.93 742.481C1358.93 743.901 1358.83 745.179 1358.64 746.315H1329.89C1330.12 749.155 1331.12 751.38 1332.87 752.989C1334.62 754.598 1336.77 755.403 1339.33 755.403C1343.02 755.403 1345.65 753.817 1347.21 750.646H1357.93C1356.8 754.433 1354.62 757.557 1351.4 760.018C1348.18 762.432 1344.23 763.639 1339.54 763.639C1335.76 763.639 1332.35 762.811 1329.32 761.154C1326.34 759.45 1323.99 757.06 1322.29 753.983C1320.63 750.906 1319.8 747.356 1319.8 743.333C1319.8 739.262 1320.63 735.689 1322.29 732.612C1323.95 729.535 1326.27 727.169 1329.25 725.512C1332.23 723.855 1335.66 723.027 1339.54 723.027C1343.28 723.027 1346.62 723.832 1349.55 725.441C1352.54 727.05 1354.83 729.346 1356.44 732.328C1358.1 735.263 1358.93 738.647 1358.93 742.481ZM1348.63 739.641C1348.58 737.085 1347.66 735.05 1345.86 733.535C1344.06 731.973 1341.86 731.192 1339.26 731.192C1336.8 731.192 1334.71 731.949 1333.01 733.464C1331.35 734.931 1330.34 736.99 1329.96 739.641H1348.63ZM1363.62 743.191C1363.62 739.215 1364.41 735.689 1365.97 732.612C1367.58 729.535 1369.73 727.169 1372.43 725.512C1375.17 723.855 1378.23 723.027 1381.59 723.027C1384.52 723.027 1387.08 723.619 1389.26 724.802C1391.48 725.985 1393.26 727.476 1394.58 729.275V723.666H1404.59V763H1394.58V757.249C1393.3 759.095 1391.53 760.633 1389.26 761.864C1387.03 763.047 1384.45 763.639 1381.52 763.639C1378.2 763.639 1375.17 762.787 1372.43 761.083C1369.73 759.379 1367.58 756.989 1365.97 753.912C1364.41 750.788 1363.62 747.214 1363.62 743.191ZM1394.58 743.333C1394.58 740.919 1394.11 738.86 1393.16 737.156C1392.21 735.405 1390.94 734.079 1389.33 733.18C1387.72 732.233 1385.99 731.76 1384.14 731.76C1382.3 731.76 1380.59 732.21 1379.03 733.109C1377.47 734.008 1376.19 735.334 1375.2 737.085C1374.25 738.789 1373.78 740.824 1373.78 743.191C1373.78 745.558 1374.25 747.64 1375.2 749.439C1376.19 751.19 1377.47 752.539 1379.03 753.486C1380.64 754.433 1382.35 754.906 1384.14 754.906C1385.99 754.906 1387.72 754.456 1389.33 753.557C1390.94 752.61 1392.21 751.285 1393.16 749.581C1394.11 747.83 1394.58 745.747 1394.58 743.333ZM1425.87 731.831V750.859C1425.87 752.184 1426.18 753.155 1426.8 753.77C1427.46 754.338 1428.55 754.622 1430.06 754.622H1434.68V763H1428.43C1420.05 763 1415.86 758.929 1415.86 750.788V731.831H1411.18V723.666H1415.86V713.939H1425.87V723.666H1434.68V731.831H1425.87ZM1459.29 763.639C1455.51 763.639 1452.1 762.811 1449.07 761.154C1446.04 759.45 1443.65 757.06 1441.9 753.983C1440.19 750.906 1439.34 747.356 1439.34 743.333C1439.34 739.31 1440.22 735.76 1441.97 732.683C1443.77 729.606 1446.2 727.24 1449.28 725.583C1452.36 723.879 1455.79 723.027 1459.58 723.027C1463.36 723.027 1466.79 723.879 1469.87 725.583C1472.95 727.24 1475.36 729.606 1477.11 732.683C1478.91 735.76 1479.81 739.31 1479.81 743.333C1479.81 747.356 1478.89 750.906 1477.04 753.983C1475.24 757.06 1472.78 759.45 1469.66 761.154C1466.58 762.811 1463.13 763.639 1459.29 763.639ZM1459.29 754.977C1461.09 754.977 1462.77 754.551 1464.33 753.699C1465.94 752.8 1467.22 751.474 1468.17 749.723C1469.11 747.972 1469.59 745.842 1469.59 743.333C1469.59 739.594 1468.59 736.73 1466.61 734.742C1464.66 732.707 1462.27 731.689 1459.43 731.689C1456.59 731.689 1454.2 732.707 1452.26 734.742C1450.37 736.73 1449.42 739.594 1449.42 743.333C1449.42 747.072 1450.35 749.96 1452.19 751.995C1454.09 753.983 1456.45 754.977 1459.29 754.977ZM1497.04 729.772C1498.32 727.689 1499.98 726.056 1502.01 724.873C1504.1 723.69 1506.46 723.098 1509.11 723.098V733.535H1506.49C1503.36 733.535 1500.99 734.269 1499.39 735.736C1497.82 737.203 1497.04 739.759 1497.04 743.404V763H1487.1V723.666H1497.04V729.772Z" fill="#424242"/>
<path d="M437.485 333.32C435.725 330.093 433.305 327.637 430.225 325.95C427.145 324.263 423.551 323.42 419.445 323.42C414.898 323.42 410.865 324.447 407.345 326.5C403.825 328.553 401.075 331.487 399.095 335.3C397.115 339.113 396.125 343.513 396.125 348.5C396.125 353.633 397.115 358.107 399.095 361.92C401.148 365.733 403.971 368.667 407.565 370.72C411.158 372.773 415.338 373.8 420.105 373.8C425.971 373.8 430.775 372.26 434.515 369.18C438.255 366.027 440.711 361.663 441.885 356.09H415.485V344.32H457.065V357.74C456.038 363.093 453.838 368.043 450.465 372.59C447.091 377.137 442.728 380.803 437.375 383.59C432.095 386.303 426.155 387.66 419.555 387.66C412.148 387.66 405.438 386.01 399.425 382.71C393.485 379.337 388.791 374.68 385.345 368.74C381.971 362.8 380.285 356.053 380.285 348.5C380.285 340.947 381.971 334.2 385.345 328.26C388.791 322.247 393.485 317.59 399.425 314.29C405.438 310.917 412.111 309.23 419.445 309.23C428.098 309.23 435.615 311.357 441.995 315.61C448.375 319.79 452.775 325.693 455.195 333.32H437.485ZM525.108 355.21C525.108 357.41 524.962 359.39 524.668 361.15H480.118C480.485 365.55 482.025 368.997 484.738 371.49C487.451 373.983 490.788 375.23 494.748 375.23C500.468 375.23 504.538 372.773 506.958 367.86H523.568C521.808 373.727 518.435 378.567 513.448 382.38C508.461 386.12 502.338 387.99 495.078 387.99C489.211 387.99 483.931 386.707 479.238 384.14C474.618 381.5 470.988 377.797 468.348 373.03C465.781 368.263 464.498 362.763 464.498 356.53C464.498 350.223 465.781 344.687 468.348 339.92C470.915 335.153 474.508 331.487 479.128 328.92C483.748 326.353 489.065 325.07 495.078 325.07C500.871 325.07 506.041 326.317 510.588 328.81C515.208 331.303 518.765 334.86 521.258 339.48C523.825 344.027 525.108 349.27 525.108 355.21ZM509.158 350.81C509.085 346.85 507.655 343.697 504.868 341.35C502.081 338.93 498.671 337.72 494.638 337.72C490.825 337.72 487.598 338.893 484.958 341.24C482.391 343.513 480.815 346.703 480.228 350.81H509.158ZM532.389 356.31C532.389 350.15 533.599 344.687 536.019 339.92C538.512 335.153 541.849 331.487 546.029 328.92C550.282 326.353 555.012 325.07 560.219 325.07C564.765 325.07 568.725 325.987 572.099 327.82C575.545 329.653 578.295 331.963 580.349 334.75V326.06H595.859V387H580.349V378.09C578.369 380.95 575.619 383.333 572.099 385.24C568.652 387.073 564.655 387.99 560.109 387.99C554.975 387.99 550.282 386.67 546.029 384.03C541.849 381.39 538.512 377.687 536.019 372.92C533.599 368.08 532.389 362.543 532.389 356.31ZM580.349 356.53C580.349 352.79 579.615 349.6 578.149 346.96C576.682 344.247 574.702 342.193 572.209 340.8C569.715 339.333 567.039 338.6 564.179 338.6C561.319 338.6 558.679 339.297 556.259 340.69C553.839 342.083 551.859 344.137 550.319 346.85C548.852 349.49 548.119 352.643 548.119 356.31C548.119 359.977 548.852 363.203 550.319 365.99C551.859 368.703 553.839 370.793 556.259 372.26C558.752 373.727 561.392 374.46 564.179 374.46C567.039 374.46 569.715 373.763 572.209 372.37C574.702 370.903 576.682 368.85 578.149 366.21C579.615 363.497 580.349 360.27 580.349 356.53ZM626.3 335.52C628.28 332.293 630.846 329.763 634 327.93C637.226 326.097 640.893 325.18 645 325.18V341.35H640.93C636.09 341.35 632.423 342.487 629.93 344.76C627.51 347.033 626.3 350.993 626.3 356.64V387H610.9V326.06H626.3V335.52ZM678.692 387.99C673.706 387.99 669.232 387.11 665.272 385.35C661.312 383.517 658.159 381.06 655.812 377.98C653.539 374.9 652.292 371.49 652.072 367.75H667.582C667.876 370.097 669.012 372.04 670.992 373.58C673.046 375.12 675.576 375.89 678.582 375.89C681.516 375.89 683.789 375.303 685.402 374.13C687.089 372.957 687.932 371.453 687.932 369.62C687.932 367.64 686.906 366.173 684.852 365.22C682.872 364.193 679.682 363.093 675.282 361.92C670.736 360.82 666.996 359.683 664.062 358.51C661.202 357.337 658.709 355.54 656.582 353.12C654.529 350.7 653.502 347.437 653.502 343.33C653.502 339.957 654.456 336.877 656.362 334.09C658.342 331.303 661.129 329.103 664.722 327.49C668.389 325.877 672.679 325.07 677.592 325.07C684.852 325.07 690.646 326.903 694.972 330.57C699.299 334.163 701.682 339.04 702.122 345.2H687.382C687.162 342.78 686.136 340.873 684.302 339.48C682.542 338.013 680.159 337.28 677.152 337.28C674.366 337.28 672.202 337.793 670.662 338.82C669.196 339.847 668.462 341.277 668.462 343.11C668.462 345.163 669.489 346.74 671.542 347.84C673.596 348.867 676.786 349.93 681.112 351.03C685.512 352.13 689.142 353.267 692.002 354.44C694.862 355.613 697.319 357.447 699.372 359.94C701.499 362.36 702.599 365.587 702.672 369.62C702.672 373.14 701.682 376.293 699.702 379.08C697.796 381.867 695.009 384.067 691.342 385.68C687.749 387.22 683.532 387.99 678.692 387.99ZM756.925 310.22V387H741.525V310.22H756.925ZM813.531 310.22V357.74C813.531 362.947 814.887 366.943 817.601 369.73C820.314 372.443 824.127 373.8 829.041 373.8C834.027 373.8 837.877 372.443 840.591 369.73C843.304 366.943 844.661 362.947 844.661 357.74V310.22H860.171V357.63C860.171 364.157 858.741 369.693 855.881 374.24C853.094 378.713 849.317 382.087 844.551 384.36C839.857 386.633 834.614 387.77 828.821 387.77C823.101 387.77 817.894 386.633 813.201 384.36C808.581 382.087 804.914 378.713 802.201 374.24C799.487 369.693 798.131 364.157 798.131 357.63V310.22H813.531ZM898.37 387.99C893.383 387.99 888.91 387.11 884.95 385.35C880.99 383.517 877.837 381.06 875.49 377.98C873.217 374.9 871.97 371.49 871.75 367.75H887.26C887.553 370.097 888.69 372.04 890.67 373.58C892.723 375.12 895.253 375.89 898.26 375.89C901.193 375.89 903.467 375.303 905.08 374.13C906.767 372.957 907.61 371.453 907.61 369.62C907.61 367.64 906.583 366.173 904.53 365.22C902.55 364.193 899.36 363.093 894.96 361.92C890.413 360.82 886.673 359.683 883.74 358.51C880.88 357.337 878.387 355.54 876.26 353.12C874.207 350.7 873.18 347.437 873.18 343.33C873.18 339.957 874.133 336.877 876.04 334.09C878.02 331.303 880.807 329.103 884.4 327.49C888.067 325.877 892.357 325.07 897.27 325.07C904.53 325.07 910.323 326.903 914.65 330.57C918.977 334.163 921.36 339.04 921.8 345.2H907.06C906.84 342.78 905.813 340.873 903.98 339.48C902.22 338.013 899.837 337.28 896.83 337.28C894.043 337.28 891.88 337.793 890.34 338.82C888.873 339.847 888.14 341.277 888.14 343.11C888.14 345.163 889.167 346.74 891.22 347.84C893.273 348.867 896.463 349.93 900.79 351.03C905.19 352.13 908.82 353.267 911.68 354.44C914.54 355.613 916.997 357.447 919.05 359.94C921.177 362.36 922.277 365.587 922.35 369.62C922.35 373.14 921.36 376.293 919.38 379.08C917.473 381.867 914.687 384.067 911.02 385.68C907.427 387.22 903.21 387.99 898.37 387.99ZM991.641 355.21C991.641 357.41 991.495 359.39 991.201 361.15H946.651C947.018 365.55 948.558 368.997 951.271 371.49C953.985 373.983 957.321 375.23 961.281 375.23C967.001 375.23 971.071 372.773 973.491 367.86H990.101C988.341 373.727 984.968 378.567 979.981 382.38C974.995 386.12 968.871 387.99 961.611 387.99C955.745 387.99 950.465 386.707 945.771 384.14C941.151 381.5 937.521 377.797 934.881 373.03C932.315 368.263 931.031 362.763 931.031 356.53C931.031 350.223 932.315 344.687 934.881 339.92C937.448 335.153 941.041 331.487 945.661 328.92C950.281 326.353 955.598 325.07 961.611 325.07C967.405 325.07 972.575 326.317 977.121 328.81C981.741 331.303 985.298 334.86 987.791 339.48C990.358 344.027 991.641 349.27 991.641 355.21ZM975.691 350.81C975.618 346.85 974.188 343.697 971.401 341.35C968.615 338.93 965.205 337.72 961.171 337.72C957.358 337.72 954.131 338.893 951.491 341.24C948.925 343.513 947.348 346.703 946.761 350.81H975.691ZM1044.49 322.65V341.9H1070.34V354.11H1044.49V374.46H1073.64V387H1029.09V310.11H1073.64V322.65H1044.49ZM1113.05 372.81L1128.45 326.06H1144.84L1122.29 387H1103.59L1081.15 326.06H1097.65L1113.05 372.81ZM1210.14 355.21C1210.14 357.41 1209.99 359.39 1209.7 361.15H1165.15C1165.51 365.55 1167.05 368.997 1169.77 371.49C1172.48 373.983 1175.82 375.23 1179.78 375.23C1185.5 375.23 1189.57 372.773 1191.99 367.86H1208.6C1206.84 373.727 1203.46 378.567 1198.48 382.38C1193.49 386.12 1187.37 387.99 1180.11 387.99C1174.24 387.99 1168.96 386.707 1164.27 384.14C1159.65 381.5 1156.02 377.797 1153.38 373.03C1150.81 368.263 1149.53 362.763 1149.53 356.53C1149.53 350.223 1150.81 344.687 1153.38 339.92C1155.94 335.153 1159.54 331.487 1164.16 328.92C1168.78 326.353 1174.09 325.07 1180.11 325.07C1185.9 325.07 1191.07 326.317 1195.62 328.81C1200.24 331.303 1203.79 334.86 1206.29 339.48C1208.85 344.027 1210.14 349.27 1210.14 355.21ZM1194.19 350.81C1194.11 346.85 1192.68 343.697 1189.9 341.35C1187.11 338.93 1183.7 337.72 1179.67 337.72C1175.85 337.72 1172.63 338.893 1169.99 341.24C1167.42 343.513 1165.84 346.703 1165.26 350.81H1194.19ZM1236.78 335.52C1238.76 332.293 1241.32 329.763 1244.48 327.93C1247.7 326.097 1251.37 325.18 1255.48 325.18V341.35H1251.41C1246.57 341.35 1242.9 342.487 1240.41 344.76C1237.99 347.033 1236.78 350.993 1236.78 356.64V387H1221.38V326.06H1236.78V335.52ZM1324.15 326.06L1286.42 415.82H1270.03L1283.23 385.46L1258.81 326.06H1276.08L1291.81 368.63L1307.76 326.06H1324.15ZM1328.49 356.31C1328.49 350.15 1329.7 344.687 1332.12 339.92C1334.62 335.153 1337.99 331.487 1342.24 328.92C1346.5 326.353 1351.23 325.07 1356.43 325.07C1360.39 325.07 1364.17 325.95 1367.76 327.71C1371.36 329.397 1374.22 331.67 1376.34 334.53V305.6H1391.96V387H1376.34V377.98C1374.44 380.987 1371.76 383.407 1368.31 385.24C1364.87 387.073 1360.87 387.99 1356.32 387.99C1351.19 387.99 1346.5 386.67 1342.24 384.03C1337.99 381.39 1334.62 377.687 1332.12 372.92C1329.7 368.08 1328.49 362.543 1328.49 356.31ZM1376.45 356.53C1376.45 352.79 1375.72 349.6 1374.25 346.96C1372.79 344.247 1370.81 342.193 1368.31 340.8C1365.82 339.333 1363.14 338.6 1360.28 338.6C1357.42 338.6 1354.78 339.297 1352.36 340.69C1349.94 342.083 1347.96 344.137 1346.42 346.85C1344.96 349.49 1344.22 352.643 1344.22 356.31C1344.22 359.977 1344.96 363.203 1346.42 365.99C1347.96 368.703 1349.94 370.793 1352.36 372.26C1354.86 373.727 1357.5 374.46 1360.28 374.46C1363.14 374.46 1365.82 373.763 1368.31 372.37C1370.81 370.903 1372.79 368.85 1374.25 366.21C1375.72 363.497 1376.45 360.27 1376.45 356.53ZM1403.04 356.31C1403.04 350.15 1404.25 344.687 1406.67 339.92C1409.17 335.153 1412.5 331.487 1416.68 328.92C1420.94 326.353 1425.67 325.07 1430.87 325.07C1435.42 325.07 1439.38 325.987 1442.75 327.82C1446.2 329.653 1448.95 331.963 1451 334.75V326.06H1466.51V387H1451V378.09C1449.02 380.95 1446.27 383.333 1442.75 385.24C1439.31 387.073 1435.31 387.99 1430.76 387.99C1425.63 387.99 1420.94 386.67 1416.68 384.03C1412.5 381.39 1409.17 377.687 1406.67 372.92C1404.25 368.08 1403.04 362.543 1403.04 356.31ZM1451 356.53C1451 352.79 1450.27 349.6 1448.8 346.96C1447.34 344.247 1445.36 342.193 1442.86 340.8C1440.37 339.333 1437.69 338.6 1434.83 338.6C1431.97 338.6 1429.33 339.297 1426.91 340.69C1424.49 342.083 1422.51 344.137 1420.97 346.85C1419.51 349.49 1418.77 352.643 1418.77 356.31C1418.77 359.977 1419.51 363.203 1420.97 365.99C1422.51 368.703 1424.49 370.793 1426.91 372.26C1429.41 373.727 1432.05 374.46 1434.83 374.46C1437.69 374.46 1440.37 373.763 1442.86 372.37C1445.36 370.903 1447.34 368.85 1448.8 366.21C1450.27 363.497 1451 360.27 1451 356.53ZM1539.85 326.06L1502.12 415.82H1485.73L1498.93 385.46L1474.51 326.06H1491.78L1507.51 368.63L1523.46 326.06H1539.85Z" fill="#D61919"/>
<path opacity="0.4" d="M1184.33 469.5L1120.74 510.375V498C1120.74 481.5 1107.19 468 1090.63 468H940.105C923.547 468 910 481.5 910 498V618C910 634.5 923.547 648 940.105 648H1090.63C1107.19 648 1120.74 634.5 1120.74 618V605.625L1184.33 646.5C1191.48 650.25 1196 643.875 1196 640.125V475.5C1196 471.75 1191.86 465 1184.33 469.5ZM1105.68 618C1105.68 626.25 1098.91 633 1090.63 633H940.105C931.826 633 925.053 626.25 925.053 618V498C925.053 489.75 931.826 483 940.105 483H1090.63C1098.91 483 1105.68 489.75 1105.68 498V618ZM1180.95 626.625L1120.74 588V528L1180.95 489.375V626.625Z" fill="#D61919"/>
<g opacity="0.4">
<path d="M672.987 466C663.513 466.101 655.927 466.19 655.927 474.214V488.425V558.466C655.927 558.845 655.894 559.23 655.927 559.601V587.348H821.063V559.814V488.425V474.214C821.063 466.127 813.413 466 803.835 466H673.155C673.08 466 673.061 466 672.987 466Z" fill="#D61919"/>
<path d="M655.89 587.375L630.006 634.919H698.75H712.532H764.468H781.276H846.994L821.11 587.375H781.276H738.5H698.75H655.89Z" fill="#DF7474"/>
<path d="M630.006 634.89V640.269C629.993 640.399 630.006 640.555 630.006 640.689V643.546V645.983C630.006 648.123 631.732 649.849 633.872 649.849H843.128C845.268 649.849 846.994 648.123 846.994 645.983V643.546V640.689C846.994 640.555 847.007 640.399 846.994 640.269V634.89H630.006Z" fill="#DF7474"/>
<path d="M815.03 473.382H661.732V581.257H815.03V473.382Z" fill="#EAEAEA"/>
<path fill-rule="evenodd" clip-rule="evenodd" d="M717.938 618.418H762.033L765.897 632.925H715.908L717.938 618.418Z" fill="#D61919"/>
<path fill-rule="evenodd" clip-rule="evenodd" d="M731.366 636.141C731.267 637.139 731.405 638.028 731.702 638.746C732.72 641.095 735.333 642.079 735.652 642.192C735.652 642.192 737.937 642.192 739.433 642.192C741.096 642.192 742.057 642.192 743.635 642.192C745.131 642.192 747.417 642.192 747.417 642.192C747.417 642.192 750.28 641.252 751.367 638.746C751.664 638.028 751.802 637.139 751.703 636.141H743.635H739.433H731.366Z" fill="#D61919"/>
</g>
<g opacity="0.4">
<path d="M1286.61 620.309H1455.91L1482.14 647.854V654.734H1259V647.899L1286.59 620.309M1299.94 461.005H1441.42C1448.04 461.029 1452.67 466.212 1452.67 472.487V579.945C1452.67 589.802 1447.53 594.551 1437.78 594.551H1396.82C1397.46 597.387 1398.32 600.285 1400.19 602.579C1401.5 604.213 1403.46 605.354 1405.57 605.521C1406.46 605.594 1407.46 605.533 1408.21 606.124C1409.45 607.092 1409.43 609.244 1408.14 610.153C1407.6 610.538 1406.92 610.659 1406.27 610.659H1335.09C1334.19 610.659 1333.26 610.649 1332.42 610.287C1331.94 610.074 1331.52 609.534 1331.64 608.976C1331.9 607.807 1332.85 606.972 1333.74 606.26C1334.91 605.335 1336.42 605.075 1337.68 604.309C1341.16 602.334 1343.34 598.485 1343.71 594.551H1300.18C1294.15 594.551 1288.45 588.947 1288.45 582.221V472.7C1288.45 466.468 1293.69 461 1299.94 461V461.005Z" fill="#D61919"/>
<path d="M1455.82 635.204C1454.64 635.462 1453.4 635.931 1452.65 636.945C1452.26 637.466 1452.3 638.221 1452.72 638.718C1453.28 639.398 1454.1 639.833 1454.92 640.098C1457.19 640.819 1459.71 640.774 1461.93 639.89C1462.85 639.52 1463.99 638.856 1463.96 637.754C1463.94 636.673 1462.84 636.011 1461.92 635.641C1460 634.866 1457.83 634.762 1455.82 635.204ZM1441.09 635.201C1440 635.453 1438.88 635.859 1438.08 636.673C1437.59 637.174 1437.45 638.017 1437.88 638.604C1438.48 639.434 1439.46 639.899 1440.42 640.173C1442.58 640.783 1444.95 640.747 1447.05 639.944C1448.02 639.572 1449.21 638.899 1449.21 637.754C1449.21 636.741 1448.2 636.09 1447.34 635.721C1445.38 634.88 1443.16 634.766 1441.09 635.201ZM1425.43 635.174C1424.19 635.439 1422.85 635.9 1422.08 636.981C1421.6 637.654 1421.89 638.545 1422.48 639.044C1423.77 640.146 1425.52 640.502 1427.16 640.579C1428.85 640.656 1430.62 640.377 1432.11 639.527C1432.8 639.128 1433.57 638.412 1433.39 637.537C1433.2 636.618 1432.31 636.047 1431.5 635.698C1429.6 634.882 1427.45 634.782 1425.43 635.174ZM1409.57 635.19C1408.52 635.412 1407.45 635.768 1406.65 636.516C1406.22 636.92 1405.88 637.555 1406.1 638.162C1406.45 639.133 1407.42 639.681 1408.33 640.005C1410.73 640.855 1413.49 640.831 1415.82 639.785C1416.59 639.443 1417.45 638.865 1417.58 637.958C1417.72 636.988 1416.85 636.292 1416.09 635.9C1414.11 634.877 1411.74 634.753 1409.57 635.19ZM1393.48 635.192C1392.25 635.467 1390.9 635.916 1390.16 637.013C1389.72 637.668 1390 638.516 1390.53 639.01C1391.28 639.706 1392.27 640.087 1393.25 640.307C1395.39 640.785 1397.72 640.708 1399.73 639.79C1400.49 639.439 1401.34 638.863 1401.48 637.956C1401.62 636.992 1400.76 636.29 1400 635.9C1398.01 634.87 1395.65 634.755 1393.48 635.192ZM1377.38 635.19C1376.15 635.462 1374.8 635.918 1374.05 637.011C1373.6 637.67 1373.91 638.509 1374.44 639.01C1375.26 639.779 1376.36 640.148 1377.44 640.366C1379.55 640.787 1381.84 640.667 1383.78 639.713C1384.53 639.346 1385.41 638.715 1385.4 637.772C1385.39 636.884 1384.61 636.265 1383.9 635.9C1381.91 634.877 1379.55 634.75 1377.38 635.19ZM1361.28 635.19C1360.23 635.412 1359.16 635.777 1358.36 636.519C1357.88 636.967 1357.55 637.7 1357.88 638.344C1358.37 639.314 1359.42 639.826 1360.4 640.128C1362.77 640.851 1365.45 640.79 1367.69 639.711C1368.44 639.348 1369.3 638.715 1369.3 637.772C1369.29 636.884 1368.52 636.265 1367.81 635.9C1365.82 634.875 1363.45 634.75 1361.28 635.19ZM1345.4 635.154C1344.32 635.353 1343.24 635.702 1342.38 636.41C1341.84 636.859 1341.42 637.639 1341.78 638.341C1342.28 639.309 1343.32 639.828 1344.3 640.13C1346.62 640.835 1349.22 640.801 1351.44 639.792C1352.25 639.425 1353.21 638.779 1353.2 637.772C1353.2 636.884 1352.42 636.267 1351.71 635.9C1349.79 634.909 1347.51 634.764 1345.4 635.154ZM1329.09 635.192C1328 635.426 1326.85 635.795 1326.06 636.63C1325.69 637.022 1325.4 637.607 1325.61 638.162C1326 639.198 1327.07 639.749 1328.05 640.073C1330.4 640.846 1333.08 640.817 1335.34 639.792C1336.11 639.448 1336.98 638.874 1337.1 637.967C1337.23 636.997 1336.38 636.292 1335.61 635.9C1333.62 634.886 1331.26 634.75 1329.09 635.192ZM1313 635.19C1311.77 635.473 1310.42 635.916 1309.68 637.013C1309.16 637.777 1309.64 638.727 1310.3 639.219C1311.69 640.255 1313.48 640.574 1315.17 640.59C1316.77 640.604 1318.45 640.336 1319.83 639.47C1320.42 639.101 1321.03 638.539 1321.01 637.772C1320.99 636.881 1320.23 636.269 1319.52 635.9C1317.53 634.873 1315.17 634.757 1313 635.19ZM1297.11 635.154C1295.99 635.362 1294.84 635.734 1293.98 636.521C1293.5 636.965 1293.16 637.709 1293.49 638.344C1293.99 639.305 1295.03 639.831 1296.02 640.13C1298.39 640.842 1301.06 640.801 1303.31 639.715C1304.06 639.35 1304.92 638.718 1304.91 637.772C1304.91 636.881 1304.13 636.267 1303.42 635.9C1301.5 634.904 1299.22 634.766 1297.11 635.154ZM1280.8 635.192C1279.53 635.485 1278.09 635.956 1277.4 637.172C1277.04 637.811 1277.39 638.559 1277.86 639.012C1278.6 639.72 1279.6 640.085 1280.58 640.305C1282.77 640.797 1285.18 640.708 1287.21 639.713C1287.97 639.343 1288.83 638.713 1288.82 637.77C1288.81 636.879 1288.04 636.267 1287.33 635.9C1285.34 634.873 1282.97 634.759 1280.8 635.192ZM1449.02 626.129C1447.67 626.333 1446.25 626.741 1445.28 627.757C1444.73 628.326 1444.69 629.282 1445.24 629.867C1446.23 630.912 1447.67 631.348 1449.04 631.529C1451.09 631.801 1453.3 631.626 1455.12 630.577C1455.78 630.194 1456.46 629.532 1456.38 628.7C1456.29 627.84 1455.51 627.267 1454.8 626.913C1453.02 626.038 1450.96 625.879 1449.02 626.129ZM1433.6 626.127C1432.3 626.328 1430.94 626.705 1429.95 627.625C1429.45 628.09 1429.18 628.856 1429.54 629.489C1430.1 630.486 1431.24 630.967 1432.29 631.257C1434.5 631.871 1436.98 631.817 1439.1 630.88C1439.87 630.54 1440.73 629.976 1440.91 629.09C1441.09 628.199 1440.34 627.469 1439.64 627.07C1437.82 626.043 1435.64 625.873 1433.6 626.127ZM1417.73 626.138C1416.39 626.36 1414.97 626.759 1414.01 627.788C1413.53 628.301 1413.45 629.155 1413.9 629.72C1414.72 630.767 1416.06 631.23 1417.32 631.459C1419.24 631.805 1421.29 631.71 1423.11 630.962C1424.02 630.588 1425.11 629.976 1425.18 628.904C1425.24 627.945 1424.31 627.271 1423.52 626.886C1421.73 626.024 1419.67 625.879 1417.73 626.138ZM1401.64 626.138C1400.3 626.367 1398.88 626.757 1397.92 627.786C1397.4 628.339 1397.37 629.271 1397.9 629.84C1398.89 630.917 1400.37 631.366 1401.77 631.54C1403.84 631.796 1406.06 631.599 1407.89 630.506C1408.52 630.123 1409.15 629.473 1409.06 628.695C1408.96 627.825 1408.16 627.246 1407.42 626.886C1405.64 626.018 1403.58 625.879 1401.64 626.138ZM1385.55 626.138C1384.21 626.365 1382.79 626.764 1381.82 627.786C1381.33 628.303 1381.26 629.155 1381.7 629.717C1382.56 630.822 1383.98 631.27 1385.31 631.486C1387.32 631.815 1389.5 631.683 1391.36 630.756C1392.15 630.361 1393.09 629.674 1392.97 628.7C1392.85 627.711 1391.88 627.108 1391.03 626.745C1389.31 626.02 1387.38 625.884 1385.55 626.138ZM1369.45 626.138C1368.11 626.36 1366.7 626.766 1365.73 627.786C1365.2 628.344 1365.19 629.266 1365.7 629.84C1366.64 630.883 1368.05 631.32 1369.39 631.513C1371.46 631.812 1373.69 631.635 1375.55 630.59C1376.24 630.203 1376.96 629.538 1376.87 628.693C1376.77 627.822 1375.97 627.246 1375.23 626.886C1373.45 626.018 1371.39 625.879 1369.45 626.138ZM1353.35 626.138C1352.01 626.36 1350.59 626.761 1349.63 627.788C1349.11 628.348 1349.09 629.269 1349.61 629.84C1350.55 630.874 1351.95 631.329 1353.29 631.515C1355.41 631.812 1357.72 631.635 1359.6 630.504C1360.23 630.123 1360.86 629.473 1360.77 628.695C1360.66 627.763 1359.78 627.174 1358.98 626.813C1357.23 626.02 1355.24 625.882 1353.35 626.138ZM1337.26 626.138C1335.92 626.367 1334.49 626.754 1333.53 627.786C1333.05 628.298 1332.97 629.155 1333.41 629.717C1334.28 630.822 1335.7 631.277 1337.02 631.488C1339.09 631.819 1341.33 631.681 1343.21 630.676C1343.95 630.282 1344.78 629.609 1344.68 628.695C1344.57 627.766 1343.68 627.174 1342.89 626.813C1341.14 626.02 1339.15 625.879 1337.26 626.138ZM1321.16 626.138C1319.82 626.362 1318.4 626.761 1317.44 627.786C1316.92 628.341 1316.89 629.271 1317.42 629.84C1318.32 630.824 1319.65 631.279 1320.92 631.486C1322.88 631.801 1324.98 631.676 1326.81 630.831C1327.62 630.457 1328.53 629.865 1328.59 628.904C1328.65 628.006 1327.82 627.342 1327.09 626.961C1325.28 626.02 1323.15 625.877 1321.16 626.138ZM1305.07 626.138C1303.68 626.38 1302.16 626.773 1301.24 627.917C1300.79 628.473 1300.83 629.321 1301.31 629.849C1302.25 630.887 1303.67 631.323 1305.01 631.515C1307.08 631.812 1309.31 631.633 1311.17 630.59C1311.86 630.203 1312.58 629.541 1312.48 628.695C1312.37 627.766 1311.49 627.178 1310.7 626.816C1308.95 626.018 1306.95 625.882 1305.07 626.138ZM1288.97 626.138C1287.63 626.358 1286.21 626.764 1285.25 627.791C1284.73 628.35 1284.71 629.269 1285.22 629.84C1286.17 630.876 1287.57 631.323 1288.91 631.513C1290.98 631.808 1293.21 631.631 1295.07 630.59C1295.76 630.205 1296.49 629.536 1296.39 628.695C1296.28 627.763 1295.4 627.176 1294.6 626.813C1292.85 626.015 1290.86 625.882 1288.97 626.138ZM1369.65 570.55C1367.12 571.087 1365.38 573.955 1366.15 576.431C1366.87 578.732 1369.53 580.239 1371.87 579.55C1374.1 578.893 1375.64 576.426 1375.12 574.13C1374.59 571.756 1372.06 570.04 1369.65 570.55ZM1307.33 480.027V557.628H1432.81V480.027H1307.33Z" fill="#EAEAEA"/>
</g>
<g opacity="0.4" clip-path="url(#clip0_102_84)">
<path d="M501 593.562C520.882 593.562 537 577.865 537 558.5V500.062C537 480.698 520.882 465 501 465C481.118 465 465 480.698 465 500.062V558.5C465 577.865 481.118 593.562 501 593.562ZM561 535.125H555C551.685 535.125 549 537.74 549 540.969V558.5C549 585.82 524.816 607.741 496.204 605.024C471.266 602.653 453 580.819 453 556.418V540.969C453 537.74 450.315 535.125 447 535.125H441C437.685 535.125 435 537.74 435 540.969V555.637C435 588.376 458.989 617.562 492 621.996V634.469H471C467.685 634.469 465 637.084 465 640.312V646.156C465 649.385 467.685 652 471 652H531C534.315 652 537 649.385 537 646.156V640.312C537 637.084 534.315 634.469 531 634.469H510V622.135C542.141 617.84 567 590.969 567 558.5V540.969C567 537.74 564.315 535.125 561 535.125Z" fill="#D61919"/>
</g>
<defs>
<clipPath id="clip0_102_84">
<rect width="132" height="187" fill="white" transform="translate(435 465)"/>
</clipPath>
</defs>
</svg>
