<svg width="1920" height="1080" viewBox="0 0 1920 1080" fill="none" xmlns="http://www.w3.org/2000/svg">
<g clip-path="url(#clip0_107_2)">
<rect width="1920" height="1080" fill="#FB025A"/>
<path d="M802.596 739.556C804.79 739.556 806.893 740.427 808.445 741.978C809.996 743.529 810.867 745.633 810.867 747.826V827.831H969.52C971.714 827.831 973.817 828.702 975.368 830.253C976.92 831.804 977.791 833.908 977.791 836.101C977.791 838.295 976.92 840.398 975.368 841.949C973.817 843.5 971.714 844.371 969.52 844.371H810.867V1121.05H794.325V747.826C794.325 745.633 795.197 743.529 796.748 741.978C798.299 740.427 800.403 739.556 802.596 739.556Z" fill="#E6E6E6"/>
<path d="M361.084 1119.17L331.26 1119.99C326.73 1120.23 322.248 1118.97 318.499 1116.42C315.26 1114.01 313.775 1110.75 314.426 1107.48L320.295 1077.99C321.401 1072.42 328.219 1068.22 336.506 1067.99L352.976 1067.54C361.263 1067.31 368.303 1071.13 369.714 1076.62L377.202 1105.75C378.033 1108.98 376.729 1112.31 373.628 1114.89C370.026 1117.65 365.62 1119.15 361.084 1119.17Z" fill="#3F3D56"/>
<path d="M542.49 1118.33L512.666 1119.15C508.136 1119.38 503.654 1118.13 499.905 1115.57C496.667 1113.16 495.181 1109.91 495.832 1106.64L501.701 1077.15C502.807 1071.58 509.625 1067.38 517.912 1067.15L534.382 1066.69C542.669 1066.46 549.709 1070.29 551.121 1075.78L558.608 1104.9C559.439 1108.13 558.135 1111.47 555.035 1114.05C551.432 1116.81 547.026 1118.31 542.49 1118.33Z" fill="#3F3D56"/>
<path d="M257.523 867.958C256.161 867.37 255.04 866.336 254.345 865.025C253.651 863.714 253.424 862.205 253.704 860.748C253.984 859.291 254.753 857.973 255.883 857.013C257.014 856.052 258.439 855.506 259.922 855.466L598.984 846.104C599.839 846.08 600.69 846.225 601.489 846.53C602.288 846.835 603.019 847.295 603.64 847.882C604.261 848.47 604.761 849.174 605.11 849.955C605.459 850.735 605.651 851.577 605.675 852.431C605.72 854.157 605.079 855.831 603.893 857.085C602.706 858.339 601.07 859.071 599.345 859.121L260.281 868.482C259.335 868.511 258.393 868.332 257.523 867.958Z" fill="#3F3D56"/>
<path d="M382.655 755.722L285.735 758.398L294.771 1085.59L391.691 1082.92L382.655 755.722Z" fill="#E6E6E6"/>
<path d="M385.113 749.843L366.483 800.591L366.499 1031.79L389.201 1038.3L385.113 749.843Z" fill="#CCCCCC"/>
<path d="M333.69 670.213C315.558 670.728 301.723 702.104 302.056 714.348L302.668 736.515L368.323 734.702L367.711 712.536C367.368 700.292 351.823 669.726 333.69 670.213Z" fill="#3F3D56"/>
<path d="M286.992 893.898C283.605 893.988 280.32 892.73 277.858 890.401C275.397 888.072 273.959 884.862 273.862 881.475L272.866 845.4C272.772 842.012 274.029 838.725 276.359 836.263C278.689 833.8 281.902 832.365 285.291 832.271C288.679 832.177 291.967 833.434 294.429 835.764C296.891 838.094 298.327 841.306 298.421 844.695L299.417 880.769C299.507 884.156 298.249 887.441 295.92 889.902C293.591 892.364 290.38 893.801 286.992 893.898Z" fill="#3F3D56"/>
<path d="M311.587 759.174L311.129 735.333L317.382 735.178L317.84 758.942L323.508 1105.31L317.254 1105.48" fill="#3F3D56"/>
<path d="M393.768 814.925L281.375 818.029C270.64 804.939 269.665 749.171 292.069 738.558L300.854 723.641L368.59 720.334L376.506 736.04C387.651 745.523 393.397 800.942 393.768 814.925Z" fill="#E6E6E6"/>
<path d="M351.465 788.179L323.043 788.963C317.558 789.115 312.895 782 312.65 773.105C312.404 764.21 316.667 756.849 322.152 756.698L350.574 755.913C356.059 755.761 360.722 762.876 360.968 771.771C361.213 780.666 356.95 788.027 351.465 788.179Z" fill="#76072F"/>
<path d="M296.426 949.064L237.838 990.445L227.604 1083.75L295.949 1060.92L296.426 949.064Z" fill="#E6E6E6"/>
<path d="M569.746 751.715L472.826 754.391L481.862 1081.59L578.782 1078.91L569.746 751.715Z" fill="#E6E6E6"/>
<path d="M475.147 750.937L495.089 801.183L501.073 1032.31L478.547 1039.41L475.147 750.937Z" fill="#CCCCCC"/>
<path d="M618.215 660.874C625.23 660.874 630.918 653.248 630.918 643.841C630.918 634.434 625.23 626.808 618.215 626.808C611.199 626.808 605.511 634.434 605.511 643.841C605.511 653.248 611.199 660.874 618.215 660.874Z" fill="#E6E6E6"/>
<path d="M518.889 666.258C500.757 666.773 486.922 698.15 487.255 710.394L487.867 732.56L553.522 730.747L552.91 708.581C552.567 696.337 537.022 665.772 518.889 666.258Z" fill="#3F3D56"/>
<path d="M537.662 766.636L537.204 742.796L543.457 742.639L543.915 766.405L549.583 1112.77L543.329 1112.94" fill="#3F3D56"/>
<path d="M578.967 810.97L466.574 814.074C464.615 802.229 467.15 746.96 477.268 734.603L486.054 719.686L553.789 716.379L561.706 732.085C581.705 733.715 588.7 788.027 578.967 810.97Z" fill="#E6E6E6"/>
<path d="M536.802 789.202L508.38 789.987C502.895 790.138 498.201 781.907 497.918 771.639C497.634 761.372 501.867 752.894 507.351 752.743L535.773 751.958C541.258 751.806 545.952 760.038 546.235 770.305C546.519 780.572 542.286 789.051 536.802 789.202Z" fill="#76072F"/>
<path d="M574.534 925.146L631.173 969.156L637.137 1062.83L569.907 1036.9L574.534 925.146Z" fill="#E6E6E6"/>
<path d="M558.717 491.273C497.944 491.273 428.1 423.839 366.306 455.879C179.208 552.887 204.963 390.559 151.211 330.188L152.976 326.649C193.669 481.856 230.487 729.172 367.118 451.762C401.344 382.272 513.673 489.685 579.793 486.516L579.908 490.77C572.925 491.107 565.861 491.275 558.717 491.273Z" fill="#F2F2F2"/>
<path d="M704.583 500.816C656.137 537.505 559.742 525.915 529.828 588.761C439.256 779.045 361.77 634.095 282.468 618.419L281.738 614.533C361.124 621.117 446.277 610.901 527.99 584.989C601.834 561.575 667.716 526.744 718.511 484.3L721.172 487.622C715.809 492.106 710.279 496.504 704.583 500.816Z" fill="#F2F2F2"/>
<path d="M177.596 492.462C184.612 492.462 190.299 484.836 190.299 475.429C190.299 466.022 184.612 458.396 177.596 458.396C170.58 458.396 164.893 466.022 164.893 475.429C164.893 484.836 170.58 492.462 177.596 492.462Z" fill="#E6E6E6"/>
<path d="M571.596 354.124C578.612 354.124 584.299 346.498 584.299 337.091C584.299 327.684 578.612 320.058 571.596 320.058C564.58 320.058 558.893 327.684 558.893 337.091C558.893 346.498 564.58 354.124 571.596 354.124Z" fill="#E6E6E6"/>
<path d="M293.899 561.207C288.091 565.076 282.147 555.867 288.066 552.17C293.874 548.301 299.818 557.51 293.899 561.207Z" fill="#E6E6E6"/>
<path d="M508.945 258.968C503.137 262.837 497.193 253.628 503.112 249.931C508.92 246.062 514.864 255.271 508.945 258.968Z" fill="#E6E6E6"/>
<path d="M635.684 438.164L631.989 437.354L632.798 433.657L630.335 433.118L629.525 436.814L625.83 436.005L625.29 438.468L628.985 439.278L628.176 442.973L630.639 443.513L631.449 439.817L635.144 440.627L635.684 438.164Z" fill="#E6E6E6"/>
<path d="M297.003 314.319C305.892 314.319 313.097 307.114 313.097 298.226C313.097 289.338 305.892 282.133 297.003 282.133C288.114 282.133 280.909 289.338 280.909 298.226C280.909 307.114 288.114 314.319 297.003 314.319Z" fill="#B5344E"/>
<path d="M414.723 277.856C396.591 278.371 382.757 309.748 383.089 321.992L383.701 344.159L449.357 342.346L448.745 320.179C448.401 307.935 432.856 277.37 414.723 277.856Z" fill="#3F3D56"/>
<path d="M453.818 1117.24L423.994 1118.06C419.464 1118.29 414.982 1117.04 411.233 1114.48C407.994 1112.07 406.508 1108.82 407.16 1105.55L413.028 1076.06C414.134 1070.49 420.953 1066.29 429.24 1066.06L445.71 1065.6C453.997 1065.37 461.037 1069.2 462.448 1074.69L469.936 1103.81C470.766 1107.04 469.463 1110.38 466.362 1112.96C462.76 1115.72 458.354 1117.22 453.818 1117.24Z" fill="#3F3D56"/>
<path d="M467.117 418.97L370.197 421.646L388.462 1083.04L485.382 1080.36L467.117 418.97Z" fill="#E6E6E6"/>
<path d="M428.336 739.122L427.877 715.281L434.13 715.126L434.589 738.891L440.257 1085.26L434.002 1085.43" fill="#3F3D56"/>
<path d="M486.199 479.501L354.877 483.127C352.587 469.288 355.549 404.71 367.371 390.272L370.611 373.036L461.286 370.533L466.03 387.33C479.051 398.41 485.765 463.162 486.199 479.501Z" fill="#E6E6E6"/>
<path d="M464.152 372.566L370.581 375.15C367.127 375.245 364.275 373.432 364.211 371.1C364.202 370.764 364.251 370.429 364.356 370.11L378.891 325.338C379.513 323.42 381.99 322.012 384.882 321.933L446.936 320.219C449.828 320.14 452.379 321.409 453.107 323.289L470.09 367.191C470.958 369.436 468.952 371.773 465.609 372.41C465.128 372.501 464.641 372.553 464.152 372.566Z" fill="#E6E6E6"/>
<path d="M379.811 736.081C378.966 735.719 378.168 735.257 377.434 734.705C376.381 733.967 375.511 732.997 374.891 731.871C374.271 730.744 373.917 729.491 373.856 728.207L370.456 605.09C370.316 599.993 375.306 595.706 381.581 595.532L465.348 593.219C471.624 593.044 476.842 597.052 476.983 602.148L480.383 725.266C480.393 726.552 480.109 727.823 479.552 728.981C478.995 730.14 478.18 731.156 477.17 731.951C474.932 733.774 472.144 734.786 469.258 734.823L385.491 737.135C383.544 737.201 381.605 736.841 379.811 736.081Z" fill="#3F3D56"/>
<path d="M433.426 364.643L405.004 365.428C399.519 365.579 394.881 359.383 394.667 351.618C394.452 343.852 398.741 337.41 404.226 337.258L432.648 336.473C438.133 336.322 442.77 342.518 442.985 350.284C443.199 358.049 438.911 364.492 433.426 364.643Z" fill="#76072F"/>
<path d="M1105.27 1094.86H1072.18V854.457C1099.86 852.473 1120.65 843.999 1120.65 833.846C1120.65 822.219 1093.39 812.794 1059.75 812.794C1026.11 812.794 998.844 822.219 998.844 833.846C998.844 844.097 1020.05 852.633 1048.12 854.51V1094.86H1015.04C1011.85 1094.86 1008.79 1096.13 1006.53 1098.38C1004.27 1100.64 1003.01 1103.7 1003.01 1106.89C1003.01 1110.08 1004.27 1113.14 1006.53 1115.4C1008.79 1117.65 1011.85 1118.92 1015.04 1118.92H1105.27C1108.46 1118.92 1111.52 1117.65 1113.77 1115.4C1116.03 1113.14 1117.3 1110.08 1117.3 1106.89C1117.3 1103.7 1116.03 1100.64 1113.77 1098.38C1111.52 1096.13 1108.46 1094.86 1105.27 1094.86Z" fill="#E6E6E6"/>
<path d="M1038.85 972.815L1027.99 984.656L977.136 948.378L993.175 930.901L1038.85 972.815Z" fill="#A0616A"/>
<path d="M1011.07 1004.07C1011.17 1006.72 1011.8 1009.32 1012.92 1011.72C1014.04 1014.12 1015.63 1016.28 1017.59 1018.06L1018.06 1018.51L1032.32 1002.98L1053.1 980.328L1037.76 966.243L1034.99 969.269L1034.7 969.581L1020.89 976.111L1017.96 977.502L1017.46 977.735L1016.36 989.562V989.573C1014.56 991.517 1013.17 993.8 1012.26 996.289C1011.35 998.777 1010.94 1001.42 1011.07 1004.07Z" fill="#2F2E41"/>
<path d="M1095.16 1090.94L1079.78 1095.62L1054.44 1038.53L1077.14 1031.63L1095.16 1090.94Z" fill="#A0616A"/>
<path d="M968.341 792.02C968.341 792.02 870.15 886.815 932.224 916.157H951.41C955.581 902.602 961.991 889.841 970.376 878.403C972.188 876.031 978.979 876.513 980.865 874.202C992.38 860.087 1004.86 847.965 1013.48 848.446L1011.42 913.944L1008.08 937.306C1006.33 949.384 1055.8 1054.84 1055.8 1054.84L1086.89 1042.62C1086.89 1042.62 1054.49 955.763 1054.11 943.241L1080.07 805.562L968.341 792.02Z" fill="#2F2E41"/>
<path d="M960.153 796.695C960.653 797.409 961.307 798.002 962.066 798.431C963.318 799.138 964.673 799.641 966.083 799.922C988.191 804.939 1060.41 815.341 1079.16 810.379C1081.46 809.778 1082.96 808.933 1083.45 807.82C1085.02 804.305 1084.82 789.453 1083.9 771.519C1083.73 768.159 1080.03 764.521 1079.8 761.006C1079.65 758.369 1082.98 755.888 1082.8 753.207C1081.57 735.073 1079.99 716.594 1078.94 704.913C1078.27 697.403 1077.81 692.708 1077.81 692.708L1089.22 620.806L1088.68 619.927L1088.08 619.627L1051.31 601.426L1049.31 596.309C1048.73 594.835 1047.72 593.569 1046.41 592.675C1045.1 591.781 1043.56 591.299 1041.98 591.291L1017.75 591.191C1016.5 591.184 1015.26 591.477 1014.14 592.046C1013.02 592.615 1012.05 593.443 1011.31 594.462L1004.75 603.551L961.354 631.364L961.521 631.876L981.882 693.832L981.982 698.66V698.671L982.739 737.498L980.636 742.76L983.006 751.393C983.006 751.393 981.916 761.484 976.074 768.982C970.778 775.791 964.036 782.889 960.987 788.652V788.663C959.296 791.845 958.729 794.604 960.153 796.695Z" fill="#76072F"/>
<path d="M927.51 910.526L932.758 917.157C932.758 917.157 981.027 950.924 982.685 954.079L990.313 961.297L1008.77 941.569L999.172 929.538C991.491 919.911 981.566 912.314 970.267 907.411L955.556 894.361L927.51 910.526Z" fill="#2F2E41"/>
<path d="M1101.38 819.091L1092.59 734.016L1090.27 699.003L1114.87 694.554C1114.87 694.554 1113.9 719.59 1117.12 733.716C1120.3 747.655 1117.54 817.223 1117.35 819.083C1119.15 820.699 1120.43 822.825 1121 825.18C1121.57 827.535 1121.42 830.009 1120.55 832.273C1119.69 834.537 1118.16 836.486 1116.16 837.861C1114.16 839.236 1111.8 839.973 1109.37 839.974C1106.95 839.975 1104.58 839.241 1102.59 837.868C1100.59 836.494 1099.05 834.547 1098.19 832.284C1097.32 830.02 1097.16 827.547 1097.73 825.191C1098.3 822.835 1099.57 820.708 1101.38 819.091Z" fill="#A0616A"/>
<path d="M1072.08 690.25L1078.94 704.913L1081.33 710.019L1087.77 743.751L1090.99 747.166L1093.76 758.191L1095.06 757.924L1118.53 753.062L1125.38 751.649C1126.92 749.08 1127.53 746.057 1127.1 743.091C1126.67 740.126 1125.23 737.399 1123.02 735.373C1122.55 734.951 1122.16 734.539 1122.17 734.15C1122.56 710.687 1121.13 667.843 1108.16 650.21C1104.05 644.614 1101.58 639.04 1097.98 635.147C1097.97 635.135 1097.97 635.124 1097.96 635.124L1089.22 620.806L1088.68 619.927L1088.08 619.627L1072.08 690.25Z" fill="#76072F"/>
<path d="M1031.76 585.165C1049.56 585.165 1063.99 570.737 1063.99 552.94C1063.99 535.143 1049.56 520.715 1031.76 520.715C1013.96 520.715 999.531 535.143 999.531 552.94C999.531 570.737 1013.96 585.165 1031.76 585.165Z" fill="#A0616A"/>
<path d="M1070.03 546.006C1070.97 540.591 1071.71 533.571 1069 527.33C1066.72 522.078 1061 517.153 1054.65 517.818C1054.95 516.632 1054.92 515.386 1054.55 514.218C1054.19 513.051 1053.51 512.007 1052.58 511.203C1050.52 509.579 1048.1 508.446 1045.53 507.889C1039.56 506.134 1033.38 504.314 1026.99 504.28C1019.82 504.241 1013.47 506.697 1009.57 511.026L1009.48 511.166L1008.31 513.953C1008.16 514.327 1007.92 514.663 1007.62 514.937C1007.32 515.212 1006.97 515.418 1006.58 515.543C1006.2 515.671 1005.79 515.711 1005.38 515.662C1004.98 515.612 1004.59 515.474 1004.25 515.257C1003.87 515.025 1003.44 514.895 1003 514.881C1002.55 514.866 1002.11 514.968 1001.72 515.175C1001.33 515.383 1001 515.689 1000.76 516.063C1000.52 516.438 1000.39 516.868 1000.37 517.311L1000.31 518.5L998.633 517.834C998.214 517.664 997.756 517.61 997.309 517.676C996.862 517.742 996.44 517.927 996.088 518.21C995.735 518.494 995.465 518.866 995.305 519.289C995.145 519.712 995.1 520.17 995.176 520.616L995.399 522.031C995.039 521.966 994.67 521.974 994.314 522.054C993.957 522.134 993.62 522.286 993.324 522.499C992.899 522.811 992.584 523.25 992.425 523.753C992.265 524.256 992.27 524.796 992.437 525.296C993.735 528.997 995.952 532.308 998.88 534.919C1000.19 536.106 1001.67 537.107 1003.25 537.892C1003.58 538.058 1003.93 538.216 1004.28 538.365C1017.13 543.871 1030.87 546.984 1044.83 547.549C1043.51 550.068 1042.66 552.804 1042.31 555.627C1042.12 557.229 1042.37 558.852 1043.04 560.321C1043.71 561.79 1044.76 563.048 1046.09 563.96C1046.67 564.29 1047.28 564.567 1047.9 564.789C1048.5 565.01 1049.08 565.279 1049.64 565.593C1050.46 566.086 1051.13 566.786 1051.58 567.621C1052.04 568.457 1052.27 569.398 1052.25 570.351C1052.23 571.304 1051.95 572.233 1051.46 573.046C1050.96 573.859 1050.26 574.526 1049.42 574.98C1049.42 574.98 1051.82 577.908 1052.2 577.858C1053.73 577.512 1055.11 576.695 1056.15 575.523C1063.13 568.747 1067.8 558.822 1070.03 546.006Z" fill="#2F2E41"/>
<path d="M1211.12 1044.13L1212.52 1012.64C1227.12 1004.84 1243.41 1000.72 1259.96 1000.63C1237.18 1019.26 1240.02 1055.17 1224.58 1080.22C1219.7 1088 1213.13 1094.58 1205.36 1099.47C1197.6 1104.36 1188.83 1107.45 1179.71 1108.49L1160.64 1120.17C1158.02 1105.58 1158.6 1090.6 1162.33 1076.26C1166.06 1061.92 1172.86 1048.56 1182.25 1037.09C1187.58 1030.72 1193.7 1025.03 1200.45 1020.18C1205.02 1032.23 1211.12 1044.13 1211.12 1044.13Z" fill="#F2F2F2"/>
<path d="M572.146 885.907C568.759 885.996 565.474 884.739 563.012 882.41C560.551 880.08 559.113 876.87 559.016 873.483L558.02 837.408C557.93 834.023 559.189 830.74 561.519 828.281C563.848 825.823 567.059 824.389 570.445 824.296C573.831 824.202 577.116 825.456 579.577 827.783C582.039 830.109 583.477 833.317 583.575 836.703L584.571 872.777C584.661 876.165 583.403 879.45 581.074 881.911C578.744 884.372 575.534 885.809 572.146 885.907Z" fill="#3F3D56"/>
<path d="M1135.86 1017.75C1116.44 1017.75 1095.16 1017.02 1072.02 1015.55C952.291 1007.95 797.211 981.518 635.343 941.13C473.475 900.743 324.157 851.22 214.897 801.688C161.673 777.559 120.824 754.718 93.4857 733.801C64.5416 711.656 51.881 692.353 55.8542 676.431C63.5959 645.412 132.144 638.626 188.286 638.395L188.306 642.906C111.208 643.222 65.7238 655.517 60.2321 677.524C53.2365 705.552 110.289 749.31 216.76 797.579C325.78 847.002 474.823 896.43 636.435 936.755C798.046 977.078 952.841 1003.46 1072.3 1011.05C1188.97 1018.46 1259.89 1006.63 1266.89 978.602C1272.69 955.33 1234.41 921.048 1159.08 882.069L1161.15 878.063C1215.89 906.386 1279.42 947.009 1271.27 979.694C1267.29 995.617 1247.05 1006.71 1211.09 1012.66C1190.59 1016.05 1165.42 1017.75 1135.86 1017.75Z" fill="#CCCCCC"/>
<path d="M105.302 988.2C89.8937 988.2 79.8766 984.372 75.443 976.761C66.6998 961.754 81.343 935.42 118.965 898.494L122.125 901.712C87.1783 936.015 71.9838 961.861 79.3406 974.491C83.9959 982.479 97.8504 985.343 119.415 982.767C140.822 980.212 169.192 972.595 203.737 960.13C274.854 934.466 364.078 891.176 454.972 838.235C545.863 785.295 627.536 729.043 684.946 679.845C695.973 670.393 705.98 661.301 714.691 652.822C726.124 641.963 736.672 630.208 746.234 617.67C759.111 600.187 763.457 586.723 758.803 578.733C751.028 565.389 718.369 566.643 666.835 582.271L665.526 577.954C720.816 561.19 753.511 560.687 762.701 576.463C768.412 586.264 764.093 601.029 749.867 620.345C740.159 633.082 729.448 645.023 717.838 656.054C709.06 664.6 698.981 673.756 687.882 683.27C630.271 732.641 548.362 789.06 457.242 842.132C366.12 895.207 276.634 938.62 205.269 964.373C170.402 976.955 141.697 984.651 119.95 987.246C115.09 987.852 110.199 988.171 105.302 988.2Z" fill="#CCCCCC"/>
<path d="M928.707 802.989C917.557 802.767 857.667 801.048 847.846 801.471C847.29 799.526 828.673 823.383 828.22 823.531C827.918 823.849 827.698 824.236 827.578 824.658C827.458 825.08 827.442 825.525 827.532 825.955C827.621 826.384 827.813 826.786 828.091 827.125C828.369 827.464 828.726 827.731 829.129 827.903C830.224 828.568 926.775 826.782 927.945 827.015C928.451 827.007 928.944 826.856 929.368 826.58C929.792 826.304 930.129 825.913 930.341 825.454L930.987 824.008C931.054 821.536 931.863 808.899 931.137 806.739C931.315 806.333 931.39 805.89 931.354 805.448C931.319 805.007 931.174 804.581 930.933 804.209C930.692 803.837 930.363 803.531 929.974 803.318C929.586 803.105 929.15 802.992 928.707 802.989Z" fill="#E6E6E6"/>
<path opacity="0.17" d="M930.987 824.006C930.42 825.367 929.695 827.078 927.944 827.015L830.149 828.113C829.686 828.107 829.233 827.983 828.832 827.752C828.431 827.522 828.097 827.191 827.86 826.794C827.624 826.396 827.494 825.945 827.482 825.482C827.471 825.02 827.578 824.562 827.795 824.153L930.987 824.006Z" fill="black"/>
<path d="M848.303 801.178C847.25 799.358 821.104 670 818.922 668.918L801.072 647.083L799.476 645.883C797.257 644.665 791.935 645.489 792.415 648.877C796.608 668.981 823.582 783.484 824.173 801.335L827.42 824.077C827.478 824.464 827.617 824.835 827.826 825.165C828.036 825.495 828.313 825.778 828.639 825.995C828.965 826.211 829.332 826.358 829.718 826.424C830.104 826.489 830.499 826.474 830.878 826.378C831.809 826.277 832.698 825.936 833.457 825.388C834.215 824.84 834.818 824.104 835.206 823.251C835.449 822.449 849.525 801.644 848.303 801.178Z" fill="#E6E6E6"/>
<path opacity="0.17" d="M801.067 647.084L835.209 823.256C834.067 826.146 828.725 828.17 827.48 824.38C827.459 824.374 792.455 648.985 792.419 648.881C792.046 644.66 799.022 644.526 801.067 647.084Z" fill="black"/>
<path d="M802.097 654.288L819.436 678.455L838.898 770.878L829.851 778.77L802.097 654.288Z" fill="#76072F"/>
<path d="M917.514 815.451L922.311 815.646C922.387 814.241 922.619 812.849 923.003 811.496C923.725 808.068 924.372 803.993 921.379 804.008C919.349 803.812 918.657 806.384 918.296 809.18C918.203 811.288 917.942 813.385 917.514 815.451Z" fill="#2F2E41"/>
<path d="M889.995 809L893.228 809.12L894.792 809.18C894.762 807.466 895.559 803.933 893.619 803.06C893.31 802.928 892.977 802.861 892.641 802.865C890.822 802.76 890.28 804.143 890.115 805.737C890.01 806.699 890.055 807.722 890.025 808.519C890.025 808.684 890.01 808.85 889.995 809Z" fill="#2F2E41"/>
<path d="M880.415 808.609L883.663 808.744L885.212 808.805C885.182 806.835 886.22 802.534 883.062 802.474C880.144 802.309 880.52 806.023 880.445 808.128C880.445 808.293 880.43 808.459 880.415 808.609Z" fill="#2F2E41"/>
<path d="M870.836 808.233L874.069 808.353L875.633 808.414C875.603 806.459 876.641 802.158 873.483 802.098C870.565 801.918 870.941 805.632 870.866 807.752C870.866 807.917 870.851 808.083 870.836 808.233Z" fill="#2F2E41"/>
<path d="M861.256 807.842L864.505 807.977L866.054 808.038C866.023 806.068 867.061 801.782 863.903 801.707C860.986 801.542 861.362 805.256 861.286 807.361C861.286 807.526 861.271 807.692 861.256 807.842Z" fill="#2F2E41"/>
<path d="M851.677 807.466L854.91 807.587L856.474 807.647C856.444 805.842 857.317 802.068 855.001 801.421H854.986C854.771 801.358 854.548 801.327 854.324 801.331C854.051 801.307 853.776 801.332 853.512 801.406H853.497C851.482 801.933 851.767 805.09 851.707 806.985C851.707 807.15 851.692 807.316 851.677 807.466Z" fill="#2F2E41"/>
<path d="M907.845 806.444L912.642 806.639C912.642 806.459 912.642 806.263 912.657 806.038C912.776 804.894 912.796 803.742 912.717 802.594C912.552 801.331 912.01 800.339 910.491 800.309C908.942 800.218 908.326 801.211 908.085 802.489C908.029 802.706 907.989 802.928 907.965 803.151V803.166C907.845 804.339 907.92 805.602 907.845 806.444Z" fill="#2F2E41"/>
<path d="M898.266 806.053L903.063 806.248C903.165 804.958 903.195 803.663 903.153 802.369C903.018 801.046 902.491 799.963 900.912 799.933C899.318 799.828 898.702 800.91 898.461 802.249C898.236 803.542 898.356 805.09 898.266 806.053Z" fill="#2F2E41"/>
<path d="M888.686 805.677L890.115 805.737L893.483 805.872C893.468 805.151 893.603 804.098 893.619 803.06C893.631 802.749 893.621 802.438 893.588 802.128C893.468 800.73 892.972 799.572 891.333 799.542C889.663 799.452 889.077 800.609 888.866 802.023C888.656 803.286 888.776 804.745 888.686 805.677Z" fill="#2F2E41"/>
<path d="M907.935 815.075L912.732 815.255C912.717 813.3 913.74 809 910.582 808.94C907.424 808.744 908.116 813.105 907.935 815.075Z" fill="#2F2E41"/>
<path d="M898.356 814.684L903.153 814.879C903.138 812.91 904.16 808.609 901.002 808.549C897.844 808.368 898.536 812.729 898.356 814.684Z" fill="#2F2E41"/>
<path d="M888.776 814.308L893.574 814.488C893.559 813.09 894.085 810.504 893.228 809.12C893.041 808.814 892.774 808.564 892.456 808.397C892.138 808.23 891.781 808.153 891.423 808.173C890.931 808.121 890.436 808.243 890.024 808.519C888.491 809.526 888.927 812.714 888.776 814.308Z" fill="#2F2E41"/>
<path d="M879.197 813.917L883.994 814.112C883.979 812.714 884.49 810.143 883.663 808.744C883.477 808.433 883.208 808.179 882.888 808.01C882.567 807.84 882.206 807.761 881.844 807.782C881.351 807.728 880.856 807.85 880.445 808.128C878.911 809.165 879.347 812.338 879.197 813.917Z" fill="#2F2E41"/>
<path d="M869.618 813.541L874.415 813.721C874.4 812.323 874.926 809.737 874.069 808.353C873.882 808.047 873.615 807.797 873.298 807.63C872.98 807.463 872.623 807.386 872.264 807.406C871.772 807.354 871.277 807.476 870.866 807.752C869.332 808.759 869.768 811.947 869.618 813.541Z" fill="#2F2E41"/>
<path d="M860.038 813.15L864.836 813.345C864.821 811.947 865.332 809.376 864.505 807.977C864.319 807.665 864.051 807.41 863.73 807.24C863.409 807.07 863.047 806.992 862.685 807.015C862.193 806.961 861.697 807.083 861.286 807.361C859.753 808.398 860.189 811.571 860.038 813.15Z" fill="#2F2E41"/>
<path d="M850.459 812.774L855.256 812.955C855.241 811.556 855.752 808.985 854.91 807.587C854.725 807.279 854.458 807.028 854.14 806.861C853.822 806.694 853.464 806.617 853.106 806.639C852.613 806.587 852.118 806.71 851.707 806.985C850.173 808.008 850.609 811.18 850.459 812.774Z" fill="#2F2E41"/>
<path d="M904.636 798.874L941.198 721.554L955.022 689.301L933.295 676.931C933.295 676.931 925.895 700.868 918.161 713.12C910.529 725.21 890.012 791.742 889.579 793.562C887.338 794.485 885.43 796.067 884.108 798.099C882.785 800.13 882.111 802.515 882.174 804.937C882.236 807.36 883.033 809.707 884.458 811.667C885.884 813.627 887.871 815.109 890.157 815.915C892.443 816.721 894.919 816.815 897.259 816.183C899.599 815.552 901.693 814.225 903.262 812.378C904.831 810.531 905.803 808.251 906.048 805.839C906.294 803.428 905.801 800.999 904.636 798.874Z" fill="#A0616A"/>
<path d="M904.413 727.288L932.065 743.968L938.336 734.491L942.512 732.337L959.798 702.658L975.08 687.089L995.272 622.553L969.001 626.494L968.966 626.505C964.286 628.987 960.099 633.425 954.36 637.336C936.275 649.659 920.681 689.591 913.252 711.856C913.13 712.221 912.63 712.476 912.049 712.725C909.294 713.902 907.03 715.994 905.639 718.647C904.248 721.301 903.815 724.352 904.413 727.288Z" fill="#76072F"/>
<path d="M785.347 509.463H823.757V528H761.967V411.434H785.347V509.463Z" fill="white"/>
<path d="M924.623 479.737C924.623 483.077 924.4 486.083 923.955 488.755H856.32C856.876 495.435 859.214 500.668 863.334 504.453C867.453 508.238 872.519 510.131 878.531 510.131C887.215 510.131 893.394 506.401 897.068 498.942H922.285C919.613 507.849 914.491 515.197 906.921 520.986C899.35 526.664 890.054 529.503 879.032 529.503C870.125 529.503 862.109 527.555 854.984 523.658C847.97 519.65 842.459 514.028 838.451 506.791C834.554 499.554 832.606 491.204 832.606 481.741C832.606 472.166 834.554 463.761 838.451 456.524C842.347 449.287 847.803 443.721 854.817 439.824C861.831 435.927 869.902 433.979 879.032 433.979C887.827 433.979 895.676 435.872 902.579 439.657C909.593 443.442 914.992 448.842 918.778 455.856C922.674 462.759 924.623 470.719 924.623 479.737ZM900.408 473.057C900.296 467.045 898.125 462.258 893.895 458.695C889.664 455.021 884.487 453.184 878.364 453.184C872.574 453.184 867.676 454.965 863.668 458.528C859.771 461.979 857.377 466.822 856.487 473.057H900.408Z" fill="white"/>
<path d="M968.909 454.687V499.443C968.909 502.56 969.633 504.843 971.08 506.29C972.639 507.626 975.199 508.294 978.762 508.294H989.617V528H974.921C955.215 528 945.362 518.425 945.362 499.276V454.687H934.34V435.482H945.362V412.603H968.909V435.482H989.617V454.687H968.909Z" fill="white"/>
<path d="M1011.11 411.434H1035.66L1017.62 453.518H1001.59L1011.11 411.434Z" fill="white"/>
<path d="M1087.83 529.503C1080.26 529.503 1073.47 528.167 1067.45 525.495C1061.44 522.712 1056.65 518.982 1053.09 514.306C1049.64 509.63 1047.75 504.453 1047.41 498.775H1070.96C1071.41 502.338 1073.13 505.288 1076.14 507.626C1079.25 509.964 1083.1 511.133 1087.66 511.133C1092.11 511.133 1095.57 510.242 1098.01 508.461C1100.58 506.68 1101.86 504.397 1101.86 501.614C1101.86 498.608 1100.3 496.381 1097.18 494.934C1094.17 493.375 1089.33 491.705 1082.65 489.924C1075.75 488.254 1070.07 486.528 1065.62 484.747C1061.27 482.966 1057.49 480.238 1054.26 476.564C1051.14 472.89 1049.58 467.936 1049.58 461.701C1049.58 456.58 1051.03 451.904 1053.93 447.673C1056.93 443.442 1061.16 440.102 1066.62 437.653C1072.19 435.204 1078.7 433.979 1086.16 433.979C1097.18 433.979 1105.97 436.762 1112.54 442.329C1119.11 447.784 1122.73 455.188 1123.4 464.54H1101.02C1100.69 460.866 1099.13 457.971 1096.34 455.856C1093.67 453.629 1090.05 452.516 1085.49 452.516C1081.26 452.516 1077.97 453.295 1075.64 454.854C1073.41 456.413 1072.3 458.584 1072.3 461.367C1072.3 464.484 1073.86 466.878 1076.97 468.548C1080.09 470.107 1084.93 471.721 1091.5 473.391C1098.18 475.061 1103.69 476.787 1108.03 478.568C1112.38 480.349 1116.11 483.133 1119.22 486.918C1122.45 490.592 1124.12 495.491 1124.23 501.614C1124.23 506.958 1122.73 511.745 1119.72 515.976C1116.83 520.207 1112.6 523.547 1107.03 525.996C1101.58 528.334 1095.18 529.503 1087.83 529.503Z" fill="white"/>
<path d="M1249.35 468.214C1255.92 469.439 1261.32 472.723 1265.55 478.067C1269.78 483.411 1271.9 489.534 1271.9 496.437C1271.9 502.672 1270.34 508.183 1267.22 512.97C1264.21 517.646 1259.82 521.32 1254.03 523.992C1248.24 526.664 1241.39 528 1233.49 528H1183.22V411.434H1231.31C1239.22 411.434 1246.01 412.714 1251.69 415.275C1257.48 417.836 1261.82 421.398 1264.71 425.963C1267.72 430.528 1269.22 435.705 1269.22 441.494C1269.22 448.285 1267.39 453.963 1263.71 458.528C1260.15 463.093 1255.36 466.321 1249.35 468.214ZM1206.6 459.53H1227.97C1233.54 459.53 1237.83 458.305 1240.83 455.856C1243.84 453.295 1245.34 449.677 1245.34 445.001C1245.34 440.325 1243.84 436.707 1240.83 434.146C1237.83 431.585 1233.54 430.305 1227.97 430.305H1206.6V459.53ZM1230.15 508.962C1235.82 508.962 1240.22 507.626 1243.34 504.954C1246.57 502.282 1248.18 498.497 1248.18 493.598C1248.18 488.588 1246.51 484.691 1243.17 481.908C1239.83 479.013 1235.32 477.566 1229.64 477.566H1206.6V508.962H1230.15Z" fill="white"/>
<path d="M1377.87 435.482V528H1354.32V516.31C1351.32 520.318 1347.36 523.491 1342.47 525.829C1337.68 528.056 1332.45 529.169 1326.77 529.169C1319.53 529.169 1313.13 527.666 1307.56 524.66C1302 521.543 1297.6 517.034 1294.37 511.133C1291.25 505.121 1289.69 497.996 1289.69 489.757V435.482H1313.07V486.417C1313.07 493.765 1314.91 499.443 1318.58 503.451C1322.26 507.348 1327.27 509.296 1333.61 509.296C1340.07 509.296 1345.14 507.348 1348.81 503.451C1352.49 499.443 1354.32 493.765 1354.32 486.417V435.482H1377.87Z" fill="white"/>
<path d="M1412.79 424.46C1408.68 424.46 1405.22 423.18 1402.44 420.619C1399.77 417.947 1398.43 414.663 1398.43 410.766C1398.43 406.869 1399.77 403.641 1402.44 401.08C1405.22 398.408 1408.68 397.072 1412.79 397.072C1416.91 397.072 1420.31 398.408 1422.98 401.08C1425.77 403.641 1427.16 406.869 1427.16 410.766C1427.16 414.663 1425.77 417.947 1422.98 420.619C1420.31 423.18 1416.91 424.46 1412.79 424.46ZM1424.32 435.482V528H1400.94V435.482H1424.32Z" fill="white"/>
<path d="M1470.8 404.42V528H1447.42V404.42H1470.8Z" fill="white"/>
<path d="M1487.88 481.407C1487.88 472.055 1489.72 463.761 1493.4 456.524C1497.18 449.287 1502.3 443.721 1508.76 439.824C1515.22 435.927 1522.4 433.979 1530.3 433.979C1536.31 433.979 1542.05 435.315 1547.5 437.987C1552.96 440.548 1557.3 443.999 1560.53 448.341V404.42H1584.24V528H1560.53V514.306C1557.64 518.871 1553.57 522.545 1548.34 525.328C1543.11 528.111 1537.04 529.503 1530.14 529.503C1522.34 529.503 1515.22 527.499 1508.76 523.491C1502.3 519.483 1497.18 513.861 1493.4 506.624C1489.72 499.276 1487.88 490.87 1487.88 481.407ZM1560.7 481.741C1560.7 476.063 1559.58 471.22 1557.36 467.212C1555.13 463.093 1552.12 459.975 1548.34 457.86C1544.55 455.633 1540.49 454.52 1536.15 454.52C1531.81 454.52 1527.8 455.578 1524.12 457.693C1520.45 459.808 1517.44 462.926 1515.11 467.045C1512.88 471.053 1511.77 475.84 1511.77 481.407C1511.77 486.974 1512.88 491.872 1515.11 496.103C1517.44 500.222 1520.45 503.395 1524.12 505.622C1527.91 507.849 1531.92 508.962 1536.15 508.962C1540.49 508.962 1544.55 507.904 1548.34 505.789C1552.12 503.562 1555.13 500.445 1557.36 496.437C1559.58 492.318 1560.7 487.419 1560.7 481.741Z" fill="white"/>
</g>
<defs>
<clipPath id="clip0_107_2">
<rect width="1920" height="1080" fill="white"/>
</clipPath>
</defs>
</svg>
