<svg width="512" height="512" viewBox="0 0 512 512" fill="none" xmlns="http://www.w3.org/2000/svg">
<path fill-rule="evenodd" clip-rule="evenodd" d="M324.108 86.6619C308.645 62.3615 279.5 49.5405 265.692 47.5681C222.772 41.5718 186.077 84.6552 176.626 101.059C176.626 101.059 176.567 101.17 176.452 101.387C176.345 101.589 176.191 101.881 175.99 102.261C224.006 131.857 253.819 193.624 262.568 220.788C274.722 211.438 345.32 194.268 377.728 187.508C352.761 138.637 331.169 97.7574 324.108 86.6619ZM29.8772 406.605C37.2733 369.813 127.973 194.038 162.972 127.059C184.902 147.279 229.884 196.759 236.138 234.595C211.811 251.558 163.158 297.87 163.158 347.418C184.591 304.024 272.036 223.943 392.749 217.237L391.898 215.389C407.662 246.561 423.912 279.203 438.113 308.363C399.61 302.368 320.294 327.957 288.21 340.712L288.337 340.858C246.098 359.764 170.219 407.953 120.359 451.019C85.8449 480.831 20.6952 452.28 29.8772 406.605ZM306.512 361.545C327.081 403.819 382.25 449.89 411.29 458.663C488.091 480.546 488.139 429.968 479.908 400.304C477.627 392.084 466.132 366.671 450.294 333.578C425.538 331.809 362.311 334.95 306.512 361.545Z" fill="#FF5200"/>
</svg>
